<svg xmlns="http://www.w3.org/2000/svg" xmlns:xlink="http://www.w3.org/1999/xlink" width="32.843" height="45" viewBox="0 0 32.843 45">
  <defs>
    <clipPath id="clip-path">
      <rect id="Retângulo_7" data-name="Retângulo 7" width="32.843" height="45" transform="translate(0 0)" fill="#222137"/>
    </clipPath>
  </defs>
  <g id="Grupo_6" data-name="Grupo 6" transform="translate(0 0)" clip-path="url(#clip-path)">
    <path id="Caminho_15" data-name="Caminho 15" d="M32.446,26.98a5.936,5.936,0,0,0-2.726-2.667l-.041-.022c-.7-.378-1.491-.806-1.488-1.791s.791-1.4,1.487-1.762l.043-.022a5.758,5.758,0,0,0,2.724-2.653c1.41-4.731-1.166-10.055-4.346-13.235A16.574,16.574,0,0,0,16.463,0,16.324,16.324,0,0,0,4.872,4.872,16.324,16.324,0,0,0,0,16.464V28.537A16.327,16.327,0,0,0,4.871,40.129,16.325,16.325,0,0,0,16.462,45h0A16.573,16.573,0,0,0,28.1,40.173c3.184-3.184,5.761-8.5,4.347-13.193M26.964,39.038a14.961,14.961,0,0,1-10.5,4.358A14.97,14.97,0,0,1,5.942,38.945,14.583,14.583,0,0,1,1.6,28.536V16.464A14.585,14.585,0,0,1,5.942,6.055a14.972,14.972,0,0,1,10.52-4.45h0a14.957,14.957,0,0,1,10.5,4.358c2.873,2.873,5.184,7.642,3.869,11.817l-.009.021a8.374,8.374,0,0,1-2.794,2.962c-.658.481-1.2.944-1.2,1.738,0,.909.718,1.416,1.412,1.906l.066.046a7.742,7.742,0,0,1,2.519,2.78l.009.021c1.319,4.149-.993,8.908-3.869,11.784" fill="#222137"/>
    <path id="Caminho_16" data-name="Caminho 16" d="M28.607,27.736a10.617,10.617,0,0,0-2.168-2.806,3.494,3.494,0,0,1-1.374-2.43,3.1,3.1,0,0,1,1.127-2.169l.1-.1a11.613,11.613,0,0,0,2.318-2.944c1.031-3.4-.9-7.316-3.277-9.691a12.632,12.632,0,0,0-8.867-3.681h0A12.639,12.639,0,0,0,7.587,7.7a12.285,12.285,0,0,0-3.672,8.767V28.537A12.665,12.665,0,0,0,16.462,41.085h.077A12.53,12.53,0,0,0,25.33,37.4c2.377-2.376,4.31-6.286,3.277-9.668M24.2,36.27a11.1,11.1,0,0,1-7.732,3.211H16.4a10.72,10.72,0,0,1-7.568-3.173,11.1,11.1,0,0,1-3.312-7.77V16.464A11.111,11.111,0,0,1,8.843,8.673,10.684,10.684,0,0,1,16.377,5.52h.087A11.072,11.072,0,0,1,24.2,8.731c3,3,3.42,6.331,2.864,8.268l-.006.018A11,11,0,0,1,25.719,19c-.859,1.1-1.746,2.239-1.747,3.5s.893,2.416,1.756,3.528A11.083,11.083,0,0,1,27.054,28l.006.017c.556,1.931.14,5.252-2.864,8.256" fill="#222137"/>
    <path id="Caminho_17" data-name="Caminho 17" d="M24.793,28.49a15.52,15.52,0,0,0-1.091-1.9A8.025,8.025,0,0,1,22.03,22.5,8.03,8.03,0,0,1,23.7,18.407a15.393,15.393,0,0,0,1.092-1.9c.526-1.355.053-3.86-2.231-6.144a8.691,8.691,0,0,0-6.1-2.532A8.725,8.725,0,0,0,7.83,16.463V28.536a8.725,8.725,0,0,0,8.632,8.633h0a8.687,8.687,0,0,0,6.1-2.532c1.6-1.6,2.982-4.208,2.229-6.147M21.431,33.5A7.153,7.153,0,0,1,16.5,35.565h-.038a7.177,7.177,0,0,1-5.026-2.172,6.8,6.8,0,0,1-2-4.858V16.463a6.822,6.822,0,0,1,2.023-4.894,7.1,7.1,0,0,1,5.005-2.134h0a6.992,6.992,0,0,1,4.969,2.06c1.941,1.931,2.146,3.906,1.732,5.01a17.784,17.784,0,0,1-.987,1.916A8.852,8.852,0,0,0,20.657,22.5a8.8,8.8,0,0,0,1.514,4.071,17.988,17.988,0,0,1,.991,1.921c.415,1.107.21,3.082-1.731,5.013" fill="#222137"/>
    <path id="Caminho_18" data-name="Caminho 18" d="M20.975,28.566c-.18-.64-.429-1.3-.67-1.941A11.961,11.961,0,0,1,19.284,22.5a11.972,11.972,0,0,1,1.021-4.127c.241-.639.491-1.3.671-1.942a3.144,3.144,0,0,0-.653-2.74,5.241,5.241,0,0,0-3.86-1.945,4.764,4.764,0,0,0-4.717,4.717V28.537a4.764,4.764,0,0,0,4.716,4.717h0a5.239,5.239,0,0,0,3.858-1.944,3.141,3.141,0,0,0,.653-2.744m-2.054,1.887a3.457,3.457,0,0,1-2.455,1.2H16.4a2.946,2.946,0,0,1-2.044-.849,3.24,3.24,0,0,1-1-2.262V16.463a3.25,3.25,0,0,1,1.01-2.275,2.912,2.912,0,0,1,2.106-.838,3.384,3.384,0,0,1,2.45,1.186,2.4,2.4,0,0,1,.584,1.945c-.094.678-.221,1.363-.344,2.025a22.028,22.028,0,0,0-.492,3.994,22.006,22.006,0,0,0,.492,3.993c.123.663.25,1.348.344,2.027a2.391,2.391,0,0,1-.579,1.933" fill="#222137"/>
    <path id="Caminho_19" data-name="Caminho 19" d="M17.145,28.538c-.072-4.063-.072-8.013,0-12.077a.809.809,0,0,0-.231-.581.722.722,0,0,0-.516-.219.772.772,0,0,0-.737.8V28.537a.772.772,0,0,0,.737.8.718.718,0,0,0,.516-.219.808.808,0,0,0,.231-.582" fill="#222137"/>
  </g>
</svg>
