<svg xmlns="http://www.w3.org/2000/svg" width="207.544" height="19.631" viewBox="0 0 207.544 19.631">
  <g id="Grupo_33701" data-name="Grupo 33701" transform="translate(1.498 0.734)">
    <path id="Caminho_13" data-name="Caminho 13" d="M521.071,1042.264c-1.948-1.339-12.516-5.516-20.294-8.541-17.664-6.869-38.63-1.774-53.939,1.947-9.287,2.257-16.623,4.04-21.111,2.837-3.75-1-6.233-2.9-7.381-5.619-1.982-4.705.946-10.014,1.072-10.238l1.312.737,1.306.729c-.023.042-2.337,4.276-.92,7.619.772,1.82,2.584,3.124,5.388,3.875,3.748,1,11.106-.784,19.626-2.855,8.05-1.956,17.173-4.174,26.759-5.057,11.247-1.036,20.725.02,28.976,3.229,16.211,6.3,19.628,7.986,20.906,8.865Z" transform="translate(-419.159 -1023.384)" fill="#f41f45"/>
    <path id="Caminho_14" data-name="Caminho 14" d="M419.195,1042.281l-1.7-2.472c1.271-.874,4.744-2.613,20.867-8.882,8.251-3.209,17.73-4.265,28.976-3.229,9.585.883,18.709,3.1,26.759,5.057,8.52,2.071,15.878,3.859,19.625,2.855,2.8-.751,4.616-2.055,5.388-3.875,1.417-3.343-.9-7.576-.92-7.619l2.617-1.466c.126.224,3.054,5.532,1.072,10.238-1.147,2.724-3.631,4.615-7.381,5.619-4.488,1.2-11.823-.58-21.11-2.837-15.309-3.72-36.275-8.816-53.939-1.947C427.357,1038.425,420.731,1041.225,419.195,1042.281Z" transform="translate(-316.52 -1023.384)" fill="#f41f45"/>
  </g>
</svg>
