<svg xmlns="http://www.w3.org/2000/svg" xmlns:xlink="http://www.w3.org/1999/xlink" width="155.924" height="67.498" viewBox="0 0 155.924 67.498">
  <defs>
    <clipPath id="clip-path">
      <rect id="Retângulo_4040" data-name="Retângulo 4040" width="155.924" height="67.498" fill="none"/>
    </clipPath>
  </defs>
  <g id="Grupo_33732" data-name="Grupo 33732" transform="translate(0 0)">
    <g id="Grupo_33721" data-name="Grupo 33721" transform="translate(0 0)" clip-path="url(#clip-path)">
      <path id="Caminho_30836" data-name="Caminho 30836" d="M48.668,40.466a8.907,8.907,0,0,0-4.088-4l-.062-.035c-1.049-.566-2.238-1.208-2.232-2.685s1.187-2.1,2.23-2.642l.066-.035a8.653,8.653,0,0,0,4.086-3.979c2.113-7.1-1.751-15.081-6.52-19.852A24.86,24.86,0,0,0,24.695,0,24.48,24.48,0,0,0,7.308,7.306,24.485,24.485,0,0,0,0,24.693V42.8A24.485,24.485,0,0,0,7.308,60.19,24.476,24.476,0,0,0,24.693,67.5h0a24.86,24.86,0,0,0,17.453-7.24c4.775-4.775,8.641-12.744,6.52-19.79M40.445,58.554a22.446,22.446,0,0,1-15.75,6.538A22.453,22.453,0,0,1,8.913,58.414,21.866,21.866,0,0,1,2.407,42.8V24.693A21.872,21.872,0,0,1,8.913,9.081,22.458,22.458,0,0,1,24.693,2.4h0a22.438,22.438,0,0,1,15.75,6.538c4.31,4.31,7.777,11.462,5.8,17.725l-.014.031a12.593,12.593,0,0,1-4.191,4.444c-.986.722-1.8,1.415-1.8,2.605,0,1.364,1.076,2.125,2.117,2.86l.1.068a11.638,11.638,0,0,1,3.779,4.17l.014.031c1.977,6.224-1.49,13.363-5.8,17.677" transform="translate(0 0.001)" fill="#222137"/>
      <path id="Caminho_30837" data-name="Caminho 30837" d="M40.056,38.747A15.891,15.891,0,0,0,36.8,34.538c-.918-.9-2.062-2.012-2.06-3.644a4.648,4.648,0,0,1,1.691-3.255l.144-.148a17.337,17.337,0,0,0,3.477-4.417C41.6,17.976,38.7,12.1,35.14,8.538a18.956,18.956,0,0,0-13.3-5.52h-.006A18.957,18.957,0,0,0,8.526,8.688,18.433,18.433,0,0,0,3.018,21.839v18.11A19,19,0,0,0,21.839,58.77h.115A18.788,18.788,0,0,0,35.14,53.248c3.566-3.565,6.466-9.429,4.917-14.5m-6.617,12.8a16.652,16.652,0,0,1-11.6,4.816h-.1A16.077,16.077,0,0,1,10.394,51.6,16.648,16.648,0,0,1,5.425,39.949V21.839A16.67,16.67,0,0,1,10.41,10.153a16.027,16.027,0,0,1,11.3-4.73c.045,0,.088,0,.13,0a16.594,16.594,0,0,1,11.6,4.816c4.5,4.5,5.129,9.495,4.3,12.4l-.01.027a16.373,16.373,0,0,1-2,2.967c-1.288,1.652-2.619,3.358-2.619,5.257s1.339,3.623,2.633,5.29a16.669,16.669,0,0,1,1.988,2.954l.01.027c.835,2.9.21,7.876-4.3,12.382" transform="translate(2.854 2.855)" fill="#222137"/>
      <path id="Caminho_30838" data-name="Caminho 30838" d="M31.481,37.026a23.062,23.062,0,0,0-1.638-2.847c-1.232-1.938-2.506-3.94-2.506-6.139s1.274-4.2,2.508-6.141a23.061,23.061,0,0,0,1.638-2.85c.788-2.033.08-5.79-3.347-9.217a13.033,13.033,0,0,0-9.151-3.8A13.086,13.086,0,0,0,6.037,18.986V37.094A13.082,13.082,0,0,0,18.984,50.043h0a13.032,13.032,0,0,0,9.149-3.8c2.4-2.4,4.473-6.312,3.345-9.221m-5.045,7.52a10.727,10.727,0,0,1-7.4,3.092h-.056a10.753,10.753,0,0,1-7.538-3.259,10.194,10.194,0,0,1-3-7.287V18.986a10.23,10.23,0,0,1,3.033-7.341,10.648,10.648,0,0,1,7.508-3.2,10.481,10.481,0,0,1,7.452,3.09c2.913,2.9,3.22,5.858,2.6,7.514a26.855,26.855,0,0,1-1.481,2.876c-1.121,1.983-2.278,4.031-2.278,6.117s1.154,4.131,2.271,6.106a26.8,26.8,0,0,1,1.487,2.88c.623,1.662.315,4.623-2.6,7.52" transform="translate(5.709 5.71)" fill="#222137"/>
      <path id="Caminho_30839" data-name="Caminho 30839" d="M22.9,34.285c-.27-.959-.644-1.952-1.006-2.911a17.941,17.941,0,0,1-1.531-6.187A17.951,17.951,0,0,1,21.893,19c.362-.959.735-1.952,1.006-2.915a4.714,4.714,0,0,0-.979-4.109,7.859,7.859,0,0,0-5.79-2.919,7.146,7.146,0,0,0-7.075,7.076v18.11a7.142,7.142,0,0,0,7.073,7.075h0A7.849,7.849,0,0,0,21.918,38.4a4.716,4.716,0,0,0,.981-4.115m-3.082,2.831a5.18,5.18,0,0,1-3.683,1.8h-.1a4.418,4.418,0,0,1-3.066-1.272,4.868,4.868,0,0,1-1.508-3.4V16.131a4.879,4.879,0,0,1,1.516-3.413,4.366,4.366,0,0,1,3.158-1.257,5.079,5.079,0,0,1,3.675,1.778,3.6,3.6,0,0,1,.876,2.919c-.14,1.016-.331,2.043-.516,3.037a33.135,33.135,0,0,0-.737,5.991,33.093,33.093,0,0,0,.737,5.989c.185.994.376,2.024.516,3.041a3.581,3.581,0,0,1-.868,2.9" transform="translate(8.563 8.564)" fill="#222137"/>
      <path id="Caminho_30840" data-name="Caminho 30840" d="M14.3,31.388c-.109-6.094-.109-12.019,0-18.114a1.205,1.205,0,0,0-.346-.872,1.081,1.081,0,0,0-.774-.329,1.16,1.16,0,0,0-1.105,1.2V31.386a1.16,1.16,0,0,0,1.105,1.2,1.081,1.081,0,0,0,.774-.329,1.207,1.207,0,0,0,.346-.874" transform="translate(11.417 11.418)" fill="#222137"/>
      <path id="Caminho_30841" data-name="Caminho 30841" d="M39.744,36.441a10.09,10.09,0,0,1-4.95-1.185,8.309,8.309,0,0,1-3.352-3.389,10.746,10.746,0,0,1-1.2-5.218V10.742h4.125v9.736H34.4a5.958,5.958,0,0,1,1.508-1.685,7.245,7.245,0,0,1,2.08-1.111,7.456,7.456,0,0,1,2.438-.395,8.961,8.961,0,0,1,4.609,1.165A8.254,8.254,0,0,1,48.155,21.7a10.074,10.074,0,0,1,1.129,4.878,11.527,11.527,0,0,1-.663,4,9.172,9.172,0,0,1-1.9,3.138,8.183,8.183,0,0,1-2.994,2.025,10.677,10.677,0,0,1-3.981.7m0-3.516a5.126,5.126,0,0,0,2.8-.77,5.25,5.25,0,0,0,1.9-2.134,6.983,6.983,0,0,0,.681-3.156,6.9,6.9,0,0,0-.681-3.121,5.408,5.408,0,0,0-1.883-2.152,4.956,4.956,0,0,0-2.78-.788,5.115,5.115,0,0,0-2.8.77,5.21,5.21,0,0,0-1.9,2.134,6.958,6.958,0,0,0-.683,3.156,6.958,6.958,0,0,0,.683,3.156,5.222,5.222,0,0,0,1.9,2.134,5.052,5.052,0,0,0,2.761.77" transform="translate(28.597 10.159)" fill="#222137"/>
      <path id="Caminho_30842" data-name="Caminho 30842" d="M51.221,33.259a9.726,9.726,0,0,1-4.985-1.274,9.6,9.6,0,0,1,0-16.606,10.473,10.473,0,0,1,10.007,0,9.6,9.6,0,0,1,0,16.606,9.807,9.807,0,0,1-5.022,1.274m0-3.516a5.244,5.244,0,0,0,4.915-2.994,7.244,7.244,0,0,0,0-6.133,5.236,5.236,0,0,0-4.915-2.994,5.234,5.234,0,0,0-2.922.806A5.6,5.6,0,0,0,46.36,20.6a7.123,7.123,0,0,0,0,6.152A5.548,5.548,0,0,0,48.3,28.936a5.219,5.219,0,0,0,2.922.807" transform="translate(39.248 13.34)" fill="#222137"/>
      <path id="Caminho_30843" data-name="Caminho 30843" d="M59.976,33.259a7.486,7.486,0,0,1-3.263-.7,5.324,5.324,0,0,1-2.331-2.152,7.191,7.191,0,0,1-.862-3.712V14.536h4.125v12.8a2.507,2.507,0,0,0,.323,1.274,2.2,2.2,0,0,0,.842.842,2.357,2.357,0,0,0,1.165.286,2.386,2.386,0,0,0,1.148-.286,2.173,2.173,0,0,0,.862-.842,2.507,2.507,0,0,0,.323-1.274V20.6a7.265,7.265,0,0,1,.806-3.568,5.254,5.254,0,0,1,2.261-2.189,7.893,7.893,0,0,1,6.654,0,5.4,5.4,0,0,1,2.259,2.189,7.139,7.139,0,0,1,.823,3.568v6.742a2.488,2.488,0,0,0,.325,1.274,2.156,2.156,0,0,0,.86.842,2.451,2.451,0,0,0,1.183.286,2.3,2.3,0,0,0,1.13-.286,2.217,2.217,0,0,0,.842-.842,2.487,2.487,0,0,0,.323-1.274v-12.8H83.9V26.695a7.191,7.191,0,0,1-.86,3.712,5.324,5.324,0,0,1-2.331,2.152,7.788,7.788,0,0,1-6.456,0,5.551,5.551,0,0,1-2.368-2.152,6.966,6.966,0,0,1-.9-3.712v-6.67a2.567,2.567,0,0,0-.305-1.309,2.162,2.162,0,0,0-.825-.807,2.378,2.378,0,0,0-1.165-.286,2.327,2.327,0,0,0-1.111.286,2.247,2.247,0,0,0-.862.807,2.437,2.437,0,0,0-.323,1.309v6.67a7.057,7.057,0,0,1-.879,3.712,5.452,5.452,0,0,1-2.331,2.152,7.291,7.291,0,0,1-3.21.7" transform="translate(50.613 13.34)" fill="#222137"/>
      <path id="Caminho_30844" data-name="Caminho 30844" d="M81.436,32.827a11.832,11.832,0,0,1-5.4-1.165,8.6,8.6,0,0,1-4.9-7.979A10.449,10.449,0,0,1,72.289,18.7a8.575,8.575,0,0,1,3.158-3.37,8.727,8.727,0,0,1,4.625-1.22,8.623,8.623,0,0,1,4.843,1.255,7.534,7.534,0,0,1,2.815,3.372,11.826,11.826,0,0,1,.914,4.734c0,.239-.012.516-.035.825a4.066,4.066,0,0,1-.107.718H75.517A4.594,4.594,0,0,0,76.558,27.4a5.178,5.178,0,0,0,2.08,1.434,7.718,7.718,0,0,0,2.8.484h4.913v3.514ZM75.482,22.212H84.52a7.685,7.685,0,0,0-.2-1.364,5.031,5.031,0,0,0-.5-1.29,3.915,3.915,0,0,0-.86-1.058,4.152,4.152,0,0,0-1.237-.718,4.7,4.7,0,0,0-1.652-.269,4.2,4.2,0,0,0-1.9.412A4.474,4.474,0,0,0,76.774,19a4.789,4.789,0,0,0-.879,1.506,7.829,7.829,0,0,0-.412,1.7" transform="translate(67.279 13.34)" fill="#222137"/>
    </g>
  </g>
</svg>
