<svg xmlns="http://www.w3.org/2000/svg" width="145.098" height="46.64" viewBox="0 0 145.098 46.64">
  <path id="bowe" d="M-10884.843,29.345l-5.206,16.995a.424.424,0,0,1-.4.3h-8.162a.423.423,0,0,1-.407-.3l-7-22.45a.217.217,0,0,0-.209-.155.22.22,0,0,0-.21.155l-6.983,22.45a.428.428,0,0,1-.406.3h-8.234a.428.428,0,0,1-.406-.3l-5.551-18.2q.029.518.029,1.053c0,9.478-6.622,17.447-17.652,17.447-9.069,0-15.158-5.441-17-12.688-1.547,8.135-7.194,12.688-14.333,12.688a12.564,12.564,0,0,1-8.444-3.228.243.243,0,0,1-.076-.218,6.32,6.32,0,0,0,.087-1.016,6.309,6.309,0,0,0-6.221-6.089,6.145,6.145,0,0,0-4.154,1.625.131.131,0,0,1-.148.03.129.129,0,0,1-.075-.13V4.457A4.465,4.465,0,0,1-10991.528,0h4.146a.128.128,0,0,1,.128.13V15.524a.13.13,0,0,0,.077.124.13.13,0,0,0,.144-.026,14.8,14.8,0,0,1,10.057-3.808c6.13,0,12.566,4.324,14.295,12.784,1.8-7.269,7.912-12.784,17.034-12.784,6.943,0,12.138,3.158,15.035,7.846l-.678-2.231a4.339,4.339,0,0,1,.67-3.851,4.342,4.342,0,0,1,3.5-1.751h2.9a.425.425,0,0,1,.412.311l6.16,22.186a.2.2,0,0,0,.19.153.2.2,0,0,0,.2-.143l6.4-19.424a4.486,4.486,0,0,1,4.268-3.083h3.662a.431.431,0,0,1,.409.292l7.268,22.212a.2.2,0,0,0,.2.147.2.2,0,0,0,.192-.155l5.383-19.3a4.38,4.38,0,0,1,4.224-3.2h5.223a.424.424,0,0,1,.344.17.425.425,0,0,1,.066.378l-1.973,6.429a16.85,16.85,0,0,1,14.011-7c9.931,0,16.69,7.419,16.69,18.267v1.587a.338.338,0,0,1-.341.336h-24.025a.339.339,0,0,0-.259.123.344.344,0,0,0-.072.276c.706,4.016,4.048,7.294,9.522,7.294a15.216,15.216,0,0,0,6.281-1.531,3.656,3.656,0,0,1,4.637,1.186l1.673,2.437a.335.335,0,0,1-.054.442c-3.319,2.893-8.442,4.4-13.5,4.4C-10877.069,46.639-10884.712,39.9-10884.843,29.345Zm-69.286-.153c0,5.221,3.034,9.685,8.482,9.685s8.55-4.464,8.55-9.685c0-5.151-3.109-9.615-8.55-9.615s-8.507,4.464-8.507,9.615Zm-33.106-5.014a.138.138,0,0,0-.019.067l0,10.789c2.468,1.574,3.627,3.843,7.514,3.843,4.206,0,8.481-3.249,8.481-9.615,0-6.84-4.619-9.685-8.481-9.685a8.467,8.467,0,0,0-7.45,4.6Zm111.481,1.529a.339.339,0,0,0,.079.272.337.337,0,0,0,.257.117h15.647a.341.341,0,0,0,.253-.114.345.345,0,0,0,.086-.264,7.685,7.685,0,0,0-8.173-6.971,7.942,7.942,0,0,0-8.169,6.959ZM-10996,42.392a4.319,4.319,0,0,1,4.286-4.249,4.322,4.322,0,0,1,4.289,4.249,4.321,4.321,0,0,1-4.292,4.247,4.32,4.32,0,0,1-4.285-4.247Z" transform="translate(10996.004)" fill="#222137"/>
</svg>
