<svg xmlns="http://www.w3.org/2000/svg" xmlns:xlink="http://www.w3.org/1999/xlink" width="914.137" height="187.609" viewBox="0 0 914.137 187.609">
  <defs>
    <clipPath id="clip-path">
      <rect id="Retângulo_368" data-name="Retângulo 368" width="514.286" height="174.728" transform="translate(703.078 1028.125)" fill="#2a274a"/>
    </clipPath>
  </defs>
  <g id="Grupo_579" data-name="Grupo 579" transform="translate(-303.228 -1028.125)">
    <g id="Grupo_383" data-name="Grupo 383">
      <g id="Grupo_382" data-name="Grupo 382" clip-path="url(#clip-path)">
        <g id="Grupo_381" data-name="Grupo 381" style="mix-blend-mode: screen;isolation: isolate">
          <g id="Grupo_380" data-name="Grupo 380">
            <path id="Caminho_970" data-name="Caminho 970" d="M1187.012,1152.41c10.158-23.2,16.975-46.656,17.987-54.672A170.934,170.934,0,0,0,991.322,911.12a174.624,174.624,0,0,0-28.709,10.34c-4.191,1.946-7.421,3.748-10.019,5.2-8.875,4.955-12.2,6.808-28.183,1.6l-.25-.139c-4.51-3.765-11.179-10.909-18.9-19.183-22.442-24.038-56.352-60.365-76.143-54.549-11.512,3.383-24.5,15.211-35.951,25.649-4.867,4.435-9.463,8.622-13.545,11.789-35.233,26.671-57.953,66.462-63.978,112.048-6.07,45.929,6.2,92.568,33.656,127.96l.018.024.006.007c.386.512.778,1.023,1.17,1.527,26.653,34.356,65.947,56.5,110.869,62.442,45.937,6.071,92.586-6.2,127.987-33.673,4.035-3.131,8.611-7.3,13.457-11.716,11.573-10.546,24.7-22.5,36.541-25.981,20.683-6.08,53.621,29.206,77.673,54.967,7.689,8.238,14.33,15.352,18.767,19.055,4.753,4.28,9.888,5.421,15.285,3.415C1165.155,1196.655,1178.391,1172.094,1187.012,1152.41Zm-47.736,35.811c-5.693,2.112-11.138.875-16.181-3.678-4.488-3.745-11.157-10.889-18.882-19.164-22.441-24.037-56.352-60.364-76.143-54.549-11.508,3.384-24.492,15.212-35.946,25.651-4.868,4.434-9.466,8.623-13.548,11.79-31.422,24.384-73.005,35.319-114.084,30-40.847-5.292-76.573-25.318-100.7-56.419-.2-.259-.4-.514-.6-.775-24.586-32.133-35.433-74.409-29.754-115.986,5.541-40.569,25.767-75.87,56.955-99.393,4.028-3.125,8.6-7.295,13.45-11.71,11.573-10.546,24.7-22.5,36.541-25.981,20.683-6.081,53.621,29.206,77.675,54.969,7.626,8.172,14.223,15.238,18.66,18.966,14.806,4.957,25.836-.117,38.6-5.99,6.358-2.924,12.935-5.951,20.507-7.961A153.914,153.914,0,0,1,1156.613,982.2a.162.162,0,0,1,.033.042,154.463,154.463,0,0,1,30.859,113.288C1185.454,1111.775,1163.2,1179.338,1139.276,1188.221Z" fill="#2a274a"/>
            <path id="Caminho_971" data-name="Caminho 971" d="M1138.46,996.325l-.107-.138c-20.577-26.523-52.965-44.89-86.681-49.149a131.84,131.84,0,0,0-52.809,3.982,125.235,125.235,0,0,0-15.233,5.742c-11.009,4.744-19.7,8.494-34.357,3.541l-.243-.134c-4.51-3.765-11.179-10.91-18.9-19.184-22.441-24.037-56.352-60.364-76.143-54.549-11.508,3.384-24.492,15.212-35.946,25.651-4.868,4.434-9.467,8.623-13.549,11.79-27.244,21.495-45.191,54.164-49.236,89.626-3.844,33.705,5,66.273,24.911,91.942.4.512.8,1.021,1.2,1.525l0,.005c21.5,27.249,54.167,45.2,89.629,49.241,34.376,3.923,67.57-5.351,93.468-26.113,4.042-3.136,8.619-7.3,13.461-11.719,11.58-10.547,24.7-22.5,36.548-25.983,20.683-6.08,53.621,29.206,77.673,54.967,7.689,8.239,14.33,15.352,18.767,19.055,4.5,4.01,9.223,5.114,14.06,3.3,20.1-7.553,37.968-63.112,39.7-77.071C1168.855,1058.961,1159.054,1022.952,1138.46,996.325Zm-26.008,160.489c-4.966,1.679-9.763.212-14.258-4.358-4.456-3.714-11.125-10.858-18.85-19.132-22.441-24.038-56.352-60.365-76.143-54.549-11.512,3.383-24.5,15.211-35.95,25.65-4.868,4.434-9.464,8.621-13.546,11.788-23.5,18.241-53.089,26.186-83.314,22.369s-56.9-18.865-75.138-42.371-26.18-53.094-22.369-83.314,18.863-56.908,42.373-75.14c4.033-3.128,8.61-7.3,13.452-11.711,11.58-10.548,24.7-22.5,36.548-25.983,20.683-6.081,53.621,29.206,77.673,54.967,7.63,8.176,14.226,15.242,18.662,18.968,14,4.918,29.188.765,45.261-3.628,13.874-3.791,28.222-7.714,42.617-5.894a113.59,113.59,0,0,1,75.095,42.6l.012.016,0,.005a114.852,114.852,0,0,1,22.759,83.359C1145.918,1101.736,1131.243,1150.465,1112.452,1156.814Z" fill="#2a274a"/>
            <path id="Caminho_972" data-name="Caminho 972" d="M1106.409,1021.205l-.007-.009a89.916,89.916,0,0,0-59.789-34.052c-11.692-1.415-22.579,1.225-33.109,3.776-13.312,3.227-25.887,6.276-39.377,1.435l-.228-.13c-4.51-3.765-11.179-10.91-18.9-19.184-22.441-24.037-56.352-60.365-76.143-54.549-11.508,3.384-24.492,15.211-35.946,25.65-4.868,4.435-9.467,8.624-13.548,11.79-18.346,13.6-30.247,34.217-33.524,58.074-3.37,24.524,3.041,49.346,17.588,68.1l.006.007.011.014c.358.485.724.967,1.092,1.441,13.59,17.517,33.745,28.877,56.971,32.069,24.53,3.368,49.352-3.043,68.1-17.595,4.035-3.13,8.611-7.3,13.457-11.715,11.573-10.546,24.7-22.5,36.542-25.982,20.684-6.078,53.622,29.2,77.674,54.97,7.689,8.238,14.33,15.352,18.767,19.055,4.459,3.876,8.891,5.009,13.189,3.38,14.009-5.306,23.638-37.6,25.293-50.173A89.877,89.877,0,0,0,1106.409,1021.205Zm-19.138,102.871c-4.443,1.708-9.121.486-13.9-3.632-4.5-3.757-11.172-10.9-18.9-19.178-22.441-24.038-56.351-60.365-76.143-54.549-11.508,3.384-24.492,15.211-35.946,25.65-4.868,4.435-9.466,8.623-13.548,11.79-13.8,11.293-31.656,16.479-50.256,14.588a76.3,76.3,0,0,1-51.258-27.391q-.477-.585-.936-1.178c-10.691-13.78-15.52-31.292-13.615-49.488a75.832,75.832,0,0,1,27.345-50.864c4.047-3.139,8.622-7.31,13.469-11.724,11.573-10.546,24.7-22.5,36.541-25.982,20.683-6.08,53.621,29.206,77.673,54.968,7.636,8.178,14.236,15.249,18.672,18.975,11.364,4.369,21.326,2.469,31.87.457,8.133-1.551,16.543-3.156,26.068-1.954,18.5,2.335,36.446,12.339,47.229,26.238q.449.578.881,1.164c.292.357.583.723.866,1.087,10.874,14.016,15.93,33.451,13.549,52.307C1105.637,1095.621,1098.885,1119.615,1087.271,1124.076Z" fill="#2a274a"/>
            <path id="Caminho_973" data-name="Caminho 973" d="M1074.359,1046.081l-.012-.016c-13.291-17.117-28.452-17.209-44.5-17.3-10.052-.058-20.448-.121-30.877-4.36l-.2-.119c-4.51-3.765-11.181-10.912-18.906-19.187-22.441-24.037-56.351-60.364-76.143-54.548-11.508,3.383-24.492,15.211-35.946,25.65-4.868,4.435-9.466,8.623-13.548,11.79-21.068,16.408-25.072,48.124-8.743,69.254,16.408,21.067,48.123,25.071,69.253,8.743,4.035-3.131,8.611-7.3,13.457-11.716,11.573-10.546,24.7-22.5,36.541-25.981,20.683-6.081,53.621,29.205,77.673,54.967,7.689,8.238,14.33,15.352,18.767,19.055,4.23,3.7,8.063,4.929,11.406,3.66,7.271-2.764,10.841-16.562,11.713-23.471A49.673,49.673,0,0,0,1074.359,1046.081Zm-25.887,42.281c-4.474-3.733-11.143-10.878-18.868-19.152-22.441-24.037-56.352-60.364-76.143-54.549-11.508,3.384-24.492,15.212-35.946,25.65-4.868,4.435-9.466,8.624-13.548,11.791-14.005,10.55-34.009,8.021-44.6-5.631s-8.071-33.659,5.622-44.593c4.044-3.138,8.62-7.308,13.466-11.722,11.573-10.546,24.7-22.5,36.542-25.982,20.682-6.08,53.622,29.2,77.674,54.97,7.646,8.192,14.258,15.273,18.692,18.992,5.5,2.593,11.917,3.687,18.705,4.848,11.154,1.9,22.679,3.87,29.792,13.038.212.273.421.552.623.837l0,0c4.309,6.08,7.3,29.354.616,35.145C1058.051,1094.648,1053.8,1093.423,1048.472,1088.362Z" fill="#2a274a"/>
            <path id="Caminho_974" data-name="Caminho 974" d="M1041.408,1068.8c-2.25-2.9-6.574-5.538-11.584-8.591-1.958-1.193-4.021-2.45-6.113-3.815-4.582-3.819-11.251-10.963-18.976-19.238-22.441-24.037-56.352-60.364-76.143-54.548-11.512,3.383-24.5,15.211-35.95,25.649-4.868,4.435-9.464,8.622-13.546,11.789a8.785,8.785,0,1,0,10.77,13.883c4.033-3.129,8.61-7.3,13.452-11.712,11.58-10.547,24.7-22.5,36.548-25.983,20.683-6.08,53.621,29.206,77.673,54.967,7.689,8.238,14.33,15.352,18.767,19.055,4.027,2.621,5.881,2.489,6.289,2.045S1042.718,1070.486,1041.408,1068.8Z" fill="#2a274a"/>
          </g>
        </g>
      </g>
    </g>
    <g id="Grupo_423" data-name="Grupo 423" opacity="0.5" style="mix-blend-mode: screen;isolation: isolate">
      <g id="Grupo_422" data-name="Grupo 422">
        <path id="Caminho_1003" data-name="Caminho 1003" d="M540.238,1190.453c5.091-11.626,8.508-23.384,9.015-27.4A85.67,85.67,0,0,0,442.16,1069.52a87.506,87.506,0,0,0-14.389,5.182c-2.1.975-3.719,1.879-5.022,2.6-4.447,2.483-6.114,3.412-14.124.8l-.126-.069c-2.26-1.887-5.6-5.468-9.474-9.615-11.248-12.047-28.243-30.254-38.163-27.339-5.769,1.695-12.277,7.623-18.018,12.855-2.439,2.223-4.743,4.321-6.789,5.908-17.658,13.368-29.045,33.31-32.065,56.158-3.042,23.019,3.107,46.394,16.868,64.133l.009.011,0,0c.194.256.39.512.587.765,13.358,17.219,33.052,28.319,55.566,31.3,23.023,3.043,46.4-3.108,64.146-16.877,2.023-1.569,4.316-3.659,6.745-5.872,5.8-5.285,12.377-11.276,18.314-13.021,10.366-3.048,26.874,14.637,38.929,27.549,3.854,4.129,7.182,7.694,9.406,9.55,2.382,2.145,4.956,2.717,7.661,1.711C529.284,1212.628,535.917,1200.318,540.238,1190.453ZM516.313,1208.4c-2.853,1.058-5.582.438-8.11-1.844-2.249-1.877-5.591-5.457-9.463-9.6-11.248-12.048-28.243-30.255-38.163-27.34-5.767,1.7-12.275,7.624-18.015,12.856-2.44,2.222-4.745,4.322-6.791,5.909-15.748,12.221-36.589,17.7-57.178,15.035-20.472-2.652-38.377-12.69-50.47-28.277-.1-.13-.2-.257-.3-.388-12.322-16.105-17.759-37.294-14.913-58.132,2.777-20.333,12.914-38.025,28.546-49.815,2.019-1.566,4.312-3.656,6.741-5.868,5.8-5.286,12.377-11.277,18.314-13.022,10.366-3.048,26.874,14.637,38.93,27.55,3.822,4.095,7.128,7.637,9.352,9.506,7.421,2.484,12.949-.059,19.346-3a62.71,62.71,0,0,1,10.278-3.989A77.139,77.139,0,0,1,525,1105.145a.083.083,0,0,1,.017.021,77.416,77.416,0,0,1,15.466,56.779C539.457,1170.086,528.306,1203.949,516.313,1208.4Z" fill="#2a274a"/>
        <path id="Caminho_1004" data-name="Caminho 1004" d="M515.9,1112.224l-.053-.069a65.939,65.939,0,0,0-69.912-22.638,62.952,62.952,0,0,0-7.634,2.878c-5.518,2.378-9.876,4.257-17.22,1.775l-.121-.067c-2.261-1.887-5.6-5.468-9.475-9.615-11.248-12.047-28.243-30.254-38.163-27.339-5.767,1.695-12.275,7.623-18.015,12.855-2.44,2.223-4.745,4.322-6.791,5.909a67.113,67.113,0,0,0-24.677,44.92,62.9,62.9,0,0,0,12.486,46.081c.2.256.4.512.6.764l0,0a67.1,67.1,0,0,0,44.921,24.679c17.229,1.966,33.866-2.682,46.846-13.088,2.026-1.571,4.32-3.66,6.746-5.873,5.8-5.286,12.38-11.278,18.318-13.022,10.366-3.048,26.874,14.637,38.929,27.549,3.854,4.129,7.182,7.694,9.406,9.55,2.255,2.01,4.622,2.563,7.046,1.652,10.073-3.786,19.03-31.631,19.9-38.628A67.061,67.061,0,0,0,515.9,1112.224Zm-13.035,80.436c-2.489.841-4.893.106-7.146-2.184-2.233-1.862-5.576-5.442-9.447-9.589-11.248-12.048-28.243-30.255-38.163-27.34-5.769,1.7-12.277,7.624-18.018,12.856-2.439,2.222-4.743,4.321-6.789,5.908a56.6,56.6,0,0,1-69.389-89.441c2.022-1.568,4.316-3.657,6.742-5.87,5.8-5.286,12.38-11.278,18.318-13.022,10.366-3.047,26.874,14.638,38.929,27.549,3.824,4.1,7.13,7.639,9.353,9.507,7.016,2.465,14.629.383,22.685-1.819,6.953-1.9,14.144-3.866,21.359-2.954a56.933,56.933,0,0,1,37.637,21.353l.006.008,0,0a57.561,57.561,0,0,1,11.407,41.779C519.642,1165.055,512.287,1189.478,502.869,1192.66Z" fill="#2a274a"/>
        <path id="Caminho_1005" data-name="Caminho 1005" d="M499.841,1124.694l0-.005a45.067,45.067,0,0,0-29.966-17.067c-5.86-.709-11.316.614-16.594,1.893-6.671,1.618-12.974,3.146-19.735.719l-.114-.065c-2.261-1.887-5.6-5.468-9.475-9.615-11.247-12.047-28.243-30.254-38.162-27.339-5.768,1.7-12.275,7.623-18.016,12.855-2.44,2.223-4.745,4.322-6.791,5.909a43.02,43.02,0,0,0-16.8,29.107A45.735,45.735,0,0,0,353,1155.215l0,0,.005.007c.18.243.363.485.548.723a43.1,43.1,0,0,0,28.553,16.072,45.739,45.739,0,0,0,34.133-8.818c2.023-1.569,4.316-3.66,6.745-5.872,5.8-5.285,12.377-11.276,18.314-13.022,10.367-3.046,26.875,14.637,38.93,27.551,3.854,4.129,7.182,7.694,9.406,9.55,2.234,1.943,4.456,2.51,6.61,1.694,7.021-2.659,11.847-18.845,12.677-25.147A45.046,45.046,0,0,0,499.841,1124.694Zm-9.592,51.558c-2.227.856-4.572.243-6.968-1.82-2.255-1.884-5.6-5.466-9.47-9.613-11.248-12.047-28.243-30.254-38.163-27.339-5.767,1.7-12.275,7.624-18.016,12.856-2.439,2.222-4.744,4.322-6.79,5.909a33.994,33.994,0,0,1-25.188,7.311,38.245,38.245,0,0,1-25.69-13.728c-.159-.195-.316-.393-.469-.59a34.3,34.3,0,0,1-6.824-24.8,38.005,38.005,0,0,1,13.706-25.493c2.028-1.574,4.321-3.664,6.75-5.876,5.8-5.286,12.377-11.277,18.314-13.022,10.366-3.047,26.874,14.638,38.929,27.549,3.827,4.1,7.135,7.643,9.358,9.511,5.7,2.189,10.689,1.237,15.974.229,4.076-.778,8.291-1.582,13.065-.98a36.5,36.5,0,0,1,23.671,13.15c.149.193.3.388.441.584.146.179.292.362.434.545a36.036,36.036,0,0,1,6.791,26.215C499.453,1161.99,496.07,1174.016,490.249,1176.252Z" fill="#2a274a"/>
        <path id="Caminho_1006" data-name="Caminho 1006" d="M483.777,1137.161l-.006-.008c-6.661-8.579-14.26-8.625-22.3-8.672-5.038-.029-10.248-.061-15.475-2.185l-.1-.06c-2.261-1.887-5.6-5.469-9.476-9.616-11.247-12.047-28.243-30.254-38.162-27.339-5.768,1.7-12.275,7.623-18.016,12.855-2.44,2.223-4.744,4.322-6.79,5.909a24.738,24.738,0,0,0,30.327,39.092c2.022-1.569,4.316-3.66,6.744-5.872,5.8-5.286,12.378-11.277,18.315-13.022,10.366-3.047,26.874,14.638,38.929,27.549,3.854,4.129,7.182,7.7,9.406,9.551,2.12,1.855,4.04,2.47,5.716,1.834,3.644-1.385,5.434-8.3,5.871-11.763A24.9,24.9,0,0,0,483.777,1137.161ZM470.8,1158.352c-2.243-1.871-5.585-5.452-9.457-9.6-11.247-12.047-28.243-30.254-38.162-27.339-5.767,1.7-12.275,7.624-18.016,12.856-2.439,2.222-4.744,4.321-6.79,5.909a15.932,15.932,0,0,1-19.536-25.172c2.027-1.573,4.32-3.663,6.749-5.875,5.8-5.286,12.377-11.277,18.315-13.022,10.365-3.047,26.875,14.637,38.929,27.55,3.833,4.107,7.146,7.655,9.369,9.519a36.594,36.594,0,0,0,9.375,2.43c5.59.954,11.366,1.939,14.931,6.534.106.137.211.277.312.42h0c2.16,3.047,3.661,14.712.309,17.614C475.6,1161.5,473.474,1160.888,470.8,1158.352Z" fill="#2a274a"/>
        <path id="Caminho_1007" data-name="Caminho 1007" d="M467.263,1148.547c-1.128-1.454-3.3-2.776-5.806-4.306-.981-.6-2.016-1.228-3.064-1.912a133.862,133.862,0,0,1-9.511-9.642c-11.247-12.047-28.243-30.254-38.162-27.339-5.77,1.695-12.277,7.623-18.018,12.855-2.44,2.223-4.743,4.321-6.789,5.908a4.4,4.4,0,1,0,5.4,6.958c2.021-1.568,4.315-3.657,6.742-5.869,5.8-5.287,12.379-11.279,18.318-13.023,10.366-3.047,26.874,14.638,38.929,27.549,3.853,4.129,7.182,7.7,9.4,9.551,2.019,1.313,2.948,1.247,3.152,1.025S467.919,1149.393,467.263,1148.547Z" fill="#2a274a"/>
      </g>
    </g>
  </g>
</svg>
