<svg xmlns="http://www.w3.org/2000/svg" xmlns:xlink="http://www.w3.org/1999/xlink" width="514.286" height="174.729" viewBox="0 0 514.286 174.729">
  <defs>
    <clipPath id="clip-path">
      <rect id="Retângulo_439" data-name="Retângulo 439" width="514.286" height="174.728" transform="translate(703.078 6230.101)" fill="none"/>
    </clipPath>
  </defs>
  <g id="Grupo_480" data-name="Grupo 480" transform="translate(-703.078 -6230.101)">
    <g id="Grupo_479" data-name="Grupo 479" clip-path="url(#clip-path)">
      <g id="Grupo_478" data-name="Grupo 478" style="isolation: isolate">
        <g id="Grupo_477" data-name="Grupo 477">
          <path id="Caminho_1079" data-name="Caminho 1079" d="M1187.012,6354.386c10.158-23.2,16.975-46.656,17.987-54.672A170.933,170.933,0,0,0,991.322,6113.1a174.623,174.623,0,0,0-28.709,10.34c-4.191,1.946-7.421,3.748-10.019,5.2-8.875,4.955-12.2,6.808-28.183,1.6l-.25-.139c-4.51-3.765-11.179-10.909-18.9-19.183-22.442-24.038-56.352-60.365-76.143-54.549-11.512,3.383-24.5,15.211-35.951,25.65-4.867,4.434-9.463,8.621-13.545,11.788-35.233,26.671-57.953,66.462-63.978,112.048-6.07,45.929,6.2,92.568,33.656,127.96l.018.024.006.007c.386.512.778,1.023,1.17,1.527,26.653,34.356,65.947,56.5,110.869,62.442,45.937,6.071,92.586-6.2,127.987-33.673,4.035-3.131,8.611-7.3,13.457-11.716,11.573-10.546,24.7-22.5,36.541-25.981,20.683-6.08,53.621,29.206,77.673,54.967,7.689,8.238,14.33,15.352,18.767,19.055,4.753,4.28,9.888,5.421,15.285,3.415C1165.155,6398.631,1178.391,6374.07,1187.012,6354.386Zm-47.736,35.811c-5.693,2.112-11.138.875-16.181-3.678-4.488-3.745-11.157-10.889-18.882-19.164-22.441-24.037-56.352-60.364-76.143-54.548-11.508,3.383-24.492,15.211-35.946,25.65-4.868,4.435-9.466,8.623-13.548,11.79-31.422,24.385-73.005,35.319-114.084,30-40.847-5.291-76.573-25.318-100.7-56.419-.2-.259-.4-.514-.6-.775-24.586-32.133-35.433-74.409-29.754-115.986,5.541-40.569,25.767-75.87,56.955-99.393,4.028-3.125,8.6-7.295,13.45-11.71,11.573-10.546,24.7-22.5,36.541-25.981,20.683-6.081,53.621,29.206,77.675,54.969,7.626,8.172,14.223,15.238,18.66,18.966,14.806,4.957,25.836-.117,38.6-5.99,6.358-2.924,12.935-5.951,20.507-7.961a153.914,153.914,0,0,1,160.785,54.212.182.182,0,0,1,.033.042,154.463,154.463,0,0,1,30.859,113.288C1185.454,6313.751,1163.2,6381.314,1139.276,6390.2Z" fill="#2a274a"/>
          <path id="Caminho_1080" data-name="Caminho 1080" d="M1138.46,6198.3l-.107-.138c-20.577-26.523-52.965-44.89-86.681-49.149A131.84,131.84,0,0,0,998.863,6153a125.277,125.277,0,0,0-15.233,5.742c-11.009,4.744-19.7,8.494-34.357,3.541l-.243-.134c-4.51-3.765-11.179-10.909-18.9-19.184-22.441-24.037-56.352-60.364-76.143-54.549-11.508,3.384-24.492,15.212-35.946,25.651-4.868,4.434-9.467,8.623-13.549,11.79-27.244,21.5-45.191,54.164-49.236,89.626-3.844,33.705,5,66.273,24.911,91.942.4.512.8,1.021,1.2,1.525l0,.005c21.5,27.249,54.167,45.2,89.629,49.241,34.376,3.923,67.57-5.351,93.468-26.113,4.042-3.136,8.619-7.3,13.461-11.719,11.58-10.547,24.7-22.5,36.548-25.983,20.683-6.08,53.621,29.206,77.673,54.968,7.689,8.238,14.33,15.351,18.767,19.054,4.5,4.01,9.223,5.115,14.06,3.3,20.1-7.553,37.968-63.112,39.7-77.071C1168.855,6260.937,1159.054,6224.928,1138.46,6198.3Zm-26.008,160.489c-4.966,1.679-9.763.212-14.258-4.358-4.456-3.713-11.125-10.858-18.85-19.132-22.441-24.038-56.352-60.365-76.143-54.549-11.512,3.383-24.5,15.211-35.95,25.65-4.868,4.434-9.464,8.621-13.546,11.788-23.5,18.241-53.089,26.187-83.314,22.369s-56.9-18.865-75.138-42.371-26.18-53.094-22.369-83.313,18.863-56.909,42.373-75.141c4.033-3.128,8.61-7.3,13.452-11.711,11.58-10.548,24.7-22.5,36.548-25.983,20.683-6.081,53.621,29.206,77.673,54.967,7.63,8.176,14.226,15.242,18.662,18.968,14,4.919,29.188.765,45.261-3.628,13.874-3.791,28.222-7.714,42.617-5.894a113.589,113.589,0,0,1,75.095,42.6l.012.016,0,.005a114.851,114.851,0,0,1,22.759,83.359C1145.918,6303.712,1131.243,6352.441,1112.452,6358.79Z" fill="#2a274a"/>
          <path id="Caminho_1081" data-name="Caminho 1081" d="M1106.409,6223.181l-.007-.009a89.916,89.916,0,0,0-59.789-34.052c-11.692-1.415-22.579,1.225-33.109,3.776-13.312,3.228-25.887,6.276-39.377,1.435l-.228-.13c-4.51-3.765-11.179-10.91-18.9-19.184-22.441-24.037-56.352-60.365-76.143-54.549-11.508,3.384-24.492,15.211-35.946,25.65-4.868,4.435-9.467,8.624-13.548,11.79-18.346,13.6-30.247,34.217-33.524,58.074-3.37,24.524,3.041,49.346,17.588,68.1l.006.007.011.014c.358.485.724.967,1.092,1.442,13.59,17.516,33.745,28.876,56.971,32.068,24.53,3.368,49.352-3.043,68.1-17.595,4.035-3.13,8.611-7.3,13.457-11.715,11.573-10.546,24.7-22.5,36.542-25.982,20.684-6.078,53.622,29.2,77.674,54.97,7.689,8.238,14.33,15.352,18.767,19.055,4.459,3.876,8.891,5.009,13.189,3.38,14.009-5.306,23.638-37.6,25.293-50.173A89.876,89.876,0,0,0,1106.409,6223.181Zm-19.138,102.871c-4.443,1.708-9.121.486-13.9-3.632-4.5-3.757-11.172-10.9-18.9-19.178-22.441-24.037-56.351-60.365-76.143-54.549-11.508,3.384-24.492,15.211-35.946,25.65-4.868,4.435-9.466,8.624-13.548,11.79-13.8,11.293-31.656,16.479-50.256,14.588a76.3,76.3,0,0,1-51.258-27.391q-.477-.585-.936-1.178c-10.691-13.78-15.52-31.292-13.615-49.488a75.833,75.833,0,0,1,27.345-50.864c4.047-3.139,8.622-7.31,13.469-11.724,11.573-10.546,24.7-22.5,36.541-25.982,20.683-6.08,53.621,29.206,77.673,54.968,7.636,8.178,14.236,15.249,18.672,18.975,11.364,4.369,21.326,2.469,31.87.457,8.133-1.551,16.543-3.156,26.068-1.954,18.5,2.335,36.446,12.339,47.229,26.238q.449.578.881,1.164c.292.357.583.723.866,1.087,10.874,14.016,15.93,33.451,13.549,52.307C1105.637,6297.6,1098.885,6321.591,1087.271,6326.052Z" fill="#2a274a"/>
          <path id="Caminho_1082" data-name="Caminho 1082" d="M1074.359,6248.057l-.012-.016c-13.291-17.117-28.452-17.209-44.5-17.3-10.052-.058-20.448-.121-30.877-4.36l-.2-.119c-4.51-3.765-11.181-10.912-18.906-19.186-22.441-24.038-56.351-60.365-76.143-54.549-11.508,3.383-24.492,15.211-35.946,25.65-4.868,4.435-9.466,8.623-13.548,11.79-21.068,16.408-25.072,48.124-8.743,69.254,16.408,21.068,48.123,25.072,69.253,8.743,4.035-3.131,8.611-7.3,13.457-11.716,11.573-10.546,24.7-22.5,36.541-25.981,20.683-6.081,53.621,29.205,77.673,54.967,7.689,8.238,14.33,15.352,18.767,19.055,4.23,3.7,8.063,4.929,11.406,3.66,7.271-2.764,10.841-16.562,11.713-23.471A49.673,49.673,0,0,0,1074.359,6248.057Zm-25.887,42.281c-4.474-3.733-11.143-10.878-18.868-19.152-22.441-24.037-56.352-60.364-76.143-54.549-11.508,3.384-24.492,15.212-35.946,25.651-4.868,4.434-9.466,8.623-13.548,11.79-14.005,10.55-34.009,8.021-44.6-5.631s-8.071-33.659,5.622-44.593c4.044-3.138,8.62-7.308,13.466-11.722,11.573-10.546,24.7-22.5,36.542-25.982,20.682-6.08,53.622,29.2,77.674,54.97,7.646,8.192,14.258,15.273,18.692,18.993,5.5,2.592,11.917,3.686,18.705,4.847,11.154,1.9,22.679,3.87,29.792,13.038.212.273.421.552.623.837l0,0c4.309,6.08,7.3,29.354.616,35.145C1058.051,6296.624,1053.8,6295.4,1048.472,6290.338Z" fill="#2a274a"/>
          <path id="Caminho_1083" data-name="Caminho 1083" d="M1041.408,6270.774c-2.25-2.9-6.574-5.538-11.584-8.591-1.958-1.193-4.021-2.45-6.113-3.815-4.582-3.819-11.251-10.963-18.976-19.238-22.441-24.037-56.352-60.364-76.143-54.548-11.512,3.383-24.5,15.211-35.95,25.649-4.868,4.435-9.464,8.622-13.546,11.789a8.785,8.785,0,1,0,10.77,13.883c4.033-3.129,8.61-7.3,13.452-11.712,11.58-10.547,24.7-22.5,36.548-25.983,20.683-6.08,53.621,29.206,77.673,54.967,7.689,8.238,14.33,15.352,18.767,19.055,4.027,2.621,5.881,2.489,6.289,2.045S1042.718,6272.463,1041.408,6270.774Z" fill="#2a274a"/>
        </g>
      </g>
    </g>
  </g>
</svg>
