<svg xmlns="http://www.w3.org/2000/svg" width="246.689" height="174.963" viewBox="0 0 246.689 174.963">
  <g id="Grupo_437" data-name="Grupo 437" transform="translate(-921.195 -2659.899)" opacity="0.05" style="mix-blend-mode: darken;isolation: isolate">
    <g id="Grupo_436" data-name="Grupo 436">
      <path id="Caminho_1038" data-name="Caminho 1038" d="M1158.206,2809.58c5.091-11.625,8.507-23.384,9.014-27.4a85.67,85.67,0,0,0-107.093-93.531,87.507,87.507,0,0,0-14.388,5.182c-2.1.976-3.719,1.879-5.022,2.6-4.448,2.484-6.114,3.413-14.125.8l-.125-.07c-2.261-1.887-5.6-5.468-9.475-9.615-11.247-12.047-28.243-30.254-38.162-27.339-5.77,1.7-12.277,7.623-18.018,12.855-2.44,2.223-4.743,4.321-6.789,5.908-17.658,13.368-29.046,33.311-32.065,56.158-3.042,23.019,3.106,46.394,16.868,64.133l.009.011,0,0c.193.257.39.513.586.766,13.359,17.218,33.053,28.319,55.567,31.3,23.023,3.043,46.4-3.108,64.146-16.877,2.022-1.569,4.316-3.659,6.744-5.871,5.8-5.286,12.378-11.277,18.315-13.022,10.366-3.048,26.874,14.638,38.929,27.549,3.854,4.129,7.182,7.694,9.406,9.55,2.382,2.145,4.955,2.717,7.661,1.712C1147.251,2831.755,1153.885,2819.445,1158.206,2809.58Zm-23.925,17.948c-2.854,1.059-5.583.439-8.11-1.843-2.25-1.877-5.592-5.458-9.463-9.6-11.248-12.047-28.243-30.254-38.163-27.34-5.767,1.7-12.275,7.624-18.016,12.856-2.439,2.223-4.744,4.322-6.79,5.909-15.748,12.222-36.589,17.7-57.178,15.035-20.472-2.652-38.378-12.689-50.47-28.277-.1-.13-.2-.257-.3-.388-12.322-16.1-17.758-37.293-14.912-58.132,2.777-20.332,12.914-38.025,28.545-49.814,2.019-1.567,4.312-3.657,6.741-5.869,5.8-5.286,12.377-11.277,18.315-13.022,10.366-3.047,26.874,14.638,38.929,27.55,3.823,4.1,7.129,7.637,9.353,9.506,7.421,2.484,12.949-.059,19.346-3a62.552,62.552,0,0,1,10.278-3.99,77.138,77.138,0,0,1,80.584,27.17.076.076,0,0,1,.016.021,77.419,77.419,0,0,1,15.467,56.78C1157.425,2789.214,1146.274,2823.076,1134.281,2827.528Z" fill="#1d1b35"/>
      <path id="Caminho_1039" data-name="Caminho 1039" d="M1133.872,2731.351l-.054-.069a65.938,65.938,0,0,0-69.911-22.638,62.891,62.891,0,0,0-7.635,2.878c-5.518,2.378-9.875,4.257-17.219,1.775l-.122-.067c-2.261-1.887-5.6-5.468-9.475-9.615-11.247-12.047-28.243-30.254-38.162-27.339-5.767,1.7-12.275,7.624-18.016,12.856-2.44,2.222-4.744,4.321-6.79,5.909a67.1,67.1,0,0,0-24.677,44.919,62.9,62.9,0,0,0,12.485,46.081c.2.257.4.512.6.765v0a67.105,67.105,0,0,0,44.922,24.679c17.229,1.966,33.865-2.682,46.845-13.087,2.026-1.572,4.32-3.661,6.747-5.874,5.8-5.286,12.379-11.278,18.318-13.022,10.366-3.048,26.874,14.637,38.929,27.549,3.853,4.129,7.182,7.694,9.405,9.55,2.255,2.01,4.623,2.563,7.047,1.652,10.073-3.785,19.03-31.631,19.9-38.628A67.06,67.06,0,0,0,1133.872,2731.351Zm-13.035,80.436c-2.489.842-4.893.106-7.146-2.184-2.234-1.861-5.576-5.442-9.448-9.589-11.247-12.047-28.243-30.254-38.162-27.34-5.77,1.7-12.277,7.624-18.018,12.856-2.44,2.222-4.743,4.321-6.789,5.908A56.6,56.6,0,0,1,971.885,2702c2.021-1.568,4.315-3.657,6.742-5.869,5.8-5.287,12.38-11.279,18.318-13.023,10.366-3.047,26.874,14.638,38.929,27.549,3.824,4.1,7.13,7.64,9.353,9.507,7.016,2.465,14.629.384,22.684-1.818,6.954-1.9,14.145-3.866,21.36-2.954a56.924,56.924,0,0,1,37.636,21.352l.007.008,0,0a57.563,57.563,0,0,1,11.406,41.778C1137.61,2784.183,1130.255,2808.6,1120.837,2811.787Z" fill="#1d1b35"/>
      <path id="Caminho_1040" data-name="Caminho 1040" d="M1117.808,2743.821l0-.005a45.07,45.07,0,0,0-29.966-17.067c-5.86-.709-11.316.615-16.594,1.893-6.672,1.618-12.975,3.146-19.735.719l-.115-.065c-2.26-1.887-5.6-5.468-9.474-9.615-11.248-12.047-28.243-30.254-38.163-27.339-5.767,1.7-12.275,7.624-18.016,12.856-2.439,2.222-4.744,4.321-6.79,5.909a43.023,43.023,0,0,0-16.8,29.106,45.735,45.735,0,0,0,8.816,34.13l0,0,.006.007c.179.244.363.485.547.723a43.1,43.1,0,0,0,28.553,16.072,45.742,45.742,0,0,0,34.134-8.818c2.022-1.569,4.315-3.659,6.744-5.872,5.8-5.285,12.377-11.276,18.315-13.021,10.366-3.047,26.875,14.636,38.929,27.55,3.854,4.129,7.183,7.694,9.406,9.55,2.235,1.943,4.456,2.511,6.611,1.694,7.021-2.659,11.847-18.845,12.676-25.146A45.048,45.048,0,0,0,1117.808,2743.821Zm-9.592,51.558c-2.227.856-4.571.243-6.967-1.82-2.256-1.883-5.6-5.465-9.471-9.612-11.247-12.048-28.243-30.255-38.162-27.34-5.768,1.7-12.275,7.624-18.016,12.856-2.44,2.223-4.744,4.322-6.79,5.909a33.993,33.993,0,0,1-25.188,7.311,38.236,38.236,0,0,1-25.69-13.728c-.159-.2-.316-.392-.469-.59a34.3,34.3,0,0,1-6.824-24.8,38.008,38.008,0,0,1,13.705-25.493c2.029-1.573,4.322-3.664,6.75-5.876,5.8-5.286,12.378-11.277,18.315-13.022,10.366-3.047,26.874,14.638,38.929,27.549,3.827,4.1,7.135,7.643,9.358,9.511,5.7,2.19,10.688,1.237,15.973.229,4.076-.778,8.291-1.582,13.065-.979a36.487,36.487,0,0,1,23.671,13.15c.15.193.3.388.442.583.146.179.292.362.433.545a36.038,36.038,0,0,1,6.791,26.216C1117.421,2781.117,1114.037,2793.143,1108.216,2795.379Z" fill="#1d1b35"/>
      <path id="Caminho_1041" data-name="Caminho 1041" d="M1101.745,2756.289l-.006-.009c-6.661-8.578-14.26-8.624-22.3-8.672-5.038-.029-10.248-.06-15.476-2.185l-.1-.06c-2.26-1.887-5.6-5.469-9.475-9.616-11.248-12.047-28.243-30.254-38.163-27.339-5.767,1.7-12.275,7.624-18.016,12.856-2.439,2.222-4.744,4.322-6.79,5.909a24.738,24.738,0,1,0,30.328,39.091c2.022-1.569,4.315-3.659,6.744-5.872,5.8-5.285,12.377-11.276,18.314-13.021,10.366-3.048,26.874,14.637,38.929,27.549,3.854,4.129,7.183,7.694,9.406,9.55,2.12,1.855,4.041,2.471,5.717,1.834,3.644-1.385,5.433-8.3,5.87-11.763A24.893,24.893,0,0,0,1101.745,2756.289Zm-12.974,21.19c-2.243-1.871-5.585-5.451-9.457-9.6-11.247-12.048-28.243-30.255-38.162-27.34-5.768,1.7-12.275,7.624-18.016,12.856-2.44,2.222-4.745,4.322-6.791,5.909a15.931,15.931,0,0,1-19.535-25.172c2.027-1.572,4.32-3.663,6.749-5.875,5.8-5.285,12.377-11.276,18.314-13.022,10.366-3.047,26.875,14.637,38.93,27.551,3.832,4.106,7.146,7.654,9.368,9.519a36.655,36.655,0,0,0,9.375,2.429c5.59.954,11.367,1.94,14.931,6.535.107.137.211.276.313.419h0c2.159,3.048,3.661,14.712.309,17.615C1093.572,2780.63,1091.442,2780.016,1088.771,2777.479Z" fill="#1d1b35"/>
      <path id="Caminho_1042" data-name="Caminho 1042" d="M1085.23,2767.674c-1.128-1.454-3.295-2.776-5.806-4.306-.981-.6-2.015-1.227-3.064-1.912a133.855,133.855,0,0,1-9.51-9.641c-11.248-12.048-28.243-30.255-38.163-27.34-5.769,1.7-12.277,7.624-18.018,12.856-2.439,2.222-4.743,4.321-6.789,5.908a4.4,4.4,0,1,0,5.4,6.958c2.022-1.568,4.316-3.657,6.743-5.87,5.8-5.286,12.379-11.278,18.317-13.022,10.366-3.048,26.874,14.637,38.929,27.549,3.854,4.129,7.182,7.694,9.406,9.55,2.018,1.314,2.947,1.247,3.152,1.025S1085.887,2768.52,1085.23,2767.674Z" fill="#1d1b35"/>
    </g>
  </g>
</svg>
