<svg xmlns="http://www.w3.org/2000/svg" width="246.689" height="174.963" viewBox="0 0 246.689 174.963">
  <g id="Grupo_207" data-name="Grupo 207" transform="translate(-8410.168 -7646.992)" opacity="0.5" style="isolation: isolate">
    <g id="Grupo_206" data-name="Grupo 206">
      <path id="Caminho_626" data-name="Caminho 626" d="M8647.179,7796.674c5.091-11.626,8.507-23.384,9.015-27.4a85.67,85.67,0,0,0-107.094-93.531,87.48,87.48,0,0,0-14.388,5.182c-2.1.976-3.72,1.879-5.021,2.6-4.448,2.484-6.114,3.412-14.125.8l-.125-.069c-2.262-1.887-5.6-5.468-9.476-9.615-11.247-12.047-28.243-30.254-38.162-27.339-5.77,1.695-12.276,7.623-18.018,12.855-2.44,2.223-4.743,4.321-6.789,5.908-17.658,13.368-29.046,33.31-32.065,56.158-3.043,23.019,3.106,46.394,16.868,64.133l.009.011,0,0c.193.256.391.513.587.765,13.358,17.219,33.052,28.319,55.566,31.3,23.023,3.043,46.4-3.108,64.146-16.877,2.021-1.569,4.314-3.659,6.743-5.872,5.8-5.285,12.378-11.276,18.315-13.021,10.366-3.048,26.874,14.637,38.929,27.549,3.854,4.129,7.183,7.694,9.405,9.55,2.383,2.145,4.956,2.717,7.661,1.711C8636.224,7818.849,8642.858,7806.539,8647.179,7796.674Zm-23.925,17.948c-2.854,1.058-5.583.438-8.11-1.843-2.25-1.878-5.592-5.458-9.464-9.6-11.247-12.048-28.243-30.255-38.162-27.34-5.767,1.7-12.274,7.624-18.016,12.856-2.44,2.223-4.744,4.322-6.79,5.909-15.748,12.221-36.589,17.7-57.178,15.035-20.473-2.652-38.378-12.69-50.471-28.277l-.3-.388c-12.321-16.105-17.758-37.293-14.912-58.132,2.777-20.333,12.914-38.025,28.546-49.814,2.019-1.567,4.312-3.657,6.74-5.869,5.8-5.286,12.377-11.277,18.315-13.022,10.365-3.048,26.874,14.638,38.929,27.55,3.823,4.1,7.129,7.637,9.354,9.506,7.421,2.484,12.948-.059,19.346-3a62.723,62.723,0,0,1,10.277-3.989,77.142,77.142,0,0,1,80.585,27.17.058.058,0,0,1,.016.021,77.411,77.411,0,0,1,15.466,56.779C8646.4,7776.308,8635.246,7810.17,8623.254,7814.622Z" fill="#36335f"/>
      <path id="Caminho_627" data-name="Caminho 627" d="M8622.845,7718.445l-.054-.069a65.94,65.94,0,0,0-69.911-22.638,62.948,62.948,0,0,0-7.635,2.878c-5.519,2.378-9.875,4.257-17.22,1.775l-.121-.067c-2.262-1.887-5.6-5.468-9.476-9.615-11.247-12.047-28.243-30.254-38.162-27.339-5.768,1.7-12.274,7.623-18.016,12.855-2.44,2.223-4.744,4.322-6.79,5.909a67.1,67.1,0,0,0-24.677,44.92,62.9,62.9,0,0,0,12.484,46.081c.2.256.4.512.6.765l0,0a67.106,67.106,0,0,0,44.922,24.679c17.229,1.966,33.865-2.682,46.845-13.088,2.026-1.571,4.32-3.66,6.747-5.873,5.8-5.286,12.379-11.278,18.318-13.022,10.366-3.048,26.874,14.637,38.928,27.549,3.854,4.129,7.184,7.694,9.406,9.55,2.255,2.01,4.623,2.563,7.047,1.652,10.073-3.786,19.029-31.631,19.9-38.628A67.067,67.067,0,0,0,8622.845,7718.445Zm-13.035,80.436c-2.488.841-4.893.106-7.146-2.184-2.234-1.862-5.576-5.442-9.448-9.589-11.247-12.048-28.243-30.255-38.162-27.34-5.77,1.7-12.276,7.624-18.018,12.856-2.44,2.222-4.743,4.321-6.789,5.908a56.6,56.6,0,0,1-69.389-89.441c2.021-1.568,4.314-3.657,6.741-5.87,5.8-5.286,12.379-11.278,18.318-13.022,10.366-3.047,26.874,14.638,38.929,27.549,3.824,4.1,7.13,7.639,9.354,9.507,7.016,2.465,14.629.383,22.684-1.819,6.954-1.9,14.146-3.866,21.36-2.954a56.93,56.93,0,0,1,37.636,21.353l.007.008,0,0a57.562,57.562,0,0,1,11.406,41.779C8626.583,7771.276,8619.228,7795.7,8609.81,7798.881Z" fill="#36335f"/>
      <path id="Caminho_628" data-name="Caminho 628" d="M8606.781,7730.915l0,0a45.072,45.072,0,0,0-29.967-17.067c-5.859-.709-11.316.615-16.594,1.893-6.672,1.618-12.975,3.146-19.735.719l-.114-.065c-2.261-1.887-5.6-5.468-9.475-9.615-11.247-12.047-28.242-30.254-38.162-27.339-5.768,1.7-12.275,7.623-18.017,12.855-2.438,2.223-4.744,4.322-6.79,5.909a43.024,43.024,0,0,0-16.8,29.107,45.733,45.733,0,0,0,8.815,34.129l0,0,.006.007c.179.243.362.485.547.723a43.1,43.1,0,0,0,28.553,16.072,45.741,45.741,0,0,0,34.134-8.818c2.022-1.569,4.315-3.659,6.744-5.872,5.8-5.285,12.377-11.276,18.314-13.022,10.367-3.046,26.876,14.637,38.93,27.551,3.854,4.129,7.183,7.694,9.406,9.55,2.234,1.943,4.456,2.51,6.61,1.694,7.021-2.659,11.848-18.845,12.677-25.147A45.048,45.048,0,0,0,8606.781,7730.915Zm-9.592,51.558c-2.228.856-4.571.243-6.968-1.82-2.256-1.884-5.6-5.466-9.471-9.613-11.247-12.047-28.243-30.254-38.162-27.339-5.768,1.7-12.274,7.624-18.016,12.856-2.44,2.222-4.745,4.322-6.79,5.909a34,34,0,0,1-25.188,7.311,38.242,38.242,0,0,1-25.689-13.728c-.159-.195-.316-.393-.471-.59a34.3,34.3,0,0,1-6.822-24.8,38.007,38.007,0,0,1,13.705-25.493c2.027-1.574,4.321-3.664,6.75-5.876,5.8-5.286,12.378-11.277,18.314-13.022,10.366-3.047,26.874,14.638,38.929,27.549,3.827,4.1,7.136,7.643,9.358,9.511,5.7,2.189,10.688,1.237,15.973.229,4.076-.778,8.291-1.582,13.065-.98a36.5,36.5,0,0,1,23.671,13.15c.15.194.3.388.442.584.146.179.292.362.433.545a36.033,36.033,0,0,1,6.791,26.215C8606.394,7768.211,8603.01,7780.237,8597.189,7782.473Z" fill="#36335f"/>
      <path id="Caminho_629" data-name="Caminho 629" d="M8590.718,7743.382l-.006-.008c-6.661-8.578-14.26-8.625-22.3-8.672-5.037-.029-10.248-.061-15.476-2.185l-.1-.06c-2.26-1.887-5.6-5.469-9.475-9.616-11.248-12.047-28.243-30.254-38.163-27.339-5.768,1.7-12.275,7.624-18.017,12.855-2.438,2.223-4.744,4.322-6.79,5.91a24.738,24.738,0,1,0,30.327,39.091c2.023-1.569,4.316-3.659,6.745-5.872,5.8-5.285,12.377-11.276,18.314-13.022,10.365-3.047,26.874,14.638,38.929,27.55,3.854,4.128,7.182,7.694,9.406,9.55,2.12,1.855,4.041,2.47,5.717,1.834,3.644-1.385,5.433-8.3,5.87-11.763A24.9,24.9,0,0,0,8590.718,7743.382Zm-12.974,21.191c-2.243-1.871-5.585-5.452-9.457-9.6-11.248-12.047-28.243-30.254-38.163-27.339-5.767,1.7-12.274,7.624-18.015,12.856-2.44,2.222-4.745,4.322-6.791,5.909a15.931,15.931,0,0,1-19.535-25.172c2.026-1.573,4.319-3.663,6.749-5.875,5.8-5.286,12.377-11.277,18.313-13.022,10.366-3.047,26.875,14.637,38.931,27.55,3.832,4.107,7.146,7.655,9.367,9.519a36.621,36.621,0,0,0,9.375,2.43c5.591.954,11.366,1.939,14.932,6.534q.16.206.313.42h0c2.159,3.047,3.661,14.712.31,17.614C8582.544,7767.724,8580.414,7767.109,8577.744,7764.573Z" fill="#36335f"/>
      <path id="Caminho_630" data-name="Caminho 630" d="M8574.2,7754.768c-1.128-1.454-3.295-2.776-5.806-4.306-.981-.6-2.016-1.228-3.064-1.912a133.838,133.838,0,0,1-9.51-9.642c-11.248-12.047-28.243-30.254-38.163-27.339-5.77,1.7-12.277,7.623-18.019,12.855-2.438,2.223-4.742,4.321-6.789,5.909a4.4,4.4,0,1,0,5.4,6.958c2.022-1.569,4.316-3.658,6.742-5.87,5.8-5.286,12.38-11.279,18.317-13.023,10.366-3.047,26.874,14.638,38.93,27.549,3.854,4.129,7.182,7.7,9.406,9.551,2.018,1.313,2.946,1.247,3.151,1.025S8574.86,7755.614,8574.2,7754.768Z" fill="#36335f"/>
    </g>
  </g>
</svg>
