<svg xmlns="http://www.w3.org/2000/svg" width="78.6" height="70.818" viewBox="0 0 78.6 70.818">
  <g id="Grupo_289" data-name="Grupo 289" transform="translate(-12353.669 -12964.945)">
    <path id="Caminho_724" data-name="Caminho 724" d="M12384,12970.126l-28.925,50.1a10.36,10.36,0,0,0,8.972,15.54h57.849a10.361,10.361,0,0,0,8.973-15.54l-28.925-50.1A10.359,10.359,0,0,0,12384,12970.126Z" fill="#f1f1f1"/>
    <g id="Grupo_288" data-name="Grupo 288">
      <path id="Caminho_725" data-name="Caminho 725" d="M12392.629,12985.7a4.2,4.2,0,0,1,4.177,4.622l-1.753,17.312a2.438,2.438,0,0,1-2.424,2.181h0a2.437,2.437,0,0,1-2.424-2.181l-1.754-17.312a4.2,4.2,0,0,1,4.178-4.622Zm-4.228,32.36h0a4.176,4.176,0,0,1,4.176-4.176h.051a4.176,4.176,0,0,1,4.176,4.176h0a4.177,4.177,0,0,1-4.176,4.177h-.051A4.177,4.177,0,0,1,12388.4,13018.061Z" fill="#4a45d8"/>
    </g>
  </g>
</svg>
