<svg xmlns="http://www.w3.org/2000/svg" width="505.277" height="202.866" viewBox="0 0 505.277 202.866">
  <g id="Grupo_458" data-name="Grupo 458" transform="translate(-383.593 -6165.855)">
    <path id="Caminho_1059" data-name="Caminho 1059" d="M1.366-11.69H14.64v2.677H1.366Zm0,5.545H14.64v2.677H1.366Zm43.947-.219a6.724,6.724,0,0,1-1.5,3.633A7.869,7.869,0,0,1,40.4-.437a14.918,14.918,0,0,1-5.135.792,16.942,16.942,0,0,1-4.548-.574,10.243,10.243,0,0,1-3.551-1.721,7.831,7.831,0,0,1-2.308-2.854,9.154,9.154,0,0,1-.819-4,9.244,9.244,0,0,1,.819-4.015,7.922,7.922,0,0,1,2.308-2.882,10.283,10.283,0,0,1,3.551-1.748,16.571,16.571,0,0,1,4.548-.587,14.58,14.58,0,0,1,5.149.819,8.008,8.008,0,0,1,3.428,2.335A6.663,6.663,0,0,1,45.313-11.2H41.708a4.737,4.737,0,0,0-1.188-1.98,5.378,5.378,0,0,0-2.144-1.27,9.882,9.882,0,0,0-3.114-.437,10.284,10.284,0,0,0-3.933.7,5.725,5.725,0,0,0-2.622,2.049,5.771,5.771,0,0,0-.929,3.346,5.657,5.657,0,0,0,.929,3.3,5.76,5.76,0,0,0,2.622,2.035,10.284,10.284,0,0,0,3.933.7,9.753,9.753,0,0,0,3.1-.437,5.473,5.473,0,0,0,2.13-1.256,4.937,4.937,0,0,0,1.215-1.912Zm5.408,2.513V-6.883h11.69v3.032ZM46.324,0l8.3-17.672H58.56L66.945,0h-3.96L55.719-15.924h1.748L50.257,0ZM89.233-6.364a6.725,6.725,0,0,1-1.5,3.633A7.869,7.869,0,0,1,84.317-.437a14.918,14.918,0,0,1-5.135.792,16.942,16.942,0,0,1-4.548-.574,10.243,10.243,0,0,1-3.551-1.721,7.831,7.831,0,0,1-2.308-2.854,9.154,9.154,0,0,1-.819-4,9.244,9.244,0,0,1,.819-4.015,7.922,7.922,0,0,1,2.308-2.882,10.283,10.283,0,0,1,3.551-1.748,16.571,16.571,0,0,1,4.548-.587,14.58,14.58,0,0,1,5.149.819,8.008,8.008,0,0,1,3.428,2.335A6.663,6.663,0,0,1,89.233-11.2H85.628a4.737,4.737,0,0,0-1.188-1.98,5.378,5.378,0,0,0-2.144-1.27,9.882,9.882,0,0,0-3.114-.437,10.284,10.284,0,0,0-3.933.7,5.725,5.725,0,0,0-2.622,2.049A5.771,5.771,0,0,0,71.7-8.795a5.657,5.657,0,0,0,.929,3.3,5.76,5.76,0,0,0,2.622,2.035,10.284,10.284,0,0,0,3.933.7,9.753,9.753,0,0,0,3.1-.437,5.473,5.473,0,0,0,2.13-1.256,4.937,4.937,0,0,0,1.215-1.912Z" transform="translate(799.637 6276.788)" fill="#1d1b35"/>
    <g id="Grupo_156" data-name="Grupo 156" transform="translate(-52.22 235.927)">
      <rect id="Ret창ngulo_57" data-name="Ret창ngulo 57" width="405.613" height="195.61" rx="25" transform="translate(435.813 5929.928)" fill="#4a45d8"/>
      <rect id="Ret창ngulo_58" data-name="Ret창ngulo 58" width="405.613" height="195.61" rx="25" transform="translate(435.813 5937.184)" fill="#f41f45"/>
      <g id="Grupo_155" data-name="Grupo 155" transform="translate(0 6.024)">
        <path id="Caminho_1061" data-name="Caminho 1061" d="M-140.66-5.34a4.685,4.685,0,0,1-1.38,3.18,8.068,8.068,0,0,1-3.77,1.92A25.829,25.829,0,0,1-152.1.4a39.231,39.231,0,0,1-5.2-.31,13.706,13.706,0,0,1-3.92-1.06,5.806,5.806,0,0,1-2.48-2.05,5.827,5.827,0,0,1-.86-3.28,5.976,5.976,0,0,1,.86-3.31,5.992,5.992,0,0,1,2.48-2.12,13.428,13.428,0,0,1,3.92-1.13,35.818,35.818,0,0,1,5.2-.34,24.153,24.153,0,0,1,6.3.69,8.087,8.087,0,0,1,3.78,2.03,4.937,4.937,0,0,1,1.38,3.26h-5.2a2.561,2.561,0,0,0-.88-1.13,4.919,4.919,0,0,0-1.92-.77,16.906,16.906,0,0,0-3.46-.28,22.63,22.63,0,0,0-4.16.31,4.786,4.786,0,0,0-2.34.99,2.328,2.328,0,0,0-.74,1.8,2.092,2.092,0,0,0,.74,1.66,4.993,4.993,0,0,0,2.34.94,23.367,23.367,0,0,0,4.16.3,18.008,18.008,0,0,0,3.45-.26,5.186,5.186,0,0,0,1.91-.71,2.525,2.525,0,0,0,.88-.97ZM-120.38,0h-4.8V-9.8h4.8Zm-4.6-5.06.04.96a2.786,2.786,0,0,1-.39.98,6.315,6.315,0,0,1-.91,1.16,7.047,7.047,0,0,1-1.42,1.11,8.137,8.137,0,0,1-1.92.83,8.431,8.431,0,0,1-2.4.32,11.183,11.183,0,0,1-2.5-.27,6.189,6.189,0,0,1-2.1-.89,4.237,4.237,0,0,1-1.44-1.67,5.9,5.9,0,0,1-.52-2.63V-9.8h4.8v4.14a3.25,3.25,0,0,0,.37,1.7,1.934,1.934,0,0,0,1.17.83,7.635,7.635,0,0,0,2.06.23,6.645,6.645,0,0,0,2.19-.35,8.165,8.165,0,0,0,1.78-.85A6.162,6.162,0,0,0-124.98-5.06Zm6.3,1.54h4.42a1.568,1.568,0,0,0,1.07.72,9.813,9.813,0,0,0,2.27.2,8.649,8.649,0,0,0,1.69-.12,1.341,1.341,0,0,0,.72-.32.641.641,0,0,0,.17-.42.477.477,0,0,0-.37-.47,4.68,4.68,0,0,0-1.25-.16q-.88-.03-2.42-.03a23.445,23.445,0,0,1-2.61-.13,8.623,8.623,0,0,1-1.95-.42,2.708,2.708,0,0,1-1.22-.81,2,2,0,0,1-.42-1.3,2.242,2.242,0,0,1,.62-1.61,4.174,4.174,0,0,1,1.68-1.02,11.423,11.423,0,0,1,2.45-.53,25.456,25.456,0,0,1,2.91-.16,13.851,13.851,0,0,1,4.12.51,5.18,5.18,0,0,1,2.36,1.37,2.771,2.771,0,0,1,.74,1.94H-108a1.274,1.274,0,0,0-.83-.72,7.537,7.537,0,0,0-2.09-.2,7.026,7.026,0,0,0-2.03.21q-.63.21-.63.67a.48.48,0,0,0,.31.45,3.68,3.68,0,0,0,1.18.21q.87.06,2.55.06,1.16,0,2.27.08a9.608,9.608,0,0,1,2,.34,3.128,3.128,0,0,1,1.41.8,2.044,2.044,0,0,1,.52,1.48,2.221,2.221,0,0,1-.93,1.85A6.213,6.213,0,0,1-106.9-.02a22.012,22.012,0,0,1-4.02.32,18.928,18.928,0,0,1-3.41-.26,9.013,9.013,0,0,1-2.27-.69,4.514,4.514,0,0,1-1.35-.94,2.627,2.627,0,0,1-.62-1.02A2.4,2.4,0,0,1-118.68-3.52Zm16.44-6.28h11.76v3h-11.76Zm3.48-3h4.8V0h-4.8ZM-79.88.3a22.579,22.579,0,0,1-5.29-.52,6.2,6.2,0,0,1-3.16-1.66,4.254,4.254,0,0,1-1.05-3,4.29,4.29,0,0,1,1.05-3.01,6.211,6.211,0,0,1,3.16-1.68,22.169,22.169,0,0,1,5.29-.53,21.81,21.81,0,0,1,5.25.53A6.135,6.135,0,0,1-71.5-7.89a4.315,4.315,0,0,1,1.04,3.01,4.278,4.278,0,0,1-1.04,3A6.12,6.12,0,0,1-74.63-.22,22.213,22.213,0,0,1-79.88.3Zm0-2.9a10.415,10.415,0,0,0,2.48-.25,3.258,3.258,0,0,0,1.52-.76,1.707,1.707,0,0,0,.52-1.27,1.757,1.757,0,0,0-.51-1.28,3.2,3.2,0,0,0-1.51-.78,10.129,10.129,0,0,0-2.5-.26,10.406,10.406,0,0,0-2.51.26,3.422,3.422,0,0,0-1.56.77,1.714,1.714,0,0,0-.53,1.29,1.707,1.707,0,0,0,.52,1.27,3.28,3.28,0,0,0,1.55.76A10.909,10.909,0,0,0-79.88-2.6Zm10.92-.92h4.42a1.568,1.568,0,0,0,1.07.72,9.813,9.813,0,0,0,2.27.2,8.649,8.649,0,0,0,1.69-.12,1.341,1.341,0,0,0,.72-.32.641.641,0,0,0,.17-.42.477.477,0,0,0-.37-.47,4.68,4.68,0,0,0-1.25-.16q-.88-.03-2.42-.03a23.445,23.445,0,0,1-2.61-.13,8.623,8.623,0,0,1-1.95-.42,2.708,2.708,0,0,1-1.22-.81,2,2,0,0,1-.42-1.3,2.242,2.242,0,0,1,.62-1.61,4.174,4.174,0,0,1,1.68-1.02,11.423,11.423,0,0,1,2.45-.53,25.457,25.457,0,0,1,2.91-.16,13.851,13.851,0,0,1,4.12.51,5.18,5.18,0,0,1,2.36,1.37,2.771,2.771,0,0,1,.74,1.94h-4.3A1.274,1.274,0,0,0-59.11-7a7.537,7.537,0,0,0-2.09-.2,7.026,7.026,0,0,0-2.03.21q-.63.21-.63.67a.48.48,0,0,0,.31.45,3.68,3.68,0,0,0,1.18.21q.87.06,2.55.06,1.16,0,2.27.08a9.608,9.608,0,0,1,2,.34,3.128,3.128,0,0,1,1.41.8,2.044,2.044,0,0,1,.52,1.48,2.221,2.221,0,0,1-.93,1.85A6.213,6.213,0,0,1-57.18-.02,22.012,22.012,0,0,1-61.2.3,18.928,18.928,0,0,1-64.61.04a9.013,9.013,0,0,1-2.27-.69,4.514,4.514,0,0,1-1.35-.94,2.627,2.627,0,0,1-.62-1.02A2.4,2.4,0,0,1-68.96-3.52Zm30.4,3.8A11.212,11.212,0,0,1-42.4-.33,6.057,6.057,0,0,1-45.05-2.1a4.221,4.221,0,0,1-.97-2.8,4.338,4.338,0,0,1,.97-2.88A5.845,5.845,0,0,1-42.4-9.52a11.74,11.74,0,0,1,3.84-.58,13.039,13.039,0,0,1,3.24.37,7.837,7.837,0,0,1,2.46,1.06A4.888,4.888,0,0,1-31.3-7.02a4.25,4.25,0,0,1,.54,2.12,4.194,4.194,0,0,1-.54,2.11,4.922,4.922,0,0,1-1.56,1.64A7.837,7.837,0,0,1-35.32-.09,13.039,13.039,0,0,1-38.56.28Zm1.8-3.04a18.923,18.923,0,0,0,2.79-.19,5.608,5.608,0,0,0,2.04-.65,1.44,1.44,0,0,0,.77-1.3,1.455,1.455,0,0,0-.77-1.32,5.49,5.49,0,0,0-2.04-.64,19.957,19.957,0,0,0-2.79-.18,7.569,7.569,0,0,0-3.16.53A1.71,1.71,0,0,0-41.04-4.9a1.572,1.572,0,0,0,.5,1.18A3.19,3.19,0,0,0-39.08-3,9.691,9.691,0,0,0-36.76-2.76Zm5.6-11.04h4.8V0h-4.52q-.08-.46-.18-1.49t-.1-2.31ZM-16.6.28a11.212,11.212,0,0,1-3.84-.61A6.057,6.057,0,0,1-23.09-2.1a4.221,4.221,0,0,1-.97-2.8,4.338,4.338,0,0,1,.97-2.88,5.845,5.845,0,0,1,2.65-1.74,11.74,11.74,0,0,1,3.84-.58,11.922,11.922,0,0,1,4.15.65,6.126,6.126,0,0,1,2.7,1.82A4.2,4.2,0,0,1-8.8-4.9a4.194,4.194,0,0,1-.54,2.11A4.922,4.922,0,0,1-10.9-1.15,7.837,7.837,0,0,1-13.36-.09,13.039,13.039,0,0,1-16.6.28Zm1.8-3.04a18.923,18.923,0,0,0,2.79-.19A5.608,5.608,0,0,0-9.97-3.6,1.44,1.44,0,0,0-9.2-4.9a1.455,1.455,0,0,0-.77-1.32,5.49,5.49,0,0,0-2.04-.64,19.957,19.957,0,0,0-2.79-.18,7.569,7.569,0,0,0-3.16.53A1.71,1.71,0,0,0-19.08-4.9a1.572,1.572,0,0,0,.5,1.18A3.19,3.19,0,0,0-17.12-3,9.692,9.692,0,0,0-14.8-2.76ZM-9.2-9.8h4.8V0H-8.92l-.07-.46q-.07-.46-.14-1.32T-9.2-3.8Zm6.5,6.28H1.72a1.568,1.568,0,0,0,1.07.72,9.813,9.813,0,0,0,2.27.2,8.649,8.649,0,0,0,1.69-.12,1.341,1.341,0,0,0,.72-.32.641.641,0,0,0,.17-.42.477.477,0,0,0-.37-.47,4.68,4.68,0,0,0-1.25-.16q-.88-.03-2.42-.03A23.445,23.445,0,0,1,.99-4.25,8.623,8.623,0,0,1-.96-4.67a2.708,2.708,0,0,1-1.22-.81,2,2,0,0,1-.42-1.3,2.242,2.242,0,0,1,.62-1.61A4.174,4.174,0,0,1-.3-9.41a11.423,11.423,0,0,1,2.45-.53,25.457,25.457,0,0,1,2.91-.16,13.851,13.851,0,0,1,4.12.51,5.18,5.18,0,0,1,2.36,1.37,2.771,2.771,0,0,1,.74,1.94H7.98A1.274,1.274,0,0,0,7.15-7a7.537,7.537,0,0,0-2.09-.2,7.026,7.026,0,0,0-2.03.21q-.63.21-.63.67a.48.48,0,0,0,.31.45,3.68,3.68,0,0,0,1.18.21q.87.06,2.55.06,1.16,0,2.27.08a9.608,9.608,0,0,1,2,.34,3.127,3.127,0,0,1,1.41.8,2.044,2.044,0,0,1,.52,1.48,2.221,2.221,0,0,1-.93,1.85A6.213,6.213,0,0,1,9.08-.02,22.012,22.012,0,0,1,5.06.3,18.928,18.928,0,0,1,1.65.04,9.013,9.013,0,0,1-.62-.65a4.514,4.514,0,0,1-1.35-.94,2.627,2.627,0,0,1-.62-1.02A2.4,2.4,0,0,1-2.7-3.52ZM27.7.28a11.212,11.212,0,0,1-3.84-.61A6.057,6.057,0,0,1,21.21-2.1a4.221,4.221,0,0,1-.97-2.8,4.338,4.338,0,0,1,.97-2.88,5.845,5.845,0,0,1,2.65-1.74,11.74,11.74,0,0,1,3.84-.58,11.922,11.922,0,0,1,4.15.65,6.126,6.126,0,0,1,2.7,1.82A4.2,4.2,0,0,1,35.5-4.9a4.194,4.194,0,0,1-.54,2.11A4.922,4.922,0,0,1,33.4-1.15,7.837,7.837,0,0,1,30.94-.09,13.039,13.039,0,0,1,27.7.28Zm1.8-3.04a18.923,18.923,0,0,0,2.79-.19,5.608,5.608,0,0,0,2.04-.65,1.44,1.44,0,0,0,.77-1.3,1.455,1.455,0,0,0-.77-1.32,5.49,5.49,0,0,0-2.04-.64,19.957,19.957,0,0,0-2.79-.18,7.569,7.569,0,0,0-3.16.53A1.71,1.71,0,0,0,25.22-4.9a1.572,1.572,0,0,0,.5,1.18A3.19,3.19,0,0,0,27.18-3,9.692,9.692,0,0,0,29.5-2.76ZM35.1-9.8h4.8V0H35.38l-.07-.46q-.07-.46-.14-1.32T35.1-3.8ZM48.8,2.38l.21.21a1.42,1.42,0,0,0,.48.28A2.557,2.557,0,0,0,50.4,3a1.96,1.96,0,0,0,.87-.15.455.455,0,0,0,.29-.41.575.575,0,0,0-.12-.33,1.2,1.2,0,0,0-.56-.33,7.07,7.07,0,0,0-1.42-.28l3.3-.46a11.515,11.515,0,0,1,1.54.35,2.865,2.865,0,0,1,1.09.58,1.268,1.268,0,0,1,.41.99,2.009,2.009,0,0,1-1.37,1.77,9.124,9.124,0,0,1-3.91.67,7.825,7.825,0,0,1-2.77-.43,4.182,4.182,0,0,1-1.73-1.13,2.8,2.8,0,0,1-.7-1.46Zm.66-2.56h3.4V1.9l-3.4-.4ZM59.98-4.26a3.59,3.59,0,0,1-.9,2.46A5.752,5.752,0,0,1,56.24-.24,19.307,19.307,0,0,1,51.2.3a23.836,23.836,0,0,1-5.27-.5,6.635,6.635,0,0,1-3.3-1.64A4.129,4.129,0,0,1,41.5-4.88a4.163,4.163,0,0,1,1.13-3.05,6.648,6.648,0,0,1,3.3-1.66,23.385,23.385,0,0,1,5.27-.51,19.072,19.072,0,0,1,5.02.54A5.74,5.74,0,0,1,59.04-8a3.645,3.645,0,0,1,.92,2.44h-4.4a2.336,2.336,0,0,0-1.44-1.21A8.283,8.283,0,0,0,51.2-7.2a13.462,13.462,0,0,0-2.54.21,3.618,3.618,0,0,0-1.67.71,1.735,1.735,0,0,0-.59,1.4,1.726,1.726,0,0,0,.58,1.38,3.476,3.476,0,0,0,1.66.7,14.249,14.249,0,0,0,2.56.2,8.369,8.369,0,0,0,2.93-.43,2.323,2.323,0,0,0,1.45-1.23ZM70.88.3a22.579,22.579,0,0,1-5.29-.52,6.2,6.2,0,0,1-3.16-1.66,4.254,4.254,0,0,1-1.05-3,4.29,4.29,0,0,1,1.05-3.01,6.211,6.211,0,0,1,3.16-1.68,22.169,22.169,0,0,1,5.29-.53,21.81,21.81,0,0,1,5.25.53,6.135,6.135,0,0,1,3.13,1.68A4.315,4.315,0,0,1,80.3-4.88a4.278,4.278,0,0,1-1.04,3A6.12,6.12,0,0,1,76.13-.22,22.213,22.213,0,0,1,70.88.3Zm0-2.9a10.415,10.415,0,0,0,2.48-.25,3.258,3.258,0,0,0,1.52-.76,1.707,1.707,0,0,0,.52-1.27,1.757,1.757,0,0,0-.51-1.28,3.2,3.2,0,0,0-1.51-.78,10.129,10.129,0,0,0-2.5-.26,10.406,10.406,0,0,0-2.51.26,3.422,3.422,0,0,0-1.56.77,1.714,1.714,0,0,0-.53,1.29,1.707,1.707,0,0,0,.52,1.27,3.28,3.28,0,0,0,1.55.76A10.909,10.909,0,0,0,70.88-2.6Zm2.68-9.3a5.646,5.646,0,0,1-1.43-.17q-.65-.17-1.23-.38t-1.16-.38A4.316,4.316,0,0,0,68.52-13a2.475,2.475,0,0,0-.82.12,2.023,2.023,0,0,0-.61.34,5.918,5.918,0,0,0-.57.54h-3a6.2,6.2,0,0,1,1.01-1.44,5.061,5.061,0,0,1,1.55-1.12A4.908,4.908,0,0,1,68.22-15a5.5,5.5,0,0,1,1.43.17q.63.17,1.19.38t1.11.38a4.011,4.011,0,0,0,1.19.17,2.739,2.739,0,0,0,.94-.14,2.261,2.261,0,0,0,.66-.37,5.187,5.187,0,0,0,.52-.49h3a5.924,5.924,0,0,1-1,1.43,5.139,5.139,0,0,1-1.55,1.13A4.892,4.892,0,0,1,73.56-11.9ZM95.42-3.52h4.72A3.337,3.337,0,0,1,98.99-1.5,6.7,6.7,0,0,1,96.17-.17,19.594,19.594,0,0,1,91.46.3a24.633,24.633,0,0,1-5.21-.48A6.855,6.855,0,0,1,82.88-1.8,4.083,4.083,0,0,1,81.7-4.88a4.149,4.149,0,0,1,1.15-3.07A6.725,6.725,0,0,1,86.18-9.6a23.974,23.974,0,0,1,5.28-.5,19.021,19.021,0,0,1,4.98.54A5.2,5.2,0,0,1,99.3-7.81a5.1,5.1,0,0,1,.88,3.27H86.58a1.776,1.776,0,0,0,.57.96,3.463,3.463,0,0,0,1.46.71,10.434,10.434,0,0,0,2.65.27,13.763,13.763,0,0,0,2.83-.24Q95.2-3.08,95.42-3.52ZM91.26-7.2a8.8,8.8,0,0,0-3.23.46q-1.11.46-1.31.92h8.8q-.14-.52-1.12-.95A8.383,8.383,0,0,0,91.26-7.2Zm10.42,3.68h4.42a1.568,1.568,0,0,0,1.07.72,9.813,9.813,0,0,0,2.27.2,8.649,8.649,0,0,0,1.69-.12,1.341,1.341,0,0,0,.72-.32.641.641,0,0,0,.17-.42.477.477,0,0,0-.37-.47,4.68,4.68,0,0,0-1.25-.16q-.88-.03-2.42-.03a23.445,23.445,0,0,1-2.61-.13,8.623,8.623,0,0,1-1.95-.42,2.708,2.708,0,0,1-1.22-.81,2,2,0,0,1-.42-1.3,2.242,2.242,0,0,1,.62-1.61,4.174,4.174,0,0,1,1.68-1.02,11.423,11.423,0,0,1,2.45-.53,25.456,25.456,0,0,1,2.91-.16,13.851,13.851,0,0,1,4.12.51,5.18,5.18,0,0,1,2.36,1.37,2.771,2.771,0,0,1,.74,1.94h-4.3a1.274,1.274,0,0,0-.83-.72,7.537,7.537,0,0,0-2.09-.2,7.026,7.026,0,0,0-2.03.21q-.63.21-.63.67a.48.48,0,0,0,.31.45,3.68,3.68,0,0,0,1.18.21q.87.06,2.55.06,1.16,0,2.27.08a9.608,9.608,0,0,1,2,.34,3.128,3.128,0,0,1,1.41.8,2.044,2.044,0,0,1,.52,1.48,2.221,2.221,0,0,1-.93,1.85,6.213,6.213,0,0,1-2.63,1.03,22.012,22.012,0,0,1-4.02.32,18.928,18.928,0,0,1-3.41-.26,9.013,9.013,0,0,1-2.27-.69,4.514,4.514,0,0,1-1.35-.94,2.627,2.627,0,0,1-.62-1.02A2.4,2.4,0,0,1,101.68-3.52Zm30.4,3.8a11.211,11.211,0,0,1-3.84-.61,6.057,6.057,0,0,1-2.65-1.77,4.221,4.221,0,0,1-.97-2.8,4.338,4.338,0,0,1,.97-2.88,5.845,5.845,0,0,1,2.65-1.74,11.74,11.74,0,0,1,3.84-.58,13.039,13.039,0,0,1,3.24.37,7.837,7.837,0,0,1,2.46,1.06,4.888,4.888,0,0,1,1.56,1.65,4.25,4.25,0,0,1,.54,2.12,4.194,4.194,0,0,1-.54,2.11,4.922,4.922,0,0,1-1.56,1.64,7.837,7.837,0,0,1-2.46,1.06A13.039,13.039,0,0,1,132.08.28Zm1.8-3.04a18.923,18.923,0,0,0,2.79-.19,5.608,5.608,0,0,0,2.04-.65,1.44,1.44,0,0,0,.77-1.3,1.455,1.455,0,0,0-.77-1.32,5.49,5.49,0,0,0-2.04-.64,19.957,19.957,0,0,0-2.79-.18,7.569,7.569,0,0,0-3.16.53A1.71,1.71,0,0,0,129.6-4.9a1.572,1.572,0,0,0,.5,1.18,3.19,3.19,0,0,0,1.46.72A9.692,9.692,0,0,0,133.88-2.76Zm5.6-11.04h4.8V0h-4.52q-.08-.46-.18-1.49t-.1-2.31ZM160.3-3.52h4.72a3.337,3.337,0,0,1-1.15,2.02,6.7,6.7,0,0,1-2.82,1.33,19.594,19.594,0,0,1-4.71.47,24.633,24.633,0,0,1-5.21-.48,6.855,6.855,0,0,1-3.37-1.62,4.083,4.083,0,0,1-1.18-3.08,4.149,4.149,0,0,1,1.15-3.07,6.725,6.725,0,0,1,3.33-1.65,23.974,23.974,0,0,1,5.28-.5,19.021,19.021,0,0,1,4.98.54,5.2,5.2,0,0,1,2.86,1.75,5.1,5.1,0,0,1,.88,3.27h-13.6a1.776,1.776,0,0,0,.57.96,3.463,3.463,0,0,0,1.46.71,10.434,10.434,0,0,0,2.65.27,13.764,13.764,0,0,0,2.83-.24Q160.08-3.08,160.3-3.52ZM156.14-7.2a8.8,8.8,0,0,0-3.23.46q-1.11.46-1.31.92h8.8q-.14-.52-1.12-.95A8.383,8.383,0,0,0,156.14-7.2ZM-155.22,14.2h4.8V24h-4.8Zm12-.3a10.257,10.257,0,0,1,2.28.25,5.63,5.63,0,0,1,1.97.85,4.257,4.257,0,0,1,1.39,1.64,5.84,5.84,0,0,1,.52,2.62V24h-4.8V19.86a2.59,2.59,0,0,0-.78-2.13,4.644,4.644,0,0,0-2.82-.63,9.01,9.01,0,0,0-2.09.24,12.084,12.084,0,0,0-1.81.57,6.777,6.777,0,0,0-1.26.65l-.04-.76a3.152,3.152,0,0,1,.55-1.01,6.189,6.189,0,0,1,1.37-1.31,8.284,8.284,0,0,1,2.27-1.12A10.244,10.244,0,0,1-143.22,13.9Zm13.12,0a10.257,10.257,0,0,1,2.28.25,5.63,5.63,0,0,1,1.97.85,4.257,4.257,0,0,1,1.39,1.64,5.84,5.84,0,0,1,.52,2.62V24h-4.8V19.86a2.59,2.59,0,0,0-.78-2.13,4.645,4.645,0,0,0-2.82-.63,9.01,9.01,0,0,0-2.09.24,12.083,12.083,0,0,0-1.81.57,6.776,6.776,0,0,0-1.26.65l-.04-.96a2.8,2.8,0,0,1,.6-.9,7.464,7.464,0,0,1,1.47-1.24,9.715,9.715,0,0,1,2.3-1.1A9.495,9.495,0,0,1-130.1,13.9Zm15.22,10.38a11.212,11.212,0,0,1-3.84-.61,6.057,6.057,0,0,1-2.65-1.77,4.221,4.221,0,0,1-.97-2.8,4.338,4.338,0,0,1,.97-2.88,5.845,5.845,0,0,1,2.65-1.74,11.74,11.74,0,0,1,3.84-.58,11.922,11.922,0,0,1,4.15.65,6.126,6.126,0,0,1,2.7,1.82,4.2,4.2,0,0,1,.95,2.73,4.194,4.194,0,0,1-.54,2.11,4.922,4.922,0,0,1-1.56,1.64,7.837,7.837,0,0,1-2.46,1.06A13.039,13.039,0,0,1-114.88,24.28Zm1.8-3.04a18.923,18.923,0,0,0,2.79-.19,5.608,5.608,0,0,0,2.04-.65,1.44,1.44,0,0,0,.77-1.3,1.455,1.455,0,0,0-.77-1.32,5.49,5.49,0,0,0-2.04-.64,19.957,19.957,0,0,0-2.79-.18,7.569,7.569,0,0,0-3.16.53,1.71,1.71,0,0,0-1.12,1.61,1.572,1.572,0,0,0,.5,1.18,3.19,3.19,0,0,0,1.46.72A9.691,9.691,0,0,0-113.08,21.24Zm5.6-7.04h4.8V24h-4.52l-.07-.46q-.07-.46-.14-1.32t-.07-2.02Zm6.6,0h4.8V24h-4.8Zm9.96,3.7a10.982,10.982,0,0,0-2.38.24,10.238,10.238,0,0,0-1.84.57,4.741,4.741,0,0,0-1.14.65l-.04-.96a3.736,3.736,0,0,1,.32-.99,7,7,0,0,1,.7-1.18,6.179,6.179,0,0,1,1.08-1.14,5.432,5.432,0,0,1,1.47-.86,4.911,4.911,0,0,1,1.83-.33Zm1.5-7.7h4.8V24h-4.8Zm16.96,4-7.92,5.5.1-2.6,8.5,6.9h-6.08l-6.68-5.58,5.72-4.22Zm14.2,6.28h4.72a3.337,3.337,0,0,1-1.15,2.02,6.7,6.7,0,0,1-2.82,1.33,19.594,19.594,0,0,1-4.71.47,24.633,24.633,0,0,1-5.21-.48A6.855,6.855,0,0,1-70.8,22.2a4.083,4.083,0,0,1-1.18-3.08,4.149,4.149,0,0,1,1.15-3.07A6.725,6.725,0,0,1-67.5,14.4a23.974,23.974,0,0,1,5.28-.5,19.021,19.021,0,0,1,4.98.54,5.2,5.2,0,0,1,2.86,1.75,5.1,5.1,0,0,1,.88,3.27H-67.1a1.776,1.776,0,0,0,.57.96,3.463,3.463,0,0,0,1.46.71,10.434,10.434,0,0,0,2.65.27,13.764,13.764,0,0,0,2.83-.24Q-58.48,20.92-58.26,20.48Zm-4.16-3.68a8.8,8.8,0,0,0-3.23.46q-1.11.46-1.31.92h8.8q-.14-.52-1.12-.95A8.383,8.383,0,0,0-62.42,16.8Zm10.02-2.6h11.76v3H-52.4Zm3.48-3h4.8V24h-4.8Zm14.86-2.14v3h-5.08v-3ZM-39,14.2h4.8V24H-39Zm6.94,0h4.8V24h-4.8Zm12-.3a10.257,10.257,0,0,1,2.28.25,5.63,5.63,0,0,1,1.97.85,4.257,4.257,0,0,1,1.39,1.64,5.84,5.84,0,0,1,.52,2.62V24h-4.8V19.86a2.59,2.59,0,0,0-.78-2.13,4.644,4.644,0,0,0-2.82-.63,9.01,9.01,0,0,0-2.09.24,12.084,12.084,0,0,0-1.81.57,6.776,6.776,0,0,0-1.26.65l-.04-.76a3.153,3.153,0,0,1,.55-1.01,6.189,6.189,0,0,1,1.37-1.31,8.284,8.284,0,0,1,2.27-1.12A10.244,10.244,0,0,1-20.06,13.9Zm16.04,8.72a19.364,19.364,0,0,1-4.68-.47,5.466,5.466,0,0,1-2.72-1.42,3.381,3.381,0,0,1-.88-2.39,3.439,3.439,0,0,1,.86-2.33,5.677,5.677,0,0,1,2.69-1.55,16.539,16.539,0,0,1,4.73-.56h10v2.52a14,14,0,0,1-2.63-.13A18.41,18.41,0,0,1,.9,15.78l-.22-.3a9.46,9.46,0,0,1,1.71.72A4.275,4.275,0,0,1,3.7,17.26a2.284,2.284,0,0,1,.5,1.48,2.908,2.908,0,0,1-.85,2.11A5.523,5.523,0,0,1,.69,22.17,20.116,20.116,0,0,1-4.02,22.62ZM.24,28.3v-.54a.636.636,0,0,0-.53-.71,9.064,9.064,0,0,0-1.67-.11H-7.54a10.582,10.582,0,0,1-2.29-.2,3.512,3.512,0,0,1-1.32-.54,1.686,1.686,0,0,1-.6-.75,2.346,2.346,0,0,1-.15-.81,1.606,1.606,0,0,1,.64-1.35A4.314,4.314,0,0,1-9.3,22.6a23.14,23.14,0,0,1,3.36-.2l1.92.22a10.819,10.819,0,0,0-2.34.17q-.66.17-.66.67a.43.43,0,0,0,.26.41,1.58,1.58,0,0,0,.7.13h5.9a13.219,13.219,0,0,1,3.12.29,2.638,2.638,0,0,1,1.61.98,3.317,3.317,0,0,1,.47,1.89V28.3ZM-4.02,20a8.761,8.761,0,0,0,2.13-.21,2.551,2.551,0,0,0,1.17-.57,1.109,1.109,0,0,0,.36-.8,1.174,1.174,0,0,0-.36-.86A2.477,2.477,0,0,0-1.88,17a9.159,9.159,0,0,0-2.14-.2,9.317,9.317,0,0,0-2.14.2,2.65,2.65,0,0,0-1.2.56,1.144,1.144,0,0,0-.38.86,1.1,1.1,0,0,0,.37.8,2.639,2.639,0,0,0,1.19.57A8.994,8.994,0,0,0-4.02,20ZM27,20.48h4.72a3.337,3.337,0,0,1-1.15,2.02,6.7,6.7,0,0,1-2.82,1.33,19.594,19.594,0,0,1-4.71.47,24.633,24.633,0,0,1-5.21-.48,6.855,6.855,0,0,1-3.37-1.62,4.083,4.083,0,0,1-1.18-3.08,4.149,4.149,0,0,1,1.15-3.07,6.725,6.725,0,0,1,3.33-1.65,23.974,23.974,0,0,1,5.28-.5,19.021,19.021,0,0,1,4.98.54,5.2,5.2,0,0,1,2.86,1.75,5.1,5.1,0,0,1,.88,3.27H18.16a1.776,1.776,0,0,0,.57.96,3.463,3.463,0,0,0,1.46.71,10.434,10.434,0,0,0,2.65.27,13.764,13.764,0,0,0,2.83-.24Q26.78,20.92,27,20.48ZM22.84,16.8a8.8,8.8,0,0,0-3.23.46q-1.11.46-1.31.92h8.8q-.14-.52-1.12-.95A8.383,8.383,0,0,0,22.84,16.8Zm26.02,5.4-2.28-.04,5.04-7.96h5.3L49.94,24H45.42l-6.66-9.8h5.28Zm21.78-1.72h4.72a3.337,3.337,0,0,1-1.15,2.02,6.7,6.7,0,0,1-2.82,1.33,19.594,19.594,0,0,1-4.71.47,24.633,24.633,0,0,1-5.21-.48A6.855,6.855,0,0,1,58.1,22.2a4.083,4.083,0,0,1-1.18-3.08,4.149,4.149,0,0,1,1.15-3.07A6.725,6.725,0,0,1,61.4,14.4a23.974,23.974,0,0,1,5.28-.5,19.021,19.021,0,0,1,4.98.54,5.2,5.2,0,0,1,2.86,1.75,5.1,5.1,0,0,1,.88,3.27H61.8a1.776,1.776,0,0,0,.57.96,3.463,3.463,0,0,0,1.46.71,10.434,10.434,0,0,0,2.65.27,13.763,13.763,0,0,0,2.83-.24Q70.42,20.92,70.64,20.48ZM66.48,16.8a8.8,8.8,0,0,0-3.23.46q-1.11.46-1.31.92h8.8q-.14-.52-1.12-.95A8.383,8.383,0,0,0,66.48,16.8ZM77,14.2h4.8V24H77Zm12-.3a10.257,10.257,0,0,1,2.28.25,5.63,5.63,0,0,1,1.97.85,4.256,4.256,0,0,1,1.39,1.64,5.84,5.84,0,0,1,.52,2.62V24h-4.8V19.86a2.59,2.59,0,0,0-.78-2.13,4.645,4.645,0,0,0-2.82-.63,9.01,9.01,0,0,0-2.09.24,12.084,12.084,0,0,0-1.81.57,6.776,6.776,0,0,0-1.26.65l-.04-.76a3.153,3.153,0,0,1,.55-1.01,6.189,6.189,0,0,1,1.37-1.31,8.284,8.284,0,0,1,2.27-1.12A10.244,10.244,0,0,1,89,13.9Zm15.22,10.38a11.212,11.212,0,0,1-3.84-.61,6.057,6.057,0,0,1-2.65-1.77,4.221,4.221,0,0,1-.97-2.8,4.338,4.338,0,0,1,.97-2.88,5.845,5.845,0,0,1,2.65-1.74,11.74,11.74,0,0,1,3.84-.58,13.039,13.039,0,0,1,3.24.37,7.837,7.837,0,0,1,2.46,1.06,4.888,4.888,0,0,1,1.56,1.65,4.25,4.25,0,0,1,.54,2.12,4.194,4.194,0,0,1-.54,2.11,4.922,4.922,0,0,1-1.56,1.64,7.837,7.837,0,0,1-2.46,1.06A13.039,13.039,0,0,1,104.22,24.28Zm1.8-3.04a18.923,18.923,0,0,0,2.79-.19,5.608,5.608,0,0,0,2.04-.65,1.44,1.44,0,0,0,.77-1.3,1.455,1.455,0,0,0-.77-1.32,5.49,5.49,0,0,0-2.04-.64,19.957,19.957,0,0,0-2.79-.18,7.569,7.569,0,0,0-3.16.53,1.71,1.71,0,0,0-1.12,1.61,1.572,1.572,0,0,0,.5,1.18,3.19,3.19,0,0,0,1.46.72A9.691,9.691,0,0,0,106.02,21.24Zm5.6-11.04h4.8V24H111.9q-.08-.46-.18-1.49t-.1-2.31Zm14.56,14.08a11.212,11.212,0,0,1-3.84-.61,6.057,6.057,0,0,1-2.65-1.77,4.221,4.221,0,0,1-.97-2.8,4.338,4.338,0,0,1,.97-2.88,5.845,5.845,0,0,1,2.65-1.74,11.74,11.74,0,0,1,3.84-.58,11.922,11.922,0,0,1,4.15.65,6.126,6.126,0,0,1,2.7,1.82,4.4,4.4,0,0,1,.41,4.84,4.922,4.922,0,0,1-1.56,1.64,7.837,7.837,0,0,1-2.46,1.06A13.039,13.039,0,0,1,126.18,24.28Zm1.8-3.04a18.923,18.923,0,0,0,2.79-.19,5.608,5.608,0,0,0,2.04-.65,1.44,1.44,0,0,0,.77-1.3,1.455,1.455,0,0,0-.77-1.32,5.49,5.49,0,0,0-2.04-.64,19.957,19.957,0,0,0-2.79-.18,7.569,7.569,0,0,0-3.16.53,1.71,1.71,0,0,0-1.12,1.61,1.572,1.572,0,0,0,.5,1.18,3.19,3.19,0,0,0,1.46.72A9.691,9.691,0,0,0,127.98,21.24Zm5.6-7.04h4.8V24h-4.52l-.07-.46q-.07-.46-.14-1.32t-.07-2.02Zm6.5,6.28h4.42a1.568,1.568,0,0,0,1.07.72,9.813,9.813,0,0,0,2.27.2,8.649,8.649,0,0,0,1.69-.12,1.341,1.341,0,0,0,.72-.32.641.641,0,0,0,.17-.42.477.477,0,0,0-.37-.47,4.68,4.68,0,0,0-1.25-.16q-.88-.03-2.42-.03a23.444,23.444,0,0,1-2.61-.13,8.623,8.623,0,0,1-1.95-.42,2.708,2.708,0,0,1-1.22-.81,2,2,0,0,1-.42-1.3,2.242,2.242,0,0,1,.62-1.61,4.174,4.174,0,0,1,1.68-1.02,11.423,11.423,0,0,1,2.45-.53,25.457,25.457,0,0,1,2.91-.16,13.851,13.851,0,0,1,4.12.51,5.18,5.18,0,0,1,2.36,1.37,2.771,2.771,0,0,1,.74,1.94h-4.3a1.274,1.274,0,0,0-.83-.72,7.537,7.537,0,0,0-2.09-.2,7.026,7.026,0,0,0-2.03.21q-.63.21-.63.67a.48.48,0,0,0,.31.45,3.68,3.68,0,0,0,1.18.21q.87.06,2.55.06,1.16,0,2.27.08a9.608,9.608,0,0,1,2,.34,3.127,3.127,0,0,1,1.41.8,2.044,2.044,0,0,1,.52,1.48,2.221,2.221,0,0,1-.93,1.85,6.213,6.213,0,0,1-2.63,1.03,22.012,22.012,0,0,1-4.02.32,18.928,18.928,0,0,1-3.41-.26,9.013,9.013,0,0,1-2.27-.69,4.514,4.514,0,0,1-1.35-.94,2.627,2.627,0,0,1-.62-1.02A2.4,2.4,0,0,1,140.08,20.48Z" transform="translate(638.62 5989.523)" fill="#fff"/>
        <path id="Caminho_1060" data-name="Caminho 1060" d="M-108.11-5.34a4.685,4.685,0,0,1-1.38,3.18,8.068,8.068,0,0,1-3.77,1.92,25.829,25.829,0,0,1-6.29.64,39.231,39.231,0,0,1-5.2-.31,13.706,13.706,0,0,1-3.92-1.06,5.806,5.806,0,0,1-2.48-2.05,5.827,5.827,0,0,1-.86-3.28,5.976,5.976,0,0,1,.86-3.31,5.992,5.992,0,0,1,2.48-2.12,13.428,13.428,0,0,1,3.92-1.13,35.818,35.818,0,0,1,5.2-.34,24.153,24.153,0,0,1,6.3.69,8.087,8.087,0,0,1,3.78,2.03,4.937,4.937,0,0,1,1.38,3.26h-5.2a2.562,2.562,0,0,0-.88-1.13,4.919,4.919,0,0,0-1.92-.77,16.906,16.906,0,0,0-3.46-.28,22.63,22.63,0,0,0-4.16.31,4.786,4.786,0,0,0-2.34.99,2.328,2.328,0,0,0-.74,1.8,2.092,2.092,0,0,0,.74,1.66,4.993,4.993,0,0,0,2.34.94,23.368,23.368,0,0,0,4.16.3,18.008,18.008,0,0,0,3.45-.26,5.186,5.186,0,0,0,1.91-.71,2.525,2.525,0,0,0,.88-.97Zm2.42-8.46h4.8V0h-4.8Zm12.18-1.14v3h-5.08v-3ZM-98.45-9.8h4.8V0h-4.8Zm20.46,6.28h4.72A3.337,3.337,0,0,1-74.42-1.5,6.7,6.7,0,0,1-77.24-.17,19.594,19.594,0,0,1-81.95.3a24.633,24.633,0,0,1-5.21-.48A6.855,6.855,0,0,1-90.53-1.8a4.083,4.083,0,0,1-1.18-3.08,4.149,4.149,0,0,1,1.15-3.07A6.725,6.725,0,0,1-87.23-9.6a23.974,23.974,0,0,1,5.28-.5,19.021,19.021,0,0,1,4.98.54,5.2,5.2,0,0,1,2.86,1.75,5.1,5.1,0,0,1,.88,3.27h-13.6a1.776,1.776,0,0,0,.57.96,3.463,3.463,0,0,0,1.46.71,10.434,10.434,0,0,0,2.65.27,13.763,13.763,0,0,0,2.83-.24Q-78.21-3.08-77.99-3.52ZM-82.15-7.2a8.8,8.8,0,0,0-3.23.46q-1.11.46-1.31.92h8.8q-.14-.52-1.12-.95A8.383,8.383,0,0,0-82.15-7.2Zm10.52-2.6h4.8V0h-4.8Zm12-.3a10.257,10.257,0,0,1,2.28.25A5.63,5.63,0,0,1-55.38-9a4.257,4.257,0,0,1,1.39,1.64,5.84,5.84,0,0,1,.52,2.62V0h-4.8V-4.14a2.59,2.59,0,0,0-.78-2.13,4.644,4.644,0,0,0-2.82-.63,9.01,9.01,0,0,0-2.09.24,12.084,12.084,0,0,0-1.81.57,6.776,6.776,0,0,0-1.26.65l-.04-.76a3.153,3.153,0,0,1,.55-1.01,6.189,6.189,0,0,1,1.37-1.31,8.284,8.284,0,0,1,2.27-1.12A10.244,10.244,0,0,1-59.63-10.1Zm7.46.3h11.76v3H-52.17Zm3.48-3h4.8V0h-4.8Zm23.1,9.28h4.72A3.337,3.337,0,0,1-22.02-1.5,6.7,6.7,0,0,1-24.84-.17,19.594,19.594,0,0,1-29.55.3a24.633,24.633,0,0,1-5.21-.48A6.855,6.855,0,0,1-38.13-1.8a4.083,4.083,0,0,1-1.18-3.08,4.149,4.149,0,0,1,1.15-3.07A6.725,6.725,0,0,1-34.83-9.6a23.974,23.974,0,0,1,5.28-.5,19.021,19.021,0,0,1,4.98.54,5.2,5.2,0,0,1,2.86,1.75,5.1,5.1,0,0,1,.88,3.27h-13.6a1.776,1.776,0,0,0,.57.96,3.463,3.463,0,0,0,1.46.71,10.434,10.434,0,0,0,2.65.27,13.764,13.764,0,0,0,2.83-.24Q-25.81-3.08-25.59-3.52ZM-29.75-7.2a8.8,8.8,0,0,0-3.23.46q-1.11.46-1.31.92h8.8q-.14-.52-1.12-.95A8.383,8.383,0,0,0-29.75-7.2Zm10.42,3.68h4.42a1.568,1.568,0,0,0,1.07.72,9.813,9.813,0,0,0,2.27.2,8.649,8.649,0,0,0,1.69-.12,1.341,1.341,0,0,0,.72-.32.641.641,0,0,0,.17-.42.477.477,0,0,0-.37-.47,4.68,4.68,0,0,0-1.25-.16q-.88-.03-2.42-.03a23.445,23.445,0,0,1-2.61-.13,8.623,8.623,0,0,1-1.95-.42,2.708,2.708,0,0,1-1.22-.81,2,2,0,0,1-.42-1.3,2.242,2.242,0,0,1,.62-1.61,4.174,4.174,0,0,1,1.68-1.02,11.423,11.423,0,0,1,2.45-.53,25.457,25.457,0,0,1,2.91-.16,13.851,13.851,0,0,1,4.12.51A5.18,5.18,0,0,1-5.09-8.22a2.771,2.771,0,0,1,.74,1.94h-4.3A1.274,1.274,0,0,0-9.48-7a7.537,7.537,0,0,0-2.09-.2,7.026,7.026,0,0,0-2.03.21q-.63.21-.63.67a.48.48,0,0,0,.31.45,3.68,3.68,0,0,0,1.18.21q.87.06,2.55.06,1.16,0,2.27.08a9.608,9.608,0,0,1,2,.34,3.127,3.127,0,0,1,1.41.8A2.044,2.044,0,0,1-3.99-2.9a2.221,2.221,0,0,1-.93,1.85A6.213,6.213,0,0,1-7.55-.02,22.012,22.012,0,0,1-11.57.3,18.928,18.928,0,0,1-14.98.04a9.013,9.013,0,0,1-2.27-.69,4.514,4.514,0,0,1-1.35-.94,2.627,2.627,0,0,1-.62-1.02A2.4,2.4,0,0,1-19.33-3.52ZM11.89-1.38a19.364,19.364,0,0,1-4.68-.47A5.466,5.466,0,0,1,4.49-3.27a3.381,3.381,0,0,1-.88-2.39,3.439,3.439,0,0,1,.86-2.33A5.677,5.677,0,0,1,7.16-9.54a16.539,16.539,0,0,1,4.73-.56h10v2.52a14,14,0,0,1-2.63-.13,18.41,18.41,0,0,1-2.45-.51l-.22-.3a9.46,9.46,0,0,1,1.71.72,4.275,4.275,0,0,1,1.31,1.06,2.284,2.284,0,0,1,.5,1.48,2.908,2.908,0,0,1-.85,2.11A5.523,5.523,0,0,1,16.6-1.83,20.116,20.116,0,0,1,11.89-1.38ZM16.15,4.3V3.76a.636.636,0,0,0-.53-.71,9.064,9.064,0,0,0-1.67-.11H8.37a10.582,10.582,0,0,1-2.29-.2A3.512,3.512,0,0,1,4.76,2.2a1.686,1.686,0,0,1-.6-.75A2.346,2.346,0,0,1,4.01.64,1.606,1.606,0,0,1,4.65-.71,4.314,4.314,0,0,1,6.61-1.4a23.14,23.14,0,0,1,3.36-.2l1.92.22a10.819,10.819,0,0,0-2.34.17q-.66.17-.66.67a.43.43,0,0,0,.26.41,1.58,1.58,0,0,0,.7.13h5.9a13.219,13.219,0,0,1,3.12.29,2.638,2.638,0,0,1,1.61.98,3.317,3.317,0,0,1,.47,1.89V4.3ZM11.89-4a8.762,8.762,0,0,0,2.13-.21,2.551,2.551,0,0,0,1.17-.57,1.109,1.109,0,0,0,.36-.8,1.174,1.174,0,0,0-.36-.86A2.477,2.477,0,0,0,14.03-7a9.159,9.159,0,0,0-2.14-.2A9.317,9.317,0,0,0,9.75-7a2.65,2.65,0,0,0-1.2.56,1.144,1.144,0,0,0-.38.86,1.1,1.1,0,0,0,.37.8,2.639,2.639,0,0,0,1.19.57A8.994,8.994,0,0,0,11.89-4Zm24.22.48h4.72A3.337,3.337,0,0,1,39.68-1.5,6.7,6.7,0,0,1,36.86-.17,19.594,19.594,0,0,1,32.15.3a24.633,24.633,0,0,1-5.21-.48A6.855,6.855,0,0,1,23.57-1.8a4.083,4.083,0,0,1-1.18-3.08,4.149,4.149,0,0,1,1.15-3.07A6.725,6.725,0,0,1,26.87-9.6a23.974,23.974,0,0,1,5.28-.5,19.021,19.021,0,0,1,4.98.54,5.2,5.2,0,0,1,2.86,1.75,5.1,5.1,0,0,1,.88,3.27H27.27a1.776,1.776,0,0,0,.57.96,3.463,3.463,0,0,0,1.46.71,10.434,10.434,0,0,0,2.65.27,13.764,13.764,0,0,0,2.83-.24Q35.89-3.08,36.11-3.52ZM31.95-7.2a8.8,8.8,0,0,0-3.23.46q-1.11.46-1.31.92h8.8q-.14-.52-1.12-.95A8.383,8.383,0,0,0,31.95-7.2ZM42.47-9.8h4.8V0h-4.8Zm9.96,3.7a10.982,10.982,0,0,0-2.38.24,10.238,10.238,0,0,0-1.84.57,4.741,4.741,0,0,0-1.14.65l-.04-.96a3.736,3.736,0,0,1,.32-.99,7.005,7.005,0,0,1,.7-1.18,6.179,6.179,0,0,1,1.08-1.14,5.432,5.432,0,0,1,1.47-.86,4.911,4.911,0,0,1,1.83-.33ZM60.99.28a11.212,11.212,0,0,1-3.84-.61A6.057,6.057,0,0,1,54.5-2.1a4.221,4.221,0,0,1-.97-2.8,4.338,4.338,0,0,1,.97-2.88,5.845,5.845,0,0,1,2.65-1.74,11.74,11.74,0,0,1,3.84-.58,11.922,11.922,0,0,1,4.15.65,6.126,6.126,0,0,1,2.7,1.82,4.2,4.2,0,0,1,.95,2.73,4.194,4.194,0,0,1-.54,2.11,4.922,4.922,0,0,1-1.56,1.64A7.837,7.837,0,0,1,64.23-.09,13.039,13.039,0,0,1,60.99.28Zm1.8-3.04a18.923,18.923,0,0,0,2.79-.19,5.608,5.608,0,0,0,2.04-.65,1.44,1.44,0,0,0,.77-1.3,1.455,1.455,0,0,0-.77-1.32,5.49,5.49,0,0,0-2.04-.64,19.957,19.957,0,0,0-2.79-.18,7.569,7.569,0,0,0-3.16.53A1.71,1.71,0,0,0,58.51-4.9a1.572,1.572,0,0,0,.5,1.18A3.19,3.19,0,0,0,60.47-3,9.691,9.691,0,0,0,62.79-2.76Zm5.6-7.04h4.8V0H68.67L68.6-.46q-.07-.46-.14-1.32T68.39-3.8ZM82.25.28a11.212,11.212,0,0,1-3.84-.61A6.057,6.057,0,0,1,75.76-2.1a4.221,4.221,0,0,1-.97-2.8,4.338,4.338,0,0,1,.97-2.88,5.845,5.845,0,0,1,2.65-1.74,11.74,11.74,0,0,1,3.84-.58,13.039,13.039,0,0,1,3.24.37,7.837,7.837,0,0,1,2.46,1.06,4.888,4.888,0,0,1,1.56,1.65,4.25,4.25,0,0,1,.54,2.12,4.194,4.194,0,0,1-.54,2.11,4.922,4.922,0,0,1-1.56,1.64A7.837,7.837,0,0,1,85.49-.09,13.039,13.039,0,0,1,82.25.28Zm1.8-3.04a18.923,18.923,0,0,0,2.79-.19,5.608,5.608,0,0,0,2.04-.65,1.44,1.44,0,0,0,.77-1.3,1.455,1.455,0,0,0-.77-1.32,5.49,5.49,0,0,0-2.04-.64,19.957,19.957,0,0,0-2.79-.18,7.569,7.569,0,0,0-3.16.53A1.71,1.71,0,0,0,79.77-4.9a1.572,1.572,0,0,0,.5,1.18A3.19,3.19,0,0,0,81.73-3,9.691,9.691,0,0,0,84.05-2.76Zm5.6-11.04h4.8V0H89.93q-.08-.46-.18-1.49t-.1-2.31ZM106.25.3a22.579,22.579,0,0,1-5.29-.52A6.2,6.2,0,0,1,97.8-1.88a4.254,4.254,0,0,1-1.05-3A4.29,4.29,0,0,1,97.8-7.89a6.211,6.211,0,0,1,3.16-1.68,22.169,22.169,0,0,1,5.29-.53,21.81,21.81,0,0,1,5.25.53,6.135,6.135,0,0,1,3.13,1.68,4.315,4.315,0,0,1,1.04,3.01,4.278,4.278,0,0,1-1.04,3A6.12,6.12,0,0,1,111.5-.22,22.213,22.213,0,0,1,106.25.3Zm0-2.9a10.415,10.415,0,0,0,2.48-.25,3.258,3.258,0,0,0,1.52-.76,1.707,1.707,0,0,0,.52-1.27,1.757,1.757,0,0,0-.51-1.28,3.2,3.2,0,0,0-1.51-.78,10.129,10.129,0,0,0-2.5-.26,10.406,10.406,0,0,0-2.51.26,3.422,3.422,0,0,0-1.56.77,1.714,1.714,0,0,0-.53,1.29,1.707,1.707,0,0,0,.52,1.27,3.28,3.28,0,0,0,1.55.76A10.909,10.909,0,0,0,106.25-2.6Zm10.92-.92h4.42a1.568,1.568,0,0,0,1.07.72,9.813,9.813,0,0,0,2.27.2,8.649,8.649,0,0,0,1.69-.12,1.341,1.341,0,0,0,.72-.32.641.641,0,0,0,.17-.42.477.477,0,0,0-.37-.47,4.68,4.68,0,0,0-1.25-.16q-.88-.03-2.42-.03a23.445,23.445,0,0,1-2.61-.13,8.623,8.623,0,0,1-1.95-.42,2.708,2.708,0,0,1-1.22-.81,2,2,0,0,1-.42-1.3,2.242,2.242,0,0,1,.62-1.61,4.174,4.174,0,0,1,1.68-1.02,11.423,11.423,0,0,1,2.45-.53,25.456,25.456,0,0,1,2.91-.16,13.851,13.851,0,0,1,4.12.51,5.18,5.18,0,0,1,2.36,1.37,2.771,2.771,0,0,1,.74,1.94h-4.3a1.274,1.274,0,0,0-.83-.72,7.537,7.537,0,0,0-2.09-.2,7.026,7.026,0,0,0-2.03.21q-.63.21-.63.67a.48.48,0,0,0,.31.45,3.68,3.68,0,0,0,1.18.21q.87.06,2.55.06,1.16,0,2.27.08a9.608,9.608,0,0,1,2,.34,3.127,3.127,0,0,1,1.41.8,2.044,2.044,0,0,1,.52,1.48,2.221,2.221,0,0,1-.93,1.85,6.213,6.213,0,0,1-2.63,1.03,22.012,22.012,0,0,1-4.02.32,18.928,18.928,0,0,1-3.41-.26,9.013,9.013,0,0,1-2.27-.69,4.514,4.514,0,0,1-1.35-.94,2.627,2.627,0,0,1-.62-1.02A2.4,2.4,0,0,1,117.17-3.52Z" transform="translate(638.62 6070.896)" fill="#fff"/>
        <line id="Linha_2" data-name="Linha 2" x2="327.277" transform="translate(474.981 6033.908)" fill="none" stroke="#fff" stroke-linecap="round" stroke-miterlimit="10" stroke-width="1.49"/>
      </g>
    </g>
  </g>
</svg>
