<svg xmlns="http://www.w3.org/2000/svg" width="44.564" height="49.903" viewBox="0 0 44.564 49.903">
  <g id="Grupo_353" data-name="Grupo 353" transform="translate(-11909.176 -8991.839)">
    <g id="Grupo_352" data-name="Grupo 352">
      <path id="Caminho_866" data-name="Caminho 866" d="M11944.53,8991.839c.565.124,1.146.207,1.7.379,4.219,1.312,6.815,4.151,7.4,8.515.583,4.325-1.171,7.723-4.838,10.1a.71.71,0,0,0-.39.69c.019,1.332.008,2.664.007,4a2.764,2.764,0,0,1-.026.484.945.945,0,0,1-1.04.815.917.917,0,0,1-.873-.936c-.018-1.137-.008-2.273-.01-3.411v-.577a11.044,11.044,0,0,1-4.692.281v.666q0,9.917,0,19.832a3.533,3.533,0,0,1-2.458,3.629,4.769,4.769,0,0,1-1.389.178q-9.746.016-19.492.008h-.591a17.428,17.428,0,0,0,.021,2.147,1.486,1.486,0,0,0,1.407,1.148c.146.011.293,0,.439,0h24.8c1.368,0,1.954-.587,1.954-1.96q0-6.359,0-12.718a5.059,5.059,0,0,1,.016-.584.958.958,0,0,1,1.843-.21,2.2,2.2,0,0,1,.087.67q.007,6.48,0,12.962a3.565,3.565,0,0,1-3.783,3.788q-12.523,0-25.046,0a3.553,3.553,0,0,1-3.756-3.713c-.007-.485,0-.972,0-1.514-.191-.009-.347-.022-.5-.022-.846,0-1.69.006-2.534,0a3.521,3.521,0,0,1-3.589-3.271,5.539,5.539,0,0,1-.022-.584q0-17.421,0-34.841a3.544,3.544,0,0,1,2.438-3.645,4.865,4.865,0,0,1,1.438-.182q11.842-.016,23.682,0a1.608,1.608,0,0,0,.985-.311,9.865,9.865,0,0,1,4.5-1.731,1.414,1.414,0,0,0,.27-.086Zm-9.191,4.07h-22.4a1.594,1.594,0,0,0-1.7,1.031,2.984,2.984,0,0,0-.114.909q-.007,17.37,0,34.74c0,.13,0,.261,0,.391a1.581,1.581,0,0,0,1.655,1.559q12.693.006,25.385,0a1.569,1.569,0,0,0,1.638-1.523c.017-.177.011-.356.011-.534,0-6.595-.016-13.188.02-19.782a1.37,1.37,0,0,0-.929-1.513,9.5,9.5,0,0,1-4.021-3.593,6.689,6.689,0,0,1-.885.121q-8.527.009-17.053,0c-.884,0-1.236-.354-1.24-1.244,0-1.137,0-2.273,0-3.41s.276-1.412,1.4-1.412h16.173A10.5,10.5,0,0,1,11935.339,8995.909Zm-.1,6.171a8.287,8.287,0,1,0,8.254-8.291A8.281,8.281,0,0,0,11935.237,9002.08Zm-1.983,1.549h-15.563v2.115h15.563Z" fill="#f41f45"/>
      <path id="Caminho_867" data-name="Caminho 867" d="M11947.444,9019.29a.974.974,0,0,1,.959.967.985.985,0,0,1-1.018.96.957.957,0,0,1-.92-.994A.945.945,0,0,1,11947.444,9019.29Z" fill="#f41f45"/>
      <path id="Caminho_868" data-name="Caminho 868" d="M11925.446,9022.291q-4.189,0-8.379,0a3.3,3.3,0,0,1-.582-.033.954.954,0,0,1-.042-1.862,3.253,3.253,0,0,1,.677-.051q8.355,0,16.709,0a3.377,3.377,0,0,1,.629.042.954.954,0,0,1-.051,1.88,4,4,0,0,1-.583.024Q11929.636,9022.293,11925.446,9022.291Z" fill="#f41f45"/>
      <path id="Caminho_869" data-name="Caminho 869" d="M11925.472,9013.055q-4.213,0-8.428,0a2.728,2.728,0,0,1-.579-.046.945.945,0,0,1-.746-.955.955.955,0,0,1,.84-.925,4.469,4.469,0,0,1,.583-.021h16.66a4.643,4.643,0,0,1,.584.021.957.957,0,0,1,.093,1.881,2.661,2.661,0,0,1-.579.045Q11929.685,9013.056,11925.472,9013.055Z" fill="#f41f45"/>
      <path id="Caminho_870" data-name="Caminho 870" d="M11925.468,9024.974c2.875,0,5.749,0,8.623,0a1.042,1.042,0,0,1,1,.483.969.969,0,0,1-.7,1.452,2.969,2.969,0,0,1-.485.017h-16.856c-.114,0-.228,0-.341,0a.989.989,0,0,1-.988-1,.975.975,0,0,1,1.028-.947c1.965-.008,3.93,0,5.895,0Z" fill="#f41f45"/>
      <path id="Caminho_871" data-name="Caminho 871" d="M11925.426,9017.671h-8.38a4.355,4.355,0,0,1-.437-.008.969.969,0,0,1-.053-1.925,3.116,3.116,0,0,1,.487-.016h16.856a3.436,3.436,0,0,1,.438.011.97.97,0,0,1-.045,1.935c-.145.011-.292,0-.438,0Z" fill="#f41f45"/>
      <path id="Caminho_872" data-name="Caminho 872" d="M11942.555,9004.119c0-1.054,0-2.108,0-3.163,0-.693.362-1.109.942-1.123a1,1,0,0,1,1,1.126q.012,3.188,0,6.375a.991.991,0,0,1-.692,1.056.889.889,0,0,1-1.066-.373,1.533,1.533,0,0,1-.179-.734C11942.544,9006.228,11942.555,9005.174,11942.555,9004.119Z" fill="#f41f45"/>
      <path id="Caminho_873" data-name="Caminho 873" d="M11943.534,8996.7a.964.964,0,0,1,.954.967.988.988,0,0,1-.962.971.97.97,0,0,1-.969-1A.942.942,0,0,1,11943.534,8996.7Z" fill="#f41f45"/>
    </g>
  </g>
</svg>
