<svg xmlns="http://www.w3.org/2000/svg" width="87.611" height="78.938" viewBox="0 0 87.611 78.938">
  <g id="Grupo_582" data-name="Grupo 582" transform="translate(-1224.382 -9040.439)">
    <path id="Caminho_1084" data-name="Caminho 1084" d="M1258.187,9046.213l-32.241,55.843a11.548,11.548,0,0,0,10,17.321h64.481a11.548,11.548,0,0,0,10-17.321l-32.241-55.843A11.548,11.548,0,0,0,1258.187,9046.213Z" fill="#f1f1f1"/>
    <g id="Grupo_484" data-name="Grupo 484">
      <g id="Grupo_483" data-name="Grupo 483">
        <path id="Caminho_1085" data-name="Caminho 1085" d="M1267.809,9063.573a4.68,4.68,0,0,1,4.656,5.151l-1.954,19.3a2.718,2.718,0,0,1-2.7,2.43h0a2.718,2.718,0,0,1-2.7-2.43l-1.954-19.3a4.68,4.68,0,0,1,4.656-5.151Zm-4.712,36.071h0a4.654,4.654,0,0,1,4.654-4.654h.057a4.655,4.655,0,0,1,4.655,4.654h0a4.654,4.654,0,0,1-4.655,4.654h-.057A4.653,4.653,0,0,1,1263.1,9099.645Z" fill="#f41f45"/>
      </g>
    </g>
  </g>
</svg>
