<svg xmlns="http://www.w3.org/2000/svg" xmlns:xlink="http://www.w3.org/1999/xlink" width="615.722" height="253.677" viewBox="0 0 615.722 253.677">
  <defs>
    <filter id="Retângulo_75" x="83.743" y="0" width="173.034" height="57.782" filterUnits="userSpaceOnUse">
      <feOffset input="SourceAlpha"/>
      <feGaussianBlur stdDeviation="6.993" result="blur"/>
      <feFlood flood-opacity="0.149"/>
      <feComposite operator="in" in2="blur"/>
      <feComposite in="SourceGraphic"/>
    </filter>
    <filter id="Retângulo_76" x="281.743" y="0" width="173.034" height="57.782" filterUnits="userSpaceOnUse">
      <feOffset input="SourceAlpha"/>
      <feGaussianBlur stdDeviation="6.993" result="blur-2"/>
      <feFlood flood-opacity="0.149"/>
      <feComposite operator="in" in2="blur-2"/>
      <feComposite in="SourceGraphic"/>
    </filter>
    <filter id="Retângulo_77" x="65.419" y="95.736" width="173.034" height="57.782" filterUnits="userSpaceOnUse">
      <feOffset input="SourceAlpha"/>
      <feGaussianBlur stdDeviation="6.993" result="blur-3"/>
      <feFlood flood-opacity="0.149"/>
      <feComposite operator="in" in2="blur-3"/>
      <feComposite in="SourceGraphic"/>
    </filter>
    <filter id="Retângulo_78" x="65.419" y="191.225" width="173.034" height="57.782" filterUnits="userSpaceOnUse">
      <feOffset input="SourceAlpha"/>
      <feGaussianBlur stdDeviation="6.993" result="blur-4"/>
      <feFlood flood-opacity="0.149"/>
      <feComposite operator="in" in2="blur-4"/>
      <feComposite in="SourceGraphic"/>
    </filter>
    <filter id="Retângulo_79" x="281.743" y="95.736" width="173.034" height="57.782" filterUnits="userSpaceOnUse">
      <feOffset input="SourceAlpha"/>
      <feGaussianBlur stdDeviation="6.993" result="blur-5"/>
      <feFlood flood-opacity="0.149"/>
      <feComposite operator="in" in2="blur-5"/>
      <feComposite in="SourceGraphic"/>
    </filter>
  </defs>
  <g id="Grupo_454" data-name="Grupo 454" transform="translate(-380.278 -3325.582)">
    <text id="Ações_de_marketing_atraem_prospects" data-name="Ações de marketing
atraem prospects" transform="translate(466.677 3387.572)" fill="#e0e0e0" font-size="20" font-family="Syne-Medium, Syne" font-weight="500"><tspan x="0" y="0">Ações de marketing</tspan><tspan x="0" y="18">atraem prospects</tspan></text>
    <text id="Prospects_fornecem_informações_e_viram_leads" data-name="Prospects fornecem
informações e viram
leads" transform="translate(683 3387.572)" fill="#e0e0e0" font-size="20" font-family="Syne-Medium, Syne" font-weight="500"><tspan x="0" y="0">Prospects fornecem</tspan><tspan x="0" y="18">informações e viram</tspan><tspan x="0" y="36">leads</tspan></text>
    <text id="Time_de_vendas_contata_leads_buscando_necessidades_para_a_marca_resolver_vender_" data-name="Time de vendas contata
leads buscando necessidades
para a marca resolver (vender)" transform="translate(683 3483.506)" fill="#e0e0e0" font-size="20" font-family="Syne-Medium, Syne" font-weight="500"><tspan x="0" y="0">Time de vendas contata</tspan><tspan x="0" y="18">leads buscando necessidades</tspan><tspan x="0" y="36">para a marca resolver (vender)</tspan></text>
    <text id="Caso_haja_viram_oportunidades_" data-name="Caso haja, viram
oportunidades " transform="translate(466.677 3483.506)" fill="#e0e0e0" font-size="20" font-family="Syne-Medium, Syne" font-weight="500"><tspan x="0" y="0">Caso haja, viram</tspan><tspan x="0" y="18">oportunidades </tspan></text>
    <text id="Surgem_clientes_reais" data-name="Surgem clientes reais" transform="translate(466.677 3573.259)" fill="#e0e0e0" font-size="20" font-family="Syne-Medium, Syne" font-weight="500"><tspan x="0" y="0">Surgem clientes reais</tspan></text>
    <g transform="matrix(1, 0, 0, 1, 380.28, 3325.58)" filter="url(#Retângulo_75)">
      <rect id="Retângulo_75-2" data-name="Retângulo 75" width="131.077" height="15.824" rx="7.912" transform="translate(104.72 20.98)" fill="#f41f45"/>
    </g>
    <g transform="matrix(1, 0, 0, 1, 380.28, 3325.58)" filter="url(#Retângulo_76)">
      <rect id="Retângulo_76-2" data-name="Retângulo 76" width="131.077" height="15.824" rx="7.912" transform="translate(302.72 20.98)" fill="#4a45d8"/>
    </g>
    <g transform="matrix(1, 0, 0, 1, 380.28, 3325.58)" filter="url(#Retângulo_77)">
      <rect id="Retângulo_77-2" data-name="Retângulo 77" width="131.077" height="15.824" rx="7.912" transform="translate(86.4 116.71)" fill="#4a45d8"/>
    </g>
    <g transform="matrix(1, 0, 0, 1, 380.28, 3325.58)" filter="url(#Retângulo_78)">
      <rect id="Retângulo_78-2" data-name="Retângulo 78" width="131.077" height="15.824" rx="7.912" transform="translate(86.4 212.2)" fill="#f41f45"/>
    </g>
    <g transform="matrix(1, 0, 0, 1, 380.28, 3325.58)" filter="url(#Retângulo_79)">
      <rect id="Retângulo_79-2" data-name="Retângulo 79" width="131.077" height="15.824" rx="7.912" transform="translate(302.72 116.71)" fill="#f41f45"/>
    </g>
    <path id="Caminho_99" data-name="Caminho 99" d="M841.475,3304.149a47.868,47.868,0,1,1,0,95.736" transform="translate(40.025 50)" fill="none" stroke="#fff" stroke-linecap="round" stroke-miterlimit="10" stroke-width="7"/>
    <path id="Caminho_100" data-name="Caminho 100" d="M471.646,3495.946a47.869,47.869,0,0,1,0-95.737" transform="translate(-40 50)" fill="none" stroke="#fff" stroke-linecap="round" stroke-miterlimit="10" stroke-width="7"/>
    <path id="Caminho_101" data-name="Caminho 101" d="M657.613,3303.585l-4.645-2.682a1.025,1.025,0,0,0-1.538.888v5.364a1.025,1.025,0,0,0,1.538.888l4.645-2.682A1.025,1.025,0,0,0,657.613,3303.585Z" transform="translate(-5.93 50)" fill="none" stroke="#fff" stroke-linecap="round" stroke-miterlimit="10" stroke-width="1.5"/>
    <path id="Caminho_102" data-name="Caminho 102" d="M651.942,3401.1l4.646,2.682a1.025,1.025,0,0,0,1.538-.888v-5.364a1.026,1.026,0,0,0-1.538-.888l-4.646,2.682A1.026,1.026,0,0,0,651.942,3401.1Z" transform="translate(-5.93 50)" fill="none" stroke="#fff" stroke-linecap="round" stroke-miterlimit="10" stroke-width="1.5"/>
    <path id="Caminho_103" data-name="Caminho 103" d="M821.377,3303.585l-4.645-2.682a1.025,1.025,0,0,0-1.538.888v5.364a1.025,1.025,0,0,0,1.538.888l4.645-2.682A1.025,1.025,0,0,0,821.377,3303.585Z" transform="translate(29.306 50)" fill="none" stroke="#fff" stroke-linecap="round" stroke-miterlimit="10" stroke-width="1.5"/>
    <path id="Caminho_104" data-name="Caminho 104" d="M815.707,3401.1l4.645,2.682a1.025,1.025,0,0,0,1.538-.888v-5.364a1.026,1.026,0,0,0-1.538-.888l-4.645,2.682A1.025,1.025,0,0,0,815.707,3401.1Z" transform="translate(29.306 50)" fill="none" stroke="#fff" stroke-linecap="round" stroke-miterlimit="10" stroke-width="1.5"/>
    <path id="Caminho_105" data-name="Caminho 105" d="M493.715,3303.585l-4.645-2.682a1.025,1.025,0,0,0-1.538.888v5.364a1.025,1.025,0,0,0,1.538.888l4.645-2.682A1.025,1.025,0,0,0,493.715,3303.585Z" transform="translate(-40.032 50)" fill="none" stroke="#fff" stroke-linecap="round" stroke-miterlimit="10" stroke-width="1.5"/>
    <path id="Caminho_106" data-name="Caminho 106" d="M488.044,3401.1l4.646,2.682a1.025,1.025,0,0,0,1.538-.888v-5.364a1.026,1.026,0,0,0-1.538-.888l-4.646,2.682A1.026,1.026,0,0,0,488.044,3401.1Z" transform="translate(-40 50)" fill="none" stroke="#fff" stroke-linecap="round" stroke-miterlimit="10" stroke-width="1.5"/>
    <path id="Caminho_107" data-name="Caminho 107" d="M493.715,3494.81l-4.645-2.682a1.026,1.026,0,0,0-1.538.888v5.364a1.025,1.025,0,0,0,1.538.888l4.645-2.682A1.025,1.025,0,0,0,493.715,3494.81Z" transform="translate(-40 50)" fill="none" stroke="#fff" stroke-linecap="round" stroke-miterlimit="10" stroke-width="1.5"/>
  </g>
</svg>
