<svg xmlns="http://www.w3.org/2000/svg" width="49.904" height="49.931" viewBox="0 0 49.904 49.931">
  <g id="Grupo_343" data-name="Grupo 343" transform="translate(-11906.506 -8338.445)">
    <g id="Grupo_342" data-name="Grupo 342">
      <path id="Caminho_825" data-name="Caminho 825" d="M11952.9,8388.376h-42.886a.552.552,0,0,0-.126-.069,4.082,4.082,0,0,1-3.383-4.254q0-2.216,0-4.435,0-15.935,0-31.87a4.046,4.046,0,0,1,3.487-4.157,15.963,15.963,0,0,1,1.775-.09c0-.669-.011-1.315,0-1.961a3.108,3.108,0,0,1,4.4-2.787,3,3,0,0,1,1.824,2.772c.031.657.006,1.317.006,1.973h10.351c0-.649-.009-1.264,0-1.88a3.114,3.114,0,1,1,6.228.023c.006.613,0,1.227,0,1.86h10.335c0-.658-.008-1.288,0-1.919a2.991,2.991,0,0,1,.979-2.258,3.107,3.107,0,0,1,5.243,2.206c.028.657,0,1.316,0,2,.459,0,.848-.007,1.235,0a4.1,4.1,0,0,1,3.919,3.14c.031.124.074.245.111.367v37.825c-.034.105-.074.21-.1.316a4.053,4.053,0,0,1-2.491,2.9C11953.521,8388.2,11953.207,8388.279,11952.9,8388.376Zm-44.439-33.146h18.171c.146,0,.293-.007.438,0a.972.972,0,1,1-.021,1.943c-.146.008-.293,0-.438,0h-18.156v22.947a2.175,2.175,0,0,0,2.421,2.4h41.178a2.174,2.174,0,0,0,2.405-2.415q0-11.186,0-22.372v-.56h-18.22a4.051,4.051,0,0,1-.487-.009.97.97,0,0,1,.008-1.932,4.5,4.5,0,0,1,.487-.008h18.144c.034-.074.059-.1.059-.131,0-2.533.021-5.068,0-7.6a2.067,2.067,0,0,0-1.819-1.986,12.426,12.426,0,0,0-1.481-.01c0,.518.032,1-.011,1.486a4.514,4.514,0,0,1-.257,1.274,3.065,3.065,0,0,1-3.353,1.854,3.118,3.118,0,0,1-2.606-2.978c-.019-.545,0-1.09,0-1.633h-10.337c0,.491.021.959-.006,1.425a4.51,4.51,0,0,1-.166,1.1,3.1,3.1,0,0,1-3.342,2.106,3.135,3.135,0,0,1-2.711-3.04c-.019-.528,0-1.058,0-1.581H11918c0,.536.01,1.038,0,1.54a3.113,3.113,0,1,1-6.227-.034c-.008-.5,0-1,0-1.525a13.99,13.99,0,0,0-1.45.008,2.07,2.07,0,0,0-1.85,1.959C11908.441,8350.028,11908.462,8352.594,11908.462,8355.23Zm.03,28.658a2.156,2.156,0,0,0,2.3,2.536q20.662,0,41.321,0c.13,0,.261,0,.39-.008a2.094,2.094,0,0,0,1.882-2.507,5.1,5.1,0,0,1-2.772.571q-20.247-.013-40.493,0A4.9,4.9,0,0,1,11908.492,8383.889Zm7.561-39.55c0-.861,0-1.722,0-2.583a1.176,1.176,0,1,0-2.33-.008q-.006,2.559,0,5.117a1.176,1.176,0,1,0,2.33.009C11916.057,8346.029,11916.053,8345.184,11916.053,8344.339Zm33.145-.029c0-.86,0-1.722,0-2.583a1.173,1.173,0,1,0-2.33,0q-.009,2.584,0,5.166a1.173,1.173,0,1,0,2.33,0C11949.2,8346.033,11949.2,8345.172,11949.2,8344.31Zm-16.565,0c0-.878.006-1.755,0-2.633a1.167,1.167,0,1,0-2.326,0q-.016,2.632,0,5.265a1.168,1.168,0,1,0,2.327,0C11932.638,8346.068,11932.632,8345.191,11932.632,8344.313Z" fill="#f41f45"/>
      <path id="Caminho_826" data-name="Caminho 826" d="M11927.117,8378.529a2.328,2.328,0,0,1-2.242-2.678c.186-1.136.395-2.269.566-3.406a.723.723,0,0,0-.169-.537q-1.124-1.15-2.294-2.253a2.263,2.263,0,0,1,1.3-4.018q1.569-.193,3.126-.472a.851.851,0,0,0,.53-.382c.5-.946.968-1.909,1.431-2.873a2.258,2.258,0,0,1,4.184,0c.465.964.932,1.927,1.432,2.872a.842.842,0,0,0,.525.384c1.1.189,2.213.33,3.319.5a2.155,2.155,0,0,1,1.828,1.48,2.125,2.125,0,0,1-.539,2.33c-.8.81-1.617,1.6-2.438,2.384a.608.608,0,0,0-.208.633c.209,1.082.374,2.173.563,3.26a2.244,2.244,0,0,1-3.267,2.431c-.993-.511-1.973-1.054-2.976-1.55a.845.845,0,0,0-.654,0c-.945.464-1.863.984-2.808,1.452A11.086,11.086,0,0,1,11927.117,8378.529Zm-.321-2.355c0,.31.2.413.568.223,1.124-.581,2.252-1.154,3.356-1.77a1.412,1.412,0,0,1,1.51.01c1.078.6,2.175,1.161,3.271,1.726a1.76,1.76,0,0,0,.5.091,1.847,1.847,0,0,0,.08-.534c-.2-1.249-.4-2.5-.637-3.742a1.269,1.269,0,0,1,.417-1.264c.905-.862,1.8-1.74,2.682-2.623a2.257,2.257,0,0,0,.288-.471,2.037,2.037,0,0,0-.53-.26c-1.217-.191-2.437-.374-3.66-.529a1.316,1.316,0,0,1-1.129-.789c-.527-1.114-1.079-2.217-1.638-3.316a2.559,2.559,0,0,0-.422-.475,2.522,2.522,0,0,0-.386.456c-.552,1.084-1.1,2.17-1.616,3.271a1.379,1.379,0,0,1-1.187.857c-1.24.155-2.475.347-3.709.541-.156.023-.382.119-.42.233s.094.321.206.434c.8.8,1.594,1.626,2.447,2.375a1.8,1.8,0,0,1,.641,1.974C11927.153,8373.76,11927,8374.955,11926.8,8376.174Z" fill="#f41f45"/>
      <path id="Caminho_827" data-name="Caminho 827" d="M11932.429,8356.19a.97.97,0,1,1-.961-.957A.983.983,0,0,1,11932.429,8356.19Z" fill="#f41f45"/>
    </g>
  </g>
</svg>
