<svg xmlns="http://www.w3.org/2000/svg" width="46.849" height="49.912" viewBox="0 0 46.849 49.912">
  <g id="Grupo_339" data-name="Grupo 339" transform="translate(-11503.359 -7928.598)">
    <g id="Grupo_338" data-name="Grupo 338">
      <path id="Caminho_809" data-name="Caminho 809" d="M11527.657,7978.51a1.209,1.209,0,0,1-.471-1.144c.033-.4.008-.81.008-1.29h-.54c-1.251,0-2.5,0-3.754,0a3.369,3.369,0,0,1-3.571-3.529c-.015-2.469,0-4.938,0-7.408v-.639c-.217.156-.355.249-.487.35-1,.772-2.009,1.543-3.008,2.323a.84.84,0,0,1-.979.194c-.359-.188-.395-.517-.392-.875.008-.793,0-1.586,0-2.452h-.615c-1.949,0-3.9.013-5.849,0a4.463,4.463,0,0,1-4.564-3.666,4.045,4.045,0,0,1-.066-.775c-.006-2.421,0-4.841-.008-7.262,0-.422.122-.74.576-.825a.712.712,0,0,1,.884.768c.017.715,0,1.43,0,2.145,0,1.657,0,3.314,0,4.971a2.987,2.987,0,0,0,3.171,3.181c2.258.016,4.517,0,6.775,0,.984,0,1.15.171,1.151,1.175,0,.453,0,.906,0,1.422a2.8,2.8,0,0,0,.328-.18c.979-.752,1.959-1.5,2.928-2.267a.925.925,0,0,0,.273-.43,3.348,3.348,0,0,1,3.125-2.435c.532-.027,1.064,0,1.662,0v-.584q0-6.408,0-12.818a3.024,3.024,0,0,0-3.228-3.235q-6.482-.007-12.967,0a3.009,3.009,0,0,0-3.221,3.23c0,.439.014.878-.007,1.316a.682.682,0,0,1-.736.731.648.648,0,0,1-.711-.739,14.674,14.674,0,0,1,.111-2.474,4.321,4.321,0,0,1,4.175-3.511c4.582-.034,9.164-.013,13.746-.009.271,0,.543.05.869.083v-.555c0-2.323,0-4.646,0-6.969a5.465,5.465,0,0,1,5.727-5.726q4.9,0,9.8,0c.568,0,.835.193.886.621.063.53-.246.838-.862.839-3.267,0-6.532,0-9.8,0a5.662,5.662,0,0,0-1.018.08,3.907,3.907,0,0,0-3.255,3.778c-.037,2.761-.018,5.523,0,8.285a.774.774,0,0,0,.261.516,4.549,4.549,0,0,1,1.7,3.671c0,2.534.006,5.068-.009,7.6,0,.345.085.572.425.645a9.363,9.363,0,0,0,1.8.34c2.812.037,5.622.015,8.433.017.818,0,1.032.218,1.034,1.045,0,.795,0,1.59,0,2.491.2-.148.344-.242.477-.344,1.265-.966,2.521-1.944,3.8-2.89a1.643,1.643,0,0,1,.839-.29c.939-.054,1.89.022,2.82-.091a3.855,3.855,0,0,0,3.4-3.792q.038-8.6,0-17.2a3.941,3.941,0,0,0-3.879-3.858c-.715-.018-1.43,0-2.145-.008-.543-.006-.822-.27-.813-.747a.675.675,0,0,1,.8-.707,20.215,20.215,0,0,1,3.437.214,5.247,5.247,0,0,1,4.066,5.085q.04,8.626,0,17.253a5.43,5.43,0,0,1-5.411,5.3c-.6.016-1.2-.024-1.8.016a1.546,1.546,0,0,0-.788.27c-1.639,1.226-3.26,2.475-4.882,3.722-.3.23-.592.406-.976.205a.837.837,0,0,1-.4-.869c.009-1.086,0-2.172,0-3.289-3.4-.239-6.8.264-10.188-.335v3.671h.517c1.885,0,3.771,0,5.655,0a3.405,3.405,0,0,1,3.7,3.7c0,1.056.01,2.112-.006,3.168-.008.574-.348.867-.863.784-.461-.075-.594-.4-.594-.814q0-1.56,0-3.119a1.976,1.976,0,0,0-2.274-2.257q-4.412,0-8.823,0c-1.546,0-2.256.715-2.257,2.271q0,4.386,0,8.773a1.973,1.973,0,0,0,2.269,2.259h4.485c.927,0,1.111.182,1.114,1.105,0,.146,0,.291,0,.5a2.01,2.01,0,0,0,.308-.151,8.4,8.4,0,0,0,.846-.658,2.848,2.848,0,0,1,2.288-.814,1.865,1.865,0,0,0,2.043-1.977c.013-.406-.01-.813.015-1.218a.656.656,0,0,1,.712-.695.641.641,0,0,1,.721.681,10.084,10.084,0,0,1-.126,2.176,3.2,3.2,0,0,1-3.2,2.5,2.4,2.4,0,0,0-1.709.616c-.748.64-1.541,1.227-2.315,1.837Z" fill="#f41f45"/>
      <path id="Caminho_810" data-name="Caminho 810" d="M11533.348,7950.253a5.805,5.805,0,0,1-1.123.285c-1.169.03-2.339.015-3.509.01-.643,0-.886-.238-.887-.879q-.007-4.263,0-8.526c0-.649.234-.882.883-.887,1.2-.008,2.4-.013,3.606.007a4.6,4.6,0,0,1,.886.209c.947-1.294,2.5-2.282,2.875-4.11.072-.348.08-.708.127-1.061a1.516,1.516,0,0,1,1.2-1.315,1.463,1.463,0,0,1,1.6.756,5.6,5.6,0,0,1,.4,4.7c-.062.184-.136.365-.2.547,0,.013.006.031.023.112,1.129,0,2.273-.023,3.416.013a2.548,2.548,0,0,1,1.106.291,1.7,1.7,0,0,1,.889,1.574c0,2.339.009,4.678,0,7.016a1.857,1.857,0,0,1-1.652,1.862,3.428,3.428,0,0,1-.485.031q-3.242,0-6.481,0A5.316,5.316,0,0,1,11533.348,7950.253Zm4.359-14.83a2.364,2.364,0,0,0-.074.306,5.966,5.966,0,0,1-1.716,3.876c-.834.909-1.647,1.84-2.45,2.777a1.015,1.015,0,0,0-.241.6q-.028,2.535,0,5.069a.78.78,0,0,0,.256.518,3.675,3.675,0,0,0,2.474.862q3.267,0,6.533,0c.582,0,.687-.11.688-.679q0-3.24,0-6.482c0-.627-.075-.7-.706-.7-1.43,0-2.859,0-4.29-.012-.72-.007-1.022-.477-.757-1.146.2-.512.444-1.011.622-1.532A4.153,4.153,0,0,0,11537.707,7935.423Zm-5.994,13.643v-7.307h-2.38v7.307Z" fill="#f41f45"/>
      <path id="Caminho_811" data-name="Caminho 811" d="M11512.014,7954l.284-1.793h-2.583a.71.71,0,0,1-.806-.609c-.085-.483.252-.836.814-.85.471-.011.942,0,1.413,0h1.406c.131-.772.258-1.518.385-2.264.02-.112.029-.226.056-.336.115-.494.424-.728.858-.656a.7.7,0,0,1,.573.868c-.067.547-.169,1.09-.255,1.635-.035.223-.068.447-.115.749.536,0,1.048.017,1.556-.015.093-.006.224-.2.247-.329.142-.732.247-1.471.381-2.205.1-.536.411-.778.862-.7s.652.438.567.962c-.112.688-.226,1.377-.335,2.065a1.959,1.959,0,0,0,0,.228h1.19c.31,0,.619-.016.926.007a.717.717,0,0,1,.717.761.7.7,0,0,1-.735.686c-.6.017-1.2.007-1.8.008h-.565c-.055.312-.105.595-.154.879s-.091.541-.144.857a2.843,2.843,0,0,0,.373.053c.617,0,1.234,0,1.851,0,.846,0,1.187.216,1.177.742s-.339.719-1.154.72c-.682,0-1.365.014-2.046-.006-.333-.01-.489.067-.532.438-.084.724-.226,1.442-.359,2.159a.728.728,0,0,1-.894.666.753.753,0,0,1-.535-.949q.173-1.08.342-2.161c0-.026-.018-.057-.038-.116h-1.682c-.137.8-.275,1.614-.413,2.423-.1.6-.407.883-.878.808s-.665-.46-.564-1.059c.117-.7.236-1.405.372-2.2h-1.756c-.785,0-1.136-.238-1.121-.755.013-.5.343-.706,1.113-.707Zm3.537-1.79c-.552,0-1.052-.008-1.55.009a.308.308,0,0,0-.229.183c-.1.514-.177,1.034-.264,1.578h1.75Z" fill="#f41f45"/>
      <path id="Caminho_812" data-name="Caminho 812" d="M11531.66,7967.379a3.124,3.124,0,0,1-1.064,2.474,28.127,28.127,0,0,1-2.776,1.942.822.822,0,0,1-.687.013,9.269,9.269,0,0,1-2.959-2.1,3.406,3.406,0,0,1-.795-3.217,2.582,2.582,0,0,1,3.83-1.6.559.559,0,0,0,.455.026A2.656,2.656,0,0,1,11531.66,7967.379Zm-1.463.008a1.264,1.264,0,0,0-.815-1.308c-.523-.184-.856-.045-1.3.542-.377.5-.9.457-1.3-.12a1.016,1.016,0,0,0-1.034-.492,1.06,1.06,0,0,0-.915.77,1.826,1.826,0,0,0,.5,2.012,17.969,17.969,0,0,0,1.951,1.434.425.425,0,0,0,.387,0c.64-.438,1.292-.867,1.885-1.365A1.865,1.865,0,0,0,11530.2,7967.387Z" fill="#f41f45"/>
    </g>
  </g>
</svg>
