<svg xmlns="http://www.w3.org/2000/svg" width="115" height="114.945" viewBox="0 0 115 114.945">
  <g id="Grupo_359" data-name="Grupo 359" transform="translate(-12426.333 -13708.936)">
    <g id="Grupo_358" data-name="Grupo 358">
      <path id="Caminho_899" data-name="Caminho 899" d="M12541.333,13743.957a1.856,1.856,0,0,0-.214.366,6.44,6.44,0,0,1-6.16,4.837c-2.168.166-3.455,1.786-2.806,3.6a4.472,4.472,0,0,0,.851,1.3,6.6,6.6,0,0,1-.315,9.224c-.521.537-1.053,1.063-1.588,1.587a6.662,6.662,0,0,1-9.4.34,4.067,4.067,0,0,0-2.3-.894c-1.378-.034-2.3,1.063-2.479,2.563-.562,4.649-2.889,6.712-7.579,6.707a17.826,17.826,0,0,1-2.576-.076,6.545,6.545,0,0,1-5.663-6.163c-.165-2.261-1.622-3.521-3.484-2.969a3.461,3.461,0,0,0-1.155.651q-5.029,4.094-9.717-.3c-.1-.1-.22-.184-.421-.35a19.86,19.86,0,0,1-5.395,6.116,1.556,1.556,0,0,0-.344,1.09c-.033,1.87-.022,3.741-.012,5.611.008,1.481.34,1.812,1.808,2.013a88.764,88.764,0,0,1,16,3.309c7.7,2.556,11.95,8.456,11.955,16.531,0,.674.007,1.347,0,2.021-.016,1.306-.645,2.095-1.669,2.106s-1.647-.774-1.7-2.071a33.126,33.126,0,0,0-.347-5.578,12.147,12.147,0,0,0-8.171-9.366c-3.228-1.133-6.591-1.871-10.139-2.853.329,2.728-1.088,4.194-2.771,5.57-2.114,1.727-4.156,3.543-6.227,5.323a4.858,4.858,0,0,1-3.933,1.242c-.939-.119-2.228,1.668-2.07,2.905.348,2.744.737,5.482,1.108,8.224l1.874,13.853h17.5v-3.887c0-1.571-.01-3.143,0-4.714.012-1.413.626-2.159,1.726-2.143,1.073.018,1.628.706,1.634,2.093.012,2.469,0,4.938,0,7.407v1.257a42.371,42.371,0,0,0,5.237-.039,5.309,5.309,0,0,0,4.568-5.306c.037-1.795,0-3.592.015-5.387.009-1.258.6-1.977,1.622-2.006,1.068-.031,1.745.713,1.734,2.009a50.59,50.59,0,0,1-.174,6.717,8.591,8.591,0,0,1-8.754,7.443c-8.719.025-17.437.008-26.155.008h-39.288c-5.911,0-9.583-3.676-9.586-9.589,0-4.9.146-9.808-.034-14.7-.276-7.558,3.812-15.07,13.189-17.422,4.846-1.216,9.8-2.015,14.714-2.937,1.585-.3,1.892-.524,1.9-2.168.006-1.834.026-3.667-.02-5.5a1.745,1.745,0,0,0-.442-1.157c-5.042-4.492-6.287-6.639-7.659-13.379-.3-.081-.626-.166-.947-.255a4.8,4.8,0,0,1-3.666-4.2,30.213,30.213,0,0,1,.026-5.148,5.081,5.081,0,0,1,1.033-2.418,2.94,2.94,0,0,0,.689-2.026,27.4,27.4,0,0,1,.013-2.8,1.653,1.653,0,0,1,3.306-.041c.068,1.075.015,2.158.015,3.242l4.974,1q0-.967,0-1.942c0-1.5-.03-2.994.014-4.49a7.007,7.007,0,0,1,8.438-6.871c2.531.461,5.006,1.372,7.626,1,1.7-.24,3.364-.671,5.052-.974a7.037,7.037,0,0,1,8.648,7.088c.035,2.422.006,4.846.006,7.595a20.376,20.376,0,0,1,2.742-1.085c2.057-.482,2.4-1.787,2.251-3.687-.188-2.343,0-4.713-.1-7.065a12.322,12.322,0,0,0-11.9-11.768c-5.085-.143-10.176-.062-15.264-.049a4.244,4.244,0,0,0-4.184,2.828,4.253,4.253,0,0,1-3.956,2.794,4.362,4.362,0,0,0-4.309,4.191c-.014.111-.021.224-.039.335a1.671,1.671,0,1,1-3.329-.259,7.767,7.767,0,0,1,7.02-7.59,1.718,1.718,0,0,0,1.674-1.132,7.254,7.254,0,0,1,6.7-4.5c5.461-.088,10.925-.054,16.386.031a14.262,14.262,0,0,1,6.829,2.131c1.126-1.187,2.181-2.379,3.321-3.485a6.488,6.488,0,0,1,9.033-.235,2.821,2.821,0,0,0,4.983-2.092,6.557,6.557,0,0,1,4.691-5.942c.245-.076.483-.174.725-.263h4.938c3.409,1.031,5.285,3.2,5.514,6.874a2.646,2.646,0,0,0,4.444,1.779c.178-.139.338-.3.51-.44a6.432,6.432,0,0,1,8.934.278q.971.933,1.9,1.905a6.518,6.518,0,0,1,.277,9.035,2.967,2.967,0,0,0-.853,3.257c.536,1.327,1.665,1.672,2.989,1.761a6.29,6.29,0,0,1,5.549,3.767c.224.46.4.944.594,1.418Zm-52.606,13.058c-.275,1.2-.549,2.318-.784,3.447a1.135,1.135,0,0,0,.068.738c1.521,2.633,4.065,3.08,6.394,1.136a5.771,5.771,0,0,1,4.468-1.414c3.234.353,5.27,2.555,5.581,5.986a3.256,3.256,0,0,0,3.581,3.313c.748.007,1.5.02,2.245-.006a3.229,3.229,0,0,0,3.256-3.062c.037-.409.068-.82.136-1.226a6.07,6.07,0,0,1,9.639-3.812c2.8,2.125,3.728,2.063,6.2-.412.132-.132.266-.264.4-.4,1.862-1.871,1.928-3.367.238-5.377a6.028,6.028,0,0,1-.494-7.378,6.166,6.166,0,0,1,5.114-2.767,3.127,3.127,0,0,0,3.193-3.43c.006-.6,0-1.2,0-1.8,0-2.565-.938-3.63-3.468-3.851a6.112,6.112,0,0,1-4.164-10.326,3.282,3.282,0,0,0-.139-4.886c-.391-.4-.792-.795-1.19-1.192-1.842-1.839-3.311-1.919-5.264-.241a5.9,5.9,0,0,1-4.428,1.546,6.058,6.058,0,0,1-5.76-5.928,3.272,3.272,0,0,0-3.629-3.379c-.561,0-1.123,0-1.684,0-2.443.012-3.585,1.025-3.787,3.442a6.112,6.112,0,0,1-10.234,4.27c-1.449-1.237-2.929-1.528-4.172-.57a24.952,24.952,0,0,0-2.863,2.822c-.45.483-.465.959.078,1.539a15.637,15.637,0,0,1,4.316,11.219c-.023,2.729-.035,5.462.022,8.191a4.738,4.738,0,0,0,.564,1.592,10.343,10.343,0,0,1,1.118,2.628,25.521,25.521,0,0,1,.021,5.146,4.721,4.721,0,0,1-3.568,4.165C12489.383,13756.862,12489.021,13756.938,12488.727,13757.015Zm-31.89-15.014h-.009c0,1.459.056,2.92-.014,4.376-.094,1.939-1.989,3.05-3.487,1.975-1.591-1.142-3.375-1.291-5.2-1.49-1-.111-1.385.395-1.43,1.263-.048.932-.027,1.869-.027,2.8,0,2.214.42,2.644,2.591,2.674,1.475.021,1.893.513,2.1,2.014a25.266,25.266,0,0,0,.971,4.813c2.406,6.906,10.306,11.723,17.593,10.842,8.67-1.047,14.545-6.845,15.41-15.208.231-2.234.395-2.385,2.678-2.461,1.365-.045,1.979-.632,2.02-2,.032-1.084.037-2.17,0-3.254-.051-1.351-.4-1.553-1.668-1.048a28.141,28.141,0,0,1-3.849,1.5c-2.939.688-4.622-.743-4.632-3.75-.007-2.394.038-4.79-.024-7.182a3.547,3.547,0,0,0-3.819-3.536,8.5,8.5,0,0,0-2.088.369,18.613,18.613,0,0,1-7.435.707c-1.736-.194-3.437-.7-5.164-.994a3.626,3.626,0,0,0-4.517,3.776C12456.817,13739.456,12456.837,13740.729,12456.837,13742Zm3.534,78.455c.056-.208.1-.312.111-.42.922-6.852,1.786-13.71,2.806-20.547a3.9,3.9,0,0,0-1.009-3.657,1.29,1.29,0,0,0-.911-.381,5.061,5.061,0,0,1-4.11-1.379c-2.054-1.8-4.1-3.605-6.222-5.326-1.642-1.333-2.92-2.8-2.666-5.211-4.148.857-8.26,1.41-11.9,3.428a12.279,12.279,0,0,0-6.681,10.956c-.144,5.718-.061,11.444-.028,17.166a5.271,5.271,0,0,0,4.557,5.31,42.125,42.125,0,0,0,5.247.04v-1.243c0-2.581-.017-5.162.013-7.742a1.581,1.581,0,0,1,1.608-1.769,1.614,1.614,0,0,1,1.721,1.679c.063,1.231.022,2.468.023,3.7,0,1.782,0,3.565,0,5.4Zm-1.931-39.631c3.213,2.01,6.307,3.968,9.438,5.867a1.388,1.388,0,0,0,1.168-.113c1.989-1.189,3.943-2.437,5.907-3.667,1.1-.688,2.194-1.378,3.333-2.094-1.82-2.5-.718-5.318-1.2-8.033a20.8,20.8,0,0,1-17.469,0C12459.178,13775.507,12460.236,13778.321,12458.44,13780.825Zm8.309,18c-.976,7.22-1.947,14.406-2.922,21.621h9.073c-.982-7.247-1.954-14.419-2.931-21.621Zm4.648-9.7c1.357.976,2.55,1.931,3.848,2.71a1.78,1.78,0,0,0,1.627-.049c2.6-2.123,5.146-4.325,7.671-6.545a1.378,1.378,0,0,0-.093-2.153,3.651,3.651,0,0,0-3.183-.139q-2.476,1.531-4.942,3.08C12474.719,13787.028,12473.116,13788.038,12471.4,13789.119Zm-6.095.028c-.409-.279-.705-.5-1.014-.69-2.691-1.684-5.416-3.317-8.061-5.071a3.261,3.261,0,0,0-3.119-.576c-.5.191-1.143.59-1.267,1.022a1.845,1.845,0,0,0,.516,1.545c2.39,2.147,4.822,4.25,7.322,6.268a1.99,1.99,0,0,0,1.8.172A45.654,45.654,0,0,0,12465.3,13789.147Zm-.337,4.4c.973,2.872,3.293,1.718,5.08,1.771.61.018,1.249-.973,1.978-1.589l-3.663-2.633Z" fill="#fff"/>
      <path id="Caminho_900" data-name="Caminho 900" d="M12494.078,13741.126a14.917,14.917,0,1,1,14.758,15.046A14.922,14.922,0,0,1,12494.078,13741.126Zm14.752-11.42a11.551,11.551,0,1,0,11.715,11.389A11.555,11.555,0,0,0,12508.83,13729.706Z" fill="#fff"/>
    </g>
  </g>
</svg>
