<svg xmlns="http://www.w3.org/2000/svg" width="49.919" height="49.907" viewBox="0 0 49.919 49.907">
  <g id="Grupo_357" data-name="Grupo 357" transform="translate(-11501.824 -9283.014)">
    <g id="Grupo_356" data-name="Grupo 356">
      <path id="Caminho_892" data-name="Caminho 892" d="M11528.828,9332.921a2.654,2.654,0,0,1-2.059-2.908,2.233,2.233,0,0,0-.031-.34,4.912,4.912,0,0,0-1.527-2.971c-1.006-1.017-2.025-2.02-3.022-3.042a12.529,12.529,0,0,1-3.7-8.449,2.95,2.95,0,0,1,2.019-2.915,2.8,2.8,0,0,1,3.252,1,6.582,6.582,0,0,1,.58,1.373c.2.518.4,1.041.593,1.562l.152-.044v-9.879h-.536c-4.533,0-9.066.018-13.6,0a9.137,9.137,0,0,1-8.873-7.05c-.09-.374-.166-.752-.248-1.129v-6.92a1.17,1.17,0,0,0,.083-.221,9.126,9.126,0,0,1,9.174-7.965q15.691-.01,31.382,0a9.14,9.14,0,0,1,9.274,9.259c0,1.592.013,3.183,0,4.774a9.728,9.728,0,0,1-.145,1.694,9.128,9.128,0,0,1-9.133,7.561c-3.638.008-7.277,0-10.915,0h-.548v2.73a2.95,2.95,0,0,1,3.637,1.106c1.879-.854,2.631-.7,4.146.781a8.167,8.167,0,0,1,1.367-.417,2.931,2.931,0,0,1,3.28,3.071c.017,2.029.011,4.06,0,6.089a10.771,10.771,0,0,1-1.066,4.657,4.449,4.449,0,0,0-.467,1.57c-.095,1.439-.1,2.885-.126,4.328a2.4,2.4,0,0,1-.677,1.867,8.828,8.828,0,0,1-1.341.829Zm-3.708-28.273v-.579c0-1.316-.009-2.633,0-3.947a2.987,2.987,0,0,1,2.741-2.961,2.9,2.9,0,0,1,3.037,2.625c.09.868.039,1.751.046,2.628,0,.727,0,1.453,0,2.2a2.684,2.684,0,0,0,.281.033c3.883,0,7.766.059,11.646-.02a7.44,7.44,0,0,0,7.2-7.348c.022-1.723.019-3.444,0-5.165a7.474,7.474,0,0,0-7.469-7.431q-15.816-.022-31.63,0a7.476,7.476,0,0,0-7.489,7.509c-.009,1.655-.013,3.313.006,4.97a7.6,7.6,0,0,0,.147,1.449,7.465,7.465,0,0,0,7.414,6.034c3.882.013,7.766,0,11.648,0Zm1.661,4.323q0,4.337,0,8.673c0,1.059-.579,1.4-1.519.893a4.887,4.887,0,0,1-2.574-3.585,1.231,1.231,0,0,0-1.83-1,1.31,1.31,0,0,0-.718,1.331,11,11,0,0,0,3.295,7.28q1.512,1.521,3.023,3.04a6.45,6.45,0,0,1,1.98,4.57c.012.828.287,1.09,1.135,1.09h9.406c.834,0,1.1-.272,1.113-1.108.016-1.219.013-2.437.049-3.654a6.77,6.77,0,0,1,.726-2.952,7.154,7.154,0,0,0,.846-3.173c.04-2.3.032-4.612.041-6.917a1.406,1.406,0,0,0-.051-.337,1.261,1.261,0,0,0-1.28-.979,1.24,1.24,0,0,0-1.151,1.071c-.016.095-.008.2-.025.291a.84.84,0,0,1-.863.7.82.82,0,0,1-.778-.789c-.018-.228,0-.455-.008-.682a1.355,1.355,0,0,0-1.174-1.438c-.672-.061-1.2.441-1.333,1.263-.086.539-.389.824-.855.807a.842.842,0,0,1-.806-.919c-.012-.292.012-.587-.023-.876a1.252,1.252,0,0,0-1.238-1.088,1.207,1.207,0,0,0-1.2,1.057,3.558,3.558,0,0,1-.064.383.815.815,0,0,1-1.6-.118,4.87,4.87,0,0,1-.015-.535q0-5.385,0-10.769a3.134,3.134,0,0,0-.062-.724,1.187,1.187,0,0,0-.918-.909.988.988,0,0,0-1.128.374,2.134,2.134,0,0,0-.375,1.107C11526.768,9303.221,11526.781,9306.1,11526.781,9308.971Z" fill="#f41f45"/>
      <path id="Caminho_893" data-name="Caminho 893" d="M11506.808,9294.639c0-.958,0-1.916,0-2.874a1.939,1.939,0,0,1,3.14-1.651c1.413.981,2.835,1.95,4.246,2.934a1.842,1.842,0,0,1,.006,3.223c-1.411.985-2.833,1.954-4.245,2.938a1.942,1.942,0,0,1-3.146-1.646C11506.811,9296.588,11506.808,9295.614,11506.808,9294.639Zm1.666-.021c0,.957-.006,1.914,0,2.871,0,.148.035.371.13.424s.311-.023.431-.105c1.393-.949,2.776-1.915,4.169-2.865.321-.22.278-.371-.014-.57-1.393-.952-2.775-1.916-4.169-2.864a.584.584,0,0,0-.432-.091c-.07.021-.113.246-.115.379C11508.469,9292.736,11508.474,9293.676,11508.474,9294.617Z" fill="#f41f45"/>
      <path id="Caminho_894" data-name="Caminho 894" d="M11525.225,9295.342a2.936,2.936,0,0,1-.615.687.742.742,0,0,1-.965-.217c-.526-.615-1.048-1.238-1.569-1.858q-.816-.968-1.63-1.937c-.408-.487-.407-1,0-1.327.387-.311.866-.225,1.269.25q1.559,1.837,3.1,3.688A5.425,5.425,0,0,1,11525.225,9295.342Z" fill="#f41f45"/>
      <path id="Caminho_895" data-name="Caminho 895" d="M11532.585,9296.259c-.291-.249-.622-.4-.7-.633a1.168,1.168,0,0,1,.122-.887,14.436,14.436,0,0,1,1.111-1.353c.679-.807,1.354-1.617,2.038-2.42.427-.5.908-.595,1.3-.27s.39.839-.021,1.33c-1.011,1.206-2.017,2.417-3.045,3.607A5.3,5.3,0,0,1,11532.585,9296.259Z" fill="#f41f45"/>
      <path id="Caminho_896" data-name="Caminho 896" d="M11536.742,9300.475c-.794,0-1.589.008-2.383,0a.832.832,0,1,1-.008-1.654q2.408-.016,4.815,0a.828.828,0,0,1,.914.852.82.82,0,0,1-.907.8C11538.363,9300.482,11537.553,9300.475,11536.742,9300.475Z" fill="#f41f45"/>
      <path id="Caminho_897" data-name="Caminho 897" d="M11520.1,9300.475c-.795,0-1.589.008-2.383,0a.806.806,0,0,1-.9-.8.817.817,0,0,1,.905-.855q2.408-.016,4.815,0a.85.85,0,0,1,.918.856.84.84,0,0,1-.92.8C11521.723,9300.482,11520.912,9300.475,11520.1,9300.475Z" fill="#f41f45"/>
      <path id="Caminho_898" data-name="Caminho 898" d="M11527.617,9291.3c0-.777-.008-1.555,0-2.333.008-.588.324-.951.807-.962s.849.368.853.975q.015,2.357,0,4.715c0,.613-.347.967-.864.951-.494-.016-.788-.357-.8-.964C11527.609,9292.889,11527.617,9292.095,11527.617,9291.3Z" fill="#f41f45"/>
    </g>
  </g>
</svg>
