<svg xmlns="http://www.w3.org/2000/svg" width="100.462" height="86.222" viewBox="0 0 100.462 86.222">
  <g id="Grupo_541" data-name="Grupo 541" transform="translate(-909.769 -2221.916)">
    <g id="Grupo_540" data-name="Grupo 540">
      <path id="Caminho_1165" data-name="Caminho 1165" d="M1010.231,2298.778a26.1,26.1,0,0,1-1.924,4.65c-2.173,3.321-5.448,4.713-9.381,4.71q-26.046-.018-52.092,0c-2.551,0-5.1,0-7.652-.005a4.086,4.086,0,0,1-1.162-.119,1.187,1.187,0,0,1-.939-1.491,2.676,2.676,0,0,1,1.139-1.254c.312-.195.828-.073,1.252-.073l59.351,0c3.9,0,6.773-1.8,7.935-5.057a8.494,8.494,0,0,0,.507-2.773q.042-29.828.022-59.655v-.766h-1.141q-8.044,0-16.088-.007c-.418,0-.973.048-1.22-.185-.4-.38-.871-1.007-.813-1.467s.686-.9,1.149-1.234c.219-.158.635-.049.961-.049q8,0,15.991,0h1.036a7.758,7.758,0,0,0-6.517-9.016,15.4,15.4,0,0,0-1.858-.113q-38.8-.009-77.6,0c-4.117,0-7.142,2.045-8.127,5.6a26.454,26.454,0,0,0-.479,3.532h69.6a9.224,9.224,0,0,1,1.078.021,1.45,1.45,0,0,1,.184,2.854,4.721,4.721,0,0,1-1.169.066q-34.09,0-68.181,0h-1.378v1.117q0,29.387,0,58.773c0,5.085,3.242,8.343,8.323,8.36,3.434.011,6.867,0,10.3,0,.262,0,.524-.009.785.007a1.489,1.489,0,0,1,1.552,1.432,1.457,1.457,0,0,1-1.513,1.481c-4.413-.011-8.84.14-13.234-.167-4.874-.341-8.887-4.91-9.138-9.881-.012-.229-.019-.458-.019-.687q0-32.329.007-64.66a10.588,10.588,0,0,1,8.53-10.538,14.59,14.59,0,0,1,3.021-.249q38.6-.019,77.206-.01c6.342,0,10.113,3,11.584,9.2.013.058.072.1.11.157Z" fill="#fff"/>
      <path id="Caminho_1166" data-name="Caminho 1166" d="M966.705,2262.118l9.614-9.627a22.046,22.046,0,0,0-6.056-3.949,24.777,24.777,0,0,0-21.509.406c-.148.07-.289.152-.437.223a1.523,1.523,0,0,1-2.2-.509,1.5,1.5,0,0,1,.842-2.092,27.108,27.108,0,0,1,8.794-2.9,27.8,27.8,0,1,1-23.343,31.232c-1.218-9.325,1.689-17.342,8.42-23.942.07-.069.14-.138.214-.2a1.5,1.5,0,0,1,2.256-.064c.586.649.495,1.4-.2,2.177a49.077,49.077,0,0,0-3.584,4.145,24.771,24.771,0,0,0,1.212,29.9c.184.221.384.43.526.587l9.686-9.706c-.434-1.051-.93-2.163-1.349-3.3a.951.951,0,0,0-1.065-.741q-2.207.06-4.414,0a.914.914,0,0,0-1.046.763c-.218.717-.509,1.413-.792,2.109-.4.989-1.162,1.4-1.987,1.09a1.5,1.5,0,0,1-.762-2.128q2.314-6.141,4.66-12.269c.151-.4.311-.789.462-1.186a1.789,1.789,0,0,1,3.4.01l2.736,7.237c.785,2.075,1.572,4.149,2.372,6.263.708-.277.838-.637.571-1.346a6.7,6.7,0,0,1,8.707-8.718c.908.335,1.251.117,1.274-.861.016-.654.025-1.309,0-1.962a1.515,1.515,0,0,1,1.177-1.78,1.421,1.421,0,0,1,1.7.988A.528.528,0,0,0,966.705,2262.118Zm1.86,2.61a3.812,3.812,0,0,0-1.947,3.708c.176,2.473.037,4.967.05,7.452,0,.777-.018,1.528-.824,1.944s-1.438.019-2.008-.537a6.74,6.74,0,0,1-7.688.076l-12.491,12.487a24.739,24.739,0,0,0,34.318-1.619c9.7-10.224,8.263-25.383.634-33.366l-7.394,7.393c.231-.06.569-.158.91-.237a7.6,7.6,0,0,1,6.539,1.542,1.427,1.427,0,0,1,.339,2.006,1.48,1.48,0,0,1-2.084.348,6.978,6.978,0,0,0-2.012-.957,5.553,5.553,0,0,0-2.568.146c-.442.143-.836.865-.975,1.4-.17.655.371,1.028.972,1.268,1.514.607,3.054,1.166,4.512,1.889a4.569,4.569,0,0,1,2.875,4.513,4.768,4.768,0,0,1-3.428,4.361,7.6,7.6,0,0,1-7.986-1.771c-.864-.76-.968-1.647-.38-2.314.609-.689,1.5-.622,2.393.188a5.209,5.209,0,0,0,3.857,1.39,2.616,2.616,0,0,0,2.587-1.858c.142-.855-.453-1.595-1.791-2.158-1.383-.582-2.793-1.1-4.167-1.705a3.8,3.8,0,0,1-2.4-3.418A15.327,15.327,0,0,1,968.565,2264.728Zm-5.385,5.231c-1.623,1.634-3.155,3.176-4.684,4.722a2.843,2.843,0,1,0,4.053-.166A3.748,3.748,0,0,0,963.18,2269.959Zm-16.833-4.023-1.812,4.793h3.607Zm14.389,2.2a3.656,3.656,0,0,0-3.592,1.151,3.067,3.067,0,0,0-.761,3.2Z" fill="#fff"/>
      <path id="Caminho_1167" data-name="Caminho 1167" d="M920.632,2231.081c-1.1.007-1.807-.56-1.814-1.457s.7-1.488,1.791-1.486c1.107,0,1.765.573,1.744,1.512C922.333,2230.551,921.7,2231.074,920.632,2231.081Z" fill="#fff"/>
      <path id="Caminho_1168" data-name="Caminho 1168" d="M935.054,2231.081c-1.119,0-1.779-.543-1.774-1.475,0-.9.644-1.452,1.691-1.468,1.107-.016,1.816.534,1.845,1.433S936.138,2231.076,935.054,2231.081Z" fill="#fff"/>
      <path id="Caminho_1169" data-name="Caminho 1169" d="M927.806,2231.081c-1.107,0-1.775-.575-1.754-1.5s.708-1.456,1.824-1.44c1.035.015,1.7.584,1.711,1.46C929.6,2230.51,928.908,2231.083,927.806,2231.081Z" fill="#fff"/>
    </g>
  </g>
</svg>
