<svg xmlns="http://www.w3.org/2000/svg" width="48.869" height="50" viewBox="0 0 48.869 50">
  <g id="Grupo_373" data-name="Grupo 373" transform="translate(-11501.069 -15649.387)">
    <g id="Grupo_372" data-name="Grupo 372">
      <path id="Caminho_935" data-name="Caminho 935" d="M11502.366,15699.388a2.08,2.08,0,0,1-1.292-2.26c.063-1.314.014-2.636.016-3.954,0-.619.26-.939.739-.933s.723.335.724.958c0,1.4.014,2.8-.006,4.2,0,.408.137.531.538.531q16.433-.012,32.866,0c.406,0,.545-.132.537-.535-.02-1.041.014-2.083-.021-3.123a1.292,1.292,0,0,0-.317-.753,4.48,4.48,0,0,1-1.247-1.715,2.759,2.759,0,0,1,.71-2.729c-.766-.77-1.511-1.539-2.288-2.274-.1-.089-.4-.042-.559.036a10.581,10.581,0,0,1-9.107.241,11.706,11.706,0,0,1-1.826-1.02,1.768,1.768,0,0,0-1.036-.315q-5.495.015-10.988.006c-.163,0-.325,0-.487-.009a.691.691,0,0,1-.7-.679.706.706,0,0,1,.665-.761,3.524,3.524,0,0,1,.487-.016h10.033c-.157-.212-.251-.338-.346-.462a9.985,9.985,0,0,1-1.658-3.184.494.494,0,0,0-.571-.424c-2.507.016-5.014.01-7.521,0a1.985,1.985,0,0,1-.624-.072.6.6,0,0,1-.441-.761,1.508,1.508,0,0,1,.6-.6c.112-.077.315-.024.479-.024h7.518l.238-4.084h-.407q-3.687,0-7.374,0a1.963,1.963,0,0,1-.532-.035.721.721,0,0,1,.082-1.414,3.128,3.128,0,0,1,.488-.014c2.637,0,5.273-.006,7.911.007a.6.6,0,0,0,.653-.416,10.538,10.538,0,0,1,2.852-3.678h-11.412a3.388,3.388,0,0,1-.488-.012.721.721,0,0,1-.09-1.412,2.207,2.207,0,0,1,.581-.039q6.665,0,13.332-.007a2.043,2.043,0,0,0,.754-.138,10.625,10.625,0,0,1,12.258,3.017c.1.119.2.235.369.431.012-.256.026-.411.026-.564q0-9.423,0-18.848c0-.7,0-.7-.7-.7h-32.524c-.7,0-.7,0-.7.7v37.987a3.323,3.323,0,0,1-.017.584.69.69,0,0,1-.744.631.68.68,0,0,1-.7-.678c-.014-.146-.006-.293-.006-.439q0-19.091,0-38.182c0-1.448.625-2.066,2.089-2.066h32.67c1.488,0,2.1.61,2.1,2.107q0,9.936,0,19.872a15.379,15.379,0,0,0,.344,3.764,9.944,9.944,0,0,1-.882,7.013.591.591,0,0,0,.139.835c.707.67,1.383,1.372,2.09,2.079a2.741,2.741,0,0,1,2.34-.8,2.676,2.676,0,0,1,1.577.811c.747.748,1.5,1.492,2.243,2.243.4.405.451.838.146,1.158-.321.338-.762.292-1.191-.135-.716-.711-1.425-1.429-2.143-2.138a1.249,1.249,0,0,0-2.032.013q-1.92,1.913-3.832,3.833a1.226,1.226,0,0,0-.022,1.957c1.562,1.569,3.115,3.145,4.7,4.691a4.127,4.127,0,0,0,6.082-5.569c-.145-.176-.312-.332-.465-.5a.735.735,0,0,1-.051-1.049.719.719,0,0,1,1.083.017,5.6,5.6,0,0,1-2.9,9.718,1.384,1.384,0,0,0-.225.083h-1.271c-2.558-.354-3.944-2.4-5.734-4.071,0,.706-.037,1.272.008,1.833a2,2,0,0,1-1.3,2.238Zm36.226-13.322c-.765-.76-1.522-1.5-2.262-2.251a1.678,1.678,0,0,1-.338-2.1c.069-.146.154-.287.218-.436a8.9,8.9,0,0,0-.93-9.371,9.153,9.153,0,1,0-13.235,12.459,8.856,8.856,0,0,0,9.963,1.191,1.869,1.869,0,0,1,2.611.436c.676.676,1.35,1.354,2.013,2.02Z" fill="#f41f45"/>
      <path id="Caminho_936" data-name="Caminho 936" d="M11508.529,15655.328v2.851c.174.011.345.03.516.03q11.375,0,22.75.01c.425,0,.575-.105.548-.544a15.036,15.036,0,0,1,0-1.8c.024-.424-.1-.555-.538-.553-3.188.019-6.379.011-9.568.008a2.1,2.1,0,0,1-.577-.054.663.663,0,0,1-.5-.741.672.672,0,0,1,.618-.651,3.124,3.124,0,0,1,.438-.016h9.666c1.348,0,1.92.58,1.921,1.936,0,.716.006,1.433,0,2.148a1.576,1.576,0,0,1-1.689,1.724q-11.694.009-23.386,0a1.552,1.552,0,0,1-1.677-1.673c-.007-.846-.011-1.692,0-2.538a1.524,1.524,0,0,1,1.56-1.588q5.125-.021,10.252,0c.515,0,.8.274.81.713,0,.465-.312.745-.886.745q-4.346.007-8.69,0Z" fill="#f41f45"/>
      <path id="Caminho_937" data-name="Caminho 937" d="M11520.436,15662.116h10.646a2.7,2.7,0,0,1,.534.03.717.717,0,0,1-.046,1.416,3.852,3.852,0,0,1-.487.017h-21.339c-.782,0-1.143-.243-1.124-.753s.354-.712,1.123-.712Z" fill="#f41f45"/>
      <path id="Caminho_938" data-name="Caminho 938" d="M11520.44,15691.29h-10.686a3.684,3.684,0,0,1-.487-.01.681.681,0,0,1-.644-.678.668.668,0,0,1,.52-.729,1.878,1.878,0,0,1,.53-.046q10.734,0,21.467,0a1.848,1.848,0,0,1,.62.08.579.579,0,0,1,.416.728,1.564,1.564,0,0,1-.574.628c-.106.079-.315.025-.478.025Z" fill="#f41f45"/>
      <path id="Caminho_939" data-name="Caminho 939" d="M11545.994,15694.8c-.116.14-.238.42-.437.493a.916.916,0,0,1-.759-.065,8.653,8.653,0,0,1-1.178-1.162.661.661,0,0,1,.011-.9.618.618,0,0,1,.872-.175,14.96,14.96,0,0,1,1.383,1.366C11545.954,15694.425,11545.943,15694.57,11545.994,15694.8Z" fill="#f41f45"/>
      <path id="Caminho_940" data-name="Caminho 940" d="M11527.935,15669.7a7.655,7.655,0,1,1-7.687,7.641A7.653,7.653,0,0,1,11527.935,15669.7Zm-5.629,10.183a6.131,6.131,0,0,0,6.634,3.575,6.194,6.194,0,0,0,.6-12.085,5.99,5.99,0,0,0-6.395,2.151h4.453c1.271,0,2.539-.01,3.809.006a.736.736,0,0,1,.8.745c-.006.429-.313.7-.816.711-.406.008-.813,0-1.221,0-2.521,0-5.045,0-7.567.011-.17,0-.441.111-.489.237a5.514,5.514,0,0,0-.278,3.183h.6q4.345,0,8.69,0c.209,0,.483-.032.611.081a1.328,1.328,0,0,1,.44.724.59.59,0,0,1-.555.633,3.266,3.266,0,0,1-.536.023h-8.781Z" fill="#f41f45"/>
    </g>
  </g>
</svg>
