<svg xmlns="http://www.w3.org/2000/svg" width="50" height="50.002" viewBox="0 0 50 50.002">
  <g id="Grupo_369" data-name="Grupo 369" transform="translate(-11906.458 -15897.838)">
    <g id="Grupo_368" data-name="Grupo 368">
      <path id="Caminho_918" data-name="Caminho 918" d="M11906.458,15944.126v-29.1a.828.828,0,0,0,.08-.172,4.291,4.291,0,0,1,3.717-3.489c.251-.038.5-.053.784-.079v-.615c0-3.153-.007-6.307,0-9.461a3.352,3.352,0,0,1,2.243-3.172c.2-.07.395-.133.593-.2h35.155a.258.258,0,0,0,.078.055,3.394,3.394,0,0,1,2.763,3.663q0,4.613,0,9.227v.506c.121.018.168.028.217.031a4.334,4.334,0,0,1,4.364,4.625q0,4.491,0,8.981c0,.75-.368,1.211-.965,1.218s-.985-.459-.986-1.2q0-2.733,0-5.467v-.716c-4.182,3.456-8.275,6.837-12.394,10.241l12.394,11.26v-.589c0-1.854,0-3.71,0-5.564a.994.994,0,0,1,1.041-1.089,1.009,1.009,0,0,1,.908,1.125q0,4.686-.006,9.373a4.424,4.424,0,0,1-.152,1.105,4.3,4.3,0,0,1-4.358,3.209q-17.184,0-34.367,0c-2.278,0-4.557.012-6.834-.006a4.316,4.316,0,0,1-4.044-2.919C11906.6,15944.654,11906.536,15944.388,11906.458,15944.126Zm25.026-44.335h-16.793a1.481,1.481,0,0,0-1.7,1.7q0,9.029-.006,18.061a.851.851,0,0,0,.335.744q7.723,6.362,15.436,12.732a1.217,1.217,0,0,0,.7.244c1.334.021,2.669.023,4,0a1.279,1.279,0,0,0,.734-.27q7.707-6.34,15.4-12.7a.856.856,0,0,0,.338-.744q-.012-9.006-.007-18.013c0-1.229-.521-1.752-1.744-1.752Zm-9.132,30.492a.843.843,0,0,0-.085.049q-6.831,6.2-13.656,12.4a.621.621,0,0,0-.192.361,2.415,2.415,0,0,0,2.516,2.786q20.527,0,41.053,0a2.384,2.384,0,0,0,2.522-2.55.852.852,0,0,0-.31-.712q-6.458-5.849-12.9-11.713c-.234-.214-.474-.423-.716-.639-1.883,1.554-3.718,3.087-5.581,4.584a1.781,1.781,0,0,1-1.011.366c-1.675.037-3.353.041-5.027,0a1.947,1.947,0,0,1-1.094-.4C11926.018,15933.33,11924.2,15931.8,11922.353,15930.283Zm-13.914,9.962,12.37-11.24-12.37-10.221Zm43.477-26.918v5.041c.746-.617,1.41-1.217,2.13-1.739a1.085,1.085,0,0,0,.461-1.074A2.33,2.33,0,0,0,11951.915,15913.327Zm-40.9-.025a2.418,2.418,0,0,0-2.6,2.778.362.362,0,0,0,.086.212c.814.682,1.633,1.357,2.516,2.087Z" fill="#f41f45"/>
      <path id="Caminho_919" data-name="Caminho 919" d="M11956.453,15929.555a.973.973,0,1,1-1.945.018.973.973,0,0,1,1.945-.018Z" fill="#f41f45"/>
      <path id="Caminho_920" data-name="Caminho 920" d="M11926.283,15920.082c.105-.87.242-1.837.329-2.808a1.014,1.014,0,0,0-.214-.679c-.573-.666-1.185-1.3-1.789-1.936a1.653,1.653,0,0,1,.941-2.869c.85-.147,1.691-.331,2.538-.486a.8.8,0,0,0,.635-.447c.405-.778.84-1.542,1.273-2.306a1.641,1.641,0,0,1,3,0c.437.761.871,1.525,1.273,2.3a.8.8,0,0,0,.635.447q1.293.237,2.584.5a1.634,1.634,0,0,1,.929,2.821c-.6.666-1.232,1.3-1.82,1.974a.948.948,0,0,0-.225.635c.079.89.2,1.776.322,2.662a1.638,1.638,0,0,1-.634,1.643,1.6,1.6,0,0,1-1.749.144c-.822-.388-1.643-.785-2.479-1.14a.94.94,0,0,0-.669,0c-.866.37-1.705.8-2.572,1.172A1.64,1.64,0,0,1,11926.283,15920.082Zm2.021-.378c.824-.382,1.565-.679,2.257-1.062a1.811,1.811,0,0,1,1.886,0c.707.38,1.452.688,2.246,1.058-.113-.961-.186-1.836-.328-2.7a1.478,1.478,0,0,1,.465-1.4c.613-.614,1.189-1.267,1.842-1.969-.988-.2-1.872-.391-2.764-.54a1.351,1.351,0,0,1-1.05-.765c-.428-.8-.881-1.59-1.359-2.451-.474.85-.929,1.634-1.351,2.436a1.4,1.4,0,0,1-1.091.787c-.889.147-1.768.349-2.724.541.68.731,1.292,1.4,1.922,2.059a1.3,1.3,0,0,1,.388,1.148C11928.52,15917.761,11928.423,15918.68,11928.3,15919.7Z" fill="#f41f45"/>
      <path id="Caminho_921" data-name="Caminho 921" d="M11924.536,15922.823a2.529,2.529,0,0,1-.338.57c-.5.537-1.021,1.051-1.548,1.559a.972.972,0,0,1-1.434.039.946.946,0,0,1,.041-1.395c.53-.551,1.074-1.089,1.622-1.621a.909.909,0,0,1,1.078-.2A1.021,1.021,0,0,1,11924.536,15922.823Z" fill="#f41f45"/>
      <path id="Caminho_922" data-name="Caminho 922" d="M11922.075,15904.172a2.47,2.47,0,0,1,.564.334c.537.5,1.05,1.021,1.559,1.547a.976.976,0,0,1,.045,1.434.95.95,0,0,1-1.4-.037c-.552-.529-1.089-1.074-1.621-1.622a.909.909,0,0,1-.2-1.078A1.011,1.011,0,0,1,11922.075,15904.172Z" fill="#f41f45"/>
      <path id="Caminho_923" data-name="Caminho 923" d="M11938.374,15922.574a3.736,3.736,0,0,1,.621-.765.794.794,0,0,1,1.038.1c.617.577,1.219,1.174,1.793,1.793a.932.932,0,0,1-.045,1.285.915.915,0,0,1-1.278.09c-.635-.582-1.236-1.2-1.827-1.827A2.6,2.6,0,0,1,11938.374,15922.574Z" fill="#f41f45"/>
      <path id="Caminho_924" data-name="Caminho 924" d="M11938.47,15906.628a1.82,1.82,0,0,1,.275-.506c.533-.57,1.086-1.121,1.651-1.66a.966.966,0,0,1,1.394,1.338c-.556.592-1.135,1.164-1.725,1.723a.9.9,0,0,1-1.046.151A1.023,1.023,0,0,1,11938.47,15906.628Z" fill="#f41f45"/>
      <path id="Caminho_925" data-name="Caminho 925" d="M11943.215,15913.754c.162,0,.324-.007.486,0a.973.973,0,0,1-.016,1.945c-.323.015-.648.015-.972,0a.973.973,0,1,1,.014-1.945C11942.89,15913.747,11943.052,15913.754,11943.215,15913.754Z" fill="#f41f45"/>
      <path id="Caminho_926" data-name="Caminho 926" d="M11932.449,15903.018a5.45,5.45,0,0,1,0,.632.936.936,0,0,1-.877.827.9.9,0,0,1-1-.738,5.842,5.842,0,0,1-.012-1.4.916.916,0,0,1,.962-.786.948.948,0,0,1,.929.884c.019.192,0,.389,0,.582Z" fill="#f41f45"/>
      <path id="Caminho_927" data-name="Caminho 927" d="M11919.773,15915.7a5.026,5.026,0,0,1-.582,0,.965.965,0,0,1-.864-1,.952.952,0,0,1,.89-.928,9.068,9.068,0,0,1,1.068,0,.972.972,0,0,1,.022,1.942c-.177.014-.355,0-.534,0Z" fill="#f41f45"/>
      <path id="Caminho_928" data-name="Caminho 928" d="M11932.455,15926.431c0,.194.016.391,0,.583a.956.956,0,0,1-1.9.062,5.824,5.824,0,0,1,0-1.258.924.924,0,0,1,1.014-.835.938.938,0,0,1,.895.915c.015.177,0,.355,0,.533Z" fill="#f41f45"/>
      <path id="Caminho_929" data-name="Caminho 929" d="M11931.489,15942.864h-7.275a3.524,3.524,0,0,1-.487-.014.974.974,0,0,1-.826-.843.936.936,0,0,1,.609-1,2.133,2.133,0,0,1,.669-.089q7.324-.006,14.648,0a2.114,2.114,0,0,1,.577.061.925.925,0,0,1,.677,1.046.944.944,0,0,1-.878.837c-.146.014-.292.007-.439.007Z" fill="#f41f45"/>
      <path id="Caminho_930" data-name="Caminho 930" d="M11931.482,15938.974c-1.543,0-3.086.007-4.631,0a.968.968,0,0,1-1.044-.929,1,1,0,0,1,.976-1.012,4.1,4.1,0,0,1,.438-.008H11934c.715,0,1.43-.02,2.144.008a.976.976,0,0,1,.956,1.369,1,1,0,0,1-1.032.579C11934.536,15938.968,11933.009,15938.974,11931.482,15938.974Z" fill="#f41f45"/>
    </g>
  </g>
</svg>
