<svg xmlns="http://www.w3.org/2000/svg" width="79.571" height="115" viewBox="0 0 79.571 115">
  <g id="Grupo_539" data-name="Grupo 539" transform="translate(-518.269 -2207.527)">
    <g id="Grupo_538" data-name="Grupo 538">
      <path id="Caminho_1156" data-name="Caminho 1156" d="M546.589,2207.527a2.494,2.494,0,0,1,1.1,2.4c-.061.968.016,1.945-.025,2.915a1.738,1.738,0,0,1-1.727,1.827,1.714,1.714,0,0,1-1.629-1.9c-.021-1.009.044-2.022-.02-3.028a2.137,2.137,0,0,1,1.179-2.216Z" fill="#fff"/>
      <path id="Caminho_1157" data-name="Caminho 1157" d="M546.65,2310.254c-1.467-.333-2.846-.637-4.22-.96a10.925,10.925,0,0,1-8.718-10.347,5.2,5.2,0,0,0-1.021-2.633c-3.353-4.407-6.794-8.747-10.2-13.11-2.265-2.9-1.744-5.532,1.448-7.344a9.86,9.86,0,0,1,12.488,2.326c1.043,1.249,2.023,2.551,3.219,4.064v-32.491c-.79,0-1.6.011-2.4,0a5.81,5.81,0,0,1-5.776-5.213,6.408,6.408,0,0,1-.062-.782c0-5.69-.037-11.379.009-17.068a5.821,5.821,0,0,1,5.352-6c1.217-.107,2.039.432,2.175,1.429s-.5,1.683-1.736,1.912c-1.694.314-2.411,1.1-2.418,2.819q-.031,8.31,0,16.619c.007,2.019.956,2.909,2.994,2.922.6,0,1.193,0,1.985,0,0-.562-.013-1.066,0-1.569a5.733,5.733,0,0,1,5.943-5.838,22.039,22.039,0,0,1,2.8.05,5.692,5.692,0,0,1,5.076,5.639c.014.519,0,1.039,0,1.535,2.177.512,3.552-.524,3.557-2.64q.02-8.366,0-16.731a2.494,2.494,0,0,0-2.761-2.8c-2.769-.036-5.54.005-8.309-.026-.505-.005-1.19-.033-1.466-.342a2.208,2.208,0,0,1-.628-1.716,2.244,2.244,0,0,1,1.479-1.223,16.241,16.241,0,0,1,3.133-.072c1.871,0,3.743-.009,5.614,0,3.9.02,6.307,2.42,6.313,6.3q.012,8.141,0,16.282c0,4.106-2.23,6.406-6.311,6.525-.148.005-.3.028-.53.051v12.252c3.025-.5,6.074-1,8.685,1.28,4.6-3.026,9.285-2.244,11.711,1.765,1.8-.121,3.492-.334,5.181-.326a5.709,5.709,0,0,1,5.788,5.759q.057,1.964,0,3.929a1.163,1.163,0,0,0,.7,1.235c6.916,3.708,10.984,9.445,11.933,17.247a21.249,21.249,0,0,1-4.038,15.365c-.751,1.05-1.749,1.3-2.583.706s-.941-1.6-.16-2.667a18.706,18.706,0,1,0-33.676-13.4c-.835,7.52,1.857,13.678,8.158,17.905,6.258,4.2,12.891,4.282,19.557.8,1.561-.816,2.459-.806,3.039.178.611,1.037.2,1.978-1.415,2.775a46.674,46.674,0,0,1-4.642,1.941c-.6.218-.868.46-.8,1.092a6.464,6.464,0,0,1,0,1.121,3.781,3.781,0,0,1-3.943,3.752c-5.39.017-10.78,0-16.17,0q-5.053,0-10.106-.006c-2.711-.006-4.228-1.521-4.242-4.251C546.64,2315.613,546.65,2312.963,546.65,2310.254Zm31.026,7.119a21.635,21.635,0,0,1-17.167-6.069,21.341,21.341,0,0,1-6.79-16.949,21.059,21.059,0,0,1,6.718-14.846c6-5.7,13.149-7.317,21.215-5.486a20.717,20.717,0,0,0-.058-3.683c-.132-.705-.73-1.714-1.307-1.864a9.982,9.982,0,0,0-3.96-.171c-.585.091-1.1,1-1.532,1.613a1.914,1.914,0,0,1-2.212.912,1.762,1.762,0,0,1-1.347-1.842c0-.225-.005-.449-.008-.674-.021-2.382-.883-3.242-3.256-3.247-.337,0-.674.005-1.011,0a2.6,2.6,0,0,0-2.737,1.716,1.875,1.875,0,0,1-1.781,1.315,1.908,1.908,0,0,1-1.87-1.356,2.563,2.563,0,0,0-2.65-1.674c-.411,0-.823,0-1.234,0-2,.012-2.756.65-3.109,2.619a1.665,1.665,0,0,1-1.731,1.556,1.7,1.7,0,0,1-1.619-1.7c-.025-.26-.012-.524-.012-.786q0-2.919,0-5.837,0-7.578,0-15.156c0-2.768-.646-3.4-3.461-3.4h-.225c-2.715,0-3.393.669-3.4,3.363q-.033,20.151-.065,40.3a9.7,9.7,0,0,1-.042,1.344,1.676,1.676,0,0,1-2.728,1.1,4.607,4.607,0,0,1-.745-.832c-1.9-2.412-3.757-4.851-5.686-7.236a6.464,6.464,0,0,0-8.3-1.586c-1.279.734-1.365,1.106-.473,2.248,3.43,4.394,6.85,8.8,10.31,13.166a7.692,7.692,0,0,1,1.727,4.634,7.372,7.372,0,0,0,5.7,7.052c1.81.46,3.645.819,5.463,1.247,1.387.326,1.72.747,1.726,2.18.012,2.769,0,5.538.005,8.308,0,1.5,0,1.5,1.454,1.5l24.81.008C577.813,2319.155,577.813,2319.153,577.676,2317.373Z" fill="#fff"/>
      <path id="Caminho_1158" data-name="Caminho 1158" d="M573.934,2307.1c-1.378-.57-2.68-1.013-3.889-1.637-1.255-.648-1.562-1.635-.99-2.553.548-.879,1.474-.981,2.657-.36.674.354,1.393.621,2.246.994,0-2.595.035-4.949-.039-7.3-.01-.335-.485-.765-.847-.962-1.806-.98-3.325-2.146-3.626-4.378a6.119,6.119,0,0,1,3.689-6.526,1.47,1.47,0,0,0,.79-.947c.17-1.454.7-2.19,1.735-2.163,1.012.025,1.6.815,1.676,2.244.008.146.033.292.038.334,1.062.532,2.095.96,3.029,1.544a1.645,1.645,0,0,1,.535,2.425,1.668,1.668,0,0,1-2.372.365c-.343-.2-.692-.391-1.227-.692,0,1.977-.039,3.755.043,5.528.012.266.56.6.923.741a6.286,6.286,0,0,1,4.236,4.556,7.03,7.03,0,0,1-4.37,8.042c-.6.234-.87.483-.86,1.175.022,1.375-.684,2.192-1.719,2.171-1.012-.021-1.589-.772-1.633-2.121C573.952,2307.358,573.936,2307.139,573.934,2307.1Zm3.478-9.989v5.884a3.555,3.555,0,0,0,1.9-3.412A2.608,2.608,0,0,0,577.412,2297.108Zm-3.494-9.285a2.508,2.508,0,0,0-1.055,2.785c.114.428.558.767.853,1.147l.2-.176Z" fill="#fff"/>
      <path id="Caminho_1159" data-name="Caminho 1159" d="M532.594,2251.829c1.4.033,2.3,1.31,1.718,2.315a26.549,26.549,0,0,1-2.619,3.628,1.44,1.44,0,0,1-2.124.113,1.494,1.494,0,0,1-.448-2.094,40.388,40.388,0,0,1,2.512-3.439A2.517,2.517,0,0,1,532.594,2251.829Z" fill="#fff"/>
      <path id="Caminho_1160" data-name="Caminho 1160" d="M563.081,2256.882c-.286.316-.631,1.018-1.142,1.174a2.068,2.068,0,0,1-1.779-.4,22.77,22.77,0,0,1-2.46-3.326,1.506,1.506,0,0,1,.409-2.1,1.4,1.4,0,0,1,2.034,0c1.016,1.184,1.876,2.5,2.782,3.777C563.022,2256.145,562.995,2256.37,563.081,2256.882Z" fill="#fff"/>
      <path id="Caminho_1161" data-name="Caminho 1161" d="M567.075,2217.882c-.005,1.1-3.461,4.282-4.56,4.2a1.628,1.628,0,0,1-1.267-2.555,20.959,20.959,0,0,1,3.383-3.081A1.6,1.6,0,0,1,567.075,2217.882Z" fill="#fff"/>
      <path id="Caminho_1162" data-name="Caminho 1162" d="M568.647,2236.064c1.109.129,2.339.241,3.558.423a1.633,1.633,0,0,1,1.469,1.8,1.709,1.709,0,0,1-1.889,1.523c-1.192-.093-2.38-.239-3.567-.389a1.687,1.687,0,0,1-1.632-1.783C566.645,2236.661,567.424,2236.031,568.647,2236.064Z" fill="#fff"/>
      <path id="Caminho_1163" data-name="Caminho 1163" d="M523.284,2236.067c1.207-.045,1.97.549,2.047,1.53a1.683,1.683,0,0,1-1.691,1.829c-1.112.134-2.225.264-3.34.37a1.7,1.7,0,0,1-2.018-1.472,1.646,1.646,0,0,1,1.632-1.864C521.061,2236.3,522.214,2236.19,523.284,2236.067Z" fill="#fff"/>
      <path id="Caminho_1164" data-name="Caminho 1164" d="M526.176,2216.214c1.366.03,4.786,3.034,4.756,4a2.038,2.038,0,0,1-.7,1.5,1.919,1.919,0,0,1-1.726.085,22.343,22.343,0,0,1-3.313-2.993,1.819,1.819,0,0,1-.121-1.631C525.294,2216.687,525.941,2216.4,526.176,2216.214Z" fill="#fff"/>
    </g>
  </g>
</svg>
