<svg xmlns="http://www.w3.org/2000/svg" width="48.394" height="48.355" viewBox="0 0 48.394 48.355">
  <g id="Grupo_341" data-name="Grupo 341" transform="translate(-12330.479 -8339.233)">
    <g id="Grupo_340" data-name="Grupo 340">
      <path id="Caminho_813" data-name="Caminho 813" d="M12360.14,8374.9a9.481,9.481,0,0,1-4.676,1.724c0,1.046-.013,2.049.018,3.052,0,.12.219.278.368.342a3.117,3.117,0,0,1-2.061,5.877,3.151,3.151,0,0,1-2.218-2.749,3.049,3.049,0,0,1,1.875-3.071.62.62,0,0,0,.468-.7c-.033-.892-.011-1.785-.011-2.73a9.469,9.469,0,0,1-7.056-4.217l-3.791,3.81a6.951,6.951,0,0,1,1.174,6.382,6.8,6.8,0,0,1-2.99,3.895,7.017,7.017,0,1,1,.646-11.453c.1-.086.209-.173.309-.271,1.185-1.182,2.36-2.373,3.558-3.543a.57.57,0,0,0,.155-.716,9.021,9.021,0,0,1-.326-5.362.833.833,0,0,0,.021-.474,3.253,3.253,0,0,1-.074-2.417,10.128,10.128,0,0,1-3.562,1.667,9.278,9.278,0,0,1-11.346-7.932c-.236-2.432-.105-4.9-.109-7.352a10.474,10.474,0,0,1,.188-1.935,9.349,9.349,0,0,1,18.32-.025,12.5,12.5,0,0,1,.194,2.031c.031,1.168.009,2.338.009,3.61,1.481-.894,3.082-.558,4.681-.649,0-1.237-.027-2.451.011-3.663a1.289,1.289,0,0,0-.8-1.486,2.93,2.93,0,0,1-1.411-3.541,3.119,3.119,0,0,1,6.063.416,3.04,3.04,0,0,1-1.834,3.316.653.653,0,0,0-.473.748c.019,1.393.007,2.785.007,4.228.771,0,1.5,0,2.224,0a3.124,3.124,0,0,1,3.143,2.349.681.681,0,0,0,.223.345c.291.2.605.373.875.535l5.709-5.718a6.237,6.237,0,1,1,9.795.22,6.235,6.235,0,0,1-8.537,1.045l-5.765,5.762c-.018-.093-.015-.063-.006-.034.268.85.854,1.01,1.7.979,1.964-.072,3.932-.03,5.9-.016a.531.531,0,0,0,.6-.4,3.076,3.076,0,0,1,3.749-1.824,3.148,3.148,0,0,1,2.209,3.422,3.108,3.108,0,0,1-3.252,2.68,3.015,3.015,0,0,1-2.669-1.832c-.07-.145-.124-.3-.194-.47h-6.951c-.232.943-.452,1.829-.664,2.716a.5.5,0,0,0,.012.27c.182.481.372.959.58,1.488,1.7-.846,3.569-.585,5.405-.59a19.935,19.935,0,0,1,4.025.192,6.661,6.661,0,0,1,4.762,9.138.7.7,0,0,0,.055.748,2.959,2.959,0,0,1,.309,2.613,1.781,1.781,0,0,0-.041.886,9.361,9.361,0,1,1-18.33,3.81,9.948,9.948,0,0,1-.019-3.534,9.55,9.55,0,0,0,.015-1.542Zm-17.159,5.651a5.459,5.459,0,1,0-5.444,5.473A5.473,5.473,0,0,0,12342.98,8380.554Zm-7.8-32.744c0,1.834-.008,3.617,0,5.4a3.111,3.111,0,0,0,3.169,3.18c.975.01,1.948,0,2.923,0a3.124,3.124,0,0,0,3.266-3.281c0-1.622,0-3.245,0-4.867,0-.142-.015-.281-.023-.435a10.542,10.542,0,0,1-4.437-1.278.531.531,0,0,0-.439,0A10.589,10.589,0,0,1,12335.182,8347.81Zm39,23.4h-1.89a15.73,15.73,0,0,1-5.983-1.17c-.757-.309-.983-.228-1.3.546a2.1,2.1,0,0,0-.171.751c-.014,1.82-.031,3.64,0,5.459a3.076,3.076,0,0,0,2.967,2.983q1.705.048,3.412,0a3.055,3.055,0,0,0,2.952-2.893C12374.218,8375.02,12374.178,8373.151,12374.178,8371.21Zm-14.826-10.919h-1.9a15.746,15.746,0,0,1-5.982-1.176c-.734-.3-.96-.226-1.271.521a2.316,2.316,0,0,0-.186.847c-.016,1.771-.022,3.542,0,5.313a3.1,3.1,0,0,0,3.037,3.068q1.632.032,3.266,0a3.041,3.041,0,0,0,3.022-2.817C12359.412,8364.152,12359.352,8362.251,12359.352,8360.291Zm2.86.239a3.7,3.7,0,0,0-1.551-4.546,8.164,8.164,0,0,0-.951-.488.519.519,0,0,1-.354-.55,1.548,1.548,0,0,0-1.67-1.672c-2.029-.007-4.059-.011-6.089,0a3.021,3.021,0,0,0-3.095,2.667,2.344,2.344,0,0,1-.745,1.481,3.076,3.076,0,0,0-.727,3.154l1.411-.348a3.652,3.652,0,0,1,1.975-2.972.688.688,0,0,1,.716-.013,11.408,11.408,0,0,0,4.157,1.294c1.679.134,3.369.134,5.054.19.188.007.374,0,.591,0v1.507Zm5.734-15.1a4.679,4.679,0,1,0,4.716-4.64A4.695,4.695,0,0,0,12367.946,8345.435Zm8.941,25.962c.056-.14.107-.258.148-.378a5.19,5.19,0,0,0-4.7-6.812c-1.882-.054-3.766-.026-5.648,0a4.98,4.98,0,0,0-2.565.816c-.251.153-.274.323-.256.6.06.917.081,1.838.091,2.758a5.455,5.455,0,0,1-.108.849c.487-.357.979-.739,1.5-1.085a.569.569,0,0,1,.483-.021,15.088,15.088,0,0,0,7.447,1.535c.806-.026,1.613,0,2.468,0v1.514Zm-44.777-23.249,1.521-.41v-1.469c.145-.007.239-.019.333-.015a9.085,9.085,0,0,0,5.676-1.551.631.631,0,0,1,.543.061,8.247,8.247,0,0,0,3.268,1.327c.86.124,1.735.153,2.653.229v1.416l1.494.411a7.754,7.754,0,0,0-15.487,0Zm34.553,34.071a11.191,11.191,0,0,0-1.125,1.389c-.682,1.189-.625,1.021.438,1.552a7.545,7.545,0,0,0,7.616-.312c.133-.079.308-.315.273-.415a4.258,4.258,0,0,0-1.565-2.119c-.583,1.219-1.379,2.143-2.8,2.142S12367.29,8383.528,12366.663,8382.219Zm-14.841-10.955c-.474.627-.913,1.124-1.253,1.684-.444.73-.408.767.327,1.168a7.055,7.055,0,0,0,.741.366,7.639,7.639,0,0,0,7.095-.529c.146-.087.343-.339.308-.443a4.2,4.2,0,0,0-1.563-2.114,3.082,3.082,0,0,1-2.754,2.142C12353.282,8373.557,12352.476,8372.622,12351.822,8371.264Zm-14.745-12.315a4.076,4.076,0,0,0-1.573,2.056.469.469,0,0,0,.168.379,7.777,7.777,0,0,0,8.371.009c.1-.069.219-.247.192-.325a4.3,4.3,0,0,0-1.58-2.15,3.1,3.1,0,0,1-2.715,2.141C12338.477,8361.1,12337.66,8360.153,12337.077,8358.948Zm23.407,13.514c1.44-1.3,2.438-4.568,1.85-6.26-.229.077-.455.169-.689.227-.25.062-.507.09-.758.132a4.9,4.9,0,0,1-2.5,3.365Zm12.72,8.37,2.1,2.548a7.351,7.351,0,0,0,1.881-6.23l-1.512.37A4.719,4.719,0,0,1,12373.2,8380.832Zm-9.5,2.552,2.1-2.549a4.727,4.727,0,0,1-2.475-3.313l-1.507-.374A7.4,7.4,0,0,0,12363.7,8383.384Zm-16.7-17.157c-.493,1.938.555,5.26,1.888,6.229l2.1-2.539a4.726,4.726,0,0,1-2.476-3.311Zm7.7-20.756a1.558,1.558,0,1,0-1.577-1.526A1.573,1.573,0,0,0,12354.7,8345.471Zm19.5,14.038a1.558,1.558,0,1,0-1.573-1.53A1.571,1.571,0,0,0,12374.2,8359.509Zm-17.958,23.415a1.559,1.559,0,1,0-1.563,1.542A1.573,1.573,0,0,0,12356.242,8382.924Zm-24.157-29.216a3.9,3.9,0,0,0,3.112,4.156.9.9,0,0,0,1.053-.38,4.763,4.763,0,0,1-2.552-3.348Zm15.471.021-1.533.405a4.885,4.885,0,0,1-2.675,3.425c.354.155.594.35.832.35a3.093,3.093,0,0,0,2.664-1.893A10.362,10.362,0,0,0,12347.556,8353.729Zm-13.959-4.341a1.54,1.54,0,0,0,0,3.08Zm12.529,3.08a1.536,1.536,0,1,0,0-3.071Zm14.847,9.405v3.089a1.58,1.58,0,0,0,1.511-1.591A1.543,1.543,0,0,0,12360.973,8361.873Zm14.795,14a1.561,1.561,0,0,0,1.535-1.609,1.537,1.537,0,0,0-1.535-1.471Zm-27.345-14a1.529,1.529,0,1,0,0,3.059Zm14.841,10.906a1.559,1.559,0,0,0-1.553,1.7,1.469,1.469,0,0,0,1.553,1.344v-3.042Zm-9.928-2.127a1.6,1.6,0,0,0,1.321,1.328c.589.016,1.14-.509,1.375-1.327A4.073,4.073,0,0,0,12353.336,8370.657Zm-14.82-12.48a1.6,1.6,0,0,0,1.315,1.33c.588.02,1.135-.5,1.381-1.325A4.079,4.079,0,0,0,12338.516,8358.177Zm32.33,23.423a3.691,3.691,0,0,0-2.683,0,1.593,1.593,0,0,0,1.315,1.307C12370.068,8382.92,12370.619,8382.394,12370.846,8381.6Zm-36.3-22.252-1.286-.514-.058.085.926,1.211Z" fill="#f41f45"/>
      <path id="Caminho_814" data-name="Caminho 814" d="M12333.668,8380.59h1.479a2.442,2.442,0,0,0,2.351,2.342v1.484A3.766,3.766,0,0,1,12333.668,8380.59Z" fill="#f41f45"/>
      <path id="Caminho_815" data-name="Caminho 815" d="M12338.192,8352.159a1.83,1.83,0,0,0,3.359.008l1.315.661a3.185,3.185,0,0,1-2.943,2,3.29,3.29,0,0,1-3.1-1.974Z" fill="#f41f45"/>
      <path id="Caminho_816" data-name="Caminho 816" d="M12338.3,8349.375a.776.776,0,1,1-.773-.779A.785.785,0,0,1,12338.3,8349.375Z" fill="#f41f45"/>
      <path id="Caminho_817" data-name="Caminho 817" d="M12342.188,8348.6a.776.776,0,1,1-.763.79A.783.783,0,0,1,12342.188,8348.6Z" fill="#f41f45"/>
      <path id="Caminho_818" data-name="Caminho 818" d="M12371.173,8375.554l1.314.656a3.129,3.129,0,0,1-2.787,2.014,3.251,3.251,0,0,1-3.205-2l1.314-.657A1.836,1.836,0,0,0,12371.173,8375.554Z" fill="#f41f45"/>
      <path id="Caminho_819" data-name="Caminho 819" d="M12367.151,8373.545a.776.776,0,1,1,.789-.763A.784.784,0,0,1,12367.151,8373.545Z" fill="#f41f45"/>
      <path id="Caminho_820" data-name="Caminho 820" d="M12372.621,8372.777a.776.776,0,1,1-.769-.784A.785.785,0,0,1,12372.621,8372.777Z" fill="#f41f45"/>
      <path id="Caminho_821" data-name="Caminho 821" d="M12351.667,8365.314l1.349-.677a1.867,1.867,0,0,0,1.654,1.108,1.839,1.839,0,0,0,1.676-1.115l1.37.689a3.3,3.3,0,0,1-6.049-.006Z" fill="#f41f45"/>
      <path id="Caminho_822" data-name="Caminho 822" d="M12352.356,8362.627a.776.776,0,1,1,.763-.79A.784.784,0,0,1,12352.356,8362.627Z" fill="#f41f45"/>
      <path id="Caminho_823" data-name="Caminho 823" d="M12357.047,8362.627a.776.776,0,1,1,.752-.8A.784.784,0,0,1,12357.047,8362.627Z" fill="#f41f45"/>
      <path id="Caminho_824" data-name="Caminho 824" d="M12371.012,8345.456h-1.443a3,3,0,0,1,3.023-3.083v1.486C12371.533,8344.165,12371.3,8344.4,12371.012,8345.456Z" fill="#f41f45"/>
    </g>
  </g>
</svg>
