<svg xmlns="http://www.w3.org/2000/svg" width="41.455" height="49.912" viewBox="0 0 41.455 49.912">
  <g id="Grupo_347" data-name="Grupo 347" transform="translate(-11910.73 -7928.598)">
    <g id="Grupo_346" data-name="Grupo 346">
      <path id="Caminho_831" data-name="Caminho 831" d="M11948.9,7928.6c.118.04.236.087.358.12a3.873,3.873,0,0,1,2.882,3.319,6.452,6.452,0,0,1,.045.777q0,18.059,0,36.115a3.9,3.9,0,0,1-2.844,4.049,5.081,5.081,0,0,1-1.3.159q-5.484.018-10.967,0a1.125,1.125,0,0,0-.82.314,12.82,12.82,0,0,1-5.168,2.611,1.435,1.435,0,0,0-.945.673,8.258,8.258,0,0,1-.916,1.317,1.24,1.24,0,0,1-.793.437q-8.433.038-16.865.016c-.729,0-1.038-.53-.7-1.193.682-1.345,1.354-2.7,2.078-4.021a10.044,10.044,0,0,0,1.02-6.976,9.765,9.765,0,0,1-.353-4,10.952,10.952,0,0,1,.837-2.52c1.088-2.194,2.268-4.343,3.394-6.519a1.909,1.909,0,0,0,.2-.829c.015-2.762.008-5.524.01-8.286,0-.194-.055-.437.039-.572.158-.227.406-.519.634-.536s.53.227.709.434c.113.13.08.4.08.611.007,1.755,0,3.509,0,5.264v.523a10.466,10.466,0,0,0,.975-.778.8.8,0,0,0,.132-.523q.009-7.092,0-14.183c0-.943.19-1.129,1.146-1.129h26.713c.9,0,1.1.192,1.1,1.073v20.616a2.733,2.733,0,0,1-.009.39.726.726,0,0,1-1.437.039,2.429,2.429,0,0,1-.018-.534q0-9.747,0-19.5v-.6h-26c-.007.158-.021.314-.021.47q0,6.653-.007,13.306a.648.648,0,0,0,.359.643,3.29,3.29,0,0,1,1.5,3.322c-.142,1.35-.465,2.683-.736,4.017-.2,1-.458,1.992-.671,2.991a.8.8,0,0,0,.047.544,15.14,15.14,0,0,1,2.169,5.295h23.364v-.53q0-3.144,0-6.287a2.252,2.252,0,0,1,.016-.438.726.726,0,0,1,1.439.037,2.483,2.483,0,0,1,.008.341q0,3.68,0,7.359c0,.794-.213,1.007-1.011,1.007h-23.654a10.32,10.32,0,0,1-.992,4.838h23.985a2.5,2.5,0,0,0,2.806-2.828q0-17.985,0-35.969a2.493,2.493,0,0,0-2.808-2.824q-12.869,0-25.738,0a2.417,2.417,0,0,0-2.552,1.759,3.688,3.688,0,0,0-.1.963c-.009,2.518-.006,5.036-.006,7.555,0,.13.007.26,0,.389a.767.767,0,0,1-.733.812.734.734,0,0,1-.724-.809c0-2.794-.027-5.588.014-8.382a3.8,3.8,0,0,1,2.877-3.625c.121-.034.236-.083.355-.125Zm-14.738,44.6a1.545,1.545,0,0,0-.228-.051q-5.288,0-10.576.008a.753.753,0,0,0-.477.241c-.3.318-.55.684-.848,1a.724.724,0,0,1-1.1-.94c.114-.157.252-.3.377-.446a8.524,8.524,0,0,0,2.142-6.045,12.076,12.076,0,0,0-2.235-6.292,1.27,1.27,0,0,1-.215-1.089c.491-2.151.956-4.307,1.418-6.464a2.725,2.725,0,0,0-.227-2.123,1.425,1.425,0,0,0-.747-.6c-.378-.1-.57.268-.735.583-1.663,3.177-3.347,6.342-4.986,9.531a5.053,5.053,0,0,0-.637,1.967,13.928,13.928,0,0,0,.239,3.083,13.357,13.357,0,0,1,.026,5.6,19.173,19.173,0,0,1-1.78,4.094c-.293.573-.59,1.144-.921,1.785h.6q6.458,0,12.917,0a4.7,4.7,0,0,0,1.964-.088c.51-.261.79-.993,1.141-1.539a1.409,1.409,0,0,1,.928-.632A14.689,14.689,0,0,0,11934.16,7973.2Z" fill="#f41f45"/>
      <path id="Caminho_832" data-name="Caminho 832" d="M11935.092,7953.273q-4.166,0-8.333,0a1.726,1.726,0,0,1-1.934-1.914q0-5.359,0-10.719a1.7,1.7,0,0,1,1.921-1.916,4.987,4.987,0,0,0,2.416-.532,5.634,5.634,0,0,1,5.759.136.436.436,0,0,0,.378,0,5.877,5.877,0,0,1,6.158.04,2.741,2.741,0,0,0,1.479.347,5.719,5.719,0,0,1,1.022.019,1.661,1.661,0,0,1,1.431,1.7c.01,2.047,0,4.093,0,6.139,0,1.624,0,3.248,0,4.872a1.684,1.684,0,0,1-1.82,1.823Q11939.331,7953.278,11935.092,7953.273Zm6.049-4.274c0-.891-.008-1.715,0-2.538.007-.538.284-.865.71-.879.442-.015.746.326.75.886.01,1.217.015,2.435,0,3.653-.01.754-.564,1.043-1.235.684a12.1,12.1,0,0,0-1.439-.7,4.066,4.066,0,0,0-3.742.229.726.726,0,0,0-.328.421,6.734,6.734,0,0,0-.017,1.026c.126.014.2.031.281.031,2.452,0,4.9,0,7.355.007.385,0,.457-.168.456-.5-.01-2.159,0-4.319,0-6.478,0-1.4.01-2.793-.013-4.189,0-.157-.155-.422-.275-.446a5.566,5.566,0,0,0-1.033-.021c0,1.06.007,2.048,0,3.037,0,.587-.271.893-.735.889s-.718-.314-.726-.9c-.009-.747,0-1.494,0-2.241,0-1.232,0-1.233-1.18-1.664a4.246,4.246,0,0,0-3.711.168.731.731,0,0,0-.417.733c.016,2.7.009,5.39.009,8.086v.545A6.162,6.162,0,0,1,11941.141,7949Zm-6.765-.17v-8.312c0-.89-.05-.967-.9-1.295a4.863,4.863,0,0,0-3.989.406.628.628,0,0,0-.4.672c.014,2.728.007,5.455.009,8.183,0,.153.017.306.026.507A6.1,6.1,0,0,1,11934.376,7948.829Zm-6.749-8.655h-.6c-.733,0-.734,0-.734.711,0,3.441.008,6.883-.009,10.324,0,.466.134.616.606.611,2.338-.021,4.676-.009,7.015-.009h.453c.078-1.383-.112-1.64-1.38-1.94-.048-.011-.1-.017-.144-.026a5.357,5.357,0,0,0-3.72.808c-.354.2-.688.461-1.123.214s-.359-.686-.359-1.085q0-4.505,0-9.009Z" fill="#f41f45"/>
      <path id="Caminho_833" data-name="Caminho 833" d="M11935.048,7957.557q-3.675,0-7.352,0c-.531,0-.824-.234-.859-.658a.718.718,0,0,1,.628-.79,3.293,3.293,0,0,1,.486-.012h14.313c.114,0,.228,0,.342,0a.756.756,0,0,1,.8.74.735.735,0,0,1-.813.717c-1.882.007-3.765,0-5.646,0Z" fill="#f41f45"/>
      <path id="Caminho_834" data-name="Caminho 834" d="M11935.137,7959.865h7.165a3.444,3.444,0,0,1,.487.017.607.607,0,0,1,.59.653,1.275,1.275,0,0,1-.461.711c-.132.112-.4.077-.611.078q-7.191,0-14.381,0a2.251,2.251,0,0,1-.532-.035.666.666,0,0,1-.555-.747.659.659,0,0,1,.646-.667,4.6,4.6,0,0,1,.486-.011Z" fill="#f41f45"/>
      <path id="Caminho_835" data-name="Caminho 835" d="M11933.053,7969.121a2.064,2.064,0,0,1,4.128-.021,2.064,2.064,0,1,1-4.128.021Zm1.475-.036a.575.575,0,0,0,.55.617.592.592,0,0,0,.63-.59.559.559,0,0,0-.58-.583A.55.55,0,0,0,11934.527,7969.085Z" fill="#f41f45"/>
      <path id="Caminho_836" data-name="Caminho 836" d="M11936.477,7930.931c.47,0,.939-.01,1.408,0a.726.726,0,1,1,.027,1.45q-1.481.029-2.962,0a.7.7,0,0,1-.709-.762.693.693,0,0,1,.729-.685C11935.473,7930.92,11935.975,7930.931,11936.477,7930.931Z" fill="#f41f45"/>
      <path id="Caminho_837" data-name="Caminho 837" d="M11933.2,7931.682a.731.731,0,1,1-1.461-.068.731.731,0,0,1,1.461.068Z" fill="#f41f45"/>
    </g>
  </g>
</svg>
