<svg xmlns="http://www.w3.org/2000/svg" width="115" height="114.621" viewBox="0 0 115 114.621">
  <g id="Grupo_361" data-name="Grupo 361" transform="translate(-11614.726 -13709.098)">
    <g id="Grupo_360" data-name="Grupo 360">
      <path id="Caminho_901" data-name="Caminho 901" d="M11614.726,13815.414c.448-2.5.908-4.993,1.342-7.494.447-2.578.818-5.171,1.313-7.74a13.065,13.065,0,0,1,8.895-10.377q14.533-5.292,29.1-10.5a1.424,1.424,0,0,0,1.115-1.484,5.562,5.562,0,0,0-2.034-5.019c-3.943-3.639-5.769-8.5-6.651-13.676a82.705,82.705,0,0,1-.684-8.26,8.281,8.281,0,0,0-1.719-4.666,12.9,12.9,0,0,1-2.74-8.574c.074-3.629-.083-7.27.144-10.887a19.007,19.007,0,0,1,18.28-17.526q13.359-.224,26.725.012c3.828.07,7.3,2.777,6.989,7.157a1.2,1.2,0,0,0,.518.915,11.99,11.99,0,0,1,6.571,11.286c-.027,3.968.092,7.938-.056,11.9a9.989,9.989,0,0,1-1.105,4.383,32.6,32.6,0,0,0-3.8,11.985,27.775,27.775,0,0,1-5.8,14.488,12.333,12.333,0,0,1-2.118,2.155,2.443,2.443,0,0,0-1.013,2.29c.05,3.1.022,3.1,3,4.171,8.926,3.22,17.84,6.475,26.777,9.663,5.94,2.12,8.887,6.438,9.7,12.544.59,4.408,1.407,8.786,2.138,13.175a7.117,7.117,0,0,1-6.9,8.378c-.41.01-.822,0-1.234,0h-97.922c-5.258,0-6.853-1.052-8.843-5.832Zm36.392-68.71h-.007c0,2.1-.117,4.2.03,6.286a47.878,47.878,0,0,0,.923,7.317c.949,4.149,2.686,7.977,6.132,10.7,2.283,1.8,4.706,3.44,7.135,5.048,5.258,3.482,10.347,2.661,14.994-.706,1.573-1.139,2.99-2.5,4.593-3.591a15.778,15.778,0,0,0,5.046-5.62,27.762,27.762,0,0,0,3.374-13.006c.069-4.453.015-8.908.015-13.362a7.8,7.8,0,0,0-5.519-7.928c-2.868-1.052-5.751-2.063-8.638-3.063a6.346,6.346,0,0,0-4.38.059,36.748,36.748,0,0,1-6.993,2.259,48.568,48.568,0,0,1-9.063.251c-3.705-.163-7.735,3.87-7.651,7.726C11651.162,13741.613,11651.117,13744.159,11651.117,13746.7Zm-4.2,39.884a4.2,4.2,0,0,0-.6.092c-6.463,2.336-12.951,4.6-19.373,7.046a8.764,8.764,0,0,0-5.7,6.979c-.884,4.892-1.562,9.822-2.508,14.7-.492,2.528,1,4.492,3.915,4.478,14.405-.07,28.812-.031,43.219-.034.355,0,.712-.033,1.067-.052l.215-.31a7.021,7.021,0,0,1-.907-.606q-8.7-7.948-17.39-15.915a2.108,2.108,0,0,1-.562-3.067c.317-.623.637-1.243,1.057-2.063-1.64,0-3.088.038-4.531-.009-1.952-.064-2.754-1.389-1.926-3.133.448-.945.937-1.871,1.4-2.809C11645.146,13790.163,11646,13788.44,11646.916,13786.588Zm30.554,33.008.094.254h44.311c.262,0,.525.008.785-.014a3.209,3.209,0,0,0,3.1-3.924q-1.169-7.252-2.372-14.5a9.659,9.659,0,0,0-6.751-8.054c-5.7-2.026-11.379-4.123-17.068-6.186-.613-.223-1.235-.418-2.082-.7,1.4,2.814,2.684,5.383,3.957,7.956,1.025,2.074.255,3.359-2.058,3.406-1.362.027-2.727,0-4.25,0,.317.646.52,1.079.74,1.5,1.094,2.1,1.047,2.436-.7,4.039q-7.655,7.015-15.324,14.02C11679.054,13818.128,11678.263,13818.863,11677.47,13819.6Zm-30.677-78.811.434.01a21.591,21.591,0,0,1,.024-3.336,11.832,11.832,0,0,1,11.917-10.053c5.095.137,10.035-.161,14.732-2.429a7.492,7.492,0,0,1,5.6-.234,108,108,0,0,1,10.729,3.829,11.292,11.292,0,0,1,7.12,10.96c0,1,0,2,0,3l.363.011a24.021,24.021,0,0,0,.274-2.509c.029-3.817-.121-7.64.054-11.449a8.466,8.466,0,0,0-5.989-8.367,1.851,1.851,0,0,1-1.445-2.731c.97-2.844-.5-4.369-3.292-4.408-8.568-.117-17.142-.168-25.707.008-8.632.176-14.978,6.877-15.021,15.519q-.023,4.882.007,9.767C11646.6,13739.177,11646.725,13739.981,11646.793,13740.785Zm28.268,49.243c2.383,3.239,4.688,6.375,7.077,9.624l8.6-15.645c-1.357-.491-2.572-.964-3.814-1.355a1.355,1.355,0,0,0-1.02.151C11682.319,13785.165,11678.756,13787.558,11675.061,13790.028Zm-21.334-6.018c2.876,5.227,5.7,10.353,8.612,15.649l7.041-9.658c-3.673-2.454-7.266-4.864-10.879-7.246a1.216,1.216,0,0,0-.923-.116C11656.338,13783.041,11655.119,13783.508,11653.727,13784.011Zm39.735,3.121-13.583,24.706.171.112q6.079-5.563,12.193-11.159c-.615-1.178-1.207-2.293-1.783-3.418-1.016-1.984-.226-3.289,2.016-3.316,1.4-.017,2.8,0,4.433,0Zm-41.239,13.657,12.185,11.141.165-.126-13.569-24.673-3.443,6.925c1.736,0,3.217-.022,4.7.006,1.861.036,2.693,1.383,1.878,3.045C11653.543,13798.312,11652.9,13799.493,11652.223,13800.789Zm17.735-4.758a18.95,18.95,0,0,0,1.107,1.571,3.412,3.412,0,0,1,.683,3.039c-.521,3.054-1,6.113-1.49,9.173-.175,1.1-.68,2.325-.384,3.3a26.882,26.882,0,0,0,2.359,4.546c.845-1.54,1.587-2.832,2.259-4.161a2.049,2.049,0,0,0,.145-1.174q-.916-5.919-1.9-11.828a3.1,3.1,0,0,1,.6-2.731,6.1,6.1,0,0,0,.879-1.294,1.029,1.029,0,0,0-.008-.862c-.59-.884-1.253-1.718-1.961-2.666Zm-9.484-18.492a1.727,1.727,0,0,0,.777,2.3c3.418,2.2,6.789,4.482,10.15,6.773a1.238,1.238,0,0,0,1.658.017c3.326-2.276,6.672-4.529,10.06-6.712a1.826,1.826,0,0,0,.905-2.371Q11672.294,13786.96,11660.474,13777.539Zm7.316,22-.384-.076c-.879,1.191-1.765,2.377-2.63,3.578-.119.166-.261.461-.191.6.616,1.217,1.277,2.409,1.924,3.608C11667.018,13804.586,11667.789,13802.108,11667.79,13799.544Zm9.266-.077-.371.114a54.859,54.859,0,0,0,1.2,7.55,29.1,29.1,0,0,0,1.83-3.115.978.978,0,0,0,.071-.808C11678.906,13801.939,11677.973,13800.709,11677.056,13799.467Z" fill="#fff"/>
    </g>
  </g>
</svg>
