<svg xmlns="http://www.w3.org/2000/svg" width="48.355" height="48.342" viewBox="0 0 48.355 48.342">
  <g id="Grupo_349" data-name="Grupo 349" transform="translate(-11907.28 -9283.796)">
    <g id="Grupo_348" data-name="Grupo 348">
      <path id="Caminho_838" data-name="Caminho 838" d="M11921.315,9332.138h-10.922c0-.668-.041-1.33.01-1.984a6.538,6.538,0,0,0-.657-3.388,23.261,23.261,0,0,1-1.59-6.4c-.271-1.649-.583-3.293-.8-4.949a8.318,8.318,0,0,1,2.3-7.019c.631-.679,1.291-1.329,1.964-1.966a1.053,1.053,0,0,0,.338-.853q-.013-8.773-.007-17.546a3.923,3.923,0,0,1,4.259-4.238h22.718a3.922,3.922,0,0,1,4.228,4.222c0,2.208,0,4.417,0,6.691.919,0,1.82.009,2.722-.012.115,0,.237-.152.337-.252,1.142-1.135,2.266-2.285,3.421-3.4a3.493,3.493,0,0,1,3.927-.687,3.543,3.543,0,0,1,.972,5.789c-.632.631-1.265,1.261-1.944,1.938.94.624,1.635,1.669,3.011,1.259v7.8c-.024.016-.053.048-.076.045-1.54-.161-2.89.529-4.269,1.011a8.173,8.173,0,0,1-7.5-.82c-.082-.052-.171-.093-.382-.206a3.293,3.293,0,0,0-.211.792c-.013,4.582-.008,9.163-.01,13.744a3.918,3.918,0,0,1-4.19,4.211q-8.117,0-16.232-.01c-.375,0-.488.143-.649.458a9.462,9.462,0,0,0-.771,4.929C11921.327,9331.57,11921.315,9331.854,11921.315,9332.138Zm-4.667-18.364.059.014c.133-.51.257-1.022.4-1.529a2.6,2.6,0,0,1,5.1.453c.077.753.132,1.507.2,2.258h16.045v-3.023c-1.086.435-2.138.85-3.186,1.276a2.11,2.11,0,0,1-2.823-2.809c.454-1.111.889-2.229,1.348-3.338a1.793,1.793,0,0,1,.366-.559c.5-.508,1.018-1,1.524-1.486a1.616,1.616,0,0,0-.112-.177,2.967,2.967,0,0,1,.077-4.515c.848-.851,1.71-1.689,2.539-2.558a1.077,1.077,0,0,0,.278-.666c.024-1.527.012-3.055.012-4.58v-.906h-21.828Zm-.627,2.656a1.837,1.837,0,0,1-.955-1.877q.021-11.281.009-22.562c0-1.4.551-1.956,1.932-1.956h21.106c.146,0,.292,0,.438,0a1.564,1.564,0,0,1,1.481,1.474c.015.26,0,.52,0,.779,0,1.2,0,2.391,0,3.631a10.437,10.437,0,0,1,1.18-.675.546.546,0,0,0,.389-.612c-.015-2.209-.008-4.418-.009-6.628a2.371,2.371,0,0,0-2.641-2.651h-22.714a2.394,2.394,0,0,0-2.729,2.712v30.506c0,.13,0,.259,0,.389a.65.65,0,0,0,.515.682.616.616,0,0,0,.757-.383C11915.2,9318.332,11915.6,9317.395,11916.021,9316.43Zm-4.067-8a17.084,17.084,0,0,0-1.448,1.363,6.683,6.683,0,0,0-1.6,5.436c.235,1.671.558,3.328.8,5a23.916,23.916,0,0,0,1.847,6.882c.091.19.13.366.422.363,2.585-.013,5.169,0,7.753-.017a.47.47,0,0,0,.355-.218,13.243,13.243,0,0,0,1.191-6.539c-.124-1.554-.237-3.109-.36-4.663-.086-1.085-.164-2.17-.274-3.252a1.007,1.007,0,0,0-.932-.91,1.039,1.039,0,0,0-1.084.73c-.062.184-.1.376-.146.564a28.741,28.741,0,0,1-2.225,6.625,2.978,2.978,0,0,1-.689.925,2.058,2.058,0,0,1-2.326.29,2.145,2.145,0,0,1-1.286-2.069q-.006-5,0-9.992Zm10.672,15.916h16.385a2.359,2.359,0,0,0,2.586-2.562q0-6.091,0-12.181c0-.138-.013-.275-.027-.566-.493.518-.908.925-1.284,1.364a1.012,1.012,0,0,0-.237.588c-.021,1.233-.01,2.469-.011,3.7,0,1.267-.583,1.854-1.84,1.854h-15.655C11922.623,9319.169,11923.176,9321.728,11922.626,9324.351Zm27.53-20.277c-1.352,0-2.664.008-3.977-.01a.888.888,0,0,1-.463-.224c-.8-.63-1.6-1.278-2.4-1.907a4.53,4.53,0,0,0-2.7-.973,1.214,1.214,0,0,0-1.3.873,1.19,1.19,0,0,0,.6,1.405c1.749,1.058,3.491,2.127,5.263,3.146a5.406,5.406,0,0,0,3.986.709c1.662-.395,3.284-.956,4.908-1.44v-4.54l-2.463-1.806-3.22,3.221h1.773Zm-3.905-1.852q3.584-3.587,7.141-7.148a1.98,1.98,0,1,0-2.808-2.776q-3.656,3.647-7.306,7.3a3.07,3.07,0,0,0-.212.244Zm-7.784,7.625,3.527-3.532-3.264-1.97-2.886,2.888Zm-26.49,20.71h7.739v-1.5h-7.739Zm24.9-26.7c.263-.288.523-.556.759-.843a.509.509,0,0,0,.107-.338,2.784,2.784,0,0,1,3.108-3.28.839.839,0,0,0,.56-.163c.945-.912,1.867-1.85,2.794-2.78a.634.634,0,0,0,.079-.159,4.185,4.185,0,0,0-3.192.848c-.312.257-.592.555-.879.841-1.206,1.2-2.417,2.4-3.609,3.614A1.383,1.383,0,0,0,11936.881,9303.857Zm.084,7-2.148-2.154c-.321.8-.679,1.632-.984,2.481a.515.515,0,0,0,.724.626C11935.374,9311.506,11936.181,9311.169,11936.965,9310.856Z" fill="#f41f45"/>
      <path id="Caminho_839" data-name="Caminho 839" d="M11918.217,9297.8v-4.619h18.66v4.619Zm1.561-1.559h15.54v-1.5h-15.54Z" fill="#f41f45"/>
      <path id="Caminho_840" data-name="Caminho 840" d="M11933,9299.429v1.5h-10.1v-1.5Z" fill="#f41f45"/>
      <path id="Caminho_841" data-name="Caminho 841" d="M11933,9305.673v1.49H11922.9v-1.49Z" fill="#f41f45"/>
      <path id="Caminho_842" data-name="Caminho 842" d="M11931.435,9308.788v1.5h-8.535v-1.5Z" fill="#f41f45"/>
      <path id="Caminho_843" data-name="Caminho 843" d="M11922.9,9313.4v-1.5h8.52v1.5Z" fill="#f41f45"/>
      <path id="Caminho_844" data-name="Caminho 844" d="M11922.9,9304.039v-1.5h6.959v1.5Z" fill="#f41f45"/>
      <path id="Caminho_845" data-name="Caminho 845" d="M11933,9302.538v1.5h-1.511v-1.5Z" fill="#f41f45"/>
      <path id="Caminho_846" data-name="Caminho 846" d="M11930.654,9286.949v1.5h-6.18v-1.5Z" fill="#f41f45"/>
      <path id="Caminho_847" data-name="Caminho 847" d="M11936.134,9288.472a.776.776,0,1,1,.779-.774A.782.782,0,0,1,11936.134,9288.472Z" fill="#f41f45"/>
      <path id="Caminho_848" data-name="Caminho 848" d="M11939.254,9286.919a.776.776,0,1,1-.772.779A.783.783,0,0,1,11939.254,9286.919Z" fill="#f41f45"/>
      <path id="Caminho_849" data-name="Caminho 849" d="M11927.555,9318.112c1.006,0,2.014,0,3.02,0a1.579,1.579,0,0,1,1.651,1.833,3.114,3.114,0,0,1-2.965,2.834q-1.7.048-3.409,0a3.111,3.111,0,0,1-2.975-3.076,1.551,1.551,0,0,1,1.562-1.589C11925.477,9318.1,11926.516,9318.112,11927.555,9318.112Zm-3.095,1.585a1.535,1.535,0,0,0,1.5,1.531c1.073,0,2.145.02,3.217-.006a1.511,1.511,0,0,0,1.479-1.525Z" fill="#f41f45"/>
    </g>
  </g>
</svg>
