<svg xmlns="http://www.w3.org/2000/svg" width="115" height="114.958" viewBox="0 0 115 114.958">
  <g id="Grupo_363" data-name="Grupo 363" transform="translate(-12020.529 -13708.93)">
    <g id="Grupo_362" data-name="Grupo 362">
      <path id="Caminho_902" data-name="Caminho 902" d="M12053.824,13766.614a1.979,1.979,0,0,0,.077-.229c.3-2.609-.121-4.585-2.618-6.4-4.327-3.147-6.314-7.866-6.624-13.232-.013-.222-.033-.445-.06-.786-2.309.16-4.464-.077-6.043-1.964a5.452,5.452,0,0,1-1.325-3.617c.009-3.149,2.1-5.083,6.2-5.65-.578-1.164-1.147-2.292-1.7-3.429a11.513,11.513,0,0,1,6.7-16.287,6.4,6.4,0,0,0,1.772-1.053,21.522,21.522,0,0,1,9.439-4.682,18.716,18.716,0,0,1,11,1.138c1.916.815,3.81,1.687,5.684,2.593a14.934,14.934,0,0,1,7.387,19.477c-.307.741-.618,1.48-.935,2.242,4.358.609,6.438,2.533,6.37,5.814-.071,3.4-2.251,5.053-7.229,5.5a51.307,51.307,0,0,1-.942,5.083,18.02,18.02,0,0,1-7.708,10.365,1.477,1.477,0,0,0-.826,1.469c.064,1.191.018,2.388.018,3.685,2.208.377,4.365.748,6.524,1.11,4.071.684,8.147,1.346,12.215,2.052a2.85,2.85,0,0,0,2.227-.5,6.3,6.3,0,0,1,3.112-1.025c6.218-.092,12.439-.073,18.659-.033a5.5,5.5,0,0,1,5.475,5.469c.04,1.844.008,3.688.008,5.647h8.309c.85,0,1.7-.007,2.55,0a3.713,3.713,0,0,1,3.979,3.99q.016,12.056,0,24.11,0,6.145,0,12.287c-.007,2.621-1.485,4.128-4.076,4.128q-54.243.006-108.484,0c-1.814,0-2.43-.617-2.43-2.437q0-18.952,0-37.905a12.992,12.992,0,0,1,11.374-13.223c7.087-1.132,14.163-2.339,21.243-3.519A6.088,6.088,0,0,0,12053.824,13766.614Zm37.143,6.972a6.7,6.7,0,0,0-.705-.2c-5.6-.937-11.205-1.8-16.78-2.843a3.505,3.505,0,0,0-3.9,1.312,1.3,1.3,0,0,0-.3,1.43,19.991,19.991,0,0,1,1.067,3.3,3.732,3.732,0,0,1-.3,2.258c-.7,1.324-1.674,2.5-2.437,3.8a1.9,1.9,0,0,0-.145,1.44c.892,2.384,1.9,4.723,2.8,7.1a3.513,3.513,0,0,1,.2,1.894c-1.761,7.791-3.583,15.566-5.363,23.353-.24,1.053-.706,1.8-1.858,1.883-.992.066-1.647-.573-1.953-1.893-1.785-7.705-3.575-15.41-5.313-23.126a3.953,3.953,0,0,1,.148-2.113c.879-2.388,1.9-4.724,2.792-7.107a1.9,1.9,0,0,0-.147-1.441c-.786-1.327-1.766-2.544-2.506-3.893a3.244,3.244,0,0,1-.263-2.048,33.912,33.912,0,0,1,1.085-3.414,1.612,1.612,0,0,0,.129-.879,3.772,3.772,0,0,0-3.395-1.951c-6.776,1.132-13.532,2.412-20.336,3.336-6.724.912-9.387,5.616-9.3,10.764.188,11.4.06,22.8.06,34.2v1.352h14.866v-31.379h3.728v31.4h33.338v-1.423q0-17.506,0-35.014c0-2.894,1.435-4.311,4.355-4.312q4.636,0,9.273,0c.374,0,.747-.033,1.162-.052Zm-40.16-43.3c-.847,1.8-2.22,3.461-2.332,5.2a74.3,74.3,0,0,0,.173,12.952c.785,7.029,7.359,12.385,14.576,12.374s13.691-5.391,14.534-12.436c.415-3.47.033-7.03.324-10.522.247-2.969-1.469-5.06-2.533-7.536C12067.291,13736.363,12059.14,13736.373,12050.807,13730.286Zm49.48,67.451c0-1.663-.01-3.323,0-4.983.013-1.591.666-2.244,2.261-2.253q3.246-.018,6.491,0c1.74.006,2.364.633,2.372,2.378.007,1.649,0,3.3,0,4.989,4.139,0,8.16.2,12.152-.061a8.574,8.574,0,0,0,7.417-5.373c1.4-3.011.638-6.194.851-9.292h-51.945c0,1.948-.031,3.834.008,5.719.091,4.383,3.2,8.361,7.568,8.788C12091.661,13798.057,12095.927,13797.737,12100.287,13797.737Zm-20.356,14.938h51.888v-14.937a13.15,13.15,0,0,1-9.108,3.879c-2.9.044-5.795.011-8.693.012h-2.6c0,.7.011,1.273,0,1.844a5.561,5.561,0,1,1-11.122-.01c-.012-.6,0-1.2,0-1.835h-11.075a12.472,12.472,0,0,1-6.312-1.646c-1.014-.583-1.937-1.319-2.971-2.033Zm-20.055-89.84c-4.415-5.215-9.395-6.142-13.26-2.539-3.053,2.846-3.295,8.345-.45,11.058.732-1.459,1.449-2.909,2.186-4.351.831-1.622,1.868-1.852,3.359-.761,1.059.775,2.082,1.6,3.177,2.325a14.685,14.685,0,0,0,11.72,2.157c3-.671,5.377-2.434,7.745-4.241,1.9-1.449,2.815-1.228,3.872.881.626,1.249,1.248,2.5,1.939,3.888a10.846,10.846,0,0,0,.987-5.979,11.013,11.013,0,0,0-6.716-9.049c-3.15-1.418-6.157-3.252-9.73-3.53a15.408,15.408,0,0,0-9.348,2.2,12.872,12.872,0,0,1,7.488,5.955Zm71.888,93.713h-51.785v3.571h51.785Zm-26.542-37.259h11.759c0-1.734.008-3.389,0-5.044s-.661-2.292-2.335-2.295q-6.6-.01-13.2,0h-2.174A13.581,13.581,0,0,1,12105.222,13779.289Zm-42.172,28.275h.3q1.677-7.307,3.344-14.614a1.637,1.637,0,0,0-.059-.9c-.853-2.187-1.717-4.373-2.631-6.537a1.084,1.084,0,0,0-.818-.54,1.128,1.128,0,0,0-.808.559c-.38.753-.572,1.606-.983,2.339a11.3,11.3,0,0,0-.791,9.395C12061.648,13800.628,12062.252,13804.126,12063.05,13807.564Zm.148-34.494c1.828-1.845,3.566-3.588,5.289-5.349a.984.984,0,0,0,.255-.608c.023-1.1.011-2.208.011-3.44a19.189,19.189,0,0,1-11.125.031c0,1.061-.027,1.947.012,2.831a1.972,1.972,0,0,0,.275,1.173C12059.61,13769.493,12061.364,13771.223,12063.2,13773.07Zm40.809,21.188c0,3.172-.028,6.248.017,9.322a1.828,1.828,0,0,0,3.65.048c.05-3.105.019-6.214.019-9.37Zm-9.228-20.079v5.121h6.441A9.388,9.388,0,0,0,12094.779,13774.179Zm-28.724,1.389c-2.813,2.17-2.813,2.17-5.726.016a2.047,2.047,0,0,0,.068,2.776,18.886,18.886,0,0,1,1.363,2.009c.848,1.263,2.018,1.256,2.872-.019a19.469,19.469,0,0,1,1.232-1.818A2.158,2.158,0,0,0,12066.056,13775.567Zm-21.452-37c-1.3.058-2.7-.437-3.381.987a2.289,2.289,0,0,0,.123,1.9c.781,1.209,2.072.771,3.258.743Zm37.188,3.692c1.312-.072,2.728.422,3.382-1.024a2.3,2.3,0,0,0-.151-1.9c-.8-1.2-2.081-.727-3.23-.727Z" fill="#fff"/>
    </g>
  </g>
</svg>
