<svg xmlns="http://www.w3.org/2000/svg" width="50" height="49.998" viewBox="0 0 50 49.998">
  <g id="Grupo_337" data-name="Grupo 337" transform="translate(-12329.675 -7928.555)">
    <g id="Grupo_336" data-name="Grupo 336">
      <path id="Caminho_789" data-name="Caminho 789" d="M12379.675,7931.582v43.748c-.023.058-.054.114-.071.174a3.741,3.741,0,0,1-4.012,3.048q-20.943,0-41.885,0a3.764,3.764,0,0,1-4.03-4.024q0-21.114,0-42.227a3.352,3.352,0,0,1,1.194-2.717,11.561,11.561,0,0,1,1.835-1.03h43.944a3.835,3.835,0,0,1,2.037,1.226A16.224,16.224,0,0,1,12379.675,7931.582Zm-48.334,8.668v.56q0,16.844,0,33.687a2.137,2.137,0,0,0,2.414,2.392h41.839a2.146,2.146,0,0,0,2.417-2.439q0-16.82,0-33.638v-.562Zm0-1.747h46.664c0-2,0-3.946,0-5.9a2.15,2.15,0,0,0-2.385-2.384h-41.887a2.15,2.15,0,0,0-2.391,2.379q0,2.709,0,5.419Z" fill="#f41f45"/>
      <path id="Caminho_790" data-name="Caminho 790" d="M12366.316,7975.225h-8.833c-.87,0-1.144-.268-1.144-1.133q0-8.052,0-16.1c0-.828.281-1.1,1.121-1.1h17.765c.836,0,1.12.279,1.121,1.107q0,8.052,0,16.105c0,.858-.277,1.13-1.148,1.13Zm8.339-16.651h-16.61v12.947c.9-.909,1.738-1.752,2.579-2.589a.873.873,0,0,1,1.432-.013c.328.316.649.639.968.965.473.484.94.972,1.422,1.47,1.518-1.654,2.969-3.236,4.422-4.816.6-.648.977-.66,1.593-.046q1.884,1.878,3.757,3.766a1.915,1.915,0,0,1,.255.469l.184-.157Zm.148,14.986a3.213,3.213,0,0,0-.381-.735c-1.493-1.517-3-3.018-4.508-4.523-.066-.066-.147-.117-.236-.188l-4.071,4.445a3.071,3.071,0,0,1,.5.417,1.56,1.56,0,0,0,1.435.6c2.193-.035,4.387-.014,6.581-.014Zm-13.371-2.8-2.754,2.756h5.56Z" fill="#f41f45"/>
      <path id="Caminho_791" data-name="Caminho 791" d="M12343,7960.211h-8.881c-.847,0-1.116-.262-1.116-1.1q0-8.076,0-16.152c0-.776.281-1.066,1.055-1.067q8.956,0,17.909,0c.751,0,1.041.293,1.041,1.03q0,8.125,0,16.25c0,.747-.287,1.037-1.028,1.038Q12347.493,7960.214,12343,7960.211Zm-8.3-16.626v12.934c.858-.86,1.646-1.65,2.436-2.439.719-.718,1.029-.719,1.743,0,.745.746,1.487,1.494,2.251,2.261,1.5-1.638,2.964-3.233,4.427-4.826.556-.6.975-.61,1.562-.025q1.919,1.915,3.833,3.831c.105.106.223.2.358.323v-12.055Zm11.705,9.468-4.115,4.49a4.2,4.2,0,0,1,.507.461,1.442,1.442,0,0,0,1.307.555c2.229-.032,4.459-.013,6.688-.013h.692a3.928,3.928,0,0,0-.437-.762c-1.323-1.346-2.664-2.674-4-4.011C12346.836,7953.556,12346.642,7953.319,12346.4,7953.053Zm-5.492,5.471-2.875-2.834-2.8,2.834Z" fill="#f41f45"/>
      <path id="Caminho_792" data-name="Caminho 792" d="M12368.835,7948.561c2.2,0,4.392,0,6.588,0a.838.838,0,0,1,.919.8.868.868,0,0,1-.929.856c-.113,0-.228,0-.341,0h-3.758q-4.395,0-8.785,0a2.132,2.132,0,0,1-.579-.049.785.785,0,0,1-.6-.841.808.808,0,0,1,.752-.764,4.394,4.394,0,0,1,.439-.009Z" fill="#f41f45"/>
      <path id="Caminho_793" data-name="Caminho 793" d="M12340.528,7970.228c2.146,0,4.295,0,6.441,0a.938.938,0,0,1,.924.416.808.808,0,0,1-.5,1.2,2.22,2.22,0,0,1-.579.051q-6.294,0-12.591,0c-.1,0-.2,0-.293,0a.866.866,0,0,1-.915-.87.832.832,0,0,1,.93-.791C12336.136,7970.225,12338.332,7970.229,12340.528,7970.228Z" fill="#f41f45"/>
      <path id="Caminho_794" data-name="Caminho 794" d="M12345.515,7966.889h6.246a3.674,3.674,0,0,1,.535.023.79.79,0,0,1,.708.8.78.78,0,0,1-.646.8,2.489,2.489,0,0,1-.532.042q-6.319,0-12.64,0a2.24,2.24,0,0,1-.578-.057.75.75,0,0,1-.588-.8.761.761,0,0,1,.665-.784,3.112,3.112,0,0,1,.535-.029Z" fill="#f41f45"/>
      <path id="Caminho_795" data-name="Caminho 795" d="M12363.839,7946.9q-3.173,0-6.344,0a1.879,1.879,0,0,1-.622-.081.749.749,0,0,1-.518-.844.765.765,0,0,1,.682-.72,3.171,3.171,0,0,1,.487-.018h12.639c.13,0,.261,0,.39.008a.819.819,0,0,1,.115,1.624,2.632,2.632,0,0,1-.534.033Q12366.987,7946.9,12363.839,7946.9Z" fill="#f41f45"/>
      <path id="Caminho_796" data-name="Caminho 796" d="M12340.516,7965.217q-3.123,0-6.246,0a3.33,3.33,0,0,1-.584-.029.761.761,0,0,1-.668-.782.75.75,0,0,1,.585-.8,2.214,2.214,0,0,1,.579-.057q6.319,0,12.641,0c.1,0,.194,0,.293,0a.857.857,0,0,1,.894.84.829.829,0,0,1-.9.82c-1.562.013-3.124.006-4.686.007Z" fill="#f41f45"/>
      <path id="Caminho_797" data-name="Caminho 797" d="M12363.857,7953.553c-2.2,0-4.393,0-6.59,0a.834.834,0,1,1-.006-1.659c.13,0,.261,0,.391,0h10.054c.879,0,1.757,0,2.635,0,.613,0,1,.327,1,.826s-.387.834-.994.835Q12367.1,7953.558,12363.857,7953.553Z" fill="#f41f45"/>
      <path id="Caminho_798" data-name="Caminho 798" d="M12374.686,7953.55c-.293,0-.587.017-.878,0a.806.806,0,0,1-.785-.828.791.791,0,0,1,.789-.82c.568-.022,1.139-.02,1.706,0a.827.827,0,0,1,.824.8.845.845,0,0,1-.827.851C12375.239,7953.565,12374.962,7953.551,12374.686,7953.55Z" fill="#f41f45"/>
      <path id="Caminho_799" data-name="Caminho 799" d="M12358.036,7948.565c.275,0,.553-.013.829,0a.822.822,0,0,1,.065,1.638,15.017,15.017,0,0,1-1.852,0,.807.807,0,0,1-.735-.832.819.819,0,0,1,.814-.805C12357.45,7948.552,12357.743,7948.564,12358.036,7948.565Z" fill="#f41f45"/>
      <path id="Caminho_800" data-name="Caminho 800" d="M12374.685,7945.236c.293,0,.587-.015.879,0a.785.785,0,0,1,.771.74.748.748,0,0,1-.625.858,11.684,11.684,0,0,1-2.083-.008.706.706,0,0,1-.595-.869.739.739,0,0,1,.729-.716c.307-.026.617-.005.925-.005Z" fill="#f41f45"/>
      <path id="Caminho_801" data-name="Caminho 801" d="M12351.392,7970.234c.276,0,.554-.013.829,0a.785.785,0,0,1,.779.732.744.744,0,0,1-.615.864,11.515,11.515,0,0,1-2.084,0,.717.717,0,0,1-.607-.863.777.777,0,0,1,.772-.73C12350.773,7970.218,12351.083,7970.234,12351.392,7970.234Z" fill="#f41f45"/>
      <path id="Caminho_802" data-name="Caminho 802" d="M12351.319,7965.2c-.292,0-.587.021-.876,0a.777.777,0,0,1-.753-.8.73.73,0,0,1,.682-.809,13.321,13.321,0,0,1,1.944,0,.77.77,0,0,1,.69.811.8.8,0,0,1-.763.8C12351.938,7965.225,12351.628,7965.2,12351.319,7965.2Z" fill="#f41f45"/>
      <path id="Caminho_803" data-name="Caminho 803" d="M12334.667,7968.539a7.77,7.77,0,0,1-.924-.007.813.813,0,0,1-.733-.832.8.8,0,0,1,.772-.792c.6-.028,1.2-.027,1.8,0a.74.74,0,0,1,.742.756.886.886,0,0,1-.83.886c-.276,0-.553,0-.829,0Z" fill="#f41f45"/>
      <path id="Caminho_804" data-name="Caminho 804" d="M12342.147,7936.878c-.5,0-1.009.008-1.513,0-.638-.011-.948-.289-.959-.912q-.026-1.583,0-3.17a.832.832,0,0,1,.919-.909q1.586-.018,3.17,0a.819.819,0,0,1,.906.87q.035,1.633,0,3.267c-.012.566-.332.839-.915.852C12343.22,7936.887,12342.683,7936.878,12342.147,7936.878Zm-.772-1.705h1.606v-1.6h-1.606Z" fill="#f41f45"/>
      <path id="Caminho_805" data-name="Caminho 805" d="M12338,7934.4c0,.52.009,1.04,0,1.56-.013.612-.295.912-.89.919q-1.61.02-3.22,0a.811.811,0,0,1-.88-.887c-.014-1.073-.016-2.146,0-3.219a.826.826,0,0,1,.9-.88q1.61-.021,3.219,0a.815.815,0,0,1,.87.9C12338.01,7933.322,12338,7933.858,12338,7934.4Zm-3.3.785h1.6v-1.6h-1.6Z" fill="#f41f45"/>
      <path id="Caminho_806" data-name="Caminho 806" d="M12348.841,7936.877c-.536,0-1.073.012-1.608,0a.8.8,0,0,1-.876-.883q-.019-1.61,0-3.218a.81.81,0,0,1,.88-.887q1.608-.021,3.219,0a.826.826,0,0,1,.887.891q.023,1.61,0,3.219a.816.816,0,0,1-.892.876C12349.914,7936.888,12349.377,7936.877,12348.841,7936.877Zm.8-1.681v-1.615h-1.579v1.615Z" fill="#f41f45"/>
      <path id="Caminho_807" data-name="Caminho 807" d="M12366.333,7963.55a3.331,3.331,0,0,1-6.662.029,3.331,3.331,0,1,1,6.662-.029Zm-1.669.012a1.667,1.667,0,0,0-1.658-1.68,1.7,1.7,0,0,0-1.669,1.683,1.669,1.669,0,0,0,1.648,1.645A1.642,1.642,0,0,0,12364.664,7963.562Z" fill="#f41f45"/>
      <path id="Caminho_808" data-name="Caminho 808" d="M12339.688,7945.231a3.329,3.329,0,0,1,0,6.658,3.329,3.329,0,1,1,0-6.658Zm1.645,3.345a1.64,1.64,0,0,0-1.648-1.679,1.668,1.668,0,0,0-1.679,1.659,1.693,1.693,0,0,0,1.635,1.667A1.665,1.665,0,0,0,12341.333,7948.576Z" fill="#f41f45"/>
    </g>
  </g>
</svg>
