<svg xmlns="http://www.w3.org/2000/svg" width="48.344" height="42.107" viewBox="0 0 48.344 42.107">
  <g id="Grupo_355" data-name="Grupo 355" transform="translate(-12330.503 -8995.737)">
    <g id="Grupo_354" data-name="Grupo 354">
      <path id="Caminho_874" data-name="Caminho 874" d="M12360.309,9031.605c.146.739.27,1.426.429,2.1a.433.433,0,0,0,.334.225c.615.023,1.233.011,1.851.012.886,0,1.109.228,1.11,1.132v1.207h2.709a3.087,3.087,0,0,1,.485.01.75.75,0,0,1,.7.75.765.765,0,0,1-.706.791,4.254,4.254,0,0,1-.486.008h-24.119c-.816,0-1.172-.228-1.187-.758s.365-.8,1.192-.8h2.7c0-.482,0-.946,0-1.409.009-.641.284-.922.92-.929.666-.007,1.332-.012,2,0,.259,0,.366-.07.411-.34.106-.654.254-1.3.395-2h-.616q-7.455,0-14.91,0a2.755,2.755,0,0,1-3.013-3.03q0-14.911,0-29.82a2.755,2.755,0,0,1,3.027-3.016h42.294a2.754,2.754,0,0,1,3.021,3.022q0,14.911,0,29.82a2.756,2.756,0,0,1-3.02,3.023q-7.431,0-14.861,0Zm16.979-14.057v-18.761c0-1.089-.406-1.491-1.5-1.491h-42.241c-1.066,0-1.479.409-1.479,1.464q0,9.135,0,18.271v.524h5.426c.107-.417.313-.738.777-.759.515-.021.727.339.854.752Zm-45.223,9.4c0,.638-.012,1.252,0,1.864.018.819.515,1.23,1.468,1.23h42.286c.13,0,.261,0,.389-.008a1.131,1.131,0,0,0,1.059-1.033c.038-.676.01-1.354.01-2.054Zm45.2-3.127h-38.158c-.1.427-.322.753-.806.755s-.7-.331-.806-.736h-5.408v1.5h45.178Zm-38.164-1.609h38.164v-.72H12339.1Zm38.165-3.052H12339.1v.722h38.164Zm-27.09,14.758h9c-.14-.71-.263-1.395-.421-2.071a.429.429,0,0,0-.327-.233q-3.747-.021-7.494,0a.427.427,0,0,0-.331.228C12350.441,9032.519,12350.318,9033.2,12350.176,9033.92Zm-3.275,2.331h15.552v-.722H12346.9Zm-9.388-17.093h-5.415v.713h5.415Zm-.025,3.067v-.722h-5.4v.722Z" fill="#f41f45"/>
      <path id="Caminho_875" data-name="Caminho 875" d="M12364.777,9016.79h-10.526c-.906,0-1.135-.224-1.135-1.107q0-8.26,0-16.52c0-.856.234-1.086,1.105-1.087h21.2c.855,0,1.087.236,1.087,1.1q0,8.262,0,16.521c0,.854-.238,1.087-1.106,1.087Zm10.136-1.581v-15.534H12354.7v15.534Z" fill="#f41f45"/>
      <path id="Caminho_876" data-name="Caminho 876" d="M12342.589,9011.332h-8.674c-.829,0-1.072-.243-1.072-1.072q0-5.555,0-11.109c0-.831.241-1.072,1.071-1.072h17.348c.83,0,1.073.242,1.073,1.07q0,5.555,0,11.11c0,.829-.244,1.073-1.072,1.073Zm8.153-1.582v-10.077h-16.315v10.077Z" fill="#f41f45"/>
      <path id="Caminho_877" data-name="Caminho 877" d="M12335.572,9013.67c-.618,0-1.235.008-1.853,0a.782.782,0,1,1,0-1.554q1.852-.012,3.7,0a.782.782,0,1,1,0,1.554C12336.806,9013.678,12336.189,9013.67,12335.572,9013.67Z" fill="#f41f45"/>
      <path id="Caminho_878" data-name="Caminho 878" d="M12342.549,9013.67c-.6,0-1.2.007-1.8,0a.79.79,0,0,1-.883-.769.78.78,0,0,1,.863-.786q1.852-.012,3.7,0a.782.782,0,1,1,.02,1.554C12343.816,9013.678,12343.183,9013.67,12342.549,9013.67Z" fill="#f41f45"/>
      <path id="Caminho_879" data-name="Caminho 879" d="M12349.624,9012.112c.617,0,1.235-.01,1.852,0a.78.78,0,1,1,.013,1.553q-1.875.015-3.751,0a.779.779,0,1,1-.014-1.552C12348.357,9012.1,12348.991,9012.112,12349.624,9012.112Z" fill="#f41f45"/>
      <path id="Caminho_880" data-name="Caminho 880" d="M12335.533,9016.01c-.6,0-1.2.006-1.8,0a.791.791,0,0,1-.884-.768.779.779,0,0,1,.862-.786q1.852-.013,3.7,0a.785.785,0,0,1,.884.766c.007.474-.344.783-.912.789C12336.767,9016.015,12336.15,9016.01,12335.533,9016.01Z" fill="#f41f45"/>
      <path id="Caminho_881" data-name="Caminho 881" d="M12342.633,9014.451c.6,0,1.2-.007,1.8,0a.782.782,0,1,1,.011,1.554q-1.853.012-3.7,0a.782.782,0,1,1-.009-1.554C12341.366,9014.443,12342,9014.451,12342.633,9014.451Z" fill="#f41f45"/>
      <path id="Caminho_882" data-name="Caminho 882" d="M12349.607,9014.451c.616,0,1.233-.007,1.851,0a.782.782,0,1,1,0,1.554q-1.852.012-3.7,0a.782.782,0,1,1,0-1.554C12348.372,9014.444,12348.99,9014.451,12349.607,9014.451Z" fill="#f41f45"/>
      <path id="Caminho_883" data-name="Caminho 883" d="M12335.524,9029.265c-.6,0-1.2.008-1.8,0a.782.782,0,1,1,0-1.554q1.853-.012,3.7,0a.782.782,0,1,1,0,1.554C12336.791,9029.272,12336.157,9029.265,12335.524,9029.265Z" fill="#f41f45"/>
      <path id="Caminho_884" data-name="Caminho 884" d="M12364.82,9014.447a7.016,7.016,0,1,1,7.008-7.048A7.022,7.022,0,0,1,12364.82,9014.447Zm-5.467-7.021a5.457,5.457,0,1,0,5.5-5.451A5.468,5.468,0,0,0,12359.354,9007.426Z" fill="#f41f45"/>
      <path id="Caminho_885" data-name="Caminho 885" d="M12335.183,9002.31c0-.357-.011-.715,0-1.071a.759.759,0,0,1,.781-.816q1.169-.026,2.338,0a.742.742,0,0,1,.769.778q.026,1.169,0,2.338a.743.743,0,0,1-.778.768q-1.169.028-2.338,0a.749.749,0,0,1-.77-.777C12335.169,9003.122,12335.184,9002.716,12335.183,9002.31Zm2.3.429V9002h-.714v.738Z" fill="#f41f45"/>
      <path id="Caminho_886" data-name="Caminho 886" d="M12340.64,9002.358c0-.374-.01-.748,0-1.121a.768.768,0,0,1,.831-.817q1.119-.021,2.241,0a.765.765,0,0,1,.818.83c.014.747.015,1.494,0,2.241a.766.766,0,0,1-.83.818c-.747.014-1.5.015-2.241,0a.777.777,0,0,1-.821-.831c0-.031,0-.064,0-.1Zm2.331-.354h-.737v.712h.737Z" fill="#f41f45"/>
      <path id="Caminho_887" data-name="Caminho 887" d="M12346.1,9002.363c0-.391-.015-.781,0-1.17a.749.749,0,0,1,.775-.771c.779-.018,1.561-.018,2.339,0a.743.743,0,0,1,.771.774q.028,1.167,0,2.338a.745.745,0,0,1-.775.771q-1.169.029-2.338,0a.763.763,0,0,1-.776-.774c0-.032,0-.065,0-.1v-1.071Zm2.3.372V9002h-.719v.738Z" fill="#f41f45"/>
      <path id="Caminho_888" data-name="Caminho 888" d="M12339.079,9007.014c0,.391.012.78,0,1.169a.763.763,0,0,1-.8.8q-1.146.025-2.29,0a.755.755,0,0,1-.8-.795c-.018-.764-.017-1.527,0-2.29a.755.755,0,0,1,.795-.8c.763-.017,1.526-.016,2.29,0a.762.762,0,0,1,.8.795C12339.092,9006.266,12339.079,9006.641,12339.079,9007.014Zm-1.585.4v-.728h-.718v.728Z" fill="#f41f45"/>
      <path id="Caminho_889" data-name="Caminho 889" d="M12344.537,9007.075c0,.356.01.715,0,1.072a.772.772,0,0,1-.81.84c-.763.016-1.526.017-2.29,0a.756.756,0,0,1-.791-.808c-.015-.763-.016-1.525,0-2.289a.753.753,0,0,1,.806-.791c.763-.015,1.526-.016,2.29,0a.762.762,0,0,1,.792.807C12344.549,9006.295,12344.537,9006.685,12344.537,9007.075Zm-2.309-.414v.738h.713v-.738Z" fill="#f41f45"/>
      <path id="Caminho_890" data-name="Caminho 890" d="M12350,9007.046c0,.373.012.747,0,1.12a.773.773,0,0,1-.829.822q-1.121.021-2.241,0a.766.766,0,0,1-.821-.827c-.013-.747-.014-1.494,0-2.241a.765.765,0,0,1,.827-.821c.746-.013,1.494-.014,2.241,0a.771.771,0,0,1,.822.826C12350.006,9006.3,12350,9006.672,12350,9007.046Zm-2.3-.376v.738h.713v-.738Z" fill="#f41f45"/>
      <path id="Caminho_891" data-name="Caminho 891" d="M12361.693,9007.392c0-.715-.008-1.429,0-2.144.009-.788.538-1.136,1.233-.794,1.5.736,3,1.473,4.474,2.255a1.046,1.046,0,0,1,.488.741.959.959,0,0,1-.474.7c-1.491.786-3,1.534-4.517,2.275a.779.779,0,0,1-1.2-.744C12361.682,9008.919,12361.693,9008.155,12361.693,9007.392Zm1.574,1.11,2.14-1.071-2.14-1.062Z" fill="#f41f45"/>
    </g>
  </g>
</svg>
