<svg xmlns="http://www.w3.org/2000/svg" width="46.787" height="46.75" viewBox="0 0 46.787 46.75">
  <g id="Grupo_351" data-name="Grupo 351" transform="translate(-11501.07 -8993.416)">
    <g id="Grupo_350" data-name="Grupo 350">
      <path id="Caminho_850" data-name="Caminho 850" d="M11541.619,9022.232h5.119c.893,0,1.118.227,1.118,1.124q0,6.333,0,12.666a3.911,3.911,0,0,1-4.156,4.143q-12.568,0-25.14,0c-.89,0-1.113-.227-1.113-1.128v-31.277c0-.9.224-1.123,1.118-1.123h21.923c.9,0,1.13.225,1.131,1.111v14.483Zm-22.589,16.345h21.822a4.86,4.86,0,0,1-.8-3.29q.016-13.229,0-26.459v-.607h-21.028Zm27.267-14.75h-4.646a.761.761,0,0,0-.027.128c0,4.126-.02,8.252.021,12.378a2.679,2.679,0,0,0,.539,1.415,2.214,2.214,0,0,0,2.538.729,2.338,2.338,0,0,0,1.572-2.241c.008-2.907,0-5.815,0-8.724Z" fill="#f41f45"/>
      <path id="Caminho_851" data-name="Caminho 851" d="M11509.65,9015.994h-7.223c-.162,0-.325,0-.486,0a.79.79,0,0,1-.865-.884q-.013-1.437,0-2.873c0-.635.288-.917.928-.918q3.532-.007,7.062,0h.586c0-.5.006-.964,0-1.429a.811.811,0,0,1,.465-.835.788.788,0,0,1,.9.171c1.509,1.257,3.021,2.509,4.523,3.773a.782.782,0,0,1-.009,1.324q-2.253,1.9-4.524,3.772c-.267.223-.6.374-.886.141a1.384,1.384,0,0,1-.445-.78A9.58,9.58,0,0,1,11509.65,9015.994Zm-7-1.56h.614q3.482,0,6.965,0c.7,0,.961.271.977.973,0,.131.021.261.036.451l2.644-2.207-2.652-2.2c-.1,1.359-.166,1.424-1.466,1.424h-7.117Z" fill="#f41f45"/>
      <path id="Caminho_852" data-name="Caminho 852" d="M11525.091,8999.281l-.958.976-3.272-3.272.991-.944Z" fill="#f41f45"/>
      <path id="Caminho_853" data-name="Caminho 853" d="M11530.674,8998.05h-1.494v-4.634h1.494Z" fill="#f41f45"/>
      <path id="Caminho_854" data-name="Caminho 854" d="M11516.69,9004.273v-1.5h4.625v1.5Z" fill="#f41f45"/>
      <path id="Caminho_855" data-name="Caminho 855" d="M11538.541,9002.749h4.6v1.517h-4.6Z" fill="#f41f45"/>
      <path id="Caminho_856" data-name="Caminho 856" d="M11538.216,8996.079l.9.937-3.252,3.256-.925-1Z" fill="#f41f45"/>
      <path id="Caminho_857" data-name="Caminho 857" d="M11529.582,9010.536h7.066c.828,0,1.07.242,1.071,1.072q0,2.095,0,4.189c0,.7-.275.975-.975.975q-7.213,0-14.424,0c-.7,0-.972-.274-.974-.976q-.006-2.143,0-4.288c0-.7.273-.972.975-.973Q11525.951,9010.533,11529.582,9010.536Zm-6.654,4.645h13.194v-3.061h-13.194Z" fill="#f41f45"/>
      <path id="Caminho_858" data-name="Caminho 858" d="M11537.7,9026.944v1.5h-16.312v-1.5Z" fill="#f41f45"/>
      <path id="Caminho_859" data-name="Caminho 859" d="M11521.369,9032.336v-1.5h16.312v1.5Z" fill="#f41f45"/>
      <path id="Caminho_860" data-name="Caminho 860" d="M11537.7,9034.741v1.5h-10.074v-1.5Z" fill="#f41f45"/>
      <path id="Caminho_861" data-name="Caminho 861" d="M11521.368,9024.537v-1.5h9.295v1.5Z" fill="#f41f45"/>
      <path id="Caminho_862" data-name="Caminho 862" d="M11529.165,9020.638v-1.5h8.515v1.5Z" fill="#f41f45"/>
      <path id="Caminho_863" data-name="Caminho 863" d="M11527.548,9020.652h-6.175v-1.5h6.175Z" fill="#f41f45"/>
      <path id="Caminho_864" data-name="Caminho 864" d="M11532.286,9024.539v-1.5h5.4v1.5Z" fill="#f41f45"/>
      <path id="Caminho_865" data-name="Caminho 865" d="M11521.376,9034.716h4.609v1.519h-4.609Z" fill="#f41f45"/>
    </g>
  </g>
</svg>
