<svg xmlns="http://www.w3.org/2000/svg" width="49.903" height="49.902" viewBox="0 0 49.903 49.902">
  <g id="Grupo_345" data-name="Grupo 345" transform="translate(-11501.832 -8338.46)">
    <g id="Grupo_344" data-name="Grupo 344">
      <path id="Caminho_828" data-name="Caminho 828" d="M11551.735,8373.645c-.16.473-.285.959-.487,1.412a4.417,4.417,0,0,1-1.878,2.049c-.5.292-.894.224-1.131-.189s-.113-.747.361-1.047a3.335,3.335,0,0,0,1.31-4.4,25.547,25.547,0,0,1-1.042-3.129,36.606,36.606,0,0,0-2.6-6.754q-1.286-2.512-2.615-5a1.823,1.823,0,0,0-3.191-.069,1.317,1.317,0,0,0-.047,1.425c.4.7.762,1.432,1.134,2.152.273.529.188.905-.241,1.121s-.784.064-1.059-.453c-.365-.687-.749-1.368-1.077-2.073a1.394,1.394,0,0,0-1.45-.84,1.78,1.78,0,0,0-1.7,1.354,1.468,1.468,0,0,0,.1.874c.354.765.773,1.5,1.16,2.248.272.526.189.909-.23,1.124s-.787.077-1.061-.438c-.351-.659-.723-1.309-1.03-1.986a1.48,1.48,0,0,0-1.592-.937,1.878,1.878,0,0,0-1.6,1.237,1.594,1.594,0,0,0,.109,1.316q.527.987,1.041,1.982c.269.52.184.9-.237,1.119s-.778.082-1.055-.444q-2.952-5.624-5.9-11.25c-.067-.129-.134-.26-.2-.388a1.619,1.619,0,0,0-2.208-.916,1.933,1.933,0,0,0-1.069,2.425,4.908,4.908,0,0,0,.291.615l6.64,12.674c.053.1.1.2.155.3a.739.739,0,0,1-1.031,1.009l-3.489-1.835-.259-.136a1.706,1.706,0,0,0-2.507.741,1.734,1.734,0,0,0,.856,2.481q5.382,2.675,10.771,5.331a5.258,5.258,0,0,1,2.39,2.272,3.284,3.284,0,0,0,4.577,1.418c1.373-.7,2.728-1.436,4.1-2.133a.98.98,0,0,1,.724-.109.886.886,0,0,1,.456.613.836.836,0,0,1-.344.668c-1.583.858-3.154,1.75-4.8,2.481a4.66,4.66,0,0,1-5.859-2.01,4.453,4.453,0,0,0-2.193-2.041c-.678-.293-1.329-.646-2.077-1.016v.665q0,3.995,0,7.991a2.9,2.9,0,0,1-3.189,3.211H11505a2.887,2.887,0,0,1-3.163-3.182q0-21.587,0-43.176c0-2.1.441-2.765,2.34-3.545h2.729a.789.789,0,0,1,.426.975c-.147.443-.5.5-.9.489-.584-.01-1.169-.015-1.753,0a1.307,1.307,0,0,0-1.336,1.121c-.07.782-.016,1.575-.016,2.361h25.866c0-.6,0-1.162,0-1.728,0-1.271-.5-1.761-1.772-1.761q-8.2,0-16.411,0c-.394,0-.754-.033-.905-.478a.808.808,0,0,1,.407-.986h17.836c1.77.571,2.342,1.838,2.326,3.624-.05,5.8-.019,11.593-.019,17.389v.69a3.506,3.506,0,0,1,3.913-1.421c.982-2.023,1.876-2.491,4.294-2.26.062-.139.125-.285.192-.43a3.129,3.129,0,0,1,2.806-1.874,2.908,2.908,0,0,1,2.954,1.51c1.387,2.639,2.841,5.261,3.976,8.01,1.164,2.818,1.98,5.78,2.95,8.68Zm-22.551,5.022c0-.932.012-1.837-.014-2.741,0-.108-.184-.25-.312-.312-2.3-1.124-4.608-2.238-6.953-3.373-.069.063-.187.173-.306.282a7.626,7.626,0,0,1-4.917,2.086,7.883,7.883,0,1,1,7.382-8.843.523.523,0,0,0,.223.361c.694.345,1.4.662,2.106.988.149.068.3.141.552.263-.143-.285-.218-.444-.3-.6-1.7-3.247-3.41-6.49-5.1-9.745a.745.745,0,0,0-.773-.479q-6.87.023-13.741.01a1.756,1.756,0,0,1-1.963-1.95q-.006-2.314,0-4.629c0-1.421.637-2.063,2.043-2.063h12.766c1.9,0,3.8,0,5.7,0a1.692,1.692,0,0,1,1.808,1.793,10.721,10.721,0,0,1-.007,1.461,7.75,7.75,0,0,0,1.355,5.472,6.713,6.713,0,0,1,.348.64l.068-.045v-12.3h-25.819v33.726Zm-.02,1.524h-25.87c0,1.752-.006,3.47,0,5.188a1.4,1.4,0,0,0,1.517,1.52q11.421.006,22.843,0a1.41,1.41,0,0,0,1.527-1.562c.015-1.624,0-3.247,0-4.871C11529.187,8380.387,11529.175,8380.308,11529.165,8380.191Zm-6.577-13.988c.039-2.629-2.407-5.3-5.267-5.8a6.425,6.425,0,0,0-4.2,11.949,6.309,6.309,0,0,0,7.706-1.186A3.339,3.339,0,0,1,11522.588,8366.2Zm3.34-14.422c0-.61-.028-1.19.009-1.768.031-.483-.12-.643-.623-.641q-9.083.023-18.164.011c-.605,0-.616.011-.616.641q0,2.215,0,4.431c0,.634.013.646.663.646h13.427A3.386,3.386,0,0,1,11525.928,8351.781Z" fill="#f41f45"/>
      <path id="Caminho_829" data-name="Caminho 829" d="M11516.208,8385.478c-.7,0-1.4.017-2.095,0a1.949,1.949,0,0,1-.017-3.9q2.145-.045,4.288,0a1.95,1.95,0,0,1-.032,3.9C11517.638,8385.5,11516.923,8385.478,11516.208,8385.478Zm.037-1.461h2.042c.336,0,.588-.125.583-.494s-.26-.494-.593-.5q-2.042,0-4.084,0c-.329,0-.579.121-.578.5s.261.484.588.485C11514.884,8384.019,11515.564,8384.017,11516.245,8384.017Z" fill="#f41f45"/>
      <path id="Caminho_830" data-name="Caminho 830" d="M11514.672,8368.368c1.537-1.541,3-3.011,4.472-4.482a3.821,3.821,0,0,1,.351-.339.668.668,0,0,1,.964.066.647.647,0,0,1,.045.961c-.4.443-.84.857-1.265,1.283q-1.912,1.912-3.824,3.822c-.579.578-.886.576-1.469,0s-1.173-1.169-1.757-1.756c-.483-.486-.529-.85-.161-1.209.35-.343.737-.284,1.214.2S11514.169,8367.853,11514.672,8368.368Z" fill="#f41f45"/>
    </g>
  </g>
</svg>
