<svg xmlns="http://www.w3.org/2000/svg" width="50" height="49.996" viewBox="0 0 50 49.996">
  <g id="Grupo_367" data-name="Grupo 367" transform="translate(-11906.458 -15649.391)">
    <g id="Grupo_366" data-name="Grupo 366">
      <path id="Caminho_906" data-name="Caminho 906" d="M11922.615,15657.451a8.877,8.877,0,0,1,3.468-6.239,8.838,8.838,0,0,1,11.269.429,8.81,8.81,0,0,1,2.943,5.811h13.441a2.45,2.45,0,0,1,2.722,2.7v36.54a2.443,2.443,0,0,1-2.683,2.691h-44.654a2.437,2.437,0,0,1-2.662-2.661q0-18.294,0-36.591a2.442,2.442,0,0,1,2.689-2.683h13.467Zm17.684,1.613a9.135,9.135,0,0,1-1.468,4.108,8.815,8.815,0,0,1-3.258,2.938,8.836,8.836,0,0,1-9.454-.782,8.89,8.89,0,0,1-3.506-6.264h-13.419c-.884,0-1.123.244-1.123,1.145v24.624h1.617c0-1.95-.036-3.864.009-5.776a7.055,7.055,0,0,1,2.769-5.528,7.658,7.658,0,0,1,3.075-1.435,5.689,5.689,0,0,1-1.82-4.081,5.488,5.488,0,0,1,1.67-4.079,5.61,5.61,0,0,1,7.2-.618,5.487,5.487,0,0,1,2.209,3.15,5.662,5.662,0,0,1-1.6,5.63,7.387,7.387,0,0,1,5.842,7.613c-.053,1.392-.008,2.788-.008,4.183v.944h25.806v-24.62c0-.92-.235-1.151-1.167-1.151H11940.3Zm14.546,27.452h-46.773v.431q0,4.887,0,9.774c0,.785.27,1.052,1.064,1.052h44.642c.809,0,1.065-.269,1.066-1.1q0-4.835,0-9.674Zm-23.357-35.517a7.257,7.257,0,1,0,7.229,7.261A7.269,7.269,0,0,0,11931.487,15651Zm-16.141,25.83v8.016h8.052v-8h1.619v8h2.385c0-2.076.054-4.124-.021-6.167a5.034,5.034,0,0,0-1.51-3.324,5.673,5.673,0,0,0-4.656-1.754c.171,1.955.3,3.864.523,5.763a1.681,1.681,0,0,1-.591,1.666c-.63.541-1.182,1.171-1.785,1.781-.795-.8-1.537-1.53-2.252-2.286a.78.78,0,0,1-.159-.536c.065-.955.163-1.907.247-2.86q.152-1.748.3-3.5a1.3,1.3,0,0,0-.192-.043,5.664,5.664,0,0,0-6.01,5.675c-.014,1.479,0,2.957,0,4.436v1.141h2.431v-8Zm4.013-12.926a4.03,4.03,0,1,0,4.032,4.041A4.038,4.038,0,0,0,11919.359,15663.9Zm-.061,9.615-.173.122c-.158,1.783-.273,3.571-.494,5.347a1.465,1.465,0,0,0,.815,1.517c.232-.333.659-.659.642-.962-.1-1.887-.294-3.77-.479-5.652C11919.6,15673.759,11919.407,15673.643,11919.3,15673.52Z" fill="#f41f45"/>
      <path id="Caminho_907" data-name="Caminho 907" d="M11944.413,15668.741q3.1,0,6.2,0a2.426,2.426,0,0,1,2.621,2.6q.006,4.661,0,9.32a2.422,2.422,0,0,1-2.574,2.6q-6.3.006-12.6,0a2.416,2.416,0,0,1-2.569-2.548q-.007-4.711,0-9.421a2.417,2.417,0,0,1,2.573-2.545Q11941.238,15668.736,11944.413,15668.741Zm0,1.612q-3.125,0-6.25,0c-.791,0-1.059.267-1.059,1.057q0,4.586,0,9.173c0,.79.269,1.058,1.058,1.059h12.4c.789,0,1.059-.269,1.06-1.058q0-4.586,0-9.173c0-.79-.27-1.057-1.06-1.058Q11947.486,15670.351,11944.412,15670.354Z" fill="#f41f45"/>
      <path id="Caminho_908" data-name="Caminho 908" d="M11909.708,15660.7h1.556v1.564h-1.556Z" fill="#f41f45"/>
      <path id="Caminho_909" data-name="Caminho 909" d="M11909.719,15663.926h1.553v1.55h-1.553Z" fill="#f41f45"/>
      <path id="Caminho_910" data-name="Caminho 910" d="M11909.708,15667.148h1.556v1.564h-1.556Z" fill="#f41f45"/>
      <path id="Caminho_911" data-name="Caminho 911" d="M11938.116,15694.547q-6.321,0-12.645,0a.935.935,0,0,0-.777.33,3.945,3.945,0,0,1-5.815.012.988.988,0,0,0-.823-.343c-2,.013-4,.018-6,0a2.4,2.4,0,0,1-2.326-1.935,2.358,2.358,0,0,1,1.308-2.633,3.141,3.141,0,0,1,1.213-.254c1.964-.024,3.929,0,5.895-.023a1.048,1.048,0,0,0,.673-.3,3.977,3.977,0,0,1,5.83-.056,1.107,1.107,0,0,0,.913.371q12.543-.012,25.088,0a2.421,2.421,0,1,1,.058,4.835Q11944.414,15694.554,11938.116,15694.547Zm-12.332-1.612h24.784a1.691,1.691,0,0,0,.352-.013.8.8,0,0,0-.016-1.588,2.583,2.583,0,0,0-.452-.011h-24.668Zm-1.586-.817a2.418,2.418,0,1,0-2.434,2.429A2.427,2.427,0,0,0,11924.2,15692.117Zm-6.42-.756a.479.479,0,0,0-.135-.034c-1.827,0-3.655-.009-5.483,0a.8.8,0,0,0-.859.793.807.807,0,0,0,.894.812c1.811.009,3.622,0,5.433,0a.551.551,0,0,0,.151-.039Z" fill="#f41f45"/>
      <path id="Caminho_912" data-name="Caminho 912" d="M11936.49,15658.257l-9.032,4.517v-9.03Zm-7.437,1.916,3.829-1.916-3.829-1.913Z" fill="#f41f45"/>
      <path id="Caminho_913" data-name="Caminho 913" d="M11938.743,15671.988h11.228v1.562h-11.228Z" fill="#f41f45"/>
      <path id="Caminho_914" data-name="Caminho 914" d="M11938.727,15676.776v-1.545h11.244v1.545Z" fill="#f41f45"/>
      <path id="Caminho_915" data-name="Caminho 915" d="M11946.757,15678.453v1.553h-8v-1.553Z" fill="#f41f45"/>
      <path id="Caminho_916" data-name="Caminho 916" d="M11949.987,15678.457V15680h-1.568v-1.544Z" fill="#f41f45"/>
      <path id="Caminho_917" data-name="Caminho 917" d="M11921.76,15691.326a.8.8,0,1,1-.782.822A.81.81,0,0,1,11921.76,15691.326Z" fill="#f41f45"/>
    </g>
  </g>
</svg>
