<svg xmlns="http://www.w3.org/2000/svg" width="87.621" height="87.618" viewBox="0 0 87.621 87.618">
  <g id="Grupo_543" data-name="Grupo 543" transform="translate(-1321.993 -2221.218)">
    <g id="Grupo_542" data-name="Grupo 542">
      <path id="Caminho_1170" data-name="Caminho 1170" d="M1409.614,2226.523v76.665a2.967,2.967,0,0,0-.124.3c-1.048,3.655-3.264,5.342-7.031,5.342h-73.4c-4.306,0-7.06-2.752-7.061-7.052q0-37,0-74a5.875,5.875,0,0,1,2.092-4.761,20.343,20.343,0,0,1,3.217-1.8h77.007a6.726,6.726,0,0,1,3.571,2.148A28.434,28.434,0,0,1,1409.614,2226.523Zm-84.7,15.19v60.015c0,2.767,1.439,4.192,4.231,4.192h73.32q4.236,0,4.235-4.274,0-29.473,0-58.947v-.986Zm.007-3.061h81.773c0-3.5,0-6.915,0-10.334,0-2.7-1.482-4.177-4.18-4.177q-36.7,0-73.4,0c-2.7,0-4.185,1.477-4.188,4.168q-.006,4.749,0,9.5Z" fill="#fff"/>
      <path id="Caminho_1171" data-name="Caminho 1171" d="M1386.2,2303q-7.74,0-15.48,0c-1.524,0-2-.471-2-1.985q0-14.112,0-28.223c0-1.451.492-1.935,1.964-1.936q15.565,0,31.131,0c1.466,0,1.964.491,1.964,1.941q0,14.11,0,28.222c0,1.5-.487,1.98-2.012,1.981Q1393.985,2303.006,1386.2,2303Zm14.612-29.18h-29.108v22.689c1.586-1.592,3.048-3.07,4.521-4.536a1.532,1.532,0,0,1,2.51-.024q.859.833,1.694,1.692c.829.848,1.649,1.7,2.491,2.576,2.66-2.9,5.2-5.671,7.75-8.44,1.044-1.135,1.712-1.156,2.791-.081q3.3,3.291,6.585,6.6a3.372,3.372,0,0,1,.446.822l.32-.277Zm.263,26.262a5.637,5.637,0,0,0-.67-1.287c-2.616-2.659-5.26-5.29-7.9-7.926a4.641,4.641,0,0,0-.414-.329l-7.135,7.788a5.309,5.309,0,0,1,.872.732,2.737,2.737,0,0,0,2.516,1.047c3.843-.062,7.688-.025,11.532-.025Zm-23.433-4.91L1372.82,2300h9.743Z" fill="#fff"/>
      <path id="Caminho_1172" data-name="Caminho 1172" d="M1345.35,2276.694q-7.782,0-15.563,0c-1.486,0-1.956-.459-1.957-1.926q-.006-14.153,0-28.306c0-1.36.493-1.869,1.849-1.869q15.693-.009,31.384,0c1.316,0,1.824.513,1.825,1.8q.006,14.238,0,28.476c0,1.309-.5,1.817-1.8,1.819Q1353.216,2276.7,1345.35,2276.694Zm-14.553-29.136v22.666c1.506-1.507,2.887-2.891,4.27-4.274,1.259-1.258,1.8-1.261,3.054-.007,1.306,1.306,2.606,2.618,3.944,3.962,2.633-2.87,5.194-5.666,7.759-8.457.971-1.057,1.706-1.069,2.734-.044q3.363,3.352,6.718,6.713c.186.186.391.354.628.567v-21.126Zm20.512,16.592-7.211,7.868a7.287,7.287,0,0,1,.889.808,2.532,2.532,0,0,0,2.291.973c3.905-.057,7.812-.023,11.719-.023h1.213a6.832,6.832,0,0,0-.763-1.335c-2.319-2.359-4.67-4.686-7-7.03C1352.067,2265.032,1351.726,2264.616,1351.309,2264.15Zm-9.624,9.588-5.038-4.966-4.914,4.966Z" fill="#fff"/>
      <path id="Caminho_1173" data-name="Caminho 1173" d="M1390.617,2256.279c3.849,0,7.7-.006,11.546,0a1.465,1.465,0,0,1,1.609,1.408,1.519,1.519,0,0,1-1.626,1.5c-.2.008-.4,0-.6,0h-6.586q-7.7,0-15.394,0a3.724,3.724,0,0,1-1.015-.086,1.376,1.376,0,0,1-1.055-1.473,1.417,1.417,0,0,1,1.318-1.34,7.621,7.621,0,0,1,.769-.015Z" fill="#fff"/>
      <path id="Caminho_1174" data-name="Caminho 1174" d="M1341.012,2294.248c3.763,0,7.526,0,11.289-.006a1.644,1.644,0,0,1,1.619.73,1.416,1.416,0,0,1-.885,2.1,3.886,3.886,0,0,1-1.014.09q-11.032.007-22.065,0c-.171,0-.342.007-.513,0a1.52,1.52,0,0,1-1.6-1.525,1.457,1.457,0,0,1,1.629-1.386C1333.315,2294.242,1337.164,2294.248,1341.012,2294.248Z" fill="#fff"/>
      <path id="Caminho_1175" data-name="Caminho 1175" d="M1349.751,2288.4q5.474,0,10.946,0a6.524,6.524,0,0,1,.938.04,1.384,1.384,0,0,1,1.24,1.4,1.365,1.365,0,0,1-1.134,1.408,4.334,4.334,0,0,1-.933.073q-11.073.006-22.148,0a3.95,3.95,0,0,1-1.014-.1,1.314,1.314,0,0,1-1.029-1.4,1.33,1.33,0,0,1,1.166-1.373,5.139,5.139,0,0,1,.937-.051Q1344.235,2288.395,1349.751,2288.4Z" fill="#fff"/>
      <path id="Caminho_1176" data-name="Caminho 1176" d="M1381.863,2253.359q-5.559,0-11.118-.006a3.244,3.244,0,0,1-1.089-.142,1.316,1.316,0,0,1-.909-1.478,1.342,1.342,0,0,1,1.2-1.262,5.392,5.392,0,0,1,.853-.032h22.149c.228,0,.458-.006.684.014a1.435,1.435,0,0,1,.2,2.845,4.609,4.609,0,0,1-.934.059Q1387.378,2253.362,1381.863,2253.359Z" fill="#fff"/>
      <path id="Caminho_1177" data-name="Caminho 1177" d="M1340.992,2285.466q-5.473,0-10.947,0a5.792,5.792,0,0,1-1.022-.052,1.33,1.33,0,0,1-1.171-1.369,1.316,1.316,0,0,1,1.025-1.4,3.859,3.859,0,0,1,1.015-.1q11.075-.007,22.15,0c.171,0,.342-.006.513.006a1.5,1.5,0,0,1,1.568,1.472,1.455,1.455,0,0,1-1.586,1.436c-2.736.024-5.473.011-8.21.012Z" fill="#fff"/>
      <path id="Caminho_1178" data-name="Caminho 1178" d="M1381.894,2265.026c-3.848,0-7.7.007-11.546,0a1.462,1.462,0,1,1-.011-2.909c.228-.007.456,0,.684,0h17.618c1.54,0,3.079-.006,4.619,0,1.073,0,1.75.572,1.753,1.447s-.678,1.461-1.742,1.463Q1387.583,2265.035,1381.894,2265.026Z" fill="#fff"/>
      <path id="Caminho_1179" data-name="Caminho 1179" d="M1400.871,2265.021c-.513,0-1.028.029-1.538-.008a1.412,1.412,0,0,1-1.378-1.45,1.387,1.387,0,0,1,1.384-1.437c1-.038,1.995-.035,2.991,0a1.448,1.448,0,0,1,1.442,1.4,1.48,1.48,0,0,1-1.449,1.491C1401.841,2265.047,1401.355,2265.023,1400.871,2265.021Z" fill="#fff"/>
      <path id="Caminho_1180" data-name="Caminho 1180" d="M1371.693,2256.284c.484,0,.97-.023,1.453.006a1.439,1.439,0,0,1,.115,2.87,26.341,26.341,0,0,1-3.244,0,1.415,1.415,0,0,1-1.289-1.459,1.435,1.435,0,0,1,1.427-1.41C1370.666,2256.262,1371.18,2256.284,1371.693,2256.284Z" fill="#fff"/>
      <path id="Caminho_1181" data-name="Caminho 1181" d="M1400.87,2250.451c.513,0,1.027-.026,1.537.006a1.374,1.374,0,0,1,1.352,1.3,1.309,1.309,0,0,1-1.1,1.5,20.329,20.329,0,0,1-3.651-.013,1.238,1.238,0,0,1-1.043-1.523,1.3,1.3,0,0,1,1.278-1.255c.537-.045,1.081-.008,1.622-.008Z" fill="#fff"/>
      <path id="Caminho_1182" data-name="Caminho 1182" d="M1360.051,2294.259c.484,0,.969-.024,1.452,0a1.374,1.374,0,0,1,1.365,1.283,1.3,1.3,0,0,1-1.077,1.513,20.162,20.162,0,0,1-3.652,0,1.258,1.258,0,0,1-1.066-1.513,1.362,1.362,0,0,1,1.355-1.279C1358.967,2294.231,1359.509,2294.259,1360.051,2294.259Z" fill="#fff"/>
      <path id="Caminho_1183" data-name="Caminho 1183" d="M1359.923,2285.442c-.513,0-1.028.037-1.536-.009a1.363,1.363,0,0,1-1.319-1.4,1.279,1.279,0,0,1,1.194-1.419,23.475,23.475,0,0,1,3.407,0,1.35,1.35,0,0,1,1.212,1.421,1.408,1.408,0,0,1-1.337,1.4C1361.008,2285.481,1360.463,2285.442,1359.923,2285.442Z" fill="#fff"/>
      <path id="Caminho_1184" data-name="Caminho 1184" d="M1330.742,2291.287a13.626,13.626,0,0,1-1.62-.012,1.425,1.425,0,0,1-1.284-1.458,1.394,1.394,0,0,1,1.352-1.387c1.05-.049,2.107-.049,3.157.005a1.3,1.3,0,0,1,1.3,1.324,1.4,1.4,0,0,1-1.2,1.516,1.293,1.293,0,0,1-.253.037c-.484,0-.968,0-1.452,0Z" fill="#fff"/>
      <path id="Caminho_1185" data-name="Caminho 1185" d="M1343.849,2235.806c-.883,0-1.767.012-2.65,0-1.118-.02-1.661-.506-1.679-1.6q-.048-2.777,0-5.555a1.459,1.459,0,0,1,1.61-1.593q2.778-.033,5.555,0a1.437,1.437,0,0,1,1.589,1.525q.058,2.86,0,5.725c-.022.991-.583,1.471-1.6,1.493C1345.729,2235.821,1344.789,2235.8,1343.849,2235.806Zm-1.353-2.989h2.815v-2.808H1342.5Z" fill="#fff"/>
      <path id="Caminho_1186" data-name="Caminho 1186" d="M1336.583,2231.453c0,.912.016,1.824,0,2.735-.023,1.071-.516,1.6-1.56,1.61q-2.82.034-5.64,0a1.421,1.421,0,0,1-1.543-1.554q-.038-2.82,0-5.641a1.449,1.449,0,0,1,1.573-1.542q2.82-.038,5.64,0a1.428,1.428,0,0,1,1.525,1.573C1336.6,2229.573,1336.582,2230.513,1336.583,2231.453Zm-5.793,1.376h2.8v-2.8h-2.8Z" fill="#fff"/>
      <path id="Caminho_1187" data-name="Caminho 1187" d="M1355.58,2235.8c-.94,0-1.881.02-2.82,0a1.392,1.392,0,0,1-1.534-1.547q-.034-2.82,0-5.64a1.42,1.42,0,0,1,1.543-1.553q2.82-.039,5.64,0a1.448,1.448,0,0,1,1.554,1.562q.039,2.82,0,5.64a1.431,1.431,0,0,1-1.563,1.536C1357.461,2235.822,1356.52,2235.8,1355.58,2235.8Zm1.4-2.946v-2.831h-2.767v2.831Z" fill="#fff"/>
      <path id="Caminho_1188" data-name="Caminho 1188" d="M1386.233,2282.544a5.837,5.837,0,0,1-11.674.051,5.837,5.837,0,1,1,11.674-.051Zm-2.924.022a2.922,2.922,0,0,0-2.906-2.944,2.976,2.976,0,0,0-2.925,2.95,2.927,2.927,0,0,0,2.888,2.882A2.88,2.88,0,0,0,1383.309,2282.566Z" fill="#fff"/>
      <path id="Caminho_1189" data-name="Caminho 1189" d="M1339.54,2250.443a5.833,5.833,0,0,1,0,11.666,5.833,5.833,0,1,1,0-11.666Zm2.883,5.862a2.873,2.873,0,0,0-2.887-2.942,2.92,2.92,0,0,0-2.943,2.907,2.963,2.963,0,0,0,2.864,2.92A2.915,2.915,0,0,0,1342.423,2256.3Z" fill="#fff"/>
    </g>
  </g>
</svg>
