<svg xmlns="http://www.w3.org/2000/svg" width="47.942" height="50" viewBox="0 0 47.942 50">
  <g id="Grupo_371" data-name="Grupo 371" transform="translate(-11502.813 -15897.84)">
    <g id="Grupo_370" data-name="Grupo 370">
      <path id="Caminho_931" data-name="Caminho 931" d="M11527.271,15897.839a5.743,5.743,0,0,1,3.22,1.88c.712.737,1.48,1.418,2.2,2.146a1.8,1.8,0,0,0,1.687.53c1.236-.2,2.476-.384,3.717-.535a4.378,4.378,0,0,1,5.167,3.851c.216,1.2.425,2.4.617,3.6a1.823,1.823,0,0,0,1.038,1.433c1.131.573,2.249,1.172,3.363,1.777a4.362,4.362,0,0,1,1.955,6.023c-.538,1.13-1.082,2.257-1.653,3.371a1.883,1.883,0,0,0,.008,1.856c.551,1.068,1.066,2.155,1.592,3.236a4.388,4.388,0,0,1-2,6.2c-1.075.574-2.143,1.164-3.232,1.71a1.883,1.883,0,0,0-1.078,1.511c-.2,1.252-.406,2.5-.659,3.746a4.37,4.37,0,0,1-5.276,3.631c-1.235-.194-2.477-.358-3.716-.538a1.648,1.648,0,0,0-1.466.493q-1.393,1.368-2.807,2.716a4.359,4.359,0,0,1-6.333,0c-.906-.865-1.816-1.728-2.7-2.616a1.86,1.86,0,0,0-1.767-.563c-1.234.206-2.476.386-3.719.53a4.38,4.38,0,0,1-5.146-3.933c-.2-1.187-.413-2.369-.608-3.557a1.786,1.786,0,0,0-1.016-1.393c-1.115-.569-2.216-1.164-3.319-1.755a4.384,4.384,0,0,1-1.982-6.131c.522-1.083,1.033-2.173,1.591-3.237a1.936,1.936,0,0,0,.009-1.943c-.571-1.095-1.1-2.212-1.631-3.327a4.367,4.367,0,0,1,1.954-6.025c1.1-.6,2.2-1.2,3.319-1.755a1.906,1.906,0,0,0,1.1-1.551c.19-1.236.4-2.472.649-3.7a4.378,4.378,0,0,1,5.314-3.641c1.219.2,2.445.355,3.668.533a1.649,1.649,0,0,0,1.469-.483c.754-.741,1.54-1.453,2.276-2.212a5.742,5.742,0,0,1,3.219-1.88Zm-12.453,43.164c1.191-.17,2.514-.339,3.83-.552a4.668,4.668,0,0,1,4.28,1.342c.89.882,1.8,1.747,2.7,2.615a1.49,1.49,0,0,0,2.317-.009c.938-.9,1.871-1.812,2.808-2.716a4.291,4.291,0,0,1,3.688-1.276c1.354.177,2.706.37,4.057.566a1.494,1.494,0,0,0,1.876-1.3c.2-1.069.441-2.137.561-3.217a5.016,5.016,0,0,1,3.1-4.327c.916-.416,1.787-.932,2.677-1.4,1.25-.661,1.448-1.287.818-2.576-.521-1.066-1.032-2.138-1.564-3.2a4.459,4.459,0,0,1-.007-4.214c.559-1.119,1.1-2.246,1.649-3.371a1.525,1.525,0,0,0-.757-2.338c-1.1-.589-2.206-1.183-3.316-1.758a4.511,4.511,0,0,1-2.5-3.509c-.2-1.268-.433-2.53-.67-3.793a1.474,1.474,0,0,0-1.809-1.271c-1.238.176-2.479.344-3.716.541a4.6,4.6,0,0,1-4.225-1.367c-.87-.878-1.771-1.726-2.663-2.583a1.5,1.5,0,0,0-2.354.007q-1.389,1.337-2.771,2.681a4.322,4.322,0,0,1-3.73,1.295q-2.005-.268-4.008-.562a1.5,1.5,0,0,0-1.906,1.316c-.2,1.069-.436,2.138-.56,3.218a5,5,0,0,1-3.073,4.291c-.96.436-1.871.979-2.8,1.476a1.545,1.545,0,0,0-.767,2.408c.532,1.1,1.056,2.2,1.606,3.284a4.469,4.469,0,0,1,.007,4.257c-.562,1.117-1.1,2.246-1.646,3.372a1.513,1.513,0,0,0,.742,2.3c1.118.6,2.236,1.194,3.36,1.78a4.506,4.506,0,0,1,2.471,3.473q.315,1.95.686,3.889A1.478,1.478,0,0,0,11514.818,15941Z" fill="#f41f45"/>
      <path id="Caminho_932" data-name="Caminho 932" d="M11517.233,15933.788a1.432,1.432,0,0,1-1.128-2.269,3.5,3.5,0,0,1,.395-.432q9.264-9.267,18.529-18.534a1.732,1.732,0,0,1,1.252-.662,1.374,1.374,0,0,1,1.3.794,1.356,1.356,0,0,1-.149,1.514,3.951,3.951,0,0,1-.363.394q-9.267,9.268-18.53,18.534A1.688,1.688,0,0,1,11517.233,15933.788Z" fill="#f41f45"/>
      <path id="Caminho_933" data-name="Caminho 933" d="M11521,15920.427a5.283,5.283,0,1,1,5.293-5.254A5.269,5.269,0,0,1,11521,15920.427Zm.031-7.664a2.394,2.394,0,0,0-2.42,2.356,2.4,2.4,0,1,0,4.8.039A2.388,2.388,0,0,0,11521.035,15912.763Z" fill="#f41f45"/>
      <path id="Caminho_934" data-name="Caminho 934" d="M11532.568,15925.257a5.282,5.282,0,1,1-5.3,5.245A5.263,5.263,0,0,1,11532.568,15925.257Zm-.03,7.661a2.39,2.39,0,0,0,2.412-2.364,2.4,2.4,0,1,0-4.8-.022A2.385,2.385,0,0,0,11532.538,15932.918Z" fill="#f41f45"/>
    </g>
  </g>
</svg>
