<svg xmlns="http://www.w3.org/2000/svg" width="130.057" height="56.3" viewBox="0 0 130.057 56.3">
  <g id="Grupo_397" data-name="Grupo 397" transform="translate(-403.866 -28.416)">
    <path id="Caminho_985" data-name="Caminho 985" d="M444.459,62.171a7.421,7.421,0,0,0-3.41-3.337L441,58.806c-.875-.472-1.866-1.008-1.862-2.241s.99-1.748,1.86-2.2l.055-.029a7.21,7.21,0,0,0,3.408-3.318c1.763-5.92-1.459-12.581-5.438-16.56a20.735,20.735,0,0,0-14.558-6.039,20.813,20.813,0,0,0-20.6,20.6V64.119a20.813,20.813,0,0,0,20.6,20.6h0a20.732,20.732,0,0,0,14.558-6.04C443,74.693,446.228,68.047,444.459,62.171ZM437.6,77.257a18.447,18.447,0,0,1-26.3-.117,18.244,18.244,0,0,1-5.427-13.022v-15.1A18.244,18.244,0,0,1,411.3,35.991a18.734,18.734,0,0,1,13.162-5.568h0A18.715,18.715,0,0,1,437.6,35.875c3.6,3.6,6.486,9.561,4.841,14.785l-.011.026a10.5,10.5,0,0,1-3.5,3.707c-.823.6-1.5,1.18-1.505,2.173,0,1.138.9,1.772,1.767,2.385l.082.058a9.683,9.683,0,0,1,3.152,3.478l.011.026C444.092,67.7,441.2,73.658,437.6,77.257Z" fill="#fff"/>
    <path id="Caminho_986" data-name="Caminho 986" d="M439.657,63.116a13.293,13.293,0,0,0-2.712-3.511,4.37,4.37,0,0,1-1.72-3.039,3.881,3.881,0,0,1,1.411-2.715l.12-.123a14.506,14.506,0,0,0,2.9-3.684c1.29-4.253-1.128-9.153-4.1-12.125a15.814,15.814,0,0,0-11.094-4.6h-.005a15.811,15.811,0,0,0-11.1,4.73,15.369,15.369,0,0,0-4.594,10.968V64.119a15.848,15.848,0,0,0,15.7,15.7h.1a15.674,15.674,0,0,0,11-4.606C438.531,72.239,440.95,67.347,439.657,63.116Zm-5.519,10.677a13.892,13.892,0,0,1-9.674,4.017h-.08a13.414,13.414,0,0,1-9.468-3.97,13.891,13.891,0,0,1-4.145-9.722V49.013a13.909,13.909,0,0,1,4.158-9.747,13.366,13.366,0,0,1,9.427-3.945h.108a13.857,13.857,0,0,1,9.674,4.018c3.757,3.756,4.279,7.92,3.584,10.345l-.008.022a13.719,13.719,0,0,1-1.671,2.476c-1.074,1.377-2.184,2.8-2.185,4.384s1.117,3.022,2.2,4.413a13.918,13.918,0,0,1,1.658,2.464l.009.022C438.417,65.88,437.9,70.035,434.138,73.793Z" fill="#fff"/>
    <path id="Caminho_987" data-name="Caminho 987" d="M434.886,64.061a19.479,19.479,0,0,0-1.366-2.374c-1.028-1.616-2.091-3.287-2.091-5.121s1.064-3.505,2.093-5.121a19.4,19.4,0,0,0,1.366-2.378c.658-1.695.067-4.829-2.791-7.687a10.872,10.872,0,0,0-7.634-3.167,10.916,10.916,0,0,0-10.8,10.8V64.119a10.916,10.916,0,0,0,10.8,10.8h0a10.869,10.869,0,0,0,7.632-3.167C434.1,69.748,435.828,66.487,434.886,64.061Zm-4.208,6.273a8.946,8.946,0,0,1-6.168,2.578h-.048a8.971,8.971,0,0,1-6.287-2.717,8.5,8.5,0,0,1-2.5-6.078v-15.1A8.533,8.533,0,0,1,418.2,42.89a8.886,8.886,0,0,1,6.263-2.67h0a8.752,8.752,0,0,1,6.216,2.578c2.43,2.416,2.687,4.886,2.168,6.268a22.2,22.2,0,0,1-1.235,2.4c-.934,1.654-1.9,3.364-1.9,5.1s.963,3.447,1.894,5.093a22.253,22.253,0,0,1,1.24,2.4C433.365,65.448,433.108,67.918,430.678,70.334Z" fill="#fff"/>
    <path id="Caminho_988" data-name="Caminho 988" d="M430.108,64.155c-.225-.8-.536-1.628-.838-2.428a14.968,14.968,0,0,1-1.278-5.161A14.984,14.984,0,0,1,429.27,51.4c.3-.8.614-1.627.839-2.43a3.93,3.93,0,0,0-.817-3.428,6.554,6.554,0,0,0-4.829-2.434,5.962,5.962,0,0,0-5.9,5.9V64.119a5.962,5.962,0,0,0,5.9,5.9h0a6.555,6.555,0,0,0,4.827-2.433A3.936,3.936,0,0,0,430.108,64.155Zm-2.57,2.361a4.317,4.317,0,0,1-3.071,1.5h-.084a3.687,3.687,0,0,1-2.558-1.062,4.059,4.059,0,0,1-1.257-2.831V49.013a4.07,4.07,0,0,1,1.264-2.847,3.649,3.649,0,0,1,2.635-1.048,4.238,4.238,0,0,1,3.065,1.484,3,3,0,0,1,.73,2.434c-.116.847-.276,1.7-.43,2.534a27.607,27.607,0,0,0-.615,5,27.607,27.607,0,0,0,.615,5c.154.829.314,1.687.431,2.536A2.987,2.987,0,0,1,427.538,66.516Z" fill="#fff"/>
    <path id="Caminho_989" data-name="Caminho 989" d="M425.316,64.12c-.09-5.083-.09-10.025,0-15.109a1.007,1.007,0,0,0-.289-.728.9.9,0,0,0-.646-.273.966.966,0,0,0-.921,1V64.119a.966.966,0,0,0,.921,1,.9.9,0,0,0,.646-.273A1.007,1.007,0,0,0,425.316,64.12Z" fill="#fff"/>
    <g id="Grupo_396" data-name="Grupo 396">
      <path id="Caminho_990" data-name="Caminho 990" d="M460.869,67.284a8.42,8.42,0,0,1-4.129-.988,6.931,6.931,0,0,1-2.8-2.827,8.965,8.965,0,0,1-1-4.352V45.849h3.44v8.122h.03a4.936,4.936,0,0,1,1.257-1.406,6.018,6.018,0,0,1,1.735-.927,6.222,6.222,0,0,1,2.034-.33,7.468,7.468,0,0,1,3.844.973,6.872,6.872,0,0,1,2.6,2.707,8.4,8.4,0,0,1,.942,4.069,9.637,9.637,0,0,1-.553,3.336,7.623,7.623,0,0,1-1.586,2.617,6.807,6.807,0,0,1-2.5,1.69A8.9,8.9,0,0,1,460.869,67.284Zm0-2.932a4.27,4.27,0,0,0,2.333-.643,4.361,4.361,0,0,0,1.586-1.78,5.825,5.825,0,0,0,.568-2.633,5.764,5.764,0,0,0-.568-2.6,4.522,4.522,0,0,0-1.571-1.8,4.133,4.133,0,0,0-2.319-.657,4.278,4.278,0,0,0-2.333.642,4.37,4.37,0,0,0-1.586,1.781,6.384,6.384,0,0,0,0,5.265,4.361,4.361,0,0,0,1.586,1.78A4.217,4.217,0,0,0,460.869,64.352Z" fill="#fff"/>
      <path id="Caminho_991" data-name="Caminho 991" d="M479.327,67.284a8.126,8.126,0,0,1-4.159-1.062,8.006,8.006,0,0,1,0-13.851,8.724,8.724,0,0,1,8.347,0,8.006,8.006,0,0,1,0,13.851A8.185,8.185,0,0,1,479.327,67.284Zm0-2.932a4.367,4.367,0,0,0,4.1-2.5,6.034,6.034,0,0,0,0-5.116,4.365,4.365,0,0,0-4.1-2.5,4.366,4.366,0,0,0-2.438.672,4.655,4.655,0,0,0-1.616,1.81,5.927,5.927,0,0,0,0,5.131,4.623,4.623,0,0,0,1.616,1.825A4.358,4.358,0,0,0,479.327,64.352Z" fill="#fff"/>
      <path id="Caminho_992" data-name="Caminho 992" d="M496.109,67.284a6.239,6.239,0,0,1-2.722-.584,4.442,4.442,0,0,1-1.945-1.795,6.007,6.007,0,0,1-.718-3.1V51.668h3.44v10.68a2.081,2.081,0,0,0,.27,1.062,1.826,1.826,0,0,0,.7.7,2.066,2.066,0,0,0,1.929,0,1.8,1.8,0,0,0,.719-.7,2.081,2.081,0,0,0,.27-1.062V56.723a6.049,6.049,0,0,1,.672-2.976,4.373,4.373,0,0,1,1.885-1.825,6.578,6.578,0,0,1,5.55,0,4.5,4.5,0,0,1,1.885,1.825,5.952,5.952,0,0,1,.687,2.976v5.625A2.071,2.071,0,0,0,509,63.41a1.8,1.8,0,0,0,.717.7,2.061,2.061,0,0,0,.987.239,1.916,1.916,0,0,0,.943-.239,1.848,1.848,0,0,0,.7-.7,2.079,2.079,0,0,0,.268-1.062V51.668h3.44V61.809a6,6,0,0,1-.717,3.1A4.442,4.442,0,0,1,513.4,66.7a6.5,6.5,0,0,1-5.386,0,4.632,4.632,0,0,1-1.974-1.795,5.813,5.813,0,0,1-.747-3.1V56.245a2.133,2.133,0,0,0-.255-1.093,1.788,1.788,0,0,0-.687-.672,1.98,1.98,0,0,0-.972-.239,1.938,1.938,0,0,0-.928.239,1.873,1.873,0,0,0-.719.672,2.047,2.047,0,0,0-.268,1.093v5.564a5.9,5.9,0,0,1-.734,3.1,4.549,4.549,0,0,1-1.944,1.795A6.077,6.077,0,0,1,496.109,67.284Z" fill="#fff"/>
      <path id="Caminho_993" data-name="Caminho 993" d="M527.91,66.925a9.883,9.883,0,0,1-4.5-.972,7.183,7.183,0,0,1-4.084-6.657,8.705,8.705,0,0,1,.957-4.158,7.161,7.161,0,0,1,2.633-2.812,7.288,7.288,0,0,1,3.859-1.018,7.191,7.191,0,0,1,4.039,1.048,6.278,6.278,0,0,1,2.348,2.812,9.849,9.849,0,0,1,.763,3.949c0,.2-.01.429-.03.688a3.282,3.282,0,0,1-.089.6h-10.83a3.822,3.822,0,0,0,.868,1.99,4.3,4.3,0,0,0,1.734,1.2,6.448,6.448,0,0,0,2.334.4h4.1v2.932Zm-4.966-8.855h7.539a6.358,6.358,0,0,0-.165-1.137,4.172,4.172,0,0,0-.418-1.078,3.268,3.268,0,0,0-.718-.882,3.409,3.409,0,0,0-1.033-.6,3.911,3.911,0,0,0-1.376-.225,3.491,3.491,0,0,0-1.585.345,3.715,3.715,0,0,0-1.167.9,4,4,0,0,0-.733,1.257A6.542,6.542,0,0,0,522.944,58.07Z" fill="#fff"/>
    </g>
  </g>
</svg>
