<svg xmlns="http://www.w3.org/2000/svg" width="555.599" height="195.271" viewBox="0 0 555.599 195.271">
  <g id="Grupo_459" data-name="Grupo 459" transform="translate(-1029.363 -6166.024)">
    <path id="Caminho_1065" data-name="Caminho 1065" d="M1.366-11.69H14.64v2.677H1.366Zm0,5.545H14.64v2.677H1.366ZM28.324-17.672v14.64H40.069V0H24.691V-17.672Zm11.171,0H58.123v3.032H39.5Zm7.511,2.649h3.633V0H47.006ZM67.41,0,59.6-17.672h4.015L70.3-1.721H69.048l6.664-15.951h3.96L71.944,0Z" transform="translate(1505.288 6276.788)" fill="#1d1b35"/>
    <g id="Grupo_192" data-name="Grupo 192" transform="translate(-30.986 258.289)">
      <rect id="Ret창ngulo_98" data-name="Ret창ngulo 98" width="465.495" height="189.601" rx="26.11" transform="translate(1060.349 5907.736)" fill="#4a45d8"/>
      <rect id="Ret창ngulo_99" data-name="Ret창ngulo 99" width="465.495" height="189.601" rx="26.11" transform="translate(1060.349 5913.406)" fill="#f41f45"/>
      <g id="Grupo_455" data-name="Grupo 455" transform="translate(9.61 1.176)">
        <path id="Caminho_1063" data-name="Caminho 1063" d="M-89.71-1.08h-.82l6.38-11.9h1.92V0h-1.92V-9.96l.42.1L-89.11,0h-2.02l-5.38-9.84.42-.1V0h-1.92V-12.98h1.92Zm18.02-2.16h1.82a3.863,3.863,0,0,1-.76,1.76A4.206,4.206,0,0,1-72.21-.24a5.364,5.364,0,0,1-2.3.46,5.749,5.749,0,0,1-2.78-.66,4.946,4.946,0,0,1-1.92-1.82,5.123,5.123,0,0,1-.7-2.7,5.335,5.335,0,0,1,.68-2.73,4.817,4.817,0,0,1,1.88-1.83,5.591,5.591,0,0,1,2.74-.66,5.333,5.333,0,0,1,2.72.64,3.855,3.855,0,0,1,1.63,1.89,7.007,7.007,0,0,1,.43,3.11h-8.18a3.662,3.662,0,0,0,.55,1.6,3.179,3.179,0,0,0,1.2,1.1,3.621,3.621,0,0,0,1.73.4,3.213,3.213,0,0,0,1.84-.5A2.457,2.457,0,0,0-71.69-3.24Zm-2.9-5.3a3.342,3.342,0,0,0-2.16.69,3.273,3.273,0,0,0-1.14,1.83h6.14a2.5,2.5,0,0,0-.88-1.87A3.008,3.008,0,0,0-74.59-8.54Zm-1-3.48,2.3-3.2h2.5l-3.06,3.2ZM-63.69.2a4.375,4.375,0,0,1-2.36-.66,4.622,4.622,0,0,1-1.67-1.83,5.735,5.735,0,0,1-.61-2.69,5.813,5.813,0,0,1,.6-2.69,4.676,4.676,0,0,1,1.64-1.84,4.333,4.333,0,0,1,2.4-.67,4.274,4.274,0,0,1,1.96.4,3,3,0,0,1,1.22,1.12A5.089,5.089,0,0,1-59.88-7a10.192,10.192,0,0,1,.19,2.02,7.85,7.85,0,0,1-.2,1.7,6.382,6.382,0,0,1-.64,1.7A3.484,3.484,0,0,1-61.75-.29,3.582,3.582,0,0,1-63.69.2Zm.54-1.66a3.239,3.239,0,0,0,1.79-.47A2.887,2.887,0,0,0-60.27-3.2a4.289,4.289,0,0,0,.36-1.78,4.389,4.389,0,0,0-.37-1.86,2.767,2.767,0,0,0-1.1-1.24,3.368,3.368,0,0,0-1.77-.44,2.989,2.989,0,0,0-2.41,1,3.785,3.785,0,0,0-.85,2.54,3.841,3.841,0,0,0,.42,1.83,3.176,3.176,0,0,0,1.15,1.24A3.155,3.155,0,0,0-63.15-1.46Zm3.24-12.52h1.92V0h-1.76q-.06-.44-.11-1.08t-.05-1.1Zm7.08-.12v2.06h-2.38V-14.1Zm-2.14,4.12h1.9V0h-1.9ZM-46.25.2a4.34,4.34,0,0,1-2.34-.66,4.7,4.7,0,0,1-1.68-1.83,5.659,5.659,0,0,1-.62-2.69,5.585,5.585,0,0,1,.63-2.69,4.742,4.742,0,0,1,1.73-1.84,4.636,4.636,0,0,1,2.46-.67,3.51,3.51,0,0,1,2.33.7A3.682,3.682,0,0,1-42.58-7.6a9.716,9.716,0,0,1,.33,2.62,7.85,7.85,0,0,1-.2,1.7,6.382,6.382,0,0,1-.64,1.7A3.484,3.484,0,0,1-44.31-.29,3.582,3.582,0,0,1-46.25.2Zm.54-1.66a3.239,3.239,0,0,0,1.79-.47A2.887,2.887,0,0,0-42.83-3.2a4.289,4.289,0,0,0,.36-1.78,4.389,4.389,0,0,0-.37-1.86,2.767,2.767,0,0,0-1.1-1.24,3.368,3.368,0,0,0-1.77-.44,2.989,2.989,0,0,0-2.41,1,3.785,3.785,0,0,0-.85,2.54,3.841,3.841,0,0,0,.42,1.83A3.176,3.176,0,0,0-47.4-1.91,3.155,3.155,0,0,0-45.71-1.46Zm3.24-8.52h1.92V0h-1.76l-.04-.37q-.04-.37-.08-.89t-.04-.92ZM-29.53.2a4.375,4.375,0,0,1-2.36-.66,4.622,4.622,0,0,1-1.67-1.83,5.735,5.735,0,0,1-.61-2.69,5.814,5.814,0,0,1,.6-2.69,4.676,4.676,0,0,1,1.64-1.84,4.333,4.333,0,0,1,2.4-.67,4.274,4.274,0,0,1,1.96.4,3,3,0,0,1,1.22,1.12A5.089,5.089,0,0,1-25.72-7a10.192,10.192,0,0,1,.19,2.02,7.85,7.85,0,0,1-.2,1.7,6.382,6.382,0,0,1-.64,1.7A3.484,3.484,0,0,1-27.59-.29,3.582,3.582,0,0,1-29.53.2Zm.54-1.66a3.239,3.239,0,0,0,1.79-.47A2.887,2.887,0,0,0-26.11-3.2a4.289,4.289,0,0,0,.36-1.78,4.389,4.389,0,0,0-.37-1.86,2.767,2.767,0,0,0-1.1-1.24,3.368,3.368,0,0,0-1.77-.44,2.989,2.989,0,0,0-2.41,1,3.785,3.785,0,0,0-.85,2.54,3.841,3.841,0,0,0,.42,1.83,3.176,3.176,0,0,0,1.15,1.24A3.155,3.155,0,0,0-28.99-1.46Zm3.24-12.52h1.92V0h-1.76q-.06-.44-.11-1.08t-.05-1.1ZM-13.27-3.24h1.82a3.863,3.863,0,0,1-.76,1.76A4.206,4.206,0,0,1-13.79-.24a5.364,5.364,0,0,1-2.3.46,5.749,5.749,0,0,1-2.78-.66,4.946,4.946,0,0,1-1.92-1.82,5.123,5.123,0,0,1-.7-2.7,5.335,5.335,0,0,1,.68-2.73,4.817,4.817,0,0,1,1.88-1.83,5.591,5.591,0,0,1,2.74-.66,5.333,5.333,0,0,1,2.72.64,3.855,3.855,0,0,1,1.63,1.89,7.007,7.007,0,0,1,.43,3.11h-8.18a3.662,3.662,0,0,0,.55,1.6,3.179,3.179,0,0,0,1.2,1.1,3.621,3.621,0,0,0,1.73.4,3.213,3.213,0,0,0,1.84-.5A2.457,2.457,0,0,0-13.27-3.24Zm-2.9-5.3a3.342,3.342,0,0,0-2.16.69,3.273,3.273,0,0,0-1.14,1.83h6.14a2.5,2.5,0,0,0-.88-1.87A3.008,3.008,0,0,0-16.17-8.54ZM-5.69-9.98H.77v1.66H-5.69Zm2.28-2.64h1.9V0h-1.9Zm6,2.64H4.51V0H2.59Zm5.3,1.7a3.15,3.15,0,0,0-1.77.48A3.764,3.764,0,0,0,4.96-6.62a4.372,4.372,0,0,0-.57,1.34L4.37-6.42q.02-.2.11-.63a4.911,4.911,0,0,1,.33-.97,4.549,4.549,0,0,1,.64-1.03,3.241,3.241,0,0,1,1-.81,3.022,3.022,0,0,1,1.44-.32ZM13.75.2a4.34,4.34,0,0,1-2.34-.66A4.7,4.7,0,0,1,9.73-2.29a5.659,5.659,0,0,1-.62-2.69,5.585,5.585,0,0,1,.63-2.69,4.742,4.742,0,0,1,1.73-1.84,4.636,4.636,0,0,1,2.46-.67,3.51,3.51,0,0,1,2.33.7A3.682,3.682,0,0,1,17.42-7.6a9.717,9.717,0,0,1,.33,2.62,7.85,7.85,0,0,1-.2,1.7,6.382,6.382,0,0,1-.64,1.7A3.484,3.484,0,0,1,15.69-.29,3.582,3.582,0,0,1,13.75.2Zm.54-1.66a3.239,3.239,0,0,0,1.79-.47A2.887,2.887,0,0,0,17.17-3.2a4.289,4.289,0,0,0,.36-1.78,4.389,4.389,0,0,0-.37-1.86,2.767,2.767,0,0,0-1.1-1.24,3.368,3.368,0,0,0-1.77-.44,2.989,2.989,0,0,0-2.41,1,3.785,3.785,0,0,0-.85,2.54,3.841,3.841,0,0,0,.42,1.83A3.176,3.176,0,0,0,12.6-1.91,3.155,3.155,0,0,0,14.29-1.46Zm3.24-8.52h1.92V0H17.69l-.04-.37q-.04-.37-.08-.89t-.04-.92Zm4.42,0h1.92V0H21.95Zm5.72-.2a4.545,4.545,0,0,1,1.52.24,3.113,3.113,0,0,1,1.16.71,3.26,3.26,0,0,1,.75,1.16,4.283,4.283,0,0,1,.27,1.57V0h-1.9V-6.08a2.456,2.456,0,0,0-.57-1.77,2.3,2.3,0,0,0-1.73-.59,3.264,3.264,0,0,0-1.64.42,3.581,3.581,0,0,0-1.21,1.11,3.41,3.41,0,0,0-.57,1.55l-.02-1.1a4.7,4.7,0,0,1,.43-1.48A4.358,4.358,0,0,1,25-9.13a3.481,3.481,0,0,1,1.19-.78A3.975,3.975,0,0,1,27.67-10.18Zm5.78,6.94h1.76a1.951,1.951,0,0,0,.72,1.31,2.667,2.667,0,0,0,1.74.51,2.948,2.948,0,0,0,1.12-.17,1.133,1.133,0,0,0,.57-.47,1.315,1.315,0,0,0,.17-.66.984.984,0,0,0-.24-.71,1.855,1.855,0,0,0-.68-.42,10.235,10.235,0,0,0-1.04-.33q-.66-.18-1.32-.42a6.551,6.551,0,0,1-1.21-.58,2.754,2.754,0,0,1-.88-.85,2.253,2.253,0,0,1-.33-1.25,2.558,2.558,0,0,1,.27-1.16,2.663,2.663,0,0,1,.78-.93,3.77,3.77,0,0,1,1.19-.6,5.066,5.066,0,0,1,1.5-.21,4.089,4.089,0,0,1,1.92.41,2.831,2.831,0,0,1,1.19,1.15,3.609,3.609,0,0,1,.43,1.7H39.43a2.034,2.034,0,0,0-.58-1.23,1.939,1.939,0,0,0-1.32-.39,2.194,2.194,0,0,0-1.32.34,1.085,1.085,0,0,0-.46.92.884.884,0,0,0,.32.71,2.879,2.879,0,0,0,.86.47q.54.2,1.22.42.64.22,1.23.45a5.638,5.638,0,0,1,1.06.54,2.241,2.241,0,0,1,.74.8,2.479,2.479,0,0,1,.27,1.21,2.664,2.664,0,0,1-.44,1.53A2.857,2.857,0,0,1,39.74-.14a5.04,5.04,0,0,1-2.01.36A5.626,5.626,0,0,1,35.9-.04a4.046,4.046,0,0,1-1.26-.68,3.3,3.3,0,0,1-.78-.89,3.075,3.075,0,0,1-.36-.91A2.181,2.181,0,0,1,33.45-3.24ZM47.59.2a4.34,4.34,0,0,1-2.34-.66,4.7,4.7,0,0,1-1.68-1.83,5.659,5.659,0,0,1-.62-2.69,5.585,5.585,0,0,1,.63-2.69,4.742,4.742,0,0,1,1.73-1.84,4.636,4.636,0,0,1,2.46-.67,3.51,3.51,0,0,1,2.33.7A3.682,3.682,0,0,1,51.26-7.6a9.717,9.717,0,0,1,.33,2.62,7.85,7.85,0,0,1-.2,1.7,6.382,6.382,0,0,1-.64,1.7A3.484,3.484,0,0,1,49.53-.29,3.582,3.582,0,0,1,47.59.2Zm.54-1.66a3.239,3.239,0,0,0,1.79-.47A2.887,2.887,0,0,0,51.01-3.2a4.289,4.289,0,0,0,.36-1.78A4.389,4.389,0,0,0,51-6.84a2.767,2.767,0,0,0-1.1-1.24,3.368,3.368,0,0,0-1.77-.44,2.989,2.989,0,0,0-2.41,1,3.785,3.785,0,0,0-.85,2.54,3.841,3.841,0,0,0,.42,1.83,3.176,3.176,0,0,0,1.15,1.24A3.155,3.155,0,0,0,48.13-1.46Zm3.24-8.52h1.92V0H51.53l-.04-.37q-.04-.37-.08-.89t-.04-.92ZM58.95,2.56q.04.12.12.35a.9.9,0,0,0,.31.41,1.07,1.07,0,0,0,.67.18.8.8,0,0,0,.71-.28.992.992,0,0,0,.19-.56,1.184,1.184,0,0,0-.09-.43,1.322,1.322,0,0,0-.35-.47,2.219,2.219,0,0,0-.82-.42L60.77.86a3.039,3.039,0,0,1,.88.37,1.865,1.865,0,0,1,.63.64,1.926,1.926,0,0,1,.23.99,1.926,1.926,0,0,1-.61,1.38,2.551,2.551,0,0,1-1.89.62,2.746,2.746,0,0,1-1.38-.33,2.134,2.134,0,0,1-.86-.86,1.8,1.8,0,0,1-.2-1.11Zm.74-2.68h1.8V1.52l-1.8-.18ZM65.57-3.8a4.24,4.24,0,0,1-.79,2.15A4.294,4.294,0,0,1,63.03-.26a5.845,5.845,0,0,1-2.4.48,5.908,5.908,0,0,1-2.68-.61A4.778,4.778,0,0,1,56-2.17a5.164,5.164,0,0,1-.73-2.79A5.2,5.2,0,0,1,56-7.77a4.849,4.849,0,0,1,1.95-1.79,5.829,5.829,0,0,1,2.68-.62,5.706,5.706,0,0,1,2.38.48,4.47,4.47,0,0,1,1.74,1.37,4.212,4.212,0,0,1,.82,2.13H63.83a3.254,3.254,0,0,0-1.21-1.71,3.306,3.306,0,0,0-1.99-.63,3.587,3.587,0,0,0-1.71.42,3.184,3.184,0,0,0-1.26,1.21,3.755,3.755,0,0,0-.47,1.95,3.671,3.671,0,0,0,.47,1.91,3.132,3.132,0,0,0,1.25,1.2,3.64,3.64,0,0,0,1.72.41,3.3,3.3,0,0,0,2.08-.62A3.362,3.362,0,0,0,63.85-3.8ZM72.39.22A5.829,5.829,0,0,1,69.71-.4a4.8,4.8,0,0,1-1.94-1.78,5.167,5.167,0,0,1-.72-2.78,5.258,5.258,0,0,1,.72-2.81,4.78,4.78,0,0,1,1.94-1.79,5.829,5.829,0,0,1,2.68-.62,5.708,5.708,0,0,1,2.66.62,4.813,4.813,0,0,1,1.92,1.79,5.258,5.258,0,0,1,.72,2.81,5.167,5.167,0,0,1-.72,2.78A4.835,4.835,0,0,1,75.05-.4,5.708,5.708,0,0,1,72.39.22Zm0-1.66a3.5,3.5,0,0,0,1.67-.41,3.15,3.15,0,0,0,1.24-1.2,3.671,3.671,0,0,0,.47-1.91A3.767,3.767,0,0,0,75.3-6.9a3.2,3.2,0,0,0-1.24-1.22,3.432,3.432,0,0,0-1.67-.42,3.557,3.557,0,0,0-1.68.41,3.18,3.18,0,0,0-1.26,1.21,3.746,3.746,0,0,0-.48,1.96,3.671,3.671,0,0,0,.47,1.91,3.132,3.132,0,0,0,1.25,1.2A3.6,3.6,0,0,0,72.39-1.44Zm1.44-10.58a2.237,2.237,0,0,1-.95-.19,3.994,3.994,0,0,1-.75-.45,4.889,4.889,0,0,0-.68-.44,1.642,1.642,0,0,0-.78-.18.889.889,0,0,0-.62.2,1.163,1.163,0,0,0-.32.49,4.9,4.9,0,0,0-.16.57H68.09a4.27,4.27,0,0,1,.37-1.36,2.544,2.544,0,0,1,.79-.99,1.961,1.961,0,0,1,1.2-.37,2.546,2.546,0,0,1,.99.18,3.692,3.692,0,0,1,.78.44,7.02,7.02,0,0,0,.68.45,1.4,1.4,0,0,0,.71.19.862.862,0,0,0,.62-.21,1.231,1.231,0,0,0,.32-.51q.1-.3.16-.56h1.5a4.664,4.664,0,0,1-.39,1.36,2.628,2.628,0,0,1-.79,1A1.926,1.926,0,0,1,73.83-12.02ZM87.39-3.24h1.82a3.863,3.863,0,0,1-.76,1.76A4.206,4.206,0,0,1,86.87-.24a5.364,5.364,0,0,1-2.3.46,5.749,5.749,0,0,1-2.78-.66,4.946,4.946,0,0,1-1.92-1.82,5.123,5.123,0,0,1-.7-2.7,5.335,5.335,0,0,1,.68-2.73,4.817,4.817,0,0,1,1.88-1.83,5.591,5.591,0,0,1,2.74-.66,5.333,5.333,0,0,1,2.72.64,3.855,3.855,0,0,1,1.63,1.89,7.007,7.007,0,0,1,.43,3.11H81.07a3.662,3.662,0,0,0,.55,1.6,3.179,3.179,0,0,0,1.2,1.1,3.621,3.621,0,0,0,1.73.4,3.213,3.213,0,0,0,1.84-.5A2.457,2.457,0,0,0,87.39-3.24Zm-2.9-5.3a3.342,3.342,0,0,0-2.16.69,3.273,3.273,0,0,0-1.14,1.83h6.14a2.5,2.5,0,0,0-.88-1.87A3.008,3.008,0,0,0,84.49-8.54Zm6.34,5.3h1.76a1.951,1.951,0,0,0,.72,1.31,2.667,2.667,0,0,0,1.74.51,2.948,2.948,0,0,0,1.12-.17,1.133,1.133,0,0,0,.57-.47,1.315,1.315,0,0,0,.17-.66.984.984,0,0,0-.24-.71,1.855,1.855,0,0,0-.68-.42,10.236,10.236,0,0,0-1.04-.33q-.66-.18-1.32-.42a6.551,6.551,0,0,1-1.21-.58,2.754,2.754,0,0,1-.88-.85,2.253,2.253,0,0,1-.33-1.25,2.558,2.558,0,0,1,.27-1.16,2.663,2.663,0,0,1,.78-.93,3.77,3.77,0,0,1,1.19-.6,5.066,5.066,0,0,1,1.5-.21,4.089,4.089,0,0,1,1.92.41,2.831,2.831,0,0,1,1.19,1.15,3.609,3.609,0,0,1,.43,1.7H96.81a2.034,2.034,0,0,0-.58-1.23,1.939,1.939,0,0,0-1.32-.39,2.194,2.194,0,0,0-1.32.34,1.085,1.085,0,0,0-.46.92.884.884,0,0,0,.32.71,2.879,2.879,0,0,0,.86.47q.54.2,1.22.42.64.22,1.23.45a5.638,5.638,0,0,1,1.06.54,2.241,2.241,0,0,1,.74.8,2.479,2.479,0,0,1,.27,1.21,2.664,2.664,0,0,1-.44,1.53A2.857,2.857,0,0,1,97.12-.14a5.04,5.04,0,0,1-2.01.36,5.626,5.626,0,0,1-1.83-.26,4.046,4.046,0,0,1-1.26-.68,3.3,3.3,0,0,1-.78-.89,3.075,3.075,0,0,1-.36-.91A2.181,2.181,0,0,1,90.83-3.24ZM-77.56,24.22a3.526,3.526,0,0,1-1.94-.5,3.563,3.563,0,0,1-1.22-1.3,6.382,6.382,0,0,1-.64-1.7,7.85,7.85,0,0,1-.2-1.7A10.191,10.191,0,0,1-81.37,17a5.089,5.089,0,0,1,.63-1.66,3,3,0,0,1,1.22-1.12,4.274,4.274,0,0,1,1.96-.4,4.228,4.228,0,0,1,2.34.67,4.886,4.886,0,0,1,1.67,1.85,5.6,5.6,0,0,1,.63,2.68,5.557,5.557,0,0,1-.64,2.71,4.873,4.873,0,0,1-1.69,1.83A4.255,4.255,0,0,1-77.56,24.22Zm-.54-1.68a3.206,3.206,0,0,0,1.7-.45,3.081,3.081,0,0,0,1.15-1.24,3.918,3.918,0,0,0,.41-1.83,3.785,3.785,0,0,0-.85-2.54,2.989,2.989,0,0,0-2.41-1,3.171,3.171,0,0,0-1.67.44,3.087,3.087,0,0,0-1.15,1.24,3.945,3.945,0,0,0-.42,1.86,4.172,4.172,0,0,0,.37,1.79,2.987,2.987,0,0,0,1.09,1.26A3.189,3.189,0,0,0-78.1,22.54Zm-5.16-8.52h1.84l.08,2.26V28h-1.92Zm17.16,10.2a5.829,5.829,0,0,1-2.68-.62,4.8,4.8,0,0,1-1.94-1.78,5.167,5.167,0,0,1-.72-2.78,5.258,5.258,0,0,1,.72-2.81,4.78,4.78,0,0,1,1.94-1.79,5.829,5.829,0,0,1,2.68-.62,5.708,5.708,0,0,1,2.66.62,4.813,4.813,0,0,1,1.92,1.79,5.258,5.258,0,0,1,.72,2.81,5.167,5.167,0,0,1-.72,2.78,4.835,4.835,0,0,1-1.92,1.78A5.708,5.708,0,0,1-66.1,24.22Zm0-1.66a3.5,3.5,0,0,0,1.67-.41,3.15,3.15,0,0,0,1.24-1.2,3.671,3.671,0,0,0,.47-1.91,3.767,3.767,0,0,0-.47-1.94,3.2,3.2,0,0,0-1.24-1.22,3.432,3.432,0,0,0-1.67-.42,3.557,3.557,0,0,0-1.68.41,3.18,3.18,0,0,0-1.26,1.21,3.746,3.746,0,0,0-.48,1.96,3.671,3.671,0,0,0,.47,1.91,3.132,3.132,0,0,0,1.25,1.2A3.6,3.6,0,0,0-66.1,22.56Zm7.3-8.54h1.92V24H-58.8Zm5.3,1.7a3.15,3.15,0,0,0-1.77.48,3.764,3.764,0,0,0-1.16,1.18A4.372,4.372,0,0,0-57,18.72l-.02-1.14q.02-.2.11-.63a4.911,4.911,0,0,1,.33-.97,4.549,4.549,0,0,1,.64-1.03,3.241,3.241,0,0,1,1-.81,3.022,3.022,0,0,1,1.44-.32Zm15.92,4.48a4.24,4.24,0,0,1-.79,2.15,4.294,4.294,0,0,1-1.75,1.39,5.845,5.845,0,0,1-2.4.48,5.908,5.908,0,0,1-2.68-.61,4.778,4.778,0,0,1-1.95-1.78,5.164,5.164,0,0,1-.73-2.79,5.2,5.2,0,0,1,.73-2.81,4.849,4.849,0,0,1,1.95-1.79,5.829,5.829,0,0,1,2.68-.62,5.706,5.706,0,0,1,2.38.48,4.47,4.47,0,0,1,1.74,1.37,4.212,4.212,0,0,1,.82,2.13h-1.74a3.254,3.254,0,0,0-1.21-1.71,3.306,3.306,0,0,0-1.99-.63,3.587,3.587,0,0,0-1.71.42,3.184,3.184,0,0,0-1.26,1.21,3.755,3.755,0,0,0-.47,1.95,3.671,3.671,0,0,0,.47,1.91,3.132,3.132,0,0,0,1.25,1.2,3.64,3.64,0,0,0,1.72.41,3.3,3.3,0,0,0,2.08-.62A3.362,3.362,0,0,0-39.3,20.2Zm2.2-10.18h1.92V24h-1.92Zm6.96-.12v2.06H-30.8V9.9Zm-2.14,4.12h1.9V24h-1.9Zm12.3,6.74h1.82a3.863,3.863,0,0,1-.76,1.76,4.206,4.206,0,0,1-1.58,1.24,5.364,5.364,0,0,1-2.3.46,5.749,5.749,0,0,1-2.78-.66,4.946,4.946,0,0,1-1.92-1.82,5.123,5.123,0,0,1-.7-2.7,5.335,5.335,0,0,1,.68-2.73,4.817,4.817,0,0,1,1.88-1.83,5.591,5.591,0,0,1,2.74-.66,5.333,5.333,0,0,1,2.72.64,3.855,3.855,0,0,1,1.63,1.89,7.007,7.007,0,0,1,.43,3.11h-8.18a3.662,3.662,0,0,0,.55,1.6,3.179,3.179,0,0,0,1.2,1.1,3.621,3.621,0,0,0,1.73.4,3.213,3.213,0,0,0,1.84-.5A2.457,2.457,0,0,0-18.26,20.76Zm-2.9-5.3a3.342,3.342,0,0,0-2.16.69,3.273,3.273,0,0,0-1.14,1.83h6.14a2.5,2.5,0,0,0-.88-1.87A3.008,3.008,0,0,0-21.16,15.46Zm6.78-1.44h1.92V24h-1.92Zm5.72-.2a4.545,4.545,0,0,1,1.52.24,3.113,3.113,0,0,1,1.16.71,3.26,3.26,0,0,1,.75,1.16,4.283,4.283,0,0,1,.27,1.57V24h-1.9V17.92a2.456,2.456,0,0,0-.57-1.77,2.3,2.3,0,0,0-1.73-.59,3.264,3.264,0,0,0-1.64.42,3.581,3.581,0,0,0-1.21,1.11,3.41,3.41,0,0,0-.57,1.55l-.02-1.1a4.7,4.7,0,0,1,.43-1.48,4.358,4.358,0,0,1,.84-1.19,3.481,3.481,0,0,1,1.19-.78A3.975,3.975,0,0,1-8.66,13.82Zm5.52.2H3.32v1.66H-3.14Zm2.28-2.64h1.9V24H-.86Zm13.52,9.38h1.82a3.863,3.863,0,0,1-.76,1.76,4.206,4.206,0,0,1-1.58,1.24,5.364,5.364,0,0,1-2.3.46,5.749,5.749,0,0,1-2.78-.66,4.946,4.946,0,0,1-1.92-1.82,5.123,5.123,0,0,1-.7-2.7,5.335,5.335,0,0,1,.68-2.73A4.817,4.817,0,0,1,7,14.48a5.591,5.591,0,0,1,2.74-.66,5.333,5.333,0,0,1,2.72.64,3.855,3.855,0,0,1,1.63,1.89,7.007,7.007,0,0,1,.43,3.11H6.34a3.662,3.662,0,0,0,.55,1.6,3.179,3.179,0,0,0,1.2,1.1,3.621,3.621,0,0,0,1.73.4,3.213,3.213,0,0,0,1.84-.5A2.457,2.457,0,0,0,12.66,20.76Zm-2.9-5.3a3.342,3.342,0,0,0-2.16.69,3.273,3.273,0,0,0-1.14,1.83H12.6a2.5,2.5,0,0,0-.88-1.87A3.008,3.008,0,0,0,9.76,15.46Zm11.18-1.44h1.92V24H20.94Zm5.72-.2a4.545,4.545,0,0,1,1.52.24,3.113,3.113,0,0,1,1.16.71,3.26,3.26,0,0,1,.75,1.16,4.283,4.283,0,0,1,.27,1.57V24h-1.9V17.92a2.456,2.456,0,0,0-.57-1.77,2.3,2.3,0,0,0-1.73-.59,3.264,3.264,0,0,0-1.64.42,3.581,3.581,0,0,0-1.21,1.11,3.41,3.41,0,0,0-.57,1.55l-.02-1.1a4.7,4.7,0,0,1,.43-1.48,4.358,4.358,0,0,1,.84-1.19,3.481,3.481,0,0,1,1.19-.78A3.975,3.975,0,0,1,26.66,13.82ZM37.7,24.22a5.829,5.829,0,0,1-2.68-.62,4.8,4.8,0,0,1-1.94-1.78,5.167,5.167,0,0,1-.72-2.78,5.258,5.258,0,0,1,.72-2.81,4.78,4.78,0,0,1,1.94-1.79,5.829,5.829,0,0,1,2.68-.62,5.708,5.708,0,0,1,2.66.62,4.813,4.813,0,0,1,1.92,1.79A5.258,5.258,0,0,1,43,19.04a5.167,5.167,0,0,1-.72,2.78,4.835,4.835,0,0,1-1.92,1.78A5.708,5.708,0,0,1,37.7,24.22Zm0-1.66a3.5,3.5,0,0,0,1.67-.41,3.15,3.15,0,0,0,1.24-1.2,3.671,3.671,0,0,0,.47-1.91,3.767,3.767,0,0,0-.47-1.94,3.2,3.2,0,0,0-1.24-1.22,3.432,3.432,0,0,0-1.67-.42,3.557,3.557,0,0,0-1.68.41,3.18,3.18,0,0,0-1.26,1.21,3.746,3.746,0,0,0-.48,1.96,3.671,3.671,0,0,0,.47,1.91A3.132,3.132,0,0,0,36,22.15,3.6,3.6,0,0,0,37.7,22.56ZM53.52,24.2a4.34,4.34,0,0,1-2.34-.66,4.7,4.7,0,0,1-1.68-1.83,5.659,5.659,0,0,1-.62-2.69,5.585,5.585,0,0,1,.63-2.69,4.742,4.742,0,0,1,1.73-1.84,4.636,4.636,0,0,1,2.46-.67,3.51,3.51,0,0,1,2.33.7,3.682,3.682,0,0,1,1.16,1.88,9.717,9.717,0,0,1,.33,2.62,7.85,7.85,0,0,1-.2,1.7,6.382,6.382,0,0,1-.64,1.7,3.484,3.484,0,0,1-1.22,1.29A3.581,3.581,0,0,1,53.52,24.2Zm.54-1.66a3.239,3.239,0,0,0,1.79-.47,2.887,2.887,0,0,0,1.09-1.27,4.289,4.289,0,0,0,.36-1.78,4.389,4.389,0,0,0-.37-1.86,2.767,2.767,0,0,0-1.1-1.24,3.368,3.368,0,0,0-1.77-.44,2.989,2.989,0,0,0-2.41,1,3.785,3.785,0,0,0-.85,2.54,3.841,3.841,0,0,0,.42,1.83,3.1,3.1,0,0,0,2.84,1.69Zm3.24-8.52h1.92V24H57.46l-.04-.37q-.04-.37-.08-.89t-.04-.92Zm4.42,0h1.92V24H61.72Zm5.72-.2a4.545,4.545,0,0,1,1.52.24,3.113,3.113,0,0,1,1.16.71,3.26,3.26,0,0,1,.75,1.16,4.283,4.283,0,0,1,.27,1.57V24h-1.9V17.92a2.456,2.456,0,0,0-.57-1.77,2.3,2.3,0,0,0-1.73-.59,3.264,3.264,0,0,0-1.64.42,3.581,3.581,0,0,0-1.21,1.11,3.41,3.41,0,0,0-.57,1.55l-.02-1.1a4.7,4.7,0,0,1,.43-1.48,4.359,4.359,0,0,1,.84-1.19,3.481,3.481,0,0,1,1.19-.78A3.975,3.975,0,0,1,67.44,13.82Zm11.04,10.4a5.829,5.829,0,0,1-2.68-.62,4.8,4.8,0,0,1-1.94-1.78,5.167,5.167,0,0,1-.72-2.78,5.258,5.258,0,0,1,.72-2.81,4.78,4.78,0,0,1,1.94-1.79,5.829,5.829,0,0,1,2.68-.62,5.708,5.708,0,0,1,2.66.62,4.813,4.813,0,0,1,1.92,1.79,5.258,5.258,0,0,1,.72,2.81,5.167,5.167,0,0,1-.72,2.78,4.835,4.835,0,0,1-1.92,1.78A5.708,5.708,0,0,1,78.48,24.22Zm0-1.66a3.5,3.5,0,0,0,1.67-.41,3.15,3.15,0,0,0,1.24-1.2,3.671,3.671,0,0,0,.47-1.91,3.767,3.767,0,0,0-.47-1.94,3.2,3.2,0,0,0-1.24-1.22,3.432,3.432,0,0,0-1.67-.42,3.557,3.557,0,0,0-1.68.41,3.18,3.18,0,0,0-1.26,1.21,3.746,3.746,0,0,0-.48,1.96,3.671,3.671,0,0,0,.47,1.91,3.132,3.132,0,0,0,1.25,1.2A3.6,3.6,0,0,0,78.48,22.56Z" transform="translate(1375.986 5966.073)" fill="#fff"/>
        <path id="Caminho_1062" data-name="Caminho 1062" d="M-61.2-12.98h11.38v1.72H-61.2Zm4.72,1.52h1.94V0h-1.94Zm10.56-2.64v2.06H-48.3V-14.1Zm-2.14,4.12h1.9V0h-1.9ZM-33.68-3.8a4.24,4.24,0,0,1-.79,2.15A4.294,4.294,0,0,1-36.22-.26a5.845,5.845,0,0,1-2.4.48A5.908,5.908,0,0,1-41.3-.39a4.778,4.778,0,0,1-1.95-1.78,5.164,5.164,0,0,1-.73-2.79,5.2,5.2,0,0,1,.73-2.81A4.849,4.849,0,0,1-41.3-9.56a5.829,5.829,0,0,1,2.68-.62,5.706,5.706,0,0,1,2.38.48A4.47,4.47,0,0,1-34.5-8.33a4.212,4.212,0,0,1,.82,2.13h-1.74a3.254,3.254,0,0,0-1.21-1.71,3.306,3.306,0,0,0-1.99-.63,3.587,3.587,0,0,0-1.71.42,3.184,3.184,0,0,0-1.26,1.21,3.755,3.755,0,0,0-.47,1.95,3.671,3.671,0,0,0,.47,1.91,3.132,3.132,0,0,0,1.25,1.2,3.64,3.64,0,0,0,1.72.41,3.3,3.3,0,0,0,2.08-.62A3.362,3.362,0,0,0-35.4-3.8Zm2.24-10.18h1.9V0h-1.9Zm9.1,4-5.28,5.02.04-1.2L-21.96,0h-2.42L-29.5-5.58l4.5-4.4Zm9.06,6.74h1.82a3.863,3.863,0,0,1-.76,1.76A4.206,4.206,0,0,1-13.8-.24a5.364,5.364,0,0,1-2.3.46,5.749,5.749,0,0,1-2.78-.66A4.946,4.946,0,0,1-20.8-2.26a5.123,5.123,0,0,1-.7-2.7,5.335,5.335,0,0,1,.68-2.73,4.817,4.817,0,0,1,1.88-1.83,5.591,5.591,0,0,1,2.74-.66,5.333,5.333,0,0,1,2.72.64,3.855,3.855,0,0,1,1.63,1.89,7.007,7.007,0,0,1,.43,3.11H-19.6a3.662,3.662,0,0,0,.55,1.6,3.179,3.179,0,0,0,1.2,1.1,3.621,3.621,0,0,0,1.73.4,3.213,3.213,0,0,0,1.84-.5A2.457,2.457,0,0,0-13.28-3.24Zm-2.9-5.3a3.342,3.342,0,0,0-2.16.69,3.273,3.273,0,0,0-1.14,1.83h6.14a2.5,2.5,0,0,0-.88-1.87A3.008,3.008,0,0,0-16.18-8.54Zm5.9-1.44h6.46v1.66h-6.46ZM-8-12.62h1.9V0H-8ZM2.4-9.98H4.32V0H2.4Zm5.72-.2a4.545,4.545,0,0,1,1.52.24,3.113,3.113,0,0,1,1.16.71,3.26,3.26,0,0,1,.75,1.16,4.283,4.283,0,0,1,.27,1.57V0H9.92V-6.08a2.456,2.456,0,0,0-.57-1.77,2.3,2.3,0,0,0-1.73-.59,3.264,3.264,0,0,0-1.64.42A3.581,3.581,0,0,0,4.77-6.91,3.41,3.41,0,0,0,4.2-5.36l-.02-1.1a4.7,4.7,0,0,1,.43-1.48,4.358,4.358,0,0,1,.84-1.19,3.481,3.481,0,0,1,1.19-.78A3.975,3.975,0,0,1,8.12-10.18Zm7.32,0a4.545,4.545,0,0,1,1.52.24,3.113,3.113,0,0,1,1.16.71,3.26,3.26,0,0,1,.75,1.16,4.283,4.283,0,0,1,.27,1.57V0h-1.9V-6.08a2.456,2.456,0,0,0-.57-1.77,2.3,2.3,0,0,0-1.73-.59,3.264,3.264,0,0,0-1.64.42,3.581,3.581,0,0,0-1.21,1.11,3.41,3.41,0,0,0-.57,1.55L11.5-6.48a4.59,4.59,0,0,1,.43-1.47,4.3,4.3,0,0,1,.85-1.18,3.587,3.587,0,0,1,1.2-.78A3.92,3.92,0,0,1,15.44-10.18ZM29.36-3.24h1.82a3.863,3.863,0,0,1-.76,1.76A4.206,4.206,0,0,1,28.84-.24a5.364,5.364,0,0,1-2.3.46,5.749,5.749,0,0,1-2.78-.66,4.946,4.946,0,0,1-1.92-1.82,5.123,5.123,0,0,1-.7-2.7,5.335,5.335,0,0,1,.68-2.73A4.817,4.817,0,0,1,23.7-9.52a5.591,5.591,0,0,1,2.74-.66,5.333,5.333,0,0,1,2.72.64,3.855,3.855,0,0,1,1.63,1.89,7.007,7.007,0,0,1,.43,3.11H23.04a3.662,3.662,0,0,0,.55,1.6,3.179,3.179,0,0,0,1.2,1.1,3.621,3.621,0,0,0,1.73.4,3.213,3.213,0,0,0,1.84-.5A2.457,2.457,0,0,0,29.36-3.24Zm-2.9-5.3a3.342,3.342,0,0,0-2.16.69,3.273,3.273,0,0,0-1.14,1.83H29.3a2.5,2.5,0,0,0-.88-1.87A3.008,3.008,0,0,0,26.46-8.54Zm-1-3.48,2.3-3.2h2.5l-3.06,3.2ZM37.36.2A4.375,4.375,0,0,1,35-.46a4.622,4.622,0,0,1-1.67-1.83,5.735,5.735,0,0,1-.61-2.69,5.814,5.814,0,0,1,.6-2.69,4.676,4.676,0,0,1,1.64-1.84,4.333,4.333,0,0,1,2.4-.67,4.274,4.274,0,0,1,1.96.4,3,3,0,0,1,1.22,1.12A5.089,5.089,0,0,1,41.17-7a10.192,10.192,0,0,1,.19,2.02,7.85,7.85,0,0,1-.2,1.7,6.382,6.382,0,0,1-.64,1.7A3.484,3.484,0,0,1,39.3-.29,3.582,3.582,0,0,1,37.36.2Zm.54-1.66a3.239,3.239,0,0,0,1.79-.47A2.887,2.887,0,0,0,40.78-3.2a4.289,4.289,0,0,0,.36-1.78,4.389,4.389,0,0,0-.37-1.86,2.767,2.767,0,0,0-1.1-1.24,3.368,3.368,0,0,0-1.77-.44,2.989,2.989,0,0,0-2.41,1,3.785,3.785,0,0,0-.85,2.54,3.841,3.841,0,0,0,.42,1.83,3.176,3.176,0,0,0,1.15,1.24A3.155,3.155,0,0,0,37.9-1.46Zm3.24-12.52h1.92V0H41.3q-.06-.44-.11-1.08t-.05-1.1Zm7.08-.12v2.06H45.84V-14.1ZM46.08-9.98h1.9V0h-1.9ZM55.5.22A5.829,5.829,0,0,1,52.82-.4a4.8,4.8,0,0,1-1.94-1.78,5.167,5.167,0,0,1-.72-2.78,5.258,5.258,0,0,1,.72-2.81,4.78,4.78,0,0,1,1.94-1.79,5.829,5.829,0,0,1,2.68-.62,5.708,5.708,0,0,1,2.66.62,4.813,4.813,0,0,1,1.92,1.79,5.258,5.258,0,0,1,.72,2.81,5.167,5.167,0,0,1-.72,2.78A4.835,4.835,0,0,1,58.16-.4,5.708,5.708,0,0,1,55.5.22Zm0-1.66a3.5,3.5,0,0,0,1.67-.41,3.15,3.15,0,0,0,1.24-1.2,3.671,3.671,0,0,0,.47-1.91,3.767,3.767,0,0,0-.47-1.94,3.2,3.2,0,0,0-1.24-1.22,3.432,3.432,0,0,0-1.67-.42,3.557,3.557,0,0,0-1.68.41,3.18,3.18,0,0,0-1.26,1.21,3.746,3.746,0,0,0-.48,1.96,3.671,3.671,0,0,0,.47,1.91,3.132,3.132,0,0,0,1.25,1.2A3.6,3.6,0,0,0,55.5-1.44ZM-51.17,24.2a4.375,4.375,0,0,1-2.36-.66,4.622,4.622,0,0,1-1.67-1.83,5.735,5.735,0,0,1-.61-2.69,5.814,5.814,0,0,1,.6-2.69,4.676,4.676,0,0,1,1.64-1.84,4.333,4.333,0,0,1,2.4-.67,4.274,4.274,0,0,1,1.96.4,3,3,0,0,1,1.22,1.12A5.089,5.089,0,0,1-47.36,17a10.192,10.192,0,0,1,.19,2.02,7.85,7.85,0,0,1-.2,1.7,6.382,6.382,0,0,1-.64,1.7,3.484,3.484,0,0,1-1.22,1.29A3.581,3.581,0,0,1-51.17,24.2Zm.54-1.66a3.239,3.239,0,0,0,1.79-.47,2.887,2.887,0,0,0,1.09-1.27,4.289,4.289,0,0,0,.36-1.78,4.389,4.389,0,0,0-.37-1.86,2.767,2.767,0,0,0-1.1-1.24,3.368,3.368,0,0,0-1.77-.44,2.989,2.989,0,0,0-2.41,1,3.785,3.785,0,0,0-.85,2.54,3.841,3.841,0,0,0,.42,1.83,3.176,3.176,0,0,0,1.15,1.24A3.155,3.155,0,0,0-50.63,22.54Zm3.24-12.52h1.92V24h-1.76q-.06-.44-.11-1.08t-.05-1.1Zm8.9,14.18a4.34,4.34,0,0,1-2.34-.66,4.7,4.7,0,0,1-1.68-1.83,5.659,5.659,0,0,1-.62-2.69,5.585,5.585,0,0,1,.63-2.69,4.742,4.742,0,0,1,1.73-1.84,4.636,4.636,0,0,1,2.46-.67,3.51,3.51,0,0,1,2.33.7,3.682,3.682,0,0,1,1.16,1.88,9.717,9.717,0,0,1,.33,2.62,7.85,7.85,0,0,1-.2,1.7,6.382,6.382,0,0,1-.64,1.7,3.484,3.484,0,0,1-1.22,1.29A3.581,3.581,0,0,1-38.49,24.2Zm.54-1.66a3.239,3.239,0,0,0,1.79-.47,2.887,2.887,0,0,0,1.09-1.27,4.289,4.289,0,0,0,.36-1.78,4.389,4.389,0,0,0-.37-1.86,2.767,2.767,0,0,0-1.1-1.24,3.368,3.368,0,0,0-1.77-.44,2.989,2.989,0,0,0-2.41,1,3.785,3.785,0,0,0-.85,2.54,3.841,3.841,0,0,0,.42,1.83,3.176,3.176,0,0,0,1.15,1.24A3.155,3.155,0,0,0-37.95,22.54Zm3.24-8.52h1.92V24h-1.76l-.04-.37q-.04-.37-.08-.89t-.04-.92Zm16.52,6.74h1.82a3.863,3.863,0,0,1-.76,1.76,4.206,4.206,0,0,1-1.58,1.24,5.364,5.364,0,0,1-2.3.46,5.749,5.749,0,0,1-2.78-.66,4.946,4.946,0,0,1-1.92-1.82,5.123,5.123,0,0,1-.7-2.7,5.335,5.335,0,0,1,.68-2.73,4.817,4.817,0,0,1,1.88-1.83,5.591,5.591,0,0,1,2.74-.66,5.333,5.333,0,0,1,2.72.64,3.855,3.855,0,0,1,1.63,1.89,7.007,7.007,0,0,1,.43,3.11h-8.18a3.662,3.662,0,0,0,.55,1.6,3.179,3.179,0,0,0,1.2,1.1,3.621,3.621,0,0,0,1.73.4,3.213,3.213,0,0,0,1.84-.5A2.457,2.457,0,0,0-18.19,20.76Zm-2.9-5.3a3.342,3.342,0,0,0-2.16.69,3.273,3.273,0,0,0-1.14,1.83h6.14a2.5,2.5,0,0,0-.88-1.87A3.008,3.008,0,0,0-21.09,15.46Zm6.78-1.44h1.92V24h-1.92Zm5.72-.2a4.545,4.545,0,0,1,1.52.24,3.113,3.113,0,0,1,1.16.71,3.26,3.26,0,0,1,.75,1.16,4.283,4.283,0,0,1,.27,1.57V24h-1.9V17.92a2.456,2.456,0,0,0-.57-1.77,2.3,2.3,0,0,0-1.73-.59,3.264,3.264,0,0,0-1.64.42,3.581,3.581,0,0,0-1.21,1.11,3.41,3.41,0,0,0-.57,1.55l-.02-1.1a4.7,4.7,0,0,1,.43-1.48,4.358,4.358,0,0,1,.84-1.19,3.481,3.481,0,0,1,1.19-.78A3.975,3.975,0,0,1-8.59,13.82Zm7.32,0a4.545,4.545,0,0,1,1.52.24,3.113,3.113,0,0,1,1.16.71,3.26,3.26,0,0,1,.75,1.16,4.283,4.283,0,0,1,.27,1.57V24H.53V17.92a2.456,2.456,0,0,0-.57-1.77,2.3,2.3,0,0,0-1.73-.59,3.264,3.264,0,0,0-1.64.42,3.581,3.581,0,0,0-1.21,1.11,3.41,3.41,0,0,0-.57,1.55l-.02-1.12a4.59,4.59,0,0,1,.43-1.47,4.3,4.3,0,0,1,.85-1.18,3.587,3.587,0,0,1,1.2-.78A3.92,3.92,0,0,1-1.27,13.82Zm11.92,10.4a3.526,3.526,0,0,1-1.94-.5,3.563,3.563,0,0,1-1.22-1.3,6.382,6.382,0,0,1-.64-1.7,7.85,7.85,0,0,1-.2-1.7A10.192,10.192,0,0,1,6.84,17a5.089,5.089,0,0,1,.63-1.66,3,3,0,0,1,1.22-1.12,4.274,4.274,0,0,1,1.96-.4,4.228,4.228,0,0,1,2.34.67,4.886,4.886,0,0,1,1.67,1.85,5.6,5.6,0,0,1,.63,2.68,5.557,5.557,0,0,1-.64,2.71,4.873,4.873,0,0,1-1.69,1.83A4.255,4.255,0,0,1,10.65,24.22Zm-.54-1.68a3.206,3.206,0,0,0,1.7-.45,3.081,3.081,0,0,0,1.15-1.24,3.918,3.918,0,0,0,.41-1.83,3.785,3.785,0,0,0-.85-2.54,2.989,2.989,0,0,0-2.41-1,3.171,3.171,0,0,0-1.67.44,3.087,3.087,0,0,0-1.15,1.24,3.945,3.945,0,0,0-.42,1.86,4.172,4.172,0,0,0,.37,1.79,2.987,2.987,0,0,0,1.09,1.26A3.189,3.189,0,0,0,10.11,22.54ZM4.95,14.02H6.79l.08,2.26V28H4.95Zm12.34,0h1.92V24H17.29Zm5.3,1.7a3.15,3.15,0,0,0-1.77.48,3.764,3.764,0,0,0-1.16,1.18,4.372,4.372,0,0,0-.57,1.34l-.02-1.14q.02-.2.11-.63a4.911,4.911,0,0,1,.33-.97,4.549,4.549,0,0,1,.64-1.03,3.241,3.241,0,0,1,1-.81,3.022,3.022,0,0,1,1.44-.32Zm9.44,5.04h1.82a3.863,3.863,0,0,1-.76,1.76,4.206,4.206,0,0,1-1.58,1.24,5.364,5.364,0,0,1-2.3.46,5.749,5.749,0,0,1-2.78-.66,4.946,4.946,0,0,1-1.92-1.82,5.123,5.123,0,0,1-.7-2.7,5.335,5.335,0,0,1,.68-2.73,4.817,4.817,0,0,1,1.88-1.83,5.591,5.591,0,0,1,2.74-.66,5.333,5.333,0,0,1,2.72.64,3.855,3.855,0,0,1,1.63,1.89,7.007,7.007,0,0,1,.43,3.11H25.71a3.662,3.662,0,0,0,.55,1.6,3.179,3.179,0,0,0,1.2,1.1,3.621,3.621,0,0,0,1.73.4,3.213,3.213,0,0,0,1.84-.5A2.457,2.457,0,0,0,32.03,20.76Zm-2.9-5.3a3.342,3.342,0,0,0-2.16.69,3.273,3.273,0,0,0-1.14,1.83h6.14a2.5,2.5,0,0,0-.88-1.87A3.008,3.008,0,0,0,29.13,15.46Zm6.34,5.3h1.76a1.951,1.951,0,0,0,.72,1.31,2.667,2.667,0,0,0,1.74.51,2.948,2.948,0,0,0,1.12-.17,1.133,1.133,0,0,0,.57-.47,1.315,1.315,0,0,0,.17-.66.984.984,0,0,0-.24-.71,1.855,1.855,0,0,0-.68-.42,10.235,10.235,0,0,0-1.04-.33q-.66-.18-1.32-.42a6.551,6.551,0,0,1-1.21-.58,2.754,2.754,0,0,1-.88-.85,2.253,2.253,0,0,1-.33-1.25,2.558,2.558,0,0,1,.27-1.16,2.663,2.663,0,0,1,.78-.93,3.77,3.77,0,0,1,1.19-.6,5.066,5.066,0,0,1,1.5-.21,4.089,4.089,0,0,1,1.92.41,2.831,2.831,0,0,1,1.19,1.15,3.609,3.609,0,0,1,.43,1.7H41.45a2.034,2.034,0,0,0-.58-1.23,1.939,1.939,0,0,0-1.32-.39,2.194,2.194,0,0,0-1.32.34,1.085,1.085,0,0,0-.46.92.884.884,0,0,0,.32.71,2.879,2.879,0,0,0,.86.47q.54.2,1.22.42.64.22,1.23.45a5.638,5.638,0,0,1,1.06.54,2.241,2.241,0,0,1,.74.8,2.479,2.479,0,0,1,.27,1.21,2.664,2.664,0,0,1-.44,1.53,2.857,2.857,0,0,1-1.27,1.01,5.04,5.04,0,0,1-2.01.36,5.626,5.626,0,0,1-1.83-.26,4.046,4.046,0,0,1-1.26-.68,3.3,3.3,0,0,1-.78-.89,3.075,3.075,0,0,1-.36-.91A2.181,2.181,0,0,1,35.47,20.76ZM49.61,24.2a4.34,4.34,0,0,1-2.34-.66,4.7,4.7,0,0,1-1.68-1.83,5.659,5.659,0,0,1-.62-2.69,5.585,5.585,0,0,1,.63-2.69,4.742,4.742,0,0,1,1.73-1.84,4.636,4.636,0,0,1,2.46-.67,3.51,3.51,0,0,1,2.33.7,3.682,3.682,0,0,1,1.16,1.88,9.717,9.717,0,0,1,.33,2.62,7.85,7.85,0,0,1-.2,1.7,6.382,6.382,0,0,1-.64,1.7,3.484,3.484,0,0,1-1.22,1.29A3.581,3.581,0,0,1,49.61,24.2Zm.54-1.66a3.239,3.239,0,0,0,1.79-.47,2.887,2.887,0,0,0,1.09-1.27,4.289,4.289,0,0,0,.36-1.78,4.389,4.389,0,0,0-.37-1.86,2.767,2.767,0,0,0-1.1-1.24,3.368,3.368,0,0,0-1.77-.44,2.989,2.989,0,0,0-2.41,1,3.785,3.785,0,0,0-.85,2.54,3.841,3.841,0,0,0,.42,1.83,3.1,3.1,0,0,0,2.84,1.69Zm3.24-8.52h1.92V24H53.55l-.04-.37q-.04-.37-.08-.89t-.04-.92Z" transform="translate(1155.986 5966.073)" fill="#fff"/>
        <g id="Grupo_190" data-name="Grupo 190" transform="translate(984.477 6004)">
          <circle id="Elipse_49" data-name="Elipse 49" cx="10.37" cy="10.37" r="10.37" transform="translate(253.51 -42.927)" fill="#fff"/>
          <text id="x" transform="translate(259.51 -29.11)" fill="#f41f45" font-size="13" font-family="Syne-Bold, Syne" font-weight="700"><tspan x="0" y="0">x</tspan></text>
        </g>
      </g>
      <g id="Grupo_456" data-name="Grupo 456" transform="translate(46.98 1.176)">
        <path id="Caminho_1064" data-name="Caminho 1064" d="M-74.1-1.08h-.82l6.38-11.9h1.92V0h-1.92V-9.96l.42.1L-73.5,0h-2.02L-80.9-9.84l.42-.1V0H-82.4V-12.98h1.92Zm18.02-2.16h1.82a3.863,3.863,0,0,1-.76,1.76A4.206,4.206,0,0,1-56.6-.24a5.364,5.364,0,0,1-2.3.46,5.749,5.749,0,0,1-2.78-.66A4.946,4.946,0,0,1-63.6-2.26a5.123,5.123,0,0,1-.7-2.7,5.335,5.335,0,0,1,.68-2.73,4.818,4.818,0,0,1,1.88-1.83A5.591,5.591,0,0,1-59-10.18a5.333,5.333,0,0,1,2.72.64,3.855,3.855,0,0,1,1.63,1.89,7.007,7.007,0,0,1,.43,3.11H-62.4a3.662,3.662,0,0,0,.55,1.6,3.179,3.179,0,0,0,1.2,1.1,3.621,3.621,0,0,0,1.73.4,3.213,3.213,0,0,0,1.84-.5A2.457,2.457,0,0,0-56.08-3.24Zm-2.9-5.3a3.342,3.342,0,0,0-2.16.69,3.273,3.273,0,0,0-1.14,1.83h6.14a2.5,2.5,0,0,0-.88-1.87A3.008,3.008,0,0,0-58.98-8.54Zm-1-3.48,2.3-3.2h2.5l-3.06,3.2ZM-48.08.2a4.375,4.375,0,0,1-2.36-.66,4.622,4.622,0,0,1-1.67-1.83,5.735,5.735,0,0,1-.61-2.69,5.814,5.814,0,0,1,.6-2.69,4.676,4.676,0,0,1,1.64-1.84,4.333,4.333,0,0,1,2.4-.67,4.274,4.274,0,0,1,1.96.4A3,3,0,0,1-44.9-8.66,5.089,5.089,0,0,1-44.27-7a10.192,10.192,0,0,1,.19,2.02,7.85,7.85,0,0,1-.2,1.7,6.382,6.382,0,0,1-.64,1.7A3.484,3.484,0,0,1-46.14-.29,3.582,3.582,0,0,1-48.08.2Zm.54-1.66a3.239,3.239,0,0,0,1.79-.47A2.887,2.887,0,0,0-44.66-3.2a4.289,4.289,0,0,0,.36-1.78,4.389,4.389,0,0,0-.37-1.86,2.767,2.767,0,0,0-1.1-1.24,3.368,3.368,0,0,0-1.77-.44,2.989,2.989,0,0,0-2.41,1,3.785,3.785,0,0,0-.85,2.54,3.841,3.841,0,0,0,.42,1.83,3.176,3.176,0,0,0,1.15,1.24A3.155,3.155,0,0,0-47.54-1.46Zm3.24-12.52h1.92V0h-1.76q-.06-.44-.11-1.08t-.05-1.1Zm7.08-.12v2.06H-39.6V-14.1Zm-2.14,4.12h1.9V0h-1.9ZM-30.64.2a4.34,4.34,0,0,1-2.34-.66,4.7,4.7,0,0,1-1.68-1.83,5.659,5.659,0,0,1-.62-2.69,5.585,5.585,0,0,1,.63-2.69,4.742,4.742,0,0,1,1.73-1.84,4.636,4.636,0,0,1,2.46-.67,3.51,3.51,0,0,1,2.33.7A3.682,3.682,0,0,1-26.97-7.6a9.717,9.717,0,0,1,.33,2.62,7.85,7.85,0,0,1-.2,1.7,6.382,6.382,0,0,1-.64,1.7A3.484,3.484,0,0,1-28.7-.29,3.582,3.582,0,0,1-30.64.2Zm.54-1.66a3.239,3.239,0,0,0,1.79-.47A2.887,2.887,0,0,0-27.22-3.2a4.289,4.289,0,0,0,.36-1.78,4.389,4.389,0,0,0-.37-1.86,2.767,2.767,0,0,0-1.1-1.24,3.368,3.368,0,0,0-1.77-.44,2.989,2.989,0,0,0-2.41,1,3.785,3.785,0,0,0-.85,2.54,3.841,3.841,0,0,0,.42,1.83,3.176,3.176,0,0,0,1.15,1.24A3.155,3.155,0,0,0-30.1-1.46Zm3.24-8.52h1.92V0H-26.7l-.04-.37q-.04-.37-.08-.89t-.04-.92ZM-13.92.2a4.375,4.375,0,0,1-2.36-.66,4.622,4.622,0,0,1-1.67-1.83,5.735,5.735,0,0,1-.61-2.69,5.813,5.813,0,0,1,.6-2.69,4.676,4.676,0,0,1,1.64-1.84,4.333,4.333,0,0,1,2.4-.67,4.274,4.274,0,0,1,1.96.4,3,3,0,0,1,1.22,1.12A5.089,5.089,0,0,1-10.11-7a10.192,10.192,0,0,1,.19,2.02,7.85,7.85,0,0,1-.2,1.7,6.382,6.382,0,0,1-.64,1.7A3.484,3.484,0,0,1-11.98-.29,3.582,3.582,0,0,1-13.92.2Zm.54-1.66a3.239,3.239,0,0,0,1.79-.47A2.887,2.887,0,0,0-10.5-3.2a4.289,4.289,0,0,0,.36-1.78,4.389,4.389,0,0,0-.37-1.86,2.767,2.767,0,0,0-1.1-1.24,3.368,3.368,0,0,0-1.77-.44,2.989,2.989,0,0,0-2.41,1,3.785,3.785,0,0,0-.85,2.54,3.841,3.841,0,0,0,.42,1.83,3.176,3.176,0,0,0,1.15,1.24A3.155,3.155,0,0,0-13.38-1.46Zm3.24-12.52h1.92V0H-9.98q-.06-.44-.11-1.08t-.05-1.1ZM2.34-3.24H4.16A3.863,3.863,0,0,1,3.4-1.48,4.206,4.206,0,0,1,1.82-.24,5.364,5.364,0,0,1-.48.22,5.749,5.749,0,0,1-3.26-.44,4.946,4.946,0,0,1-5.18-2.26a5.123,5.123,0,0,1-.7-2.7A5.335,5.335,0,0,1-5.2-7.69,4.817,4.817,0,0,1-3.32-9.52a5.591,5.591,0,0,1,2.74-.66,5.333,5.333,0,0,1,2.72.64A3.855,3.855,0,0,1,3.77-7.65,7.007,7.007,0,0,1,4.2-4.54H-3.98a3.662,3.662,0,0,0,.55,1.6,3.179,3.179,0,0,0,1.2,1.1,3.621,3.621,0,0,0,1.73.4,3.213,3.213,0,0,0,1.84-.5A2.457,2.457,0,0,0,2.34-3.24Zm-2.9-5.3a3.342,3.342,0,0,0-2.16.69A3.273,3.273,0,0,0-3.86-6.02H2.28A2.5,2.5,0,0,0,1.4-7.89,3.008,3.008,0,0,0-.56-8.54ZM14.74.2A4.34,4.34,0,0,1,12.4-.46a4.7,4.7,0,0,1-1.68-1.83,5.659,5.659,0,0,1-.62-2.69,5.585,5.585,0,0,1,.63-2.69,4.742,4.742,0,0,1,1.73-1.84,4.636,4.636,0,0,1,2.46-.67,3.51,3.51,0,0,1,2.33.7A3.682,3.682,0,0,1,18.41-7.6a9.717,9.717,0,0,1,.33,2.62,7.85,7.85,0,0,1-.2,1.7,6.382,6.382,0,0,1-.64,1.7A3.484,3.484,0,0,1,16.68-.29,3.582,3.582,0,0,1,14.74.2Zm.54-1.66a3.239,3.239,0,0,0,1.79-.47A2.887,2.887,0,0,0,18.16-3.2a4.289,4.289,0,0,0,.36-1.78,4.389,4.389,0,0,0-.37-1.86,2.767,2.767,0,0,0-1.1-1.24,3.368,3.368,0,0,0-1.77-.44,2.989,2.989,0,0,0-2.41,1,3.785,3.785,0,0,0-.85,2.54,3.841,3.841,0,0,0,.42,1.83,3.176,3.176,0,0,0,1.15,1.24A3.155,3.155,0,0,0,15.28-1.46Zm3.24-8.52h1.92V0H18.68l-.04-.37q-.04-.37-.08-.89t-.04-.92Zm4.42,0h1.92V0H22.94Zm5.72-.2a4.545,4.545,0,0,1,1.52.24,3.113,3.113,0,0,1,1.16.71,3.26,3.26,0,0,1,.75,1.16,4.283,4.283,0,0,1,.27,1.57V0h-1.9V-6.08a2.456,2.456,0,0,0-.57-1.77,2.3,2.3,0,0,0-1.73-.59,3.264,3.264,0,0,0-1.64.42,3.581,3.581,0,0,0-1.21,1.11,3.41,3.41,0,0,0-.57,1.55l-.02-1.1a4.7,4.7,0,0,1,.43-1.48,4.358,4.358,0,0,1,.84-1.19,3.481,3.481,0,0,1,1.19-.78A3.975,3.975,0,0,1,28.66-10.18ZM39.7.22A5.829,5.829,0,0,1,37.02-.4a4.8,4.8,0,0,1-1.94-1.78,5.167,5.167,0,0,1-.72-2.78,5.258,5.258,0,0,1,.72-2.81,4.78,4.78,0,0,1,1.94-1.79,5.829,5.829,0,0,1,2.68-.62,5.708,5.708,0,0,1,2.66.62,4.813,4.813,0,0,1,1.92,1.79A5.258,5.258,0,0,1,45-4.96a5.167,5.167,0,0,1-.72,2.78A4.835,4.835,0,0,1,42.36-.4,5.708,5.708,0,0,1,39.7.22Zm0-1.66a3.5,3.5,0,0,0,1.67-.41,3.15,3.15,0,0,0,1.24-1.2,3.671,3.671,0,0,0,.47-1.91,3.767,3.767,0,0,0-.47-1.94,3.2,3.2,0,0,0-1.24-1.22,3.432,3.432,0,0,0-1.67-.42,3.557,3.557,0,0,0-1.68.41,3.18,3.18,0,0,0-1.26,1.21,3.746,3.746,0,0,0-.48,1.96,3.671,3.671,0,0,0,.47,1.91A3.132,3.132,0,0,0,38-1.85,3.6,3.6,0,0,0,39.7-1.44Zm6.86-1.8h1.76a1.951,1.951,0,0,0,.72,1.31,2.667,2.667,0,0,0,1.74.51,2.948,2.948,0,0,0,1.12-.17,1.133,1.133,0,0,0,.57-.47,1.315,1.315,0,0,0,.17-.66.984.984,0,0,0-.24-.71,1.855,1.855,0,0,0-.68-.42,10.235,10.235,0,0,0-1.04-.33q-.66-.18-1.32-.42a6.551,6.551,0,0,1-1.21-.58,2.754,2.754,0,0,1-.88-.85,2.253,2.253,0,0,1-.33-1.25,2.558,2.558,0,0,1,.27-1.16,2.663,2.663,0,0,1,.78-.93,3.77,3.77,0,0,1,1.19-.6,5.066,5.066,0,0,1,1.5-.21,4.089,4.089,0,0,1,1.92.41,2.831,2.831,0,0,1,1.19,1.15,3.609,3.609,0,0,1,.43,1.7H52.54a2.034,2.034,0,0,0-.58-1.23,1.939,1.939,0,0,0-1.32-.39,2.194,2.194,0,0,0-1.32.34,1.085,1.085,0,0,0-.46.92.884.884,0,0,0,.32.71,2.879,2.879,0,0,0,.86.47q.54.2,1.22.42.64.22,1.23.45a5.638,5.638,0,0,1,1.06.54,2.241,2.241,0,0,1,.74.8,2.479,2.479,0,0,1,.27,1.21,2.664,2.664,0,0,1-.44,1.53A2.857,2.857,0,0,1,52.85-.14a5.04,5.04,0,0,1-2.01.36,5.626,5.626,0,0,1-1.83-.26,4.046,4.046,0,0,1-1.26-.68,3.3,3.3,0,0,1-.78-.89,3.075,3.075,0,0,1-.36-.91A2.181,2.181,0,0,1,46.56-3.24ZM65.1.2a4.375,4.375,0,0,1-2.36-.66,4.622,4.622,0,0,1-1.67-1.83,5.735,5.735,0,0,1-.61-2.69,5.814,5.814,0,0,1,.6-2.69A4.676,4.676,0,0,1,62.7-9.51a4.333,4.333,0,0,1,2.4-.67,4.274,4.274,0,0,1,1.96.4,3,3,0,0,1,1.22,1.12A5.089,5.089,0,0,1,68.91-7a10.192,10.192,0,0,1,.19,2.02,7.85,7.85,0,0,1-.2,1.7,6.382,6.382,0,0,1-.64,1.7A3.484,3.484,0,0,1,67.04-.29,3.581,3.581,0,0,1,65.1.2Zm.54-1.66a3.239,3.239,0,0,0,1.79-.47A2.887,2.887,0,0,0,68.52-3.2a4.289,4.289,0,0,0,.36-1.78,4.389,4.389,0,0,0-.37-1.86,2.767,2.767,0,0,0-1.1-1.24,3.368,3.368,0,0,0-1.77-.44,2.989,2.989,0,0,0-2.41,1,3.785,3.785,0,0,0-.85,2.54,3.841,3.841,0,0,0,.42,1.83,3.176,3.176,0,0,0,1.15,1.24A3.155,3.155,0,0,0,65.64-1.46Zm3.24-12.52H70.8V0H69.04q-.06-.44-.11-1.08t-.05-1.1ZM81.36-3.24h1.82a3.863,3.863,0,0,1-.76,1.76A4.206,4.206,0,0,1,80.84-.24a5.364,5.364,0,0,1-2.3.46,5.749,5.749,0,0,1-2.78-.66,4.946,4.946,0,0,1-1.92-1.82,5.123,5.123,0,0,1-.7-2.7,5.335,5.335,0,0,1,.68-2.73A4.817,4.817,0,0,1,75.7-9.52a5.591,5.591,0,0,1,2.74-.66,5.333,5.333,0,0,1,2.72.64,3.855,3.855,0,0,1,1.63,1.89,7.007,7.007,0,0,1,.43,3.11H75.04a3.662,3.662,0,0,0,.55,1.6,3.179,3.179,0,0,0,1.2,1.1,3.621,3.621,0,0,0,1.73.4,3.213,3.213,0,0,0,1.84-.5A2.457,2.457,0,0,0,81.36-3.24Zm-2.9-5.3a3.342,3.342,0,0,0-2.16.69,3.273,3.273,0,0,0-1.14,1.83H81.3a2.5,2.5,0,0,0-.88-1.87A3.008,3.008,0,0,0,78.46-8.54ZM-74.25,14.02h1.92V24h-1.92Zm5.3,1.7a3.15,3.15,0,0,0-1.77.48,3.763,3.763,0,0,0-1.16,1.18,4.372,4.372,0,0,0-.57,1.34l-.02-1.14q.02-.2.11-.63a4.911,4.911,0,0,1,.33-.97,4.549,4.549,0,0,1,.64-1.03,3.241,3.241,0,0,1,1-.81,3.022,3.022,0,0,1,1.44-.32Zm9.44,5.04h1.82a3.863,3.863,0,0,1-.76,1.76,4.206,4.206,0,0,1-1.58,1.24,5.364,5.364,0,0,1-2.3.46,5.749,5.749,0,0,1-2.78-.66,4.946,4.946,0,0,1-1.92-1.82,5.123,5.123,0,0,1-.7-2.7,5.335,5.335,0,0,1,.68-2.73,4.817,4.817,0,0,1,1.88-1.83,5.591,5.591,0,0,1,2.74-.66,5.333,5.333,0,0,1,2.72.64,3.855,3.855,0,0,1,1.63,1.89,7.007,7.007,0,0,1,.43,3.11h-8.18a3.662,3.662,0,0,0,.55,1.6,3.179,3.179,0,0,0,1.2,1.1,3.621,3.621,0,0,0,1.73.4,3.213,3.213,0,0,0,1.84-.5A2.457,2.457,0,0,0-59.51,20.76Zm-2.9-5.3a3.342,3.342,0,0,0-2.16.69,3.273,3.273,0,0,0-1.14,1.83h6.14a2.5,2.5,0,0,0-.88-1.87A3.008,3.008,0,0,0-62.41,15.46Zm6.98-5.44h1.92V24h-1.92Zm8.78,14.18a4.34,4.34,0,0,1-2.34-.66,4.7,4.7,0,0,1-1.68-1.83,5.659,5.659,0,0,1-.62-2.69,5.585,5.585,0,0,1,.63-2.69,4.742,4.742,0,0,1,1.73-1.84,4.636,4.636,0,0,1,2.46-.67,3.51,3.51,0,0,1,2.33.7,3.682,3.682,0,0,1,1.16,1.88,9.716,9.716,0,0,1,.33,2.62,7.85,7.85,0,0,1-.2,1.7,6.382,6.382,0,0,1-.64,1.7,3.484,3.484,0,0,1-1.22,1.29A3.581,3.581,0,0,1-46.65,24.2Zm.54-1.66a3.239,3.239,0,0,0,1.79-.47,2.887,2.887,0,0,0,1.09-1.27,4.289,4.289,0,0,0,.36-1.78,4.389,4.389,0,0,0-.37-1.86,2.767,2.767,0,0,0-1.1-1.24,3.368,3.368,0,0,0-1.77-.44,2.989,2.989,0,0,0-2.41,1,3.785,3.785,0,0,0-.85,2.54,3.841,3.841,0,0,0,.42,1.83,3.176,3.176,0,0,0,1.15,1.24A3.155,3.155,0,0,0-46.11,22.54Zm3.24-8.52h1.92V24h-1.76l-.04-.37q-.04-.37-.08-.89t-.04-.92Zm14.2,6.18a4.24,4.24,0,0,1-.79,2.15,4.294,4.294,0,0,1-1.75,1.39,5.845,5.845,0,0,1-2.4.48,5.908,5.908,0,0,1-2.68-.61,4.778,4.778,0,0,1-1.95-1.78,5.164,5.164,0,0,1-.73-2.79,5.2,5.2,0,0,1,.73-2.81,4.849,4.849,0,0,1,1.95-1.79,5.829,5.829,0,0,1,2.68-.62,5.706,5.706,0,0,1,2.38.48,4.47,4.47,0,0,1,1.74,1.37,4.212,4.212,0,0,1,.82,2.13h-1.74a3.254,3.254,0,0,0-1.21-1.71,3.306,3.306,0,0,0-1.99-.63,3.587,3.587,0,0,0-1.71.42,3.184,3.184,0,0,0-1.26,1.21,3.755,3.755,0,0,0-.47,1.95,3.671,3.671,0,0,0,.47,1.91,3.132,3.132,0,0,0,1.25,1.2,3.64,3.64,0,0,0,1.72.41,3.3,3.3,0,0,0,2.08-.62,3.362,3.362,0,0,0,1.14-1.74Zm4.3-10.3v2.06h-2.38V9.9Zm-2.14,4.12h1.9V24h-1.9Zm9.42,10.2a5.829,5.829,0,0,1-2.68-.62,4.8,4.8,0,0,1-1.94-1.78,5.167,5.167,0,0,1-.72-2.78,5.258,5.258,0,0,1,.72-2.81,4.78,4.78,0,0,1,1.94-1.79,5.829,5.829,0,0,1,2.68-.62,5.708,5.708,0,0,1,2.66.62,4.813,4.813,0,0,1,1.92,1.79,5.258,5.258,0,0,1,.72,2.81,5.167,5.167,0,0,1-.72,2.78,4.835,4.835,0,0,1-1.92,1.78A5.708,5.708,0,0,1-17.09,24.22Zm0-1.66a3.5,3.5,0,0,0,1.67-.41,3.15,3.15,0,0,0,1.24-1.2,3.671,3.671,0,0,0,.47-1.91,3.767,3.767,0,0,0-.47-1.94,3.2,3.2,0,0,0-1.24-1.22,3.432,3.432,0,0,0-1.67-.42,3.557,3.557,0,0,0-1.68.41,3.18,3.18,0,0,0-1.26,1.21,3.746,3.746,0,0,0-.48,1.96,3.671,3.671,0,0,0,.47,1.91,3.132,3.132,0,0,0,1.25,1.2A3.6,3.6,0,0,0-17.09,22.56Zm7.3-8.54h1.92V24H-9.79Zm5.72-.2a4.545,4.545,0,0,1,1.52.24,3.113,3.113,0,0,1,1.16.71,3.26,3.26,0,0,1,.75,1.16A4.283,4.283,0,0,1-.37,17.5V24h-1.9V17.92a2.456,2.456,0,0,0-.57-1.77,2.3,2.3,0,0,0-1.73-.59,3.264,3.264,0,0,0-1.64.42,3.581,3.581,0,0,0-1.21,1.11,3.41,3.41,0,0,0-.57,1.55l-.02-1.1a4.7,4.7,0,0,1,.43-1.48,4.358,4.358,0,0,1,.84-1.19,3.481,3.481,0,0,1,1.19-.78A3.975,3.975,0,0,1-4.07,13.82ZM6.27,24.2a4.34,4.34,0,0,1-2.34-.66,4.7,4.7,0,0,1-1.68-1.83,5.659,5.659,0,0,1-.62-2.69,5.585,5.585,0,0,1,.63-2.69,4.742,4.742,0,0,1,1.73-1.84,4.636,4.636,0,0,1,2.46-.67,3.51,3.51,0,0,1,2.33.7A3.682,3.682,0,0,1,9.94,16.4a9.717,9.717,0,0,1,.33,2.62,7.85,7.85,0,0,1-.2,1.7,6.382,6.382,0,0,1-.64,1.7,3.484,3.484,0,0,1-1.22,1.29A3.582,3.582,0,0,1,6.27,24.2Zm.54-1.66a3.239,3.239,0,0,0,1.79-.47A2.887,2.887,0,0,0,9.69,20.8a4.289,4.289,0,0,0,.36-1.78,4.389,4.389,0,0,0-.37-1.86,2.767,2.767,0,0,0-1.1-1.24,3.368,3.368,0,0,0-1.77-.44,2.989,2.989,0,0,0-2.41,1,3.785,3.785,0,0,0-.85,2.54,3.841,3.841,0,0,0,.42,1.83,3.1,3.1,0,0,0,2.84,1.69Zm3.24-8.52h1.92V24H10.21l-.04-.37q-.04-.37-.08-.89t-.04-.92Zm4.42,0h1.92V24H14.47Zm5.72-.2a4.545,4.545,0,0,1,1.52.24,3.113,3.113,0,0,1,1.16.71,3.26,3.26,0,0,1,.75,1.16,4.283,4.283,0,0,1,.27,1.57V24h-1.9V17.92a2.456,2.456,0,0,0-.57-1.77,2.3,2.3,0,0,0-1.73-.59,3.264,3.264,0,0,0-1.64.42,3.581,3.581,0,0,0-1.21,1.11,3.41,3.41,0,0,0-.57,1.55l-.02-1.1a4.7,4.7,0,0,1,.43-1.48,4.358,4.358,0,0,1,.84-1.19,3.481,3.481,0,0,1,1.19-.78A3.975,3.975,0,0,1,20.19,13.82Zm7.32,0a4.545,4.545,0,0,1,1.52.24,3.113,3.113,0,0,1,1.16.71,3.26,3.26,0,0,1,.75,1.16,4.283,4.283,0,0,1,.27,1.57V24h-1.9V17.92a2.456,2.456,0,0,0-.57-1.77,2.3,2.3,0,0,0-1.73-.59,3.264,3.264,0,0,0-1.64.42,3.581,3.581,0,0,0-1.21,1.11,3.41,3.41,0,0,0-.57,1.55l-.02-1.12A4.59,4.59,0,0,1,24,16.05a4.3,4.3,0,0,1,.85-1.18,3.587,3.587,0,0,1,1.2-.78A3.92,3.92,0,0,1,27.51,13.82Zm13.92,6.94h1.82a3.863,3.863,0,0,1-.76,1.76,4.206,4.206,0,0,1-1.58,1.24,5.364,5.364,0,0,1-2.3.46,5.749,5.749,0,0,1-2.78-.66,4.946,4.946,0,0,1-1.92-1.82,5.123,5.123,0,0,1-.7-2.7,5.335,5.335,0,0,1,.68-2.73,4.818,4.818,0,0,1,1.88-1.83,5.591,5.591,0,0,1,2.74-.66,5.333,5.333,0,0,1,2.72.64,3.855,3.855,0,0,1,1.63,1.89,7.007,7.007,0,0,1,.43,3.11H35.11a3.662,3.662,0,0,0,.55,1.6,3.179,3.179,0,0,0,1.2,1.1,3.621,3.621,0,0,0,1.73.4,3.213,3.213,0,0,0,1.84-.5A2.457,2.457,0,0,0,41.43,20.76Zm-2.9-5.3a3.342,3.342,0,0,0-2.16.69,3.273,3.273,0,0,0-1.14,1.83h6.14a2.5,2.5,0,0,0-.88-1.87A3.008,3.008,0,0,0,38.53,15.46Zm6.78-1.44h1.92V24H45.31Zm5.72-.2a4.545,4.545,0,0,1,1.52.24,3.113,3.113,0,0,1,1.16.71,3.26,3.26,0,0,1,.75,1.16,4.283,4.283,0,0,1,.27,1.57V24h-1.9V17.92a2.456,2.456,0,0,0-.57-1.77,2.3,2.3,0,0,0-1.73-.59,3.264,3.264,0,0,0-1.64.42,3.581,3.581,0,0,0-1.21,1.11,3.41,3.41,0,0,0-.57,1.55l-.02-1.1a4.7,4.7,0,0,1,.43-1.48,4.358,4.358,0,0,1,.84-1.19,3.481,3.481,0,0,1,1.19-.78A3.975,3.975,0,0,1,51.03,13.82Zm5.52.2h6.46v1.66H56.55Zm2.28-2.64h1.9V24h-1.9ZM69.47,24.22a5.829,5.829,0,0,1-2.68-.62,4.8,4.8,0,0,1-1.94-1.78,5.167,5.167,0,0,1-.72-2.78,5.258,5.258,0,0,1,.72-2.81,4.78,4.78,0,0,1,1.94-1.79,5.829,5.829,0,0,1,2.68-.62,5.708,5.708,0,0,1,2.66.62,4.813,4.813,0,0,1,1.92,1.79,5.258,5.258,0,0,1,.72,2.81,5.167,5.167,0,0,1-.72,2.78,4.835,4.835,0,0,1-1.92,1.78A5.708,5.708,0,0,1,69.47,24.22Zm0-1.66a3.5,3.5,0,0,0,1.67-.41,3.15,3.15,0,0,0,1.24-1.2,3.671,3.671,0,0,0,.47-1.91,3.767,3.767,0,0,0-.47-1.94,3.2,3.2,0,0,0-1.24-1.22,3.432,3.432,0,0,0-1.67-.42,3.557,3.557,0,0,0-1.68.41,3.18,3.18,0,0,0-1.26,1.21,3.746,3.746,0,0,0-.48,1.96,3.671,3.671,0,0,0,.47,1.91,3.132,3.132,0,0,0,1.25,1.2A3.6,3.6,0,0,0,69.47,22.56Z" transform="translate(1270.198 6037.989)" fill="#fff"/>
        <g id="Grupo_454" data-name="Grupo 454" transform="translate(892.107 6072.245)">
          <circle id="Elipse_49-2" data-name="Elipse 49" cx="10.37" cy="10.37" r="10.37" transform="translate(253.51 -42.927)" fill="#fff"/>
          <text id="x-2" data-name="x" transform="translate(259.51 -29.11)" fill="#f41f45" font-size="13" font-family="Syne-Bold, Syne" font-weight="700"><tspan x="0" y="0">x</tspan></text>
        </g>
      </g>
    </g>
  </g>
</svg>
