<?xml version="1.0" encoding="utf-8"?>
<!-- Generator: Adobe Illustrator 26.2.1, SVG Export Plug-In . SVG Version: 6.00 Build 0)  -->
<svg version="1.1" id="Camada_1" xmlns="http://www.w3.org/2000/svg" xmlns:xlink="http://www.w3.org/1999/xlink" x="0px" y="0px"
	 viewBox="0 0 68.6 68.6" style="enable-background:new 0 0 68.6 68.6;" xml:space="preserve">
<style type="text/css">
	.st0{fill:#383838;}
	.st1{fill:none;stroke:#6F6AEE;stroke-width:2;stroke-miterlimit:10;}
	.st2{fill:#6F6AEE;}
</style>
<g id="Grupo_549" transform="translate(-895.708 -9460.15)">
	<g transform="matrix(1, 0, 0, 1, 895.71, 9460.15)">
		<path id="Retângulo_534-2" class="st0" d="M34.3,0L34.3,0c18.9,0,34.3,15.4,34.3,34.3l0,0c0,18.9-15.4,34.3-34.3,34.3l0,0
			C15.4,68.6,0,53.2,0,34.3l0,0C0,15.4,15.4,0,34.3,0z"/>
	</g>
	<path id="Retângulo_535" class="st1" d="M930,9467.4L930,9467.4c14.9,0,27,12.1,27,27l0,0c0,14.9-12.1,27-27,27l0,0
		c-14.9,0-27-12.1-27-27l0,0C903,9479.5,915.1,9467.4,930,9467.4z"/>
	<g id="Grupo_548">
		<g id="Grupo_547">
			<path id="Caminho_1190" class="st2" d="M917.5,9495.6c0-7.5,4-10.3,10.5-10.5l0.8,3.8c-3.3,0.4-5,1.9-5,4.5v0.4h3.8v10.1h-10.1
				V9495.6z M931.2,9495.6c0-7.5,4.1-10.3,10.5-10.5l0.8,3.8c-3.4,0.4-5.1,2-5.1,4.6v0.3h3.8v10.1h-10.1V9495.6z"/>
		</g>
	</g>
</g>
</svg>
