<svg xmlns="http://www.w3.org/2000/svg" width="1166.465" height="842.143" viewBox="0 0 1166.465 842.143">
  <g id="Grupo_28" data-name="Grupo 28" transform="translate(282.138 -663.001)">
    <path id="Caminho_4" data-name="Caminho 4" d="M835.161,1387.151c25.109-54.628,42.3-110.03,45.046-129.016,15.325-105.94-12.536-215.746-76.44-301.264C739.612,871.015,642.2,813.179,536.529,798.2a408.582,408.582,0,0,0-155.565,7.749,414.54,414.54,0,0,0-68.6,23.313c-10.033,4.44-17.776,8.579-24.008,11.9-21.28,11.381-29.251,15.638-66.971,2.58l-.587-.34c-10.547-9.132-26.072-26.379-44.055-46.353C124.5,739.026,45.563,651.332-1.671,664.289c-27.473,7.537-58.8,35.058-86.444,59.347-11.746,10.319-22.836,20.061-32.663,27.4-84.783,61.8-140.427,155.288-156.686,263.249-16.382,108.77,10.74,220.013,74.4,305.211l.042.056.012.017c.9,1.233,1.8,2.462,2.712,3.677,61.8,82.7,154.13,136.966,260.515,152.992,108.79,16.384,220.06-10.749,305.277-74.445,9.714-7.259,20.754-16.962,32.448-27.234,27.927-24.538,59.591-52.352,87.863-60.11,49.36-13.546,126.037,71.634,182.03,133.823,17.9,19.887,33.36,37.059,43.733,46.04,11.1,10.365,23.241,13.294,36.14,8.763C781.376,1491.248,813.85,1433.509,835.161,1387.151ZM720.3,1470.114c-13.6,4.77-26.478,1.6-38.255-9.425-10.494-9.083-26.018-26.33-44-46.3-52.243-58.026-131.184-145.72-178.417-132.764-27.463,7.539-58.795,35.06-86.434,59.349-11.746,10.319-22.843,20.065-32.669,27.408-75.639,56.538-174.824,80.711-272.114,66.316-96.741-14.315-180.691-63.39-236.635-138.256-.466-.624-.924-1.237-1.384-1.865-56.985-77.338-80.921-178.163-65.655-276.621,14.895-96.07,64.425-179,139.474-233.506,9.7-7.246,20.737-16.95,32.431-27.221,27.926-24.539,59.591-52.352,87.862-60.11,49.36-13.546,126.038,71.634,182.034,133.828,17.753,19.725,33.11,36.782,43.484,45.824,34.936,12.4,61.338.831,91.89-12.564,15.218-6.667,30.962-13.57,49.023-18.017a368.827,368.827,0,0,1,139.609-6.723C625.6,853.214,712.993,905.088,770.3,981.781a.4.4,0,0,1,.076.1c57.237,76.6,82.162,175.089,68.394,270.264C833.206,1290.619,777.488,1450.054,720.3,1470.114Z" fill="#f41f45"/>
    <path id="Caminho_5" data-name="Caminho 5" d="M726.6,1014.532l-.248-.332c-47.71-63.848-123.808-108.839-203.665-120.4-42.211-6.1-85.628-3.618-125.536,7.184-13.9,3.765-25.339,8.448-36.408,12.979-26.339,10.79-47.141,19.317-81.714,6.931l-.569-.328c-10.547-9.132-26.071-26.379-44.054-46.353C182.165,816.191,103.224,728.5,55.991,741.454c-27.463,7.539-58.8,35.06-86.435,59.349-11.745,10.319-22.842,20.065-32.668,27.407-65.6,49.859-109.6,126.641-120.73,210.652-10.574,79.849,9.017,157.543,55.19,219.334.92,1.231,1.845,2.458,2.788,3.672l.008.012C-75.989,1327.489.793,1371.5,84.8,1382.621c81.437,10.788,160.635-9.8,223.006-57.978,9.731-7.271,20.775-16.969,32.46-27.242,27.942-24.542,59.6-52.361,87.878-60.113,49.359-13.546,126.037,71.634,182.029,133.822,17.9,19.887,33.361,37.06,43.733,46.041,10.508,9.712,21.676,12.536,33.236,8.428,48.034-17.068,92.843-148.194,97.561-181.259C796.069,1164.53,774.347,1078.626,726.6,1014.532Zm-68.629,379.873c-11.862,3.774-23.186.085-33.662-10.957-10.419-9.007-25.944-26.254-43.926-46.228-52.243-58.026-131.184-145.72-178.418-132.764-27.473,7.538-58.8,35.058-86.444,59.348-11.746,10.319-22.836,20.06-32.663,27.4-56.576,42.294-127.153,59.886-198.74,49.525-71.567-10.357-134.271-47.224-176.554-103.809s-59.869-127.166-49.525-198.741S-94.737,903.9-38.144,861.624c9.708-7.254,20.753-16.953,32.437-27.225,27.942-24.542,59.6-52.361,87.878-60.113,49.36-13.547,126.037,71.634,182.029,133.822,17.762,19.737,33.119,36.794,43.488,45.83,33.02,12.277,69.258,3.069,107.6-6.671,33.1-8.4,67.327-17.1,101.423-12.162,70.159,10.149,134.463,48.185,176.44,104.36l.029.04.008.011c42.068,57.211,60.456,129.7,50.451,198.864C739.782,1265.091,702.854,1380.14,657.973,1394.405Z" fill="#f41f45"/>
    <path id="Caminho_6" data-name="Caminho 6" d="M649.448,1072.22l-.017-.022c-33.835-45.281-85.036-75.676-140.473-83.4-27.694-3.861-53.653,1.94-78.76,7.543-31.74,7.091-61.723,13.789-93.539,1.716l-.536-.318c-10.546-9.132-26.071-26.379-44.054-46.353-52.242-58.025-131.183-145.719-178.417-132.763-27.463,7.539-58.794,35.06-86.434,59.349C15.472,888.287,4.376,898.033-5.451,905.376-49.585,936.865-78.723,985.3-87.527,1041.8c-9.052,58.073,5.1,117.273,38.832,162.413l.013.016.025.034c.829,1.168,1.678,2.329,2.531,3.47,31.509,42.166,78.868,70,133.868,78.572,58.089,9.05,117.288-5.1,162.429-38.844,9.714-7.258,20.755-16.962,32.448-27.234,27.927-24.538,59.591-52.352,87.863-60.11,49.364-13.54,126.043,71.63,182.034,133.828,17.9,19.887,33.36,37.06,43.733,46.041,10.418,9.394,20.892,12.272,31.166,8.589,33.482-11.992,57.729-88.244,62.2-118.021C697.923,1175.216,683.284,1117.5,649.448,1072.22ZM599.6,1315.607c-10.621,3.864-21.674.761-32.845-9.218-10.524-9.114-26.053-26.366-44.036-46.34-52.243-58.026-131.184-145.72-178.417-132.764-27.463,7.539-58.8,35.06-86.434,59.349-11.746,10.319-22.843,20.065-32.669,27.408-33.253,26.215-75.856,37.76-119.929,32.473-47.592-5.707-91.514-30.2-120.508-67.224q-1.1-1.408-2.172-2.836C-42.2,1143.283-52.91,1101.5-47.6,1058.389c5.825-47.339,30.283-90.916,67.1-119.573,9.742-7.28,20.782-16.984,32.476-27.255,27.926-24.539,59.591-52.352,87.862-60.11,49.36-13.546,126.037,71.634,182.03,133.822,17.775,19.744,33.14,36.812,43.51,45.848,26.792,10.86,50.521,6.777,75.639,2.454,19.374-3.335,39.407-6.784,61.968-3.52,43.806,6.336,85.99,30.854,110.992,64.313q1.039,1.391,2.041,2.8c.678.86,1.353,1.74,2.008,2.617,25.212,33.74,36.381,80.093,29.92,124.754C644.419,1248.845,627.362,1305.515,599.6,1315.607Z" fill="#f41f45"/>
    <path id="Caminho_7" data-name="Caminho 7" d="M572.3,1129.9l-.03-.039c-30.815-41.2-66.8-42.073-104.9-42.986-23.859-.569-48.536-1.165-73.112-11.674l-.464-.293c-10.547-9.132-26.076-26.384-44.058-46.358-52.243-58.026-131.184-145.72-178.418-132.764-27.463,7.539-58.794,35.06-86.434,59.349C73.133,965.452,62.037,975.2,52.211,982.541c-50.718,38.047-61.585,113.166-23.728,164.027,38.048,50.718,113.166,61.585,164.027,23.728,9.714-7.259,20.754-16.963,32.448-27.234,27.927-24.538,59.591-52.352,87.863-60.11,49.36-13.546,126.037,71.634,182.029,133.823,17.9,19.886,33.361,37.059,43.733,46.04,9.883,8.97,18.929,12.049,26.92,9.179,17.38-6.25,26.448-38.852,28.815-55.215A117.955,117.955,0,0,0,572.3,1129.9Zm-63.268,99.261c-10.463-9.054-25.988-26.3-43.97-46.275-52.243-58.026-131.184-145.72-178.418-132.764-27.463,7.539-58.794,35.06-86.434,59.349-11.746,10.319-22.842,20.065-32.668,27.408-33.7,24.445-81.079,17.581-105.636-15.281s-17.716-80.252,15.259-105.619c9.736-7.276,20.776-16.98,32.47-27.251,27.927-24.538,59.591-52.352,87.863-60.11,49.36-13.546,126.042,71.63,182.033,133.828,17.8,19.777,33.193,36.87,43.56,45.89,12.949,6.391,28.131,9.264,44.2,12.31,26.4,5,53.672,10.16,70.164,32.23.491.658.975,1.329,1.443,2.014l0,.005c9.969,14.619,16.081,70-.045,83.458C531.5,1244.492,521.461,1241.4,509.028,1229.159Z" fill="#f41f45"/>
    <path id="Caminho_8" data-name="Caminho 8" d="M493.1,1182.412c-5.218-6.981-15.37-13.429-27.131-20.891-4.6-2.916-9.442-5.988-14.35-9.321-10.713-9.261-26.238-26.508-44.221-46.482C355.154,1047.692,276.213,960,228.979,972.955c-27.473,7.538-58.8,35.058-86.444,59.348-11.746,10.318-22.837,20.06-32.663,27.4a20.86,20.86,0,1,0,24.973,33.419c9.708-7.254,20.752-16.953,32.436-27.225,27.942-24.542,59.6-52.361,87.878-60.113,49.36-13.546,126.037,71.634,182.03,133.822,17.9,19.887,33.36,37.06,43.733,46.041,9.448,6.4,13.854,6.16,14.841,5.125C496.738,1189.758,496.135,1186.477,493.1,1182.412Z" fill="#f41f45"/>
  </g>
</svg>
