<svg width="346" height="602" viewBox="0 0 346 602" fill="none" xmlns="http://www.w3.org/2000/svg">
<g clip-path="url(#clip0_15_2)">
<path d="M213.926 27.5961C263.654 0.430298 323.232 -1.76975 378.746 0.860742C409.539 2.29556 445.974 4.01733 473.516 19.5133C517.172 44.0965 442.436 109.859 424.458 130.042C399.115 158.164 371.956 185.952 350.487 217.278C342.884 228.422 331.17 244.253 336.382 258.505C344.558 280.793 378.363 294.711 397.251 304.898C420.871 317.333 441.623 335.411 440.428 364.156C439.089 395.865 420.824 427.813 405.57 454.692C378.172 502.998 344.701 552.355 294.926 579.76C258.729 599.704 204.029 615.2 168.741 585.26C152.866 571.821 144.737 552.021 131.54 536.285C113.179 514.381 86.7849 502.759 62.1119 489.606C43.2249 479.419 9.41995 465.501 1.24295 443.214C-3.96905 428.961 7.69794 413.131 15.3489 401.987C36.8179 370.66 63.9769 342.872 89.3189 314.75C113.179 288.11 142.06 260.132 159.082 228.087C167.211 212.735 168.023 201.974 162.19 185.713C155.687 167.538 144.642 150.703 141.868 131.333C135.366 85.8017 177.969 47.2531 213.926 27.5961ZM79.1819 480.232C102.373 492.524 127.38 503.237 146.267 521.985C159.034 534.611 168.215 550.586 181.89 562.351C212.731 588.895 255.908 579.043 288.518 561.203C334.565 535.998 369.039 490.037 394.621 445.127C407.77 422.026 423.74 393.234 422.115 365.686C420.68 340.768 400.502 325.416 380.228 314.368C361.341 304.18 327.536 290.263 319.359 267.975C314.147 253.723 325.814 237.892 333.465 226.748C354.934 195.421 382.093 167.634 407.435 139.512C422.736 122.294 495.989 56.0532 460.032 32.7136C437.894 18.3655 406.527 16.5002 381.041 15.3524C329.161 13.0088 272.452 17.5524 226.263 43.0921C193.844 61.0273 162.238 92.4019 168.263 132.624C170.892 149.986 179.165 165.912 183.133 182.939C186.958 199.343 181.699 211.157 172.853 225.074C154.301 254.201 129.341 279.836 106.389 305.424C81.0469 333.546 53.8879 361.334 32.4189 392.661C24.8159 403.804 13.1019 419.635 18.3129 433.888C26.4899 456.127 60.2949 470.045 79.1819 480.232Z" fill="#565656" fill-opacity="0.1"/>
<path d="M249.453 59.8795C289.331 38.1182 338.677 31.8528 383.575 34.8659C399.737 35.966 433.542 37.7356 444.11 52.8968C451.999 64.2318 441.288 80.2061 435.216 89.7715C420.919 112.25 402.319 132.146 384.675 151.995C359.333 180.117 332.174 207.904 310.705 239.231C303.102 250.375 291.387 266.206 296.599 280.458C304.775 302.746 338.581 316.663 357.468 326.85C404.04 351.864 402.606 389.6 379.415 432.501C358.042 472.006 326.34 510.554 286.653 532.555C258.012 548.434 226.119 552.403 198.864 532.029C186.193 522.559 175.722 510.554 162.859 501.276C144.068 487.741 122.312 478.462 101.895 467.701C83.007 457.514 49.202 443.596 41.026 421.309C35.814 407.057 47.481 391.226 55.131 380.082C76.6 348.755 103.759 320.968 129.102 292.845C147.797 271.993 166.924 251.331 183.994 229.044C193.652 216.466 207.471 200.252 209.479 183.752C211.44 167.538 204.267 150.464 202.929 134.394C200.155 100.485 220.907 75.4712 249.453 59.8795ZM118.917 458.327C150.379 474.78 179.977 491.806 210.34 510.028C235.443 525.142 262.459 523.946 287.849 509.646C321.176 490.85 350.009 458.088 366.935 423.7C385.344 386.3 377.837 356.216 340.494 336.177C321.606 325.99 287.801 312.072 279.625 289.785C274.413 275.532 286.08 259.701 293.73 248.558C315.199 217.231 342.358 189.443 367.701 161.321C382.667 144.438 397.968 127.603 411.117 109.189C417.715 99.9587 429.335 85.3714 428.713 73.1276C427.805 54.762 398.111 51.6054 384.245 50.1706C345.945 46.1053 303.341 52.6098 269.392 71.0711C243.572 85.1801 228.175 106.798 227.697 136.403C227.458 150.895 230.661 165.482 226.454 179.591C221.624 195.852 208.093 211.109 197.812 224.022C181.459 244.54 163.672 263.91 146.172 283.423C120.829 311.546 93.67 339.333 72.201 370.66C64.599 381.804 52.884 397.635 58.096 411.887C66.224 434.222 100.03 448.14 118.917 458.327Z" fill="#565656" fill-opacity="0.1"/>
<path d="M295.786 86.1844C320.889 72.4102 353.978 66.3362 382.189 72.2667C399.546 75.9016 407.292 82.3104 400.55 100.246C390.27 127.651 363.828 152.568 344.941 173.899C319.598 202.022 292.439 229.809 270.97 261.136C263.367 272.28 251.653 288.111 256.865 302.363C265.041 324.65 298.846 338.568 317.734 348.755C382.284 381.995 335.76 453.736 289.188 479.276C267.336 491.232 245.676 491.232 222.724 482.193C195.374 471.384 167.784 459.284 141.677 445.797C122.79 435.609 88.985 421.692 80.808 399.404C75.596 385.152 87.263 369.321 94.914 358.177C116.383 326.85 143.542 299.063 168.884 270.941C203.503 232.392 247.636 193.413 257.821 140.803C262.507 116.65 273.791 98.2369 295.786 86.1844ZM158.7 436.422C194.226 455.553 248.401 479.754 287.466 458.04C327.823 435.609 349.818 384.1 300.711 358.129C281.824 347.942 248.019 334.025 239.842 311.737C234.63 297.485 246.297 281.654 253.948 270.51C275.417 239.136 302.576 211.396 327.918 183.273C339.059 170.695 404.04 108.998 377.312 90.6324C361.437 79.7278 327.488 90.9672 312.856 99.0021C292.965 109.907 285.697 126.359 276.851 146.016C257.151 189.969 217.56 226.366 185.906 261.566C160.564 289.689 133.405 317.476 111.936 348.803C104.333 359.947 92.619 375.778 97.831 390.03C106.007 412.318 139.812 426.187 158.7 436.422Z" fill="#565656" fill-opacity="0.1"/>
<path d="M327.44 120.572C336.621 115.407 351.73 110.72 354.312 124.207C355.603 130.95 348.479 140.659 345.036 146.159C333.799 164.142 319.12 179.925 305.158 195.804C279.816 223.926 252.657 251.714 231.188 283.041C223.585 294.184 211.87 310.015 217.082 324.268C225.258 346.555 259.064 360.473 277.951 370.66C305.923 386.012 306.688 418.009 277.855 433.648C249.836 448.905 208.045 438.192 181.412 423.844C162.525 413.657 128.719 399.739 120.543 377.451C115.331 363.199 126.998 347.368 134.648 336.224C156.117 304.898 183.277 277.11 208.619 248.988C234.63 220.148 260.929 191.595 285.984 161.895C298.368 147.212 310.418 130.185 327.44 120.572ZM198.434 414.47C217.321 424.561 244.385 429.344 264.085 419.061C285.219 408.013 275.417 390.173 260.929 380.034C242.042 369.847 208.236 355.929 200.06 333.642C194.848 319.389 206.515 303.559 214.165 292.415C235.634 261.088 262.794 233.3 288.136 205.178C299.229 192.552 321.415 173.564 325.288 155.916C326.675 149.555 325.671 142.668 316.873 148.599C285.219 169.977 252.704 209.77 225.641 239.614C200.299 267.736 173.14 295.524 151.671 326.85C144.068 337.994 132.353 353.825 137.565 368.077C145.741 390.365 179.547 404.282 198.434 414.47Z" fill="#565656" fill-opacity="0.1"/>
<path d="M276.23 200.635C280.629 197.956 276.325 205.561 265.423 217.661C240.081 245.783 212.922 273.571 191.453 304.898C183.85 316.042 172.136 331.872 177.347 346.125C185.524 368.412 219.329 382.33 238.216 392.517C243.811 395.578 244.432 400.217 239.747 402.8C235.061 405.383 226.789 404.952 221.194 401.939C202.307 391.752 168.502 377.834 160.325 355.547C155.113 341.294 166.78 325.463 174.431 314.32C195.9 282.993 223.059 255.205 248.401 227.083C256.673 217.805 265.949 206.852 276.23 200.635Z" fill="#565656" fill-opacity="0.1"/>
</g>
<defs>
<clipPath id="clip0_15_2">
<rect width="346" height="602" fill="white" transform="matrix(-1 0 0 1 346 0)"/>
</clipPath>
</defs>
</svg>
