<svg xmlns="http://www.w3.org/2000/svg" width="26.766" height="41.479" viewBox="0 0 26.766 41.479">
  <g id="task" transform="translate(0)">
    <path id="Caminho_119" data-name="Caminho 119" d="M125.736,3.4a.906.906,0,0,1,1.811,0v.49h2.494V3.4a3.4,3.4,0,0,0-6.8,0v.49h2.494Zm0,0" transform="translate(-113.257)" fill="#f41f45"/>
    <path id="Caminho_120" data-name="Caminho 120" d="M23.439,80.949H19.2v3.916a1.247,1.247,0,0,1-1.247,1.247H8.812a1.247,1.247,0,0,1-1.247-1.247V80.949H3.328A3.331,3.331,0,0,0,0,84.277v28.266a3.331,3.331,0,0,0,3.328,3.328H23.439a3.331,3.331,0,0,0,3.328-3.328V84.277a3.331,3.331,0,0,0-3.328-3.328ZM6.286,106.061h5.564a1.247,1.247,0,1,1,0,2.494H6.286a1.247,1.247,0,1,1,0-2.494Zm-1.247-5.537a1.247,1.247,0,0,1,1.247-1.247h5.564a1.247,1.247,0,0,1,0,2.494H6.286a1.247,1.247,0,0,1-1.247-1.247Zm10.547-9.112a1.247,1.247,0,0,1,1.763,0l.565.565L19.6,90.292a1.247,1.247,0,0,1,1.763,1.763L18.8,94.622a1.247,1.247,0,0,1-1.763,0l-1.447-1.447a1.247,1.247,0,0,1,0-1.763Zm0,6.784a1.247,1.247,0,0,1,1.763,0l.565.565L19.6,97.076a1.247,1.247,0,0,1,1.763,1.763L18.8,101.405a1.246,1.246,0,0,1-1.763,0l-1.447-1.447a1.247,1.247,0,0,1,0-1.763Zm0,6.784a1.247,1.247,0,0,1,1.763,0l.565.565L19.6,103.86a1.247,1.247,0,0,1,1.763,1.763L18.8,108.19a1.247,1.247,0,0,1-1.763,0l-1.447-1.447a1.247,1.247,0,0,1,0-1.763ZM11.851,92.493a1.247,1.247,0,1,1,0,2.494H6.286a1.247,1.247,0,1,1,0-2.494Zm0,0" transform="translate(0 -74.391)" fill="#f41f45"/>
    <path id="Caminho_121" data-name="Caminho 121" d="M124.164,78.785h6.649v2.844h-6.649Zm0,0" transform="translate(-114.105 -72.403)" fill="#f41f45"/>
  </g>
</svg>
