<svg id="Adobe_Inc.-Logo.wine" xmlns="http://www.w3.org/2000/svg" width="108.745" height="26.017" viewBox="0 0 108.745 26.017">
  <path id="Caminho_52" data-name="Caminho 52" d="M440.858,51.641l-1.4,3.9a.153.153,0,0,1-.156.156h-2.181c-.156,0-.156,0-.156-.156,1.246-3.271,3.116-8.88,4.518-12.62a5.873,5.873,0,0,0,.156-1.246c0-.156,0-.156.156-.156h2.96c.156-.156.156,0,.156,0,1.557,4.518,3.427,9.348,4.985,13.866,0,.155,0,.155-.155.155h-2.494c-.155,0-.155,0-.155-.155l-1.4-3.895h-4.829Zm4.362-2.181c-.467-1.4-1.558-4.362-1.869-5.92-.312,1.4-1.247,3.895-1.87,5.92Zm6.077.935c0-3.116,2.337-5.609,6.075-5.609a3.039,3.039,0,0,1,1.248.156V40.268c0-.156,0-.156.155-.156h2.337c.155,0,.155,0,.155.156V54.445c0,.156,0,.156-.155.156a11.275,11.275,0,0,1-4.362,1.091c-3.273.155-5.453-1.558-5.453-5.3Zm7.166-3.272a3.035,3.035,0,0,0-1.246-.156c-2.025,0-3.271,1.247-3.271,3.428,0,2.492,1.4,3.428,3.116,3.428.467,0,1.089-.157,1.558-.157V47.123Zm15.891,3.117c0,3.426-2.182,5.608-5.3,5.608-3.738,0-5.3-2.8-5.3-5.453a5.151,5.151,0,0,1,5.453-5.453c3.271-.156,5.141,2.337,5.141,5.3Zm-7.945,0c0,2.18.934,3.583,2.647,3.583,1.4,0,2.494-.936,2.494-3.583,0-2.026-.779-3.584-2.649-3.584C467.5,46.811,466.409,48.058,466.409,50.239Zm12.619-9.972c.155,0,.155,0,.155.156v4.985a6.259,6.259,0,0,1,2.337-.467,4.7,4.7,0,0,1,4.831,4.986c0,3.738-2.961,6.075-6.389,6.075a11.856,11.856,0,0,1-3.271-.467.152.152,0,0,1-.155-.155V40.424c0-.156,0-.156.155-.156Zm2.025,6.7a5.6,5.6,0,0,0-1.713.312v6.387a3.021,3.021,0,0,0,1.246.157,3.53,3.53,0,0,0,3.428-3.74C483.857,48.058,482.611,46.967,481.053,46.967Zm10.283,3.895c0,1.715,1.089,2.8,3.271,2.8a8.641,8.641,0,0,0,2.649-.467.153.153,0,0,1,.155.157v1.713c0,.155,0,.155-.155.312a6.45,6.45,0,0,1-3.273.622c-3.895,0-5.453-2.647-5.453-5.453,0-3.115,1.87-5.608,5.143-5.608a4.309,4.309,0,0,1,4.517,4.518,4.909,4.909,0,0,1-.155,1.4h-6.7Zm3.426-1.714c.779,0,.936-.155.936-.155v-.312a2.068,2.068,0,0,0-2.182-2.025c-1.4,0-2.18,1.09-2.337,2.492Z" transform="translate(-389.445 -35.75)" fill="rgba(34,33,55,0.9)"/>
  <path id="Caminho_53" data-name="Caminho 53" d="M18.539,0,29.445,26.017V0ZM0,0V26.017L10.906,0ZM9.971,20.721h4.986l2.181,5.3h4.518L14.645,9.5Z" fill="rgba(34,33,55,0.9)"/>
</svg>
