<svg xmlns="http://www.w3.org/2000/svg" xmlns:xlink="http://www.w3.org/1999/xlink" width="571" height="926" viewBox="0 0 571 926">
  <defs>
    <clipPath id="clip-path">
      <rect id="Retângulo_4045" data-name="Retângulo 4045" width="571" height="926" transform="translate(795 3283)" fill="#f41f45"/>
    </clipPath>
    <clipPath id="clip-path-2">
      <rect id="Retângulo_4044" data-name="Retângulo 4044" width="774.51" height="900.195" fill="#222137"/>
    </clipPath>
  </defs>
  <g id="Grupo_de_máscara_17" data-name="Grupo de máscara 17" transform="translate(-795 -3283)" clip-path="url(#clip-path)">
    <g id="Grupo_33733" data-name="Grupo 33733" transform="translate(795.5 3341.636)">
      <g id="Grupo_33732" data-name="Grupo 33732" transform="translate(0 0)" clip-path="url(#clip-path-2)">
        <path id="Caminho_30870" data-name="Caminho 30870" d="M674.736,330.815c-5.363-4.429-10.975-8.888-16.684-13.423-38.619-30.687-82.4-65.464-86.788-120.3-1.273-15.886.791-31.907,2.779-47.394,2.275-17.694,4.632-35.99,1.913-53.864C565.223,25.181,483.173,0,409.958,0,320.067.008,237.452,43.906,146.5,96.942q-5.468,3.2-11.1,6.44c-43.417,25.128-92.633,53.608-122.04,95.6-37.308,53.3,11.351,94.569,50.444,127.727l1.86,1.574c5.167,4.263,11.359,8.994,17.912,14.01,35.026,26.8,83,63.513,83,107.8s-47.883,80.935-82.849,107.69c-6.6,5.047-12.828,9.815-18.078,14.138L63.8,573.485c-39.093,33.158-87.752,74.427-50.444,127.727,29.406,42,78.623,70.473,122.04,95.6q5.627,3.243,11.1,6.44c90.954,53.036,173.561,96.942,263.445,96.942h.083c73.192,0,155.2-25.173,165.931-95.834,2.719-17.874.362-36.171-1.913-53.857-1.989-15.494-4.052-31.508-2.779-47.4,4.391-54.828,48.17-89.62,86.8-120.307,5.71-4.534,11.314-8.986,16.677-13.415,5.3-4.354,11.547-9.144,18.168-14.206,34.438-26.356,81.6-62.436,81.6-105.077s-47.251-78.789-81.749-105.19c-6.576-5.032-12.782-9.785-18.018-14.093M743.53,450.1c0,44.29-47.891,80.935-82.856,107.69-6.6,5.047-12.828,9.815-18.07,14.138-5.822,4.791-11.976,9.626-18.266,14.583-34.6,27.222-73.825,58.09-85.214,102.938-4.188,16.488-3.954,33.813-3.736,50.572.166,12.767.339,25.972-1.416,38.829-3.593,26.311-23.7,87.526-132.66,87.76h-.58c-91.918.008-183.255-46.2-252.6-86.494l-6.335-3.668c-37.933-21.927-85.146-49.217-104.482-90.63-21.987-47.085,24.051-85.794,54.512-111.4,2.041-1.717,4.03-3.39,5.936-5.017,5.31-4.369,11.562-9.159,18.183-14.221,34.438-26.356,81.606-62.436,81.606-105.077S150.3,371.309,115.8,344.908c-6.576-5.032-12.782-9.785-18.01-14.093q-2.892-2.463-5.958-5.032c-30.461-25.61-76.5-64.319-54.512-111.4,19.328-41.39,66.5-68.673,104.421-90.592l6.395-3.706c69.418-40.328,160.605-86.5,251.423-86.5.768,0,1.506.008,2.3.008,22.537,0,55,3.118,82.788,17.822C513.1,66.466,529.7,90,533.971,121.347c1.755,12.85,1.582,26.055,1.416,38.822-.218,16.76-.444,34.092,3.744,50.58,11.381,44.848,50.6,75.715,85.206,102.938,6.29,4.956,12.444,9.792,18.266,14.583,5.182,4.278,11.374,9.009,17.92,14.025,35.033,26.8,83.007,63.513,83.007,107.8" transform="translate(-0.001 0)" fill="#222137"/>
        <path id="Caminho_30871" data-name="Caminho 30871" d="M518.843,247.311c-29.4-23.019-62.73-49.111-80.755-83.15-9.242-17.468-12.451-36.72-15.539-55.333-1.4-8.391-2.84-17.061-4.813-25.475C403.6,23.117,353.025,10.38,312.81,10.38h-.618C227.2,10.666,144.5,50.761,90.085,84.34l-2.433,1.506C60.038,102.87,18.3,128.586,10.9,163.724c-7.917,37.6,28.781,68.251,55.581,90.637,2.553,2.132,4.994,4.173,7.276,6.116,5.167,4.263,11.351,8.994,17.9,14,35.033,26.8,83.014,63.513,83.014,107.811s-47.891,80.935-82.856,107.69c-6.6,5.047-12.828,9.815-18.078,14.138-2.26,1.928-4.7,3.962-7.246,6.1C39.685,532.6,2.98,563.249,10.9,600.859,18.3,636,60.038,661.72,87.652,678.736l2.433,1.506c54.512,33.647,137.3,73.795,222.1,73.96h.889c40.148,0,90.539-12.767,104.662-72.974,1.973-8.414,3.412-17.083,4.813-25.474,3.088-18.613,6.3-37.865,15.539-55.333,18.025-34.039,51.356-60.131,80.755-83.15,6.922-5.416,13.46-10.538,19.757-15.7,5.288-4.354,11.54-9.144,18.161-14.206,34.438-26.356,81.6-62.436,81.6-105.077S591.109,303.5,556.61,277.1c-6.576-5.032-12.783-9.785-18.017-14.093-6.29-5.16-12.828-10.282-19.75-15.7m88.543,134.98c0,44.29-47.891,80.935-82.856,107.69-6.6,5.047-12.828,9.815-18.07,14.138-6.719,5.484-13.671,10.952-20.707,16.473-28.156,22.13-57.276,45.013-77.742,74.269-9.747,13.943-15.554,29.271-21.708,45.5-2.011,5.3-4.03,10.621-6.2,15.916-17.505,42.709-49.5,64.342-95.081,64.349-.587,0-1.175-.008-1.77-.015-60.59-.731-130.559-24.526-187.142-63.634-17.181-11.871-52.923-36.577-52.425-70.141.5-33.414,32.058-59.92,55.107-79.271,2.463-2.071,4.836-4.068,7.058-5.981,5.318-4.369,11.57-9.159,18.191-14.229,34.438-26.348,81.606-62.428,81.606-105.069S158.4,303.5,123.9,277.1c-6.576-5.032-12.79-9.777-18.025-14.093-2.245-1.928-4.617-3.924-7.088-6-23.042-19.351-54.595-45.857-55.1-79.271-.5-33.564,35.244-58.263,52.425-70.142,57.374-39.658,127.335-63.445,187.142-63.634,23.1-.437,42.716,4.557,58.64,14.944,16.285,10.643,29.143,27.26,38.212,49.39,2.169,5.3,4.188,10.621,6.2,15.916,6.154,16.232,11.961,31.561,21.708,45.5,20.466,29.263,49.578,52.139,77.734,74.262,7.035,5.529,13.988,10.99,20.707,16.481,5.19,4.278,11.381,9.009,17.927,14.025,35.033,26.8,83.007,63.513,83.007,107.8" transform="translate(64.028 67.806)" fill="#222137"/>
        <path id="Caminho_30872" data-name="Caminho 30872" d="M387.448,188.2c-43.838-35.538-85.251-69.1-118.9-116.812-24.345-34.506-51.7-50.633-85.975-50.633-.5,0-.987.008-1.491.015C131.068,21.444,76.8,41.413,42.8,71.655,27.958,84.86,20.478,98.99,20.576,113.671c.166,27.825,26.5,54.421,54.934,79.015,5.167,4.256,11.351,8.986,17.9,14,35.033,26.8,83.007,63.513,83.007,107.8s-47.883,80.935-82.856,107.69C86.966,427.229,80.729,432,75.479,436.32c-28.4,24.571-54.738,51.168-54.9,78.992-.1,14.681,7.382,28.811,22.221,42.016C77.3,588.023,131.581,608,181.068,608.21h.03c35.365.911,62.195-14.816,87.451-50.618,33.64-47.7,75.038-81.244,118.869-116.774l8.685-7.05c5.288-4.346,11.54-9.137,18.161-14.2,34.438-26.356,81.6-62.436,81.6-105.077S448.6,235.7,414.1,209.295c-6.576-5.032-12.775-9.777-18-14.086ZM464.9,314.492c0,44.29-47.9,80.935-82.856,107.69-6.606,5.047-12.835,9.815-18.078,14.138-11,8.888-22.047,17.648-33.1,26.4-28.548,22.635-58.09,46.045-85.794,71.076-27.749,25.083-51.6,40.667-84.6,40.826h-.648c-33.03,0-77.049-12.843-96.4-41.232-26.2-38.408,13.912-73.275,40.441-96.339l3.721-3.246c5.325-4.384,11.585-9.174,18.2-14.236,34.453-26.356,81.606-62.436,81.606-105.077S160.143,235.7,125.63,209.3c-6.561-5.032-12.775-9.785-18-14.093l-3.766-3.277C77.332,168.868,37.222,134,63.42,95.593,82.7,67.309,126.044,54.5,160.46,54.361h.015c33.353.467,57.1,15.976,84.589,40.826,27.682,25.015,57.2,48.4,85.734,71.03,11.065,8.768,22.138,17.543,33.142,26.439,5.2,4.286,11.381,9.016,17.935,14.025,35.033,26.8,83.022,63.513,83.022,107.811" transform="translate(134.403 135.606)" fill="#222137"/>
        <path id="Caminho_30873" data-name="Caminho 30873" d="M236.313,115.155c-42.995-34.988-101.891-82.916-154.534-84-.369-.008-.731-.015-1.1-.015-16.338,0-42.912,7.208-48.049,27.169C26.37,82.563,52.387,105.13,69.6,120.066c1.989,1.717,3.857,3.337,5.521,4.836,5.145,4.233,11.329,8.964,17.882,13.98,35.026,26.8,83,63.513,83,107.8s-47.883,80.935-82.849,107.69c-6.6,5.047-12.835,9.815-18.078,14.138-1.619,1.454-3.487,3.073-5.476,4.791-17.212,14.937-43.228,37.5-36.969,61.758,5.393,20.955,33.142,27.825,49.126,27.154H81.8c52.44-.158,107.577-45.413,151.883-81.787,6.192-5.084,12.135-9.965,17.784-14.477,5.273-4.339,11.525-9.129,18.145-14.2,34.438-26.348,81.606-62.428,81.606-105.069S303.968,167.9,269.463,141.5c-6.576-5.032-12.782-9.785-18.01-14.093-4.821-3.849-9.882-7.969-15.14-12.248m83.933,131.53c0,44.29-47.891,80.935-82.856,107.69-6.6,5.047-12.828,9.815-18.078,14.138-31.3,26.047-77.335,57.615-118.936,60.124-1.3.075-2.546.113-3.736.113-10.41,0-16.79-2.96-18.982-8.843-5.958-15.976,22.2-47.04,29.489-53.879,5.356-4.414,11.607-9.2,18.228-14.266,34.438-26.356,81.606-62.436,81.606-105.077S159.731,167.9,125.225,141.5c-6.576-5.032-12.782-9.785-18.01-14.093-6.237-5.845-36.246-38.566-30.054-54.587,2.516-6.485,10.334-9.2,23.215-8.075,43.582,1.431,88.754,35,118.944,60.123,5.175,4.271,11.374,9,17.92,14.025,35.033,26.793,83.007,63.506,83.007,107.8" transform="translate(206.93 203.412)" fill="#222137"/>
        <path id="Caminho_30874" data-name="Caminho 30874" d="M50.034,41.534c-.136-.008-.286-.015-.459-.015-1.213,0-3.216.211-3.653,1.506-.731,2.207,2.056,7.54,9.913,14.025,5.182,4.271,11.374,9.009,17.92,14.025,35.033,26.8,83.007,63.513,83.007,107.8S108.87,259.807,73.9,286.563c-6.6,5.054-12.828,9.822-18.07,14.146-9.039,7.465-10.59,12.21-10.086,13.837.331,1.055,1.891,1.665,4.286,1.68,11.645-1,24.412-7.08,37.948-18.07,5.28-4.346,11.532-9.137,18.153-14.2,34.438-26.356,81.6-62.443,81.6-105.077s-47.251-78.8-81.749-105.19C99.409,68.658,93.2,63.905,87.967,59.6c-14.191-11.525-26.951-17.6-37.933-18.063" transform="translate(298.293 271.218)" fill="#222137"/>
      </g>
    </g>
  </g>
</svg>
