<svg xmlns="http://www.w3.org/2000/svg" width="26.386" height="20.889" viewBox="0 0 26.386 20.889">
  <path id="medium" d="M24.281,4.955l2.105-2.014V2.5H19.093l-5.2,12.938L7.981,2.5H.333v.441L2.793,5.9a1.032,1.032,0,0,1,.333.861V18.4a1.327,1.327,0,0,1-.355,1.154L0,22.91v.435H7.855V22.9L5.085,19.552A1.368,1.368,0,0,1,4.7,18.4V8.334l6.9,15.017h.8L18.33,8.334V20.3c0,.316,0,.38-.207.587L15.99,22.947v.442H26.338v-.441l-2.056-2.013a.612.612,0,0,1-.235-.587V5.542a.609.609,0,0,1,.234-.587Z" transform="translate(0 -2.5)" fill="#fff"/>
</svg>
