<svg xmlns="http://www.w3.org/2000/svg" width="40" height="40" viewBox="0 0 40 40">
  <g id="desenvolvimento-pessoal" transform="translate(0 0)">
    <path id="Caminho_30794" data-name="Caminho 30794" d="M220.168,492.334H203.5a.833.833,0,0,1,0-1.667h16.667a.833.833,0,0,1,0,1.667Zm0,0" transform="translate(-186.835 -452.335)" fill="#222137"/>
    <path id="Caminho_30795" data-name="Caminho 30795" d="M13.333,492.334H.833a.833.833,0,1,1,0-1.667h12.5a.833.833,0,0,1,0,1.667Zm0,0" transform="translate(0 -452.335)" fill="#222137"/>
    <path id="Caminho_30796" data-name="Caminho 30796" d="M462,492.334h-2.5a.833.833,0,0,1,0-1.667H462a.833.833,0,1,1,0,1.667Zm0,0" transform="translate(-422.835 -452.335)" fill="#222137"/>
    <path id="Caminho_30797" data-name="Caminho 30797" d="M288.833,413.665a.833.833,0,0,1-.833-.833v-6.667a.833.833,0,1,1,1.667,0v6.667A.833.833,0,0,1,288.833,413.665Zm0,0" transform="translate(-265.5 -373.666)" fill="#222137"/>
    <path id="Caminho_30798" data-name="Caminho 30798" d="M203.5,413.665a.833.833,0,0,1-.833-.833v-6.667a.833.833,0,1,1,1.667,0v6.667A.833.833,0,0,1,203.5,413.665Zm0,0" transform="translate(-186.835 -373.666)" fill="#222137"/>
    <path id="Caminho_30799" data-name="Caminho 30799" d="M246.165,453a.833.833,0,0,1-.833-.833v-3.333a.833.833,0,1,1,1.667,0v3.333A.833.833,0,0,1,246.165,453Zm0,0" transform="translate(-226.165 -413)" fill="#222137"/>
    <path id="Caminho_30800" data-name="Caminho 30800" d="M174.166,271h-3.333a.833.833,0,1,1,0-1.667h2.5V261A3.337,3.337,0,0,0,170,257.667h-5A3.337,3.337,0,0,0,161.666,261v8.333h2.5a.833.833,0,1,1,0,1.667h-3.333a.833.833,0,0,1-.833-.833V261a5,5,0,0,1,5-5h5a5,5,0,0,1,5,5v9.167a.833.833,0,0,1-.833.833Zm0,0" transform="translate(-147.5 -236)" fill="#222137"/>
    <path id="Caminho_30801" data-name="Caminho 30801" d="M206.835,136.333A4.167,4.167,0,1,1,211,132.167,4.171,4.171,0,0,1,206.835,136.333Zm0-6.667a2.5,2.5,0,1,0,2.5,2.5A2.5,2.5,0,0,0,206.835,129.667Zm0,0" transform="translate(-186.835 -118.001)" fill="#222137"/>
    <path id="Caminho_30802" data-name="Caminho 30802" d="M245.332,298.668H247v1.667h-1.667Zm0,0" transform="translate(-226.165 -275.335)" fill="#222137"/>
    <path id="Caminho_30803" data-name="Caminho 30803" d="M99.964,22.388a.886.886,0,0,1-.208-.026l-2.8-.721a.834.834,0,1,1,.417-1.614l2.184.563.235-.406-1.437-1.823a.835.835,0,0,1-.128-.8,9.952,9.952,0,0,0,.44-1.636.834.834,0,0,1,.511-.627l2.154-.862V13.9l-2.153-.862a.831.831,0,0,1-.511-.628,9.908,9.908,0,0,0-.44-1.635.836.836,0,0,1,.128-.8L99.8,8.15l-.269-.467-2.292.33a.83.83,0,0,1-.756-.287,10.2,10.2,0,0,0-1.2-1.2.832.832,0,0,1-.287-.755l.331-2.292-.468-.269L93.028,4.642a.838.838,0,0,1-.8.129,9.953,9.953,0,0,0-1.638-.44.833.833,0,0,1-.627-.511L89.1,1.666h-.538L87.7,3.819a.832.832,0,0,1-.628.511,9.819,9.819,0,0,0-1.635.44.832.832,0,0,1-.8-.129L82.818,3.207l-.467.269.33,2.292a.834.834,0,0,1-.287.756,10.069,10.069,0,0,0-1.2,1.2.842.842,0,0,1-.756.288l-2.292-.33-.269.467,1.435,1.823a.835.835,0,0,1,.129.8A9.911,9.911,0,0,0,79,12.41a.831.831,0,0,1-.511.627l-2.152.86v.538l2.153.862a.832.832,0,0,1,.511.628,9.9,9.9,0,0,0,.44,1.635.832.832,0,0,1-.129.8l-1.435,1.823.234.407,2.183-.563a.833.833,0,0,1,.417,1.614l-2.8.722a.838.838,0,0,1-.93-.391l-.833-1.443a.835.835,0,0,1,.067-.933l1.505-1.912c-.106-.334-.2-.671-.272-1.007l-2.258-.9A.834.834,0,0,1,74.668,15V13.333a.834.834,0,0,1,.523-.774l2.258-.9c.075-.338.166-.675.271-1.007l-1.5-1.912a.836.836,0,0,1-.066-.933l.833-1.443a.842.842,0,0,1,.841-.408l2.4.347q.354-.386.741-.741l-.347-2.4a.833.833,0,0,1,.408-.841l1.443-.833a.834.834,0,0,1,.933.067l1.912,1.505c.333-.106.67-.2,1.007-.272l.9-2.258A.836.836,0,0,1,88,0h1.667a.835.835,0,0,1,.774.523l.9,2.258c.338.075.675.166,1.007.271l1.913-1.5A.834.834,0,0,1,95.2,1.48l1.443.833a.835.835,0,0,1,.408.841l-.347,2.4c.258.236.505.484.741.741l2.4-.347a.834.834,0,0,1,.841.408L101.52,7.8a.835.835,0,0,1-.067.933l-1.506,1.912c.107.333.2.67.272,1.007l2.258.9a.836.836,0,0,1,.524.775V15a.834.834,0,0,1-.524.774l-2.258.9c-.075.338-.165.674-.271,1.006l1.506,1.912a.834.834,0,0,1,.067.932l-.833,1.443a.834.834,0,0,1-.722.417Zm0,0" transform="translate(-68.834)" fill="#222137"/>
    <path id="Caminho_30804" data-name="Caminho 30804" d="M150.165,83.835a.834.834,0,0,1-.833-.833,8.343,8.343,0,0,1,8.333-8.333.833.833,0,1,1,0,1.667A6.674,6.674,0,0,0,151,83,.834.834,0,0,1,150.165,83.835Zm0,0" transform="translate(-137.665 -68.835)" fill="#222137"/>
    <path id="Caminho_30805" data-name="Caminho 30805" d="M331.49,136.337a.832.832,0,0,1-.744-1.205,6.255,6.255,0,0,0,0-5.923.833.833,0,1,1,1.491-.744,7.912,7.912,0,0,1,0,7.411A.835.835,0,0,1,331.49,136.337Zm0,0" transform="translate(-304.825 -118.004)" fill="#222137"/>
  </g>
</svg>
