<svg xmlns="http://www.w3.org/2000/svg" width="40" height="40" viewBox="0 0 40 40">
  <g id="data-limite" transform="translate(0 -0.008)">
    <path id="Caminho_30778" data-name="Caminho 30778" d="M388.166,52.2c-2.3,0-4.166-2.136-4.166-4.762s1.869-4.762,4.166-4.762,4.167,2.136,4.167,4.762S390.464,52.2,388.166,52.2Zm0-7.619a2.883,2.883,0,1,0,2.5,2.857A2.7,2.7,0,0,0,388.166,44.577Zm0,0" transform="translate(-354.001 -38.855)" fill="#222137"/>
    <path id="Caminho_30779" data-name="Caminho 30779" d="M186.667,61.72a.755.755,0,0,1-.2-.029l-6.667-1.9a.854.854,0,0,1-.518-.444L173.544,48.1l-4.63-3.527h-8.081a.961.961,0,0,1,0-1.9h8.333a.765.765,0,0,1,.463.16l5,3.81a.923.923,0,0,1,.258.312l5.656,11.082,6.326,1.808A.968.968,0,0,1,187.475,61a.864.864,0,0,1-.808.722Zm0,0" transform="translate(-147.5 -38.855)" fill="#222137"/>
    <path id="Caminho_30780" data-name="Caminho 30780" d="M75.492,321.712a.8.8,0,0,1-.656-.364,1.046,1.046,0,0,1,.14-1.337l11.666-10.476a.764.764,0,0,1,1.17.16,1.046,1.046,0,0,1-.14,1.337L76.006,321.508A.758.758,0,0,1,75.492,321.712Zm0,0" transform="translate(-68.826 -281.704)" fill="#222137"/>
    <path id="Caminho_30781" data-name="Caminho 30781" d="M22.165,302.29a.782.782,0,0,1-.589-.279,1.05,1.05,0,0,1,0-1.347l10.833-12.381a.761.761,0,0,1,1.178,0,1.049,1.049,0,0,1,0,1.347L22.754,302.011a.782.782,0,0,1-.589.279Zm0,0" transform="translate(-19.665 -262.283)" fill="#222137"/>
    <path id="Caminho_30782" data-name="Caminho 30782" d="M246.171,224.572a.823.823,0,0,1-.734-.5,1.025,1.025,0,0,1,.338-1.289l8.978-5.526a.948.948,0,0,0,.425-.672,1.046,1.046,0,0,0-.2-.8l-6.095-7.718a1.053,1.053,0,0,1,.029-1.311l3.333-3.809a.767.767,0,0,1,1.241.078l3.122,4.46,6.33.9a.934.934,0,0,1,.724,1.063.866.866,0,0,1-.93.827l-6.666-.952a.814.814,0,0,1-.547-.35l-2.752-3.931-2.115,2.417,5.57,7.051a3.138,3.138,0,0,1,.6,2.4,2.851,2.851,0,0,1-1.276,2.017l-8.978,5.525a.741.741,0,0,1-.4.116Zm0,0" transform="translate(-226.17 -184.564)" fill="#222137"/>
    <path id="Caminho_30783" data-name="Caminho 30783" d="M153.507,117.727a.788.788,0,0,1-.62-.315,1.05,1.05,0,0,1,.062-1.345L160.3,108.5c-1.414-.68-3.676-1.775-4.649-2.291a6.347,6.347,0,0,1-2.982-5.6,9.892,9.892,0,0,1,2.743-6.413l3.579-4.09-1.7-1.948-7.209-.915a.931.931,0,0,1-.736-1.052.868.868,0,0,1,.92-.841l7.5.952a.8.8,0,0,1,.5.273l2.5,2.857a1.05,1.05,0,0,1,0,1.347L156.6,95.544a8.022,8.022,0,0,0-2.257,5.015,4.44,4.44,0,0,0,2.017,3.924c1.408.746,5.76,2.821,5.8,2.842a.941.941,0,0,1,.5.719,1.035,1.035,0,0,1-.263.867l-8.333,8.571a.78.78,0,0,1-.558.244Zm0,0" transform="translate(-137.674 -77.719)" fill="#222137"/>
    <path id="Caminho_30784" data-name="Caminho 30784" d="M28.831,36.575a.781.781,0,0,1-.589-.279l-6.667-7.619a1.05,1.05,0,0,1,0-1.347l5-5.714a.761.761,0,0,1,1.179,0l6.666,7.619a1.051,1.051,0,0,1,0,1.347l-5,5.714a.783.783,0,0,1-.589.279ZM23.343,28l5.488,6.272,3.821-4.368-5.488-6.272Zm0,0" transform="translate(-19.665 -19.424)" fill="#222137"/>
    <path id="Caminho_30785" data-name="Caminho 30785" d="M120.665,247.245h-2.5a.961.961,0,0,1,0-1.9h2.5a.961.961,0,0,1,0,1.9Zm0,0" transform="translate(-108.166 -223.428)" fill="#222137"/>
    <path id="Caminho_30786" data-name="Caminho 30786" d="M28,204.577H22.165a.961.961,0,0,1,0-1.9H28a.961.961,0,0,1,0,1.9Zm0,0" transform="translate(-19.665 -184.569)" fill="#222137"/>
    <path id="Caminho_30787" data-name="Caminho 30787" d="M138.668,202.672h1.667v1.9h-1.667Zm0,0" transform="translate(-127.835 -184.569)" fill="#222137"/>
    <path id="Caminho_30788" data-name="Caminho 30788" d="M222.5,1.912h-8.333a.9.9,0,0,1-.833-.952.9.9,0,0,1,.833-.952H222.5a.9.9,0,0,1,.833.952A.9.9,0,0,1,222.5,1.912Zm0,0" transform="translate(-196.666)" fill="#222137"/>
    <path id="Caminho_30789" data-name="Caminho 30789" d="M170.668.008h1.667v1.9h-1.667Zm0,0" transform="translate(-157.335 0)" fill="#222137"/>
    <path id="Caminho_30790" data-name="Caminho 30790" d="M128,.008h1.667v1.9H128Zm0,0" transform="translate(-118 0)" fill="#222137"/>
    <path id="Caminho_30791" data-name="Caminho 30791" d="M2.5,23.244H.833a.961.961,0,0,1,0-1.9H2.5a.961.961,0,0,1,0,1.9Zm0,0" transform="translate(0 -19.427)" fill="#222137"/>
    <path id="Caminho_30792" data-name="Caminho 30792" d="M265.332,428.577H246.165a.961.961,0,0,1,0-1.905h19.166a.961.961,0,0,1,0,1.905Zm0,0" transform="translate(-226.166 -388.569)" fill="#222137"/>
    <path id="Caminho_30793" data-name="Caminho 30793" d="M12.5,428.577H.833a.961.961,0,0,1,0-1.905H12.5a.961.961,0,0,1,0,1.905Zm0,0" transform="translate(0 -388.569)" fill="#222137"/>
  </g>
</svg>
