<svg id="gostar" xmlns="http://www.w3.org/2000/svg" width="40" height="40" viewBox="0 0 40 40">
  <path id="Caminho_30806" data-name="Caminho 30806" d="M444.563,413.247a.833.833,0,0,1-.589-1.422,11.568,11.568,0,0,0,1.928-2.542.833.833,0,1,1,1.455.811,13.234,13.234,0,0,1-2.2,2.907.83.83,0,0,1-.589.245Zm0,0" transform="translate(-409.064 -376.913)" fill="#222137"/>
  <path id="Caminho_30807" data-name="Caminho 30807" d="M196.5,197.328a.835.835,0,0,1-.2-.025l-6.076-1.521A13.335,13.335,0,0,1,184,197.328a13.7,13.7,0,0,1-13.317-10.667.833.833,0,1,1,1.633-.333A12,12,0,0,0,184,195.662a11.648,11.648,0,0,0,5.7-1.493.84.84,0,0,1,.611-.082l5.043,1.263-1.263-5.043a.831.831,0,0,1,.081-.611,11.648,11.648,0,0,0,1.494-5.7,12,12,0,0,0-9.333-11.683.833.833,0,1,1,.332-1.633A13.7,13.7,0,0,1,197.331,184a13.337,13.337,0,0,1-1.546,6.222l1.521,6.076a.833.833,0,0,1-.808,1.036Zm0,0" transform="translate(-157.331 -157.328)" fill="#222137"/>
  <path id="Caminho_30808" data-name="Caminho 30808" d="M23.375,242.585a.832.832,0,0,1-.589-.244,13.266,13.266,0,0,1-2.2-2.908.833.833,0,0,1,1.455-.811,11.626,11.626,0,0,0,1.928,2.542.833.833,0,0,1-.589,1.422Zm0,0" transform="translate(-18.875 -219.584)" fill="#222137"/>
  <path id="Caminho_30809" data-name="Caminho 30809" d="M.833,26.667a.834.834,0,0,1-.808-1.035l1.519-6.079a13.351,13.351,0,1,1,5.57,5.569l-6.078,1.52a.85.85,0,0,1-.2.025ZM7.228,23.4a.826.826,0,0,1,.407.107,11.68,11.68,0,1,0-4.477-4.477.832.832,0,0,1,.082.61L1.978,24.688l5.047-1.262a.829.829,0,0,1,.2-.025Zm0,0" fill="#222137"/>
  <path id="Caminho_30810" data-name="Caminho 30810" d="M86.165,65a.834.834,0,0,1-.833-.833V60.836A.834.834,0,0,1,86.165,60a4.171,4.171,0,0,0,4.167-4.167,2.5,2.5,0,0,1,5,0,9.08,9.08,0,0,1-1.85,5.5.833.833,0,0,1-1.331-1,7.425,7.425,0,0,0,1.514-4.5.833.833,0,1,0-1.667,0,5.842,5.842,0,0,1-5,5.774v2.559a.834.834,0,0,1-.833.833Zm0,0" transform="translate(-78.665 -49.169)" fill="#222137"/>
  <path id="Caminho_30811" data-name="Caminho 30811" d="M95.335,148.668H88.668a.838.838,0,0,1-.463-.14l-2.5-1.667a.834.834,0,1,1,.925-1.387L88.921,147h6.414c1.528,0,1.632-.674,1.677-.96l.178-1.114c.241-1.491.571-3.532.648-4.649l-1.668.056a.833.833,0,1,1,0-1.667h1.667a1.7,1.7,0,0,1,1.237.537,1.562,1.562,0,0,1,.427,1.187c-.082,1.193-.419,3.278-.665,4.8l-.176,1.1C98.549,147.009,98,148.668,95.335,148.668Zm0,0" transform="translate(-78.668 -127.835)" fill="#222137"/>
  <path id="Caminho_30812" data-name="Caminho 30812" d="M292.168,259.333A.833.833,0,0,1,291.5,259a3.357,3.357,0,0,0-2.668-1.335.833.833,0,0,1,0-1.667,5.033,5.033,0,0,1,4,2,.834.834,0,0,1-.665,1.335Zm0,0" transform="translate(-265.5 -236)" fill="#222137"/>
  <path id="Caminho_30813" data-name="Caminho 30813" d="M257.4,271a.83.83,0,0,1-.589-.244s-.844-.844-6.277-6.217a.833.833,0,0,1,1.172-1.185c3.347,3.311,4.953,4.9,5.694,5.638.741-.736,2.346-2.327,5.693-5.638a3.284,3.284,0,0,0,.974-2.354,3.333,3.333,0,0,0-6.667,0,.833.833,0,1,1-1.667,0,5,5,0,0,1,10,0,4.937,4.937,0,0,1-1.468,3.539c-5.433,5.373-6.273,6.214-6.276,6.217a.831.831,0,0,1-.589.244Zm0,0" transform="translate(-230.73 -236)" fill="#222137"/>
</svg>
