<svg id="instagram-sketched_1_" data-name="instagram-sketched (1)" xmlns="http://www.w3.org/2000/svg" width="31.195" height="31.195" viewBox="0 0 31.195 31.195">
  <path id="Caminho_2467" data-name="Caminho 2467" d="M212.971,209.985A2.985,2.985,0,1,1,209.985,207,2.985,2.985,0,0,1,212.971,209.985Zm0,0" transform="translate(-194.388 -194.388)" fill="#fff"/>
  <path id="Caminho_2468" data-name="Caminho 2468" d="M149.809,137.549a2.966,2.966,0,0,0-1.7-1.7,4.955,4.955,0,0,0-1.663-.308c-.945-.043-1.228-.052-3.619-.052s-2.675.009-3.619.052a4.958,4.958,0,0,0-1.663.308,2.967,2.967,0,0,0-1.7,1.7,4.957,4.957,0,0,0-.308,1.663c-.043.944-.052,1.228-.052,3.619s.009,2.675.052,3.619a4.955,4.955,0,0,0,.308,1.663,2.966,2.966,0,0,0,1.7,1.7,4.949,4.949,0,0,0,1.663.308c.944.043,1.227.052,3.619.052s2.675-.009,3.619-.052a4.949,4.949,0,0,0,1.663-.308,2.966,2.966,0,0,0,1.7-1.7,4.96,4.96,0,0,0,.308-1.663c.043-.945.052-1.228.052-3.619s-.009-2.675-.052-3.619A4.949,4.949,0,0,0,149.809,137.549Zm-6.982,9.881a4.6,4.6,0,1,1,4.6-4.6A4.6,4.6,0,0,1,142.827,147.43Zm4.781-8.305a1.075,1.075,0,1,1,1.075-1.075A1.075,1.075,0,0,1,147.608,139.125Zm0,0" transform="translate(-127.23 -127.234)" fill="#fff"/>
  <path id="Caminho_2469" data-name="Caminho 2469" d="M15.6,0a15.6,15.6,0,1,0,15.6,15.6A15.6,15.6,0,0,0,15.6,0Zm8.9,19.29a6.571,6.571,0,0,1-.416,2.174,4.58,4.58,0,0,1-2.619,2.619,6.576,6.576,0,0,1-2.174.416c-.955.044-1.26.054-3.693.054s-2.737-.01-3.693-.054a6.576,6.576,0,0,1-2.174-.416,4.58,4.58,0,0,1-2.619-2.619A6.569,6.569,0,0,1,6.7,19.29c-.044-.955-.054-1.26-.054-3.693s.01-2.737.054-3.693a6.572,6.572,0,0,1,.416-2.174,4.583,4.583,0,0,1,2.62-2.619A6.577,6.577,0,0,1,11.9,6.7c.955-.044,1.26-.054,3.693-.054s2.737.01,3.693.054a6.579,6.579,0,0,1,2.174.416,4.581,4.581,0,0,1,2.619,2.62A6.57,6.57,0,0,1,24.5,11.9c.044.955.054,1.26.054,3.693S24.543,18.335,24.5,19.29Zm0,0" fill="#fff"/>
</svg>
