<svg xmlns="http://www.w3.org/2000/svg" width="31.133" height="31.133" viewBox="0 0 31.133 31.133">
  <path id="linkedin" d="M15.566,0A15.566,15.566,0,1,0,31.133,15.566,15.568,15.568,0,0,0,15.566,0ZM11.043,23.532H7.252V12.126h3.791Zm-1.9-12.963H9.123a1.976,1.976,0,1,1,.05-3.941,1.977,1.977,0,1,1-.025,3.941ZM24.713,23.532H20.922v-6.1c0-1.533-.549-2.579-1.921-2.579a2.075,2.075,0,0,0-1.945,1.386,2.6,2.6,0,0,0-.125.925v6.369H13.141s.05-10.336,0-11.406h3.791v1.615a3.764,3.764,0,0,1,3.417-1.883c2.494,0,4.365,1.63,4.365,5.133Zm0,0" fill="#fff"/>
</svg>
