<svg xmlns="http://www.w3.org/2000/svg" width="40.466" height="41.479" viewBox="0 0 40.466 41.479">
  <path id="filter_1_" data-name="filter (1)" d="M38.721,0H1.742A1.737,1.737,0,0,0,.193.943,1.761,1.761,0,0,0,.33,2.776L13.878,21.861l.014.019a3.869,3.869,0,0,1,.76,2.3v15.56a1.73,1.73,0,0,0,1.73,1.741,1.783,1.783,0,0,0,.682-.137l7.613-2.9a1.649,1.649,0,0,0,1.135-1.627V24.177a3.871,3.871,0,0,1,.76-2.3l.014-.019L40.133,2.776A1.76,1.76,0,0,0,40.27.944,1.736,1.736,0,0,0,38.721,0Zm0,0" transform="translate(0.001 0)" fill="#f41f45"/>
</svg>
