<svg xmlns="http://www.w3.org/2000/svg" width="220.775" height="98.027" viewBox="0 0 220.775 98.027">
  <g id="Grupo_1" data-name="Grupo 1" transform="translate(0 0.007)">
    <g id="Grupo_1-2" data-name="Grupo 1" transform="translate(0 -0.007)">
      <path id="Caminho_9" data-name="Caminho 9" d="M69.527,58.782a12.756,12.756,0,0,0-5.84-5.806l-.086-.044c-1.5-.829-3.2-1.746-3.2-3.907,0-2.139,1.7-3.034,3.178-3.842l.086-.044a12.409,12.409,0,0,0,5.84-5.784c3.028-10.3-2.491-21.915-9.319-28.834A35.133,35.133,0,0,0,35.279,0,34.782,34.782,0,0,0,10.435,10.608,35.941,35.941,0,0,0,0,35.863v26.3A35.941,35.941,0,0,0,10.435,87.419,34.657,34.657,0,0,0,35.279,98.027,35.22,35.22,0,0,0,60.208,87.507C67.036,80.565,72.554,69,69.527,58.782ZM57.781,85.04a31.8,31.8,0,0,1-22.5,9.495A32.422,32.422,0,0,1,3.436,62.165v-26.3a32.1,32.1,0,0,1,9.3-22.679A31.856,31.856,0,0,1,35.279,3.492a31.8,31.8,0,0,1,22.5,9.495c6.163,6.265,11.1,16.654,8.288,25.735l-.021.044a17.991,17.991,0,0,1-5.991,6.461C58.64,46.274,57.481,47.278,57.481,49c0,1.986,1.546,3.078,3.028,4.147l.15.109a16.72,16.72,0,0,1,5.39,6.046l.021.044C68.9,68.408,63.944,78.776,57.781,85.04Z" transform="translate(0 0)" fill="#fff"/>
      <path id="Caminho_10" data-name="Caminho 10" d="M59.342,58.392a23.05,23.05,0,0,0-4.638-6.1c-1.31-1.307-2.942-2.919-2.942-5.271,0-2.047,1.2-3.442,2.426-4.727l.215-.218a25.012,25.012,0,0,0,4.96-6.4c2.212-7.384-1.932-15.9-7.021-21.063a26.892,26.892,0,0,0-19-7.994,26.82,26.82,0,0,0-19,8.212A26.781,26.781,0,0,0,6.478,33.888V60.135a27.416,27.416,0,0,0,7.945,19.212,26.643,26.643,0,0,0,18.938,8.059h.15a26.685,26.685,0,0,0,18.831-7.994C57.41,74.249,61.554,65.755,59.342,58.392ZM49.895,76.95a23.537,23.537,0,0,1-16.576,6.97h-.129a22.724,22.724,0,0,1-16.211-6.9A24.365,24.365,0,0,1,9.871,60.135V33.888A24.314,24.314,0,0,1,17,16.941,22.749,22.749,0,0,1,33.146,10.08h.193a23.613,23.613,0,0,1,16.576,6.97c6.442,6.535,7.322,13.766,6.141,17.97l-.043.065A24.546,24.546,0,0,1,53.159,39.4c-1.847,2.4-3.736,4.857-3.736,7.624,0,2.745,1.911,5.249,3.758,7.667a24.921,24.921,0,0,1,2.834,4.269l.021.043C57.217,63.184,56.336,70.416,49.895,76.95Z" transform="translate(1.96 2.003)" fill="#fff"/>
      <path id="Caminho_11" data-name="Caminho 11" d="M49.231,57.982a32.513,32.513,0,0,0-2.34-4.1C45.13,51.077,43.3,48.19,43.3,45.02s1.825-6.079,3.586-8.859a32.706,32.706,0,0,0,2.34-4.125c1.117-2.931.107-8.359-4.788-13.309a18.21,18.21,0,0,0-26.11.043,18.684,18.684,0,0,0-5.475,13.179V58.112a18.721,18.721,0,0,0,5.475,13.179,18.263,18.263,0,0,0,13.012,5.537,18.524,18.524,0,0,0,13.077-5.493C47.9,67.839,50.863,62.194,49.231,57.982ZM42.037,68.86a15.235,15.235,0,0,1-10.564,4.473h-.086a15.259,15.259,0,0,1-10.779-4.712,14.869,14.869,0,0,1-4.294-10.53V31.927a14.809,14.809,0,0,1,4.337-10.6,15.2,15.2,0,0,1,10.736-4.625,14.956,14.956,0,0,1,10.65,4.473c4.166,4.19,4.6,8.468,3.715,10.856a36.282,36.282,0,0,1-2.126,4.147c-1.61,2.866-3.264,5.819-3.264,8.837s1.653,5.971,3.242,8.815A36.516,36.516,0,0,1,45.731,58C46.633,60.392,46.2,64.669,42.037,68.86Z" transform="translate(3.891 4.005)" fill="#fff"/>
      <path id="Caminho_12" data-name="Caminho 12" d="M39.095,56.846c-.386-1.411-.923-2.866-1.439-4.277-1.074-2.932-2.19-5.952-2.19-9.082s1.117-6.15,2.19-9.082c.515-1.411,1.052-2.866,1.439-4.277a7.035,7.035,0,0,0-1.4-6.018,11.14,11.14,0,0,0-8.267-4.277A9.9,9.9,0,0,0,22.3,22.9a10.436,10.436,0,0,0-2.985,7.319V56.78A10.436,10.436,0,0,0,22.3,64.1a9.89,9.89,0,0,0,7.107,3.064,11.14,11.14,0,0,0,8.267-4.277A6.969,6.969,0,0,0,39.095,56.846Zm-4.4,4.144a7.337,7.337,0,0,1-5.261,2.623h-.15A6.208,6.208,0,0,1,24.9,61.74a7.211,7.211,0,0,1-2.147-4.982V30.216a7.193,7.193,0,0,1,2.169-5,6.2,6.2,0,0,1,4.509-1.852,7.15,7.15,0,0,1,5.239,2.6,5.311,5.311,0,0,1,1.245,4.277c-.193,1.5-.472,3-.73,4.453a49.944,49.944,0,0,0-1.052,8.8,50.193,50.193,0,0,0,1.052,8.8c.258,1.455.537,2.976.73,4.453A5.174,5.174,0,0,1,34.693,60.99Z" transform="translate(5.847 5.516)" fill="#fff"/>
      <path id="Caminho_13" data-name="Caminho 13" d="M28.946,54.777c-.15-8.928-.15-17.635,0-26.563a1.825,1.825,0,0,0-.494-1.279,1.54,1.54,0,0,0-1.116-.485,1.684,1.684,0,0,0-1.589,1.764V54.777a1.684,1.684,0,0,0,1.589,1.764,1.577,1.577,0,0,0,1.116-.485A1.825,1.825,0,0,0,28.946,54.777Z" transform="translate(7.792 7.518)" fill="#fff"/>
    </g>
    <path id="Caminho_14" data-name="Caminho 14" d="M78.1,59.221a13.975,13.975,0,0,1-7.064-1.741A12.017,12.017,0,0,1,66.25,52.5a16.218,16.218,0,0,1-1.718-7.649V21.526h5.883V35.811h.043a8.608,8.608,0,0,1,2.147-2.469,10.27,10.27,0,0,1,2.963-1.631,10.674,10.674,0,0,1,3.479-.573,12.546,12.546,0,0,1,6.592,1.719,12.078,12.078,0,0,1,4.466,4.762,15.084,15.084,0,0,1,1.61,7.164,17.544,17.544,0,0,1-.945,5.864,13.772,13.772,0,0,1-2.706,4.607,11.606,11.606,0,0,1-4.273,2.976A15.829,15.829,0,0,1,78.1,59.221Zm0-5.158A7.193,7.193,0,0,0,82.1,52.939a7.468,7.468,0,0,0,2.706-3.13,11.468,11.468,0,0,0,0-9.214,7.928,7.928,0,0,0-2.684-3.152A6.917,6.917,0,0,0,78.146,36.3a7.193,7.193,0,0,0-3.994,1.124,7.6,7.6,0,0,0-2.705,3.13,10.457,10.457,0,0,0-.966,4.629,10.457,10.457,0,0,0,.966,4.629,7.6,7.6,0,0,0,2.705,3.13A7.152,7.152,0,0,0,78.1,54.063Z" transform="translate(18.68 8.633)" fill="#fff"/>
    <path id="Caminho_15" data-name="Caminho 15" d="M102.442,56.988a13.544,13.544,0,0,1-12.067-6.922,14.191,14.191,0,0,1-1.825-7.12,13.974,13.974,0,0,1,1.825-7.12,13.577,13.577,0,0,1,4.939-5.048,13.745,13.745,0,0,1,7.129-1.874,13.546,13.546,0,0,1,12.111,6.922,14.191,14.191,0,0,1,1.825,7.12,13.981,13.981,0,0,1-1.825,7.12,13.546,13.546,0,0,1-12.111,6.922Zm0-5.158a7.54,7.54,0,0,0,4.252-1.19,7.684,7.684,0,0,0,2.769-3.218,10.945,10.945,0,0,0,0-8.994,7.82,7.82,0,0,0-2.769-3.218,7.539,7.539,0,0,0-4.252-1.19,7.21,7.21,0,0,0-4.166,1.19,8.175,8.175,0,0,0-2.77,3.174,10.574,10.574,0,0,0,0,9.016,8.154,8.154,0,0,0,2.77,3.219A7.157,7.157,0,0,0,102.442,51.83Z" transform="translate(25.628 10.8)" fill="#fff"/>
    <path id="Caminho_16" data-name="Caminho 16" d="M123.426,56.994a10.434,10.434,0,0,1-4.66-1.036,7.724,7.724,0,0,1-3.328-3.152,10.822,10.822,0,0,1-1.224-5.445V29.527H120.1V48.308a3.621,3.621,0,0,0,.472,1.874,3.121,3.121,0,0,0,1.2,1.235,3.265,3.265,0,0,0,1.674.419,3.222,3.222,0,0,0,1.632-.419,3.037,3.037,0,0,0,1.225-1.235,3.85,3.85,0,0,0,.472-1.874v-9.9a10.76,10.76,0,0,1,1.159-5.224,7.782,7.782,0,0,1,3.221-3.218,11.01,11.01,0,0,1,9.512,0,7.656,7.656,0,0,1,3.221,3.218,10.587,10.587,0,0,1,1.18,5.224v9.9a3.622,3.622,0,0,0,.473,1.874,3.041,3.041,0,0,0,1.223,1.235,3.409,3.409,0,0,0,1.7.419,3.151,3.151,0,0,0,2.812-1.653,3.825,3.825,0,0,0,.451-1.874V29.527h5.884V47.36a10.821,10.821,0,0,1-1.225,5.445,7.731,7.731,0,0,1-3.328,3.152,10.8,10.8,0,0,1-9.233,0,7.954,7.954,0,0,1-3.371-3.152,10.382,10.382,0,0,1-1.288-5.445V37.573a3.945,3.945,0,0,0-.429-1.918,3.3,3.3,0,0,0-4.446-1.19,3.221,3.221,0,0,0-1.223,1.19,3.709,3.709,0,0,0-.451,1.918V47.36a10.587,10.587,0,0,1-1.268,5.445,7.973,7.973,0,0,1-3.328,3.152A10.29,10.29,0,0,1,123.426,56.994Z" transform="translate(32.589 10.795)" fill="#fff"/>
    <path id="Caminho_17" data-name="Caminho 17" d="M166.521,56.354a16.417,16.417,0,0,1-7.708-1.719,12.639,12.639,0,0,1-5.153-4.74,13.142,13.142,0,0,1-1.847-6.966,15.652,15.652,0,0,1,1.632-7.319,12.1,12.1,0,0,1,11.122-6.723,12.017,12.017,0,0,1,6.914,1.852,10.94,10.94,0,0,1,4.015,4.938,17.585,17.585,0,0,1,1.31,6.944c0,.353-.022.75-.043,1.212a7.029,7.029,0,0,1-.151,1.058H158.062a6.99,6.99,0,0,0,1.481,3.505,7.413,7.413,0,0,0,2.964,2.094,11.034,11.034,0,0,0,3.994.705h7.021v5.158Zm-8.5-15.563h12.9a13.317,13.317,0,0,0-.279-2.006,7.447,7.447,0,0,0-.709-1.9,5.649,5.649,0,0,0-1.223-1.543,5.932,5.932,0,0,0-1.761-1.058,6.493,6.493,0,0,0-2.362-.4,5.843,5.843,0,0,0-2.706.6,5.97,5.97,0,0,0-2,1.587,6.92,6.92,0,0,0-1.245,2.2A9.752,9.752,0,0,0,158.019,40.791Z" transform="translate(43.968 10.8)" fill="#fff"/>
  </g>
</svg>
