<svg xmlns="http://www.w3.org/2000/svg" width="91.5" height="39.608" viewBox="0 0 91.5 39.608">
  <g id="Grupo_26" data-name="Grupo 26" transform="translate(-104.308 -351.433)">
    <g id="Grupo_25" data-name="Grupo 25" transform="translate(104.308 351.433)">
      <path id="Caminho_95" data-name="Caminho 95" d="M132.866,375.181a5.213,5.213,0,0,0-2.4-2.348l-.037-.021c-.614-.332-1.312-.709-1.31-1.576s.7-1.23,1.31-1.551l.038-.021a5.071,5.071,0,0,0,2.4-2.334c1.241-4.165-1.026-8.851-3.826-11.651a14.585,14.585,0,0,0-10.242-4.249,14.641,14.641,0,0,0-14.49,14.49v10.628a14.641,14.641,0,0,0,14.489,14.49h0a14.582,14.582,0,0,0,10.242-4.249C131.843,383.991,134.111,379.314,132.866,375.181Zm-4.824,10.613a12.978,12.978,0,0,1-18.5-.082,12.83,12.83,0,0,1-3.817-9.162V365.923a12.83,12.83,0,0,1,3.818-9.162,13.178,13.178,0,0,1,9.26-3.916h0a13.164,13.164,0,0,1,9.244,3.835c2.529,2.529,4.563,6.726,3.406,10.4l-.009.018a7.38,7.38,0,0,1-2.459,2.608c-.579.424-1.057.831-1.058,1.529,0,.8.631,1.247,1.243,1.678l.057.04a6.809,6.809,0,0,1,2.217,2.447l.008.019C132.608,379.073,130.574,383.262,128.042,385.794Z" transform="translate(-104.308 -351.433)" fill="#222137"/>
      <path id="Caminho_96" data-name="Caminho 96" d="M129.06,375.418a9.341,9.341,0,0,0-1.908-2.47,3.078,3.078,0,0,1-1.21-2.139,2.733,2.733,0,0,1,.993-1.91l.084-.086a10.239,10.239,0,0,0,2.04-2.592c.908-2.993-.794-6.44-2.884-8.53a11.121,11.121,0,0,0-7.805-3.24h0a11.122,11.122,0,0,0-7.809,3.327,10.813,10.813,0,0,0-3.232,7.717v10.628a11.147,11.147,0,0,0,11.044,11.044h.067a11.031,11.031,0,0,0,7.738-3.239C128.267,381.836,129.97,378.394,129.06,375.418Zm-3.882,7.512a9.769,9.769,0,0,1-6.806,2.826h-.057a9.433,9.433,0,0,1-6.66-2.794,9.769,9.769,0,0,1-2.916-6.839V365.5a9.78,9.78,0,0,1,2.925-6.856,9.4,9.4,0,0,1,6.631-2.776h.077a9.75,9.75,0,0,1,6.806,2.826c2.642,2.643,3.01,5.573,2.521,7.278l-.006.016a9.714,9.714,0,0,1-1.175,1.742,5.467,5.467,0,0,0-1.538,3.084,5.536,5.536,0,0,0,1.546,3.1,9.843,9.843,0,0,1,1.167,1.733l.006.016C128.188,377.362,127.821,380.285,125.178,382.929Z" transform="translate(-103.88 -351.005)" fill="#222137"/>
      <path id="Caminho_97" data-name="Caminho 97" d="M125.275,375.654a13.684,13.684,0,0,0-.96-1.67,5.143,5.143,0,0,1,0-7.2,13.6,13.6,0,0,0,.961-1.674c.462-1.192.047-3.4-1.964-5.408a7.652,7.652,0,0,0-5.371-2.229,7.681,7.681,0,0,0-7.6,7.6V375.7a7.681,7.681,0,0,0,7.6,7.6h0a7.644,7.644,0,0,0,5.37-2.229C124.722,379.656,125.938,377.361,125.275,375.654Zm-2.959,4.414a6.294,6.294,0,0,1-4.34,1.813h-.033a6.319,6.319,0,0,1-4.424-1.911,5.98,5.98,0,0,1-1.762-4.276V365.068a6,6,0,0,1,1.78-4.307,6.249,6.249,0,0,1,4.4-1.879h0a6.158,6.158,0,0,1,4.373,1.814c1.709,1.7,1.89,3.438,1.525,4.41a15.853,15.853,0,0,1-.869,1.686,5.485,5.485,0,0,0,0,7.173,15.638,15.638,0,0,1,.872,1.691C124.205,376.63,124.025,378.368,122.316,380.068Z" transform="translate(-103.452 -350.577)" fill="#222137"/>
      <path id="Caminho_98" data-name="Caminho 98" d="M121.487,375.292c-.159-.563-.378-1.145-.59-1.708a7.787,7.787,0,0,1,0-7.263c.212-.563.432-1.145.59-1.709a2.769,2.769,0,0,0-.574-2.413,4.611,4.611,0,0,0-3.4-1.712,4.193,4.193,0,0,0-4.152,4.152v10.628a4.193,4.193,0,0,0,4.15,4.153h0a4.61,4.61,0,0,0,3.4-1.712A2.771,2.771,0,0,0,121.487,375.292Zm-1.809,1.661a3.04,3.04,0,0,1-2.16,1.054h-.059a2.594,2.594,0,0,1-1.8-.747,2.857,2.857,0,0,1-.885-1.992V364.64a2.863,2.863,0,0,1,.889-2,2.567,2.567,0,0,1,1.853-.738,2.982,2.982,0,0,1,2.157,1.045,2.107,2.107,0,0,1,.514,1.712c-.082.6-.194,1.2-.3,1.783a14.492,14.492,0,0,0,0,7.03c.108.583.22,1.186.3,1.783A2.1,2.1,0,0,1,119.678,376.954Z" transform="translate(-103.024 -350.149)" fill="#222137"/>
      <path id="Caminho_99" data-name="Caminho 99" d="M117.687,374.841c-.064-3.576-.064-7.054,0-10.63a.71.71,0,0,0-.2-.513.64.64,0,0,0-.454-.192.68.68,0,0,0-.649.706v10.628a.68.68,0,0,0,.649.706.635.635,0,0,0,.454-.192A.71.71,0,0,0,117.687,374.841Z" transform="translate(-102.596 -349.721)" fill="#222137"/>
    </g>
    <path id="Caminho_100" data-name="Caminho 100" d="M140.124,377.255a5.94,5.94,0,0,1-2.9-.694,4.883,4.883,0,0,1-1.967-1.989,6.306,6.306,0,0,1-.706-3.062v-9.334h2.421v5.713h.022a3.46,3.46,0,0,1,.884-.989,4.238,4.238,0,0,1,1.221-.652,4.377,4.377,0,0,1,1.432-.232,5.243,5.243,0,0,1,2.7.684,4.836,4.836,0,0,1,1.831,1.9,5.909,5.909,0,0,1,.663,2.862,6.781,6.781,0,0,1-.389,2.346,5.378,5.378,0,0,1-1.116,1.842,4.786,4.786,0,0,1-1.758,1.19A6.266,6.266,0,0,1,140.124,377.255Zm0-2.062a3,3,0,0,0,1.642-.453,3.061,3.061,0,0,0,1.116-1.251,4.084,4.084,0,0,0,.4-1.853,4.033,4.033,0,0,0-.4-1.83,3.165,3.165,0,0,0-1.105-1.263,2.9,2.9,0,0,0-1.63-.464,3.008,3.008,0,0,0-1.642.452,3.072,3.072,0,0,0-1.116,1.253,4.494,4.494,0,0,0,0,3.705,3.061,3.061,0,0,0,1.116,1.251A2.961,2.961,0,0,0,140.124,375.192Z" transform="translate(4.287 1.523)" fill="#222137"/>
    <path id="Caminho_101" data-name="Caminho 101" d="M151.513,376.778a5.714,5.714,0,0,1-2.926-.747,5.635,5.635,0,0,1,0-9.745,6.146,6.146,0,0,1,5.872,0,5.633,5.633,0,0,1,0,9.745A5.75,5.75,0,0,1,151.513,376.778Zm0-2.062a3.074,3.074,0,0,0,2.883-1.757,4.254,4.254,0,0,0,0-3.6,3.074,3.074,0,0,0-2.883-1.757,3.076,3.076,0,0,0-1.716.474,3.261,3.261,0,0,0-1.136,1.273,4.169,4.169,0,0,0,0,3.61,3.252,3.252,0,0,0,1.136,1.283A3.076,3.076,0,0,0,151.513,374.716Z" transform="translate(5.884 2)" fill="#222137"/>
    <path id="Caminho_102" data-name="Caminho 102" d="M161.615,376.778a4.4,4.4,0,0,1-1.915-.41,3.124,3.124,0,0,1-1.368-1.263,4.226,4.226,0,0,1-.5-2.178v-7.135h2.419v7.514a1.453,1.453,0,0,0,.191.747,1.275,1.275,0,0,0,.493.494,1.448,1.448,0,0,0,1.358,0,1.254,1.254,0,0,0,.506-.494,1.464,1.464,0,0,0,.19-.747v-3.957a4.254,4.254,0,0,1,.474-2.094,3.066,3.066,0,0,1,1.326-1.283,4.632,4.632,0,0,1,3.9,0,3.154,3.154,0,0,1,1.326,1.283,4.192,4.192,0,0,1,.484,2.094v3.957a1.452,1.452,0,0,0,.19.747,1.251,1.251,0,0,0,.5.494,1.446,1.446,0,0,0,.694.169,1.343,1.343,0,0,0,.663-.169,1.3,1.3,0,0,0,.5-.494,1.463,1.463,0,0,0,.188-.747v-7.514h2.421v7.135a4.225,4.225,0,0,1-.5,2.178,3.13,3.13,0,0,1-1.368,1.263,4.585,4.585,0,0,1-3.79,0,3.258,3.258,0,0,1-1.39-1.263,4.1,4.1,0,0,1-.525-2.178v-3.915a1.5,1.5,0,0,0-.179-.768,1.25,1.25,0,0,0-.484-.473,1.384,1.384,0,0,0-.684-.169,1.361,1.361,0,0,0-.652.169,1.307,1.307,0,0,0-.506.473,1.444,1.444,0,0,0-.188.768v3.915a4.158,4.158,0,0,1-.516,2.178,3.206,3.206,0,0,1-1.368,1.263A4.283,4.283,0,0,1,161.615,376.778Z" transform="translate(7.588 2)" fill="#222137"/>
    <path id="Caminho_103" data-name="Caminho 103" d="M181.49,376.525a6.944,6.944,0,0,1-3.167-.684,5.052,5.052,0,0,1-2.873-4.684,6.128,6.128,0,0,1,.674-2.925,5.03,5.03,0,0,1,1.852-1.978,5.125,5.125,0,0,1,2.715-.716,5.056,5.056,0,0,1,2.841.736,4.418,4.418,0,0,1,1.653,1.979,6.94,6.94,0,0,1,.537,2.778c0,.14-.007.3-.022.484a2.283,2.283,0,0,1-.063.421h-7.619a2.688,2.688,0,0,0,.611,1.4,3.022,3.022,0,0,0,1.221.843,4.522,4.522,0,0,0,1.641.284h2.884v2.062ZM178,370.3h5.3a4.5,4.5,0,0,0-.116-.8,2.973,2.973,0,0,0-.293-.758,2.318,2.318,0,0,0-.506-.62,2.375,2.375,0,0,0-.726-.421,2.751,2.751,0,0,0-.968-.158,2.452,2.452,0,0,0-1.116.242,2.609,2.609,0,0,0-.821.631,2.8,2.8,0,0,0-.515.884A4.664,4.664,0,0,0,178,370.3Z" transform="translate(10.087 2)" fill="#222137"/>
  </g>
</svg>
