<svg xmlns="http://www.w3.org/2000/svg" width="147" height="63.633" viewBox="0 0 147 63.633">
  <g id="Grupo_2024" data-name="Grupo 2024" transform="translate(-104.308 -351.433)">
    <g id="Grupo_2023" data-name="Grupo 2023" transform="translate(104.308 351.433)">
      <path id="Caminho_2457" data-name="Caminho 2457" d="M150.188,389.585a8.376,8.376,0,0,0-3.854-3.771l-.059-.033c-.987-.534-2.108-1.139-2.1-2.531s1.119-1.976,2.1-2.491l.061-.033a8.147,8.147,0,0,0,3.852-3.749c1.994-6.692-1.649-14.22-6.147-18.718a23.431,23.431,0,0,0-16.454-6.826,23.521,23.521,0,0,0-23.28,23.28v17.074a23.521,23.521,0,0,0,23.278,23.279h0a23.427,23.427,0,0,0,16.454-6.826C148.545,403.739,152.188,396.226,150.188,389.585Zm-7.75,17.05a20.85,20.85,0,0,1-29.729-.132,20.612,20.612,0,0,1-6.132-14.719V374.713a20.613,20.613,0,0,1,6.134-14.719,21.171,21.171,0,0,1,14.876-6.292h0a21.149,21.149,0,0,1,14.851,6.161c4.063,4.063,7.33,10.806,5.472,16.711l-.015.029a11.857,11.857,0,0,1-3.951,4.19c-.93.681-1.7,1.335-1.7,2.456,0,1.286,1.014,2,2,2.7l.092.064a10.939,10.939,0,0,1,3.562,3.931l.013.031C149.774,395.839,146.505,402.569,142.438,406.635Z" transform="translate(-104.308 -351.433)" fill="#fff"/>
      <path id="Caminho_2458" data-name="Caminho 2458" d="M142.243,388.135a15.008,15.008,0,0,0-3.065-3.968,4.945,4.945,0,0,1-1.944-3.436,4.391,4.391,0,0,1,1.6-3.069l.136-.138a16.451,16.451,0,0,0,3.278-4.164c1.458-4.808-1.275-10.346-4.634-13.7a17.866,17.866,0,0,0-12.54-5.206h-.006a17.868,17.868,0,0,0-12.545,5.345,17.371,17.371,0,0,0-5.193,12.4v17.074a17.908,17.908,0,0,0,17.744,17.744h.108a17.722,17.722,0,0,0,12.431-5.2C140.97,398.446,143.7,392.917,142.243,388.135ZM136.006,400.2a15.694,15.694,0,0,1-10.934,4.54l-.092,0a15.154,15.154,0,0,1-10.7-4.489,15.7,15.7,0,0,1-4.685-10.988V372.195a15.711,15.711,0,0,1,4.7-11.015,15.1,15.1,0,0,1,10.654-4.459h.123a15.664,15.664,0,0,1,10.934,4.54c4.245,4.247,4.835,8.953,4.05,11.692l-.009.026a15.609,15.609,0,0,1-1.888,2.8c-1.214,1.555-2.471,3.164-2.471,4.955s1.262,3.416,2.484,4.988a15.813,15.813,0,0,1,1.875,2.784l.009.026C140.841,391.259,140.253,395.955,136.006,400.2Z" transform="translate(-101.79 -348.915)" fill="#fff"/>
      <path id="Caminho_2459" data-name="Caminho 2459" d="M134.332,386.684A22,22,0,0,0,132.789,384c-1.163-1.825-2.364-3.715-2.364-5.787s1.2-3.96,2.366-5.787a21.854,21.854,0,0,0,1.544-2.689c.743-1.915.075-5.457-3.155-8.687a12.293,12.293,0,0,0-8.629-3.581,12.34,12.34,0,0,0-12.208,12.208v17.074a12.34,12.34,0,0,0,12.206,12.207h0a12.281,12.281,0,0,0,8.627-3.581C133.444,393.114,135.4,389.427,134.332,386.684Zm-4.755,7.092a10.111,10.111,0,0,1-6.972,2.913h-.053a10.152,10.152,0,0,1-7.108-3.071,9.607,9.607,0,0,1-2.83-6.87V369.677a9.64,9.64,0,0,1,2.86-6.919,10.039,10.039,0,0,1,7.077-3.019h0a9.893,9.893,0,0,1,7.025,2.915c2.746,2.729,3.036,5.523,2.451,7.084a25.469,25.469,0,0,1-1.4,2.709c-1.057,1.869-2.148,3.8-2.148,5.767s1.088,3.9,2.141,5.756a25.126,25.126,0,0,1,1.4,2.717C132.613,388.253,132.323,391.045,129.577,393.776Z" transform="translate(-99.272 -346.397)" fill="#fff"/>
      <path id="Caminho_2460" data-name="Caminho 2460" d="M126.414,384.272c-.255-.9-.607-1.84-.948-2.744a12.511,12.511,0,0,1,0-11.668c.341-.9.693-1.84.948-2.746a4.448,4.448,0,0,0-.923-3.876,7.407,7.407,0,0,0-5.459-2.75,6.737,6.737,0,0,0-6.67,6.67v17.074a6.737,6.737,0,0,0,6.668,6.671h0a7.406,7.406,0,0,0,5.455-2.75A4.451,4.451,0,0,0,126.414,384.272Zm-2.906,2.669a4.883,4.883,0,0,1-3.471,1.693h-.1a4.168,4.168,0,0,1-2.891-1.2,4.59,4.59,0,0,1-1.422-3.2V367.158a4.6,4.6,0,0,1,1.429-3.217,4.124,4.124,0,0,1,2.977-1.185,4.791,4.791,0,0,1,3.465,1.678,3.386,3.386,0,0,1,.825,2.75c-.132.959-.312,1.928-.486,2.865a23.282,23.282,0,0,0,0,11.294c.174.937.354,1.906.486,2.865A3.374,3.374,0,0,1,123.509,386.941Z" transform="translate(-96.753 -343.878)" fill="#fff"/>
      <path id="Caminho_2461" data-name="Caminho 2461" d="M118.479,381.715c-.1-5.745-.1-11.333,0-17.078a1.141,1.141,0,0,0-.327-.824,1.028,1.028,0,0,0-.73-.308,1.092,1.092,0,0,0-1.042,1.134v17.074a1.092,1.092,0,0,0,1.042,1.134,1.021,1.021,0,0,0,.73-.308A1.14,1.14,0,0,0,118.479,381.715Z" transform="translate(-94.235 -341.36)" fill="#fff"/>
    </g>
    <path id="Caminho_2462" data-name="Caminho 2462" d="M143.507,386.4a9.542,9.542,0,0,1-4.667-1.115,7.845,7.845,0,0,1-3.161-3.2,10.131,10.131,0,0,1-1.134-4.92v-15h3.889v9.179h.035a5.559,5.559,0,0,1,1.42-1.589,6.81,6.81,0,0,1,1.961-1.047,7.032,7.032,0,0,1,2.3-.372,8.424,8.424,0,0,1,4.344,1.1,7.769,7.769,0,0,1,2.942,3.06,9.492,9.492,0,0,1,1.066,4.6,10.9,10.9,0,0,1-.626,3.77,8.64,8.64,0,0,1-1.792,2.959,7.688,7.688,0,0,1-2.825,1.911A10.066,10.066,0,0,1,143.507,386.4Zm0-3.313a4.818,4.818,0,0,0,2.638-.728,4.917,4.917,0,0,0,1.792-2.01,6.562,6.562,0,0,0,.642-2.977,6.48,6.48,0,0,0-.642-2.94,5.085,5.085,0,0,0-1.776-2.029,4.653,4.653,0,0,0-2.619-.745,4.833,4.833,0,0,0-2.638.726,4.935,4.935,0,0,0-1.792,2.012,7.219,7.219,0,0,0,0,5.952,4.917,4.917,0,0,0,1.792,2.01A4.757,4.757,0,0,0,143.507,383.088Z" transform="translate(25.229 8.962)" fill="#fff"/>
    <path id="Caminho_2463" data-name="Caminho 2463" d="M154.973,383.594a9.179,9.179,0,0,1-4.7-1.2,9.052,9.052,0,0,1,0-15.656,9.873,9.873,0,0,1,9.434,0,9.05,9.05,0,0,1,0,15.656A9.238,9.238,0,0,1,154.973,383.594Zm0-3.313a4.939,4.939,0,0,0,4.632-2.823,6.834,6.834,0,0,0,0-5.784,4.939,4.939,0,0,0-4.632-2.823,4.941,4.941,0,0,0-2.757.761,5.24,5.24,0,0,0-1.825,2.045,6.7,6.7,0,0,0,0,5.8,5.224,5.224,0,0,0,1.825,2.062A4.941,4.941,0,0,0,154.973,380.282Z" transform="translate(34.626 11.769)" fill="#fff"/>
    <path id="Caminho_2464" data-name="Caminho 2464" d="M163.913,383.594a7.063,7.063,0,0,1-3.076-.659,5.019,5.019,0,0,1-2.2-2.029,6.789,6.789,0,0,1-.811-3.5V365.944h3.887v12.072a2.335,2.335,0,0,0,.306,1.2,2.048,2.048,0,0,0,.792.794,2.326,2.326,0,0,0,2.181,0,2.013,2.013,0,0,0,.813-.794,2.351,2.351,0,0,0,.3-1.2v-6.358a6.834,6.834,0,0,1,.761-3.364,4.925,4.925,0,0,1,2.13-2.062,7.442,7.442,0,0,1,6.273,0,5.067,5.067,0,0,1,2.13,2.062,6.735,6.735,0,0,1,.778,3.364v6.358a2.333,2.333,0,0,0,.3,1.2,2.009,2.009,0,0,0,.811.794,2.322,2.322,0,0,0,1.115.271,2.157,2.157,0,0,0,1.066-.271,2.081,2.081,0,0,0,.8-.794,2.35,2.35,0,0,0,.3-1.2V365.944h3.889v11.463a6.788,6.788,0,0,1-.811,3.5,5.029,5.029,0,0,1-2.2,2.029,7.365,7.365,0,0,1-6.088,0,5.233,5.233,0,0,1-2.232-2.029,6.593,6.593,0,0,1-.844-3.5v-6.29a2.406,2.406,0,0,0-.288-1.234,2.008,2.008,0,0,0-.778-.759,2.222,2.222,0,0,0-1.1-.272,2.185,2.185,0,0,0-1.047.272,2.1,2.1,0,0,0-.813.759,2.319,2.319,0,0,0-.3,1.234v6.29a6.68,6.68,0,0,1-.829,3.5,5.15,5.15,0,0,1-2.2,2.029A6.881,6.881,0,0,1,163.913,383.594Z" transform="translate(44.654 11.769)" fill="#fff"/>
    <path id="Caminho_2465" data-name="Caminho 2465" d="M185.154,383.189a11.155,11.155,0,0,1-5.088-1.1,8.117,8.117,0,0,1-4.615-7.525,9.845,9.845,0,0,1,1.082-4.7,8.082,8.082,0,0,1,2.975-3.177,8.235,8.235,0,0,1,4.362-1.15,8.123,8.123,0,0,1,4.564,1.183,7.1,7.1,0,0,1,2.656,3.179,11.15,11.15,0,0,1,.862,4.463c0,.226-.011.484-.035.778a3.666,3.666,0,0,1-.1.677H179.575a4.318,4.318,0,0,0,.981,2.247,4.855,4.855,0,0,0,1.961,1.354,7.267,7.267,0,0,0,2.636.457h4.634v3.313Zm-5.613-10.008h8.522a7.228,7.228,0,0,0-.187-1.286,4.777,4.777,0,0,0-.471-1.218,3.724,3.724,0,0,0-.813-1,3.815,3.815,0,0,0-1.167-.677,4.419,4.419,0,0,0-1.556-.253,3.94,3.94,0,0,0-1.792.389,4.191,4.191,0,0,0-1.319,1.014,4.49,4.49,0,0,0-.827,1.42A7.492,7.492,0,0,0,179.541,373.181Z" transform="translate(59.356 11.769)" fill="#fff"/>
  </g>
</svg>
