<svg width="150" height="29" viewBox="0 0 150 29" fill="#4943d7" xmlns="http://www.w3.org/2000/svg"><path fill-rule="evenodd" clip-rule="evenodd" d="M17.72 7.65629L21.7678 5.45175C20.3885 2.02579 16.9405 0 12.3231 0C4.70735 0 0 4.67719 0 11.4993C0 18.9471 6.23649 23.0582 12.1732 23.0582C17.6301 23.0582 21.1981 20.526 22.7272 18.4108V10.3971H11.0038V14.0911H18.3497L18.3197 16.6234C18.3197 16.6234 16.1609 18.679 12.2631 18.679C8.06546 18.679 5.66681 15.8488 5.66681 11.3802C5.66681 6.88172 8.06546 4.05158 12.2031 4.05158C14.6618 4.05158 16.4907 5.51134 17.72 7.65629ZM24.7699 28.0933V24.3098C25.6394 24.4588 26.2091 24.4886 26.8088 24.4886C28.6078 24.4886 29.957 23.863 30.5567 22.6118L30.6766 22.1649L23.5406 7.29917H29.2074L32.8054 16.4152C33.0753 17.0706 33.1652 17.4579 33.2851 18.0835H33.3751C33.465 17.5473 33.585 17.16 33.8248 16.445L37.2729 7.29917H42.5799L35.8037 22.8799C34.1247 26.7527 31.6361 28.3018 27.3185 28.3018C26.6589 28.3018 25.6095 28.2423 24.7699 28.0933ZM49.1764 10.2774V7.29829H44.1992V22.1938H49.3264V14.4779C49.3264 12.0649 50.5257 10.6647 52.5345 10.6647C54.4535 10.6647 55.4129 11.8563 55.4129 14.2992V22.1938H60.54V14.3885C60.54 12.0351 61.7394 10.6647 63.7482 10.6647C65.6671 10.6647 66.6266 11.8563 66.6266 14.2992V22.1938H71.7537V13.3757C71.7537 9.17512 69.6549 6.85143 65.907 6.85143C63.2685 6.85143 61.2596 8.01328 60.0303 10.3072C59.1308 7.98348 57.3618 6.85143 54.7233 6.85143C52.0548 6.85143 50.1959 7.98348 49.1764 10.2774ZM74.6245 7.29829H79.6017V9.80074C80.831 7.86432 83.0797 6.85143 85.7182 6.85143C90.2157 6.85143 93.184 9.94969 93.184 14.6865C93.184 19.4828 90.0658 22.6407 85.5083 22.6407C82.9897 22.6407 81.0109 21.6873 79.7516 20.1084V28.003H74.6245V7.29829ZM83.804 10.2776C86.3826 10.2776 87.8817 11.8863 87.8817 14.6866C87.8817 17.487 86.3226 19.2149 83.774 19.2149C81.2854 19.2149 79.6364 17.5764 79.6364 15.0739V14.4483C79.6364 11.7969 81.2854 10.2776 83.804 10.2776ZM95.162 18.1124C95.162 16.742 95.7317 15.61 96.7811 14.8652C97.8305 14.1502 99.3296 13.7034 101.998 13.4352L107.575 12.9288V12.4819C107.575 10.8136 106.436 10.0093 104.397 10.0093C102.328 10.0093 101.099 10.8136 100.889 12.3032H95.6417C96.0315 8.90701 99.3596 6.85143 104.427 6.85143C110.124 6.85143 112.732 8.90701 112.732 13.2267V17.8443C112.732 19.7509 112.852 21.1511 113.092 22.1938H108.025C107.905 21.4788 107.815 20.5553 107.815 19.6616C106.825 21.5384 104.487 22.6407 101.309 22.6407C97.5307 22.6407 95.162 20.9128 95.162 18.1124ZM107.702 15.342V16.2953C107.702 18.2615 105.903 19.5425 103.264 19.5425C101.495 19.5425 100.416 18.8871 100.416 17.7849C100.416 16.623 101.286 16.0272 103.564 15.7591L107.702 15.342ZM114.537 19.0955L117.296 16.7718C118.705 18.4401 120.834 19.3339 123.952 19.3339C126.051 19.3339 126.98 18.887 126.98 17.9635C126.98 17.1293 126.531 16.8016 124.821 16.6229L120.834 16.2356C117.176 15.7887 115.437 14.2694 115.437 11.6478C115.437 8.6091 118.255 6.85143 123.292 6.85143C126.92 6.85143 129.859 7.86432 131.538 9.68157L129.139 12.1244C127.61 10.754 125.721 10.0986 123.023 10.0986C121.044 10.0986 120.114 10.4859 120.114 11.3499C120.114 12.0649 120.654 12.4223 122.033 12.5713L126.441 13.0182C130.128 13.4352 131.598 14.9546 131.598 17.5762C131.598 20.734 128.929 22.6407 123.712 22.6407C119.544 22.6407 116.396 21.4192 114.537 19.0955ZM135.698 16.7718L132.94 19.0955C134.799 21.4192 137.947 22.6407 142.114 22.6407C147.331 22.6407 150 20.734 150 17.5762C150 14.9546 148.531 13.4352 144.843 13.0182L140.435 12.5713C139.056 12.4223 138.516 12.0649 138.516 11.3499C138.516 10.4859 139.446 10.0986 141.425 10.0986C144.123 10.0986 146.012 10.754 147.541 12.1244L149.94 9.68157C148.261 7.86432 145.323 6.85143 141.695 6.85143C136.657 6.85143 133.839 8.6091 133.839 11.6478C133.839 14.2694 135.578 15.7887 139.236 16.2356L143.224 16.6229C144.933 16.8016 145.383 17.1293 145.383 17.9635C145.383 18.887 144.453 19.3339 142.354 19.3339C139.236 19.3339 137.107 18.4401 135.698 16.7718Z"></path></svg>