<svg xmlns="http://www.w3.org/2000/svg" width="41.173" height="57.79" viewBox="0 0 41.173 57.79">
  <g id="Grupo_32" data-name="Grupo 32" transform="translate(-123.34 -100.366)">
    <g id="Grupo_30" data-name="Grupo 30">
      <path id="Caminho_104" data-name="Caminho 104" d="M159.951,127.346a5.934,5.934,0,0,0-2.725-2.667l-.042-.023c-.7-.377-1.491-.805-1.488-1.791s.791-1.4,1.487-1.761l.044-.023a5.765,5.765,0,0,0,2.724-2.652c1.409-4.732-1.167-10.056-4.347-13.236a16.576,16.576,0,0,0-11.636-4.827A16.637,16.637,0,0,0,127.5,116.829V128.9a16.637,16.637,0,0,0,16.462,16.463h0a16.574,16.574,0,0,0,11.636-4.828C158.788,137.355,161.365,132.043,159.951,127.346ZM154.469,139.4a14.746,14.746,0,0,1-21.022-.092A14.58,14.58,0,0,1,129.11,128.9V116.829a14.584,14.584,0,0,1,4.337-10.409,14.973,14.973,0,0,1,10.521-4.45h0a14.961,14.961,0,0,1,10.5,4.358c2.874,2.874,5.185,7.642,3.87,11.817l-.009.021a8.389,8.389,0,0,1-2.795,2.963c-.657.481-1.2.944-1.2,1.737,0,.909.717,1.416,1.412,1.906l.065.047a7.739,7.739,0,0,1,2.519,2.779l.01.021C159.657,131.768,157.346,136.527,154.469,139.4Z" fill="#fff"/>
      <path id="Caminho_105" data-name="Caminho 105" d="M156.112,128.1a10.6,10.6,0,0,0-2.168-2.806,3.5,3.5,0,0,1-1.374-2.429,3.1,3.1,0,0,1,1.128-2.17l.1-.1a11.591,11.591,0,0,0,2.318-2.945c1.031-3.4-.9-7.316-3.276-9.691a12.641,12.641,0,0,0-8.868-3.681h0a12.634,12.634,0,0,0-8.872,3.781,12.284,12.284,0,0,0-3.673,8.766V128.9a12.665,12.665,0,0,0,12.548,12.547h.076a12.533,12.533,0,0,0,8.792-3.681C155.212,135.393,157.146,131.483,156.112,128.1Zm-4.411,8.534a11.1,11.1,0,0,1-7.732,3.211H143.9a10.715,10.715,0,0,1-7.567-3.173,11.1,11.1,0,0,1-3.313-7.77V116.829a11.113,11.113,0,0,1,3.323-7.79,10.683,10.683,0,0,1,7.534-3.154h.087a11.069,11.069,0,0,1,7.732,3.21c3,3,3.42,6.331,2.865,8.269l-.007.018a10.947,10.947,0,0,1-1.335,1.979c-.858,1.1-1.746,2.238-1.746,3.5s.892,2.415,1.755,3.527a11.066,11.066,0,0,1,1.326,1.969l.007.018C155.122,130.311,154.705,133.632,151.7,136.635Z" fill="#fff"/>
      <path id="Caminho_106" data-name="Caminho 106" d="M152.3,128.856a15.522,15.522,0,0,0-1.092-1.9,8.039,8.039,0,0,1-1.671-4.093,8.025,8.025,0,0,1,1.673-4.093,15.375,15.375,0,0,0,1.092-1.9c.525-1.355.053-3.86-2.231-6.144a8.691,8.691,0,0,0-6.1-2.531,8.725,8.725,0,0,0-8.632,8.632V128.9a8.723,8.723,0,0,0,8.631,8.632h0a8.688,8.688,0,0,0,6.1-2.531C151.671,133.4,153.052,130.8,152.3,128.856Zm-3.363,5.014a7.15,7.15,0,0,1-4.93,2.061h-.038a7.171,7.171,0,0,1-5.026-2.172,6.794,6.794,0,0,1-2-4.858V116.829a6.821,6.821,0,0,1,2.022-4.894,7.1,7.1,0,0,1,5-2.134h0a7,7,0,0,1,4.968,2.06c1.942,1.932,2.147,3.906,1.733,5.01a18.168,18.168,0,0,1-.987,1.917,8.844,8.844,0,0,0-1.519,4.078,8.8,8.8,0,0,0,1.514,4.071,17.978,17.978,0,0,1,.991,1.92C151.083,129.965,150.878,131.939,148.936,133.87Z" fill="#fff"/>
      <path id="Caminho_107" data-name="Caminho 107" d="M148.48,128.932c-.179-.64-.429-1.3-.67-1.941a11.961,11.961,0,0,1-1.021-4.125,11.951,11.951,0,0,1,1.022-4.127c.241-.639.49-1.3.67-1.942a3.141,3.141,0,0,0-.653-2.74,5.241,5.241,0,0,0-3.86-1.945,4.765,4.765,0,0,0-4.717,4.717V128.9a4.764,4.764,0,0,0,4.716,4.717h0a5.241,5.241,0,0,0,3.859-1.944A3.144,3.144,0,0,0,148.48,128.932Zm-2.054,1.887a3.455,3.455,0,0,1-2.455,1.2H143.9a2.947,2.947,0,0,1-2.044-.849,3.241,3.241,0,0,1-1.005-2.262V116.829a3.247,3.247,0,0,1,1.011-2.275,2.911,2.911,0,0,1,2.1-.838,3.384,3.384,0,0,1,2.45,1.186,2.4,2.4,0,0,1,.584,1.945c-.093.678-.221,1.363-.344,2.025a22.029,22.029,0,0,0-.492,3.994,22.007,22.007,0,0,0,.492,3.993c.123.663.251,1.348.344,2.027A2.384,2.384,0,0,1,146.426,130.819Z" fill="#fff"/>
      <path id="Caminho_108" data-name="Caminho 108" d="M144.65,128.9c-.072-4.063-.072-8.013,0-12.077a.8.8,0,0,0-.231-.581.717.717,0,0,0-.516-.219.773.773,0,0,0-.737.8V128.9a.773.773,0,0,0,.737.8.721.721,0,0,0,.516-.219A.8.8,0,0,0,144.65,128.9Z" fill="#fff"/>
    </g>
    <g id="Grupo_31" data-name="Grupo 31">
      <path id="Caminho_109" data-name="Caminho 109" d="M127.371,158.156a4.279,4.279,0,0,1-2.1-.5,3.515,3.515,0,0,1-1.422-1.437,4.559,4.559,0,0,1-.51-2.213v-6.746h1.749v4.129h.015a2.532,2.532,0,0,1,.639-.714,3.093,3.093,0,0,1,.882-.472,3.18,3.18,0,0,1,1.035-.167,3.8,3.8,0,0,1,1.954.494,3.493,3.493,0,0,1,1.323,1.377,4.26,4.26,0,0,1,.48,2.068,4.887,4.887,0,0,1-.282,1.7,3.874,3.874,0,0,1-.806,1.331,3.452,3.452,0,0,1-1.27.859A4.531,4.531,0,0,1,127.371,158.156Zm0-1.491a2.163,2.163,0,0,0,1.186-.327,2.209,2.209,0,0,0,.806-.9,2.948,2.948,0,0,0,.289-1.338,2.913,2.913,0,0,0-.289-1.323,2.3,2.3,0,0,0-.8-.913,2.1,2.1,0,0,0-1.179-.334,2.169,2.169,0,0,0-1.186.326,2.227,2.227,0,0,0-.807.906,3.242,3.242,0,0,0,0,2.676,2.211,2.211,0,0,0,.807.9A2.134,2.134,0,0,0,127.371,156.665Z" fill="#fff"/>
      <path id="Caminho_110" data-name="Caminho 110" d="M136.755,158.156a4.123,4.123,0,0,1-2.114-.54,4.07,4.07,0,0,1,0-7.042,4.439,4.439,0,0,1,4.244,0,4.071,4.071,0,0,1,0,7.042A4.158,4.158,0,0,1,136.755,158.156Zm0-1.491a2.221,2.221,0,0,0,2.084-1.269,3.073,3.073,0,0,0,0-2.6,2.221,2.221,0,0,0-2.084-1.269,2.214,2.214,0,0,0-1.239.342,2.368,2.368,0,0,0-.822.92,3.022,3.022,0,0,0,0,2.609,2.354,2.354,0,0,0,.822.927A2.214,2.214,0,0,0,136.755,156.665Z" fill="#fff"/>
      <path id="Caminho_111" data-name="Caminho 111" d="M145.288,158.156a3.172,3.172,0,0,1-1.384-.3,2.248,2.248,0,0,1-.989-.912,3.057,3.057,0,0,1-.365-1.575v-5.156H144.3v5.431a1.056,1.056,0,0,0,.137.539.923.923,0,0,0,.357.358,1.055,1.055,0,0,0,.981,0,.906.906,0,0,0,.366-.358,1.056,1.056,0,0,0,.137-.539v-2.86a3.077,3.077,0,0,1,.342-1.513,2.217,2.217,0,0,1,.958-.928,3.347,3.347,0,0,1,2.822,0,2.277,2.277,0,0,1,.958.928,3.023,3.023,0,0,1,.35,1.513v2.86a1.046,1.046,0,0,0,.137.539.9.9,0,0,0,.365.358,1.048,1.048,0,0,0,.5.121.981.981,0,0,0,.48-.121.924.924,0,0,0,.357-.358,1.056,1.056,0,0,0,.137-.539v-5.431h1.749v5.156a3.047,3.047,0,0,1-.365,1.575,2.251,2.251,0,0,1-.988.912,3.306,3.306,0,0,1-2.739,0,2.349,2.349,0,0,1-1-.912,2.96,2.96,0,0,1-.379-1.575v-2.828a1.092,1.092,0,0,0-.13-.556.9.9,0,0,0-.349-.342,1.014,1.014,0,0,0-.5-.121.986.986,0,0,0-.471.121.948.948,0,0,0-.366.342,1.044,1.044,0,0,0-.136.556v2.828a3.008,3.008,0,0,1-.373,1.575,2.308,2.308,0,0,1-.989.912A3.092,3.092,0,0,1,145.288,158.156Z" fill="#fff"/>
      <path id="Caminho_112" data-name="Caminho 112" d="M161.456,157.974a5.018,5.018,0,0,1-2.289-.495,3.652,3.652,0,0,1-2.076-3.384,4.418,4.418,0,0,1,.487-2.114,3.632,3.632,0,0,1,1.338-1.43,3.7,3.7,0,0,1,1.962-.517,3.66,3.66,0,0,1,2.053.532,3.19,3.19,0,0,1,1.194,1.43,5,5,0,0,1,.388,2.008c0,.1-.005.218-.015.35a1.655,1.655,0,0,1-.045.3h-5.507a1.936,1.936,0,0,0,.442,1.011,2.185,2.185,0,0,0,.882.609,3.287,3.287,0,0,0,1.186.205h2.084v1.491Zm-2.525-4.5h3.833a3.212,3.212,0,0,0-.084-.578,2.119,2.119,0,0,0-.212-.547,1.693,1.693,0,0,0-.365-.449,1.744,1.744,0,0,0-.525-.3,1.988,1.988,0,0,0-.7-.114,1.774,1.774,0,0,0-.806.175,1.907,1.907,0,0,0-.593.456,2.026,2.026,0,0,0-.373.639A3.378,3.378,0,0,0,158.931,153.471Z" fill="#fff"/>
    </g>
  </g>
</svg>
