<svg xmlns="http://www.w3.org/2000/svg" width="38.87" height="28.86" viewBox="0 0 38.87 28.86">
  <path id="Caminho_1798" data-name="Caminho 1798" d="M14.17-66.3a8.04,8.04,0,0,1-5.915-2.405,8.04,8.04,0,0,1-2.4-5.915A10.037,10.037,0,0,1,6.7-78.65,31.133,31.133,0,0,1,9.36-83.33l8.19-11.83,5.2,3.38-6.37,9.75a7.124,7.124,0,0,1,4.16,2.4,7.19,7.19,0,0,1,1.82,5,8.04,8.04,0,0,1-2.405,5.915A7.887,7.887,0,0,1,14.17-66.3Zm21.97,0a8.04,8.04,0,0,1-5.915-2.405A8.04,8.04,0,0,1,27.82-74.62a10.037,10.037,0,0,1,.845-4.03,31.133,31.133,0,0,1,2.665-4.68l8.19-11.83,5.2,3.38-6.37,9.75a7.124,7.124,0,0,1,4.16,2.4,7.19,7.19,0,0,1,1.82,5,8.04,8.04,0,0,1-2.4,5.915A7.887,7.887,0,0,1,36.14-66.3Z" transform="translate(-5.85 95.16)" fill="#fd0c08"/>
</svg>
