<svg version="1.1" viewBox="0 0 931 210" style="width:230px; height:53px; padding:0px; margin:0px;" id="Camada_1" xmlns="http://www.w3.org/2000/svg" xmlns:xlink="http://www.w3.org/1999/xlink">
      <style type="text/css">
        .st0{fill:#3576ED;}
        .st1{fill:#25292C;}
      </style>
      <polygon class="st0" points="108.8,122.8 109.6,122.8 109.6,122.7 109.6,110.2 109.6,110 108.8,110 50,110 49.1,110 49.1,110.2 
        49.1,122.7 49.1,122.8 50,122.8 "></polygon>
      <path class="st0" d="M50,135.3h-0.9v6c0,3.8,3,6.9,6.8,6.9l0,0h46.9c3.8,0,6.8-3.1,6.8-6.9v-6H50z"></path>
      <path class="st0" d="M102.8,84.7H55.9c-3.8,0-6.8,3.1-6.8,6.9l0,0v6h60.5v-6C109.6,87.8,106.6,84.8,102.8,84.7z"></path>
      <path class="st0" d="M143,116.3c0-12.6-1.6-23.1-4.6-31.6c-2.1-6.3-5.7-12-10.4-16.7c-7.8-7.5-18.7-11.3-32.6-11.3h-32
        c-5.5-0.1-10.9,0.6-16.2,2.1c-21,6-31.5,24.9-31.5,57.6v0.2c0,32.7,10.5,51.6,31.5,57.6c5.3,1.4,10.8,2.1,16.2,2.1h31.9
        c13.9,0,24.8-3.7,32.6-11.3c4.7-4.7,8.3-10.4,10.4-16.7c3.1-8.5,4.6-19.1,4.6-31.6v-0.4H143z M92.9,163.5H65.8
        c-34.2,0-34.2-20.6-34.2-47.1s-0.1-47.1,34.2-47.1h27.1c34.2,0,34.2,20.7,34.2,47.1S127.2,163.5,92.9,163.5z"></path>
      <path class="st1" d="M194,101.2v48.7h-15.1v-65h14.4v5.4c6.1-5.4,14.1-6.9,22.1-6.9v14C207.6,97.3,199,98.9,194,101.2z"></path>
      <path class="st1" d="M246.8,149.9c-18.9,0-29.2-9.7-29.2-30.1v-6.2c0-20.4,10.4-30,29.2-30s29.2,9.7,29.2,30v6.2
        C276.1,140.2,265.7,149.9,246.8,149.9z M261,113.6c0-12.4-4.3-17-14.1-17s-14.1,4.6-14.1,17v6.2c0,12.4,4.3,17.1,14.1,17.1
        c9.9,0,14.1-4.7,14.1-17.1V113.6z"></path>
      <path class="st1" d="M311.3,149.9c-18.6,0-27.3-10.6-27.3-30v-6.4c0-19.8,8.6-29.9,27.3-29.9c6.7-0.1,13.5,0.7,20,2.4v11.5
        c-8.2-0.7-13.8-1-17.4-1c-9.4,0-14.7,3-14.7,17v6.4c0,13.9,5.3,17.1,14.7,17.1c3.6,0,9.2-0.3,17.4-1v11.5
        C324.7,149.2,318,150,311.3,149.9z"></path>
      <path class="st1" d="M378.4,149.9l-22.9-30.7v30.7h-15.1V60.5h15.1V114l23.2-29.1h17.4l-25.3,31.3l25.8,33.7H378.4z"></path>
      <path class="st0" d="M475.3,149.7v-6.8c-7.9,4.1-15.3,6.8-23,6.8c-15.9,0-19.7-9.9-19.7-25.3V85h7.6v39.5c0,13.8,3.1,18.6,13.5,18.6
        c6.4,0,13.6-2.5,21.6-6.3V85h7.8v64.8L475.3,149.7z"></path>
      <path class="st0" d="M541,149.7v-41c0-13.8-3-18.6-13.4-18.6c-6.2,0-13.5,2.4-21.6,6.2v53.4h-7.8V85h7.7v5.2
        c7.2-3.8,14.5-6.9,22.3-6.9c16.7,0,20.5,8.8,20.5,25.4v41H541z"></path>
      <path class="st0" d="M564.1,75.1V60.5h8V75L564.1,75.1L564.1,75.1z M564.1,149.7V85h7.9v64.8L564.1,149.7z"></path>
      <path class="st0" d="M613.8,149.7h-10.9L580.6,85h8.5l14.5,43.8c1.8,5.5,3.2,10.5,4.7,15.6h0.2c1.5-5.1,2.9-10,4.7-15.6L627.6,85
        h8.5L613.8,149.7z"></path>
      <path class="st0" d="M647,120v1.4c0,14.8,4.1,21.5,21.7,21.5c7.4-0.1,14.8-0.7,22.2-1.8v6.2c-7.4,1.6-14.9,2.4-22.4,2.4
        c-22.1,0-29.2-9.9-29.2-31.5v-3c0-20.3,8.2-32,26.8-32s27,11.4,27,32.8v4L647,120L647,120z M684.9,112.4c0-11.6-3.2-22.3-18.8-22.3
        s-19,11.1-19,22.3l-0.1,1.1h37.9L684.9,112.4z"></path>
      <path class="st0" d="M712.6,96.3v53.4H705V85h7.6v5.2c7.6-5.5,16.8-6.9,24.3-6.9v7C729.8,90.3,719.7,92,712.6,96.3z"></path>
      <path class="st0" d="M762.1,149.7c-7,0-13.9-0.8-20.8-2.4v-6.1c4,0.5,12.8,1.8,20.5,1.8c12.2,0,16-4.2,16-10.7s-2.9-7.4-14.5-12.2
        l-4.7-1.8c-12.4-5-18.1-10.1-18.1-19.3c0-10.7,7.5-15.8,23.1-15.8c6.4,0,12.8,0.7,19,2.3v6c-6.2-0.9-12.4-1.4-18.7-1.5
        c-10.7,0-15.6,1.9-15.6,9c0,6.1,3.3,8.7,13.4,12.8l4.7,1.9c14.4,6.1,19.2,8.7,19.2,18.5C785.6,141.4,780.3,149.7,762.1,149.7z"></path>
      <path class="st0" d="M797.1,75.1V60.5h8V75L797.1,75.1L797.1,75.1z M797.1,149.7V85h7.9v64.8L797.1,149.7z"></path>
      <path class="st0" d="M842.7,149.7c-11,0-14.7-4.2-14.7-16.1V91.5l-14.1-0.6V85H828V60.5h7.8V85h29.7l2.5,6.6h-32.2v41.8
        c0,8.2,1.1,10.1,7.8,10.1c3.6,0,7.3-0.2,10.9-0.6v5.5C850.5,149.2,846.6,149.7,842.7,149.7z"></path>
      <path class="st0" d="M890,149.7c-5,14.2-10.7,15.4-23.7,15.4c-3.8,0-7.6-0.3-11.3-0.8V158c4.7,0.4,7.5,0.5,11.1,0.5
        c7.9,0,12,0.8,15.9-8.9l0,0L856.9,85h8.6l15.5,41.5c1.8,4.9,3,8.8,4.9,14.5c1.5-5.7,2.7-9.5,4.4-14.7L904.5,85h8.3L890,149.7z"></path>
      </svg>