<svg xmlns="http://www.w3.org/2000/svg" width="553" height="547" viewBox="0 0 553 547">
  <g id="Group_1495" data-name="Group 1495" transform="translate(-407 -3432)">
    <ellipse id="Ellipse_41" data-name="Ellipse 41" cx="182.5" cy="182" rx="182.5" ry="182" transform="translate(407 3615)" fill="#45aea1" opacity="0.1"/>
    <circle id="Ellipse_39" data-name="Ellipse 39" cx="182.5" cy="182.5" r="182.5" transform="translate(501 3432)" fill="#45aea1" opacity="0.1"/>
    <path id="Path_2436" data-name="Path 2436" d="M-135.54,0h2.44V-14.1h-1.7l-3.78,1.2.52,2,2.52-.7Zm11.48-4.94h5.92V-7.32h-5.92ZM-109.22,0h2.46V-4.88h3.08L-100.24,0h2.92l-3.78-5.3a4.2,4.2,0,0,0,3.32-4.24v-.04a4.232,4.232,0,0,0-1.16-3.02,5.641,5.641,0,0,0-4.04-1.4h-6.24Zm2.46-7.06v-4.7h3.58c1.82,0,2.9.82,2.9,2.32v.04c0,1.42-1.12,2.34-2.88,2.34ZM-90.4.24a5.341,5.341,0,0,0,4.32-1.98L-87.5-3a3.835,3.835,0,0,1-2.86,1.26A2.948,2.948,0,0,1-93.4-4.42h7.76c.02-.24.04-.46.04-.68,0-3.04-1.7-5.68-5.06-5.68a5.241,5.241,0,0,0-5.16,5.5v.04A5.269,5.269,0,0,0-90.4.24Zm-3.02-6.26A2.858,2.858,0,0,1-90.68-8.8,2.742,2.742,0,0,1-88-6.02ZM-79.54.2c2.2,0,3.92-1.1,3.92-3.32v-.04c0-1.9-1.74-2.6-3.28-3.08-1.24-.4-2.38-.72-2.38-1.5v-.04c0-.58.54-1.04,1.48-1.04a6.128,6.128,0,0,1,2.98,1l.96-1.72a7.321,7.321,0,0,0-3.88-1.2c-2.1,0-3.76,1.22-3.76,3.24v.04c0,2,1.74,2.64,3.3,3.08,1.24.38,2.36.66,2.36,1.48v.04c0,.7-.6,1.14-1.64,1.14a5.974,5.974,0,0,1-3.46-1.3l-1.08,1.64A7.293,7.293,0,0,0-79.54.2ZM-69.5.22a3.8,3.8,0,0,0,3.3-1.86V0h2.44V-10.56H-66.2V-4.6A2.332,2.332,0,0,1-68.58-2c-1.44,0-2.26-.92-2.26-2.56v-6h-2.42v6.72C-73.26-1.38-71.88.22-69.5.22ZM-60.62,0h2.44V-14.6h-2.44Zm9.14.18A4.184,4.184,0,0,0-49.3-.36V-2.34a3.253,3.253,0,0,1-1.5.36A1.152,1.152,0,0,1-52.1-3.3V-8.48h2.84v-2.08H-52.1v-2.9h-2.42v2.9h-1.34v2.08h1.34v5.56C-54.52-.6-53.26.18-51.48.18Zm7.72.04a4.292,4.292,0,0,0,3.44-1.54V0h2.36V-6.26A4.382,4.382,0,0,0-39.1-9.52a4.732,4.732,0,0,0-3.5-1.18,9.168,9.168,0,0,0-4,.86l.66,1.9a7.352,7.352,0,0,1,3.02-.66c1.7,0,2.62.8,2.62,2.3v.26a8.822,8.822,0,0,0-2.84-.44c-2.58,0-4.38,1.12-4.38,3.4v.04C-47.52-.92-45.74.22-43.76.22Zm.68-1.76c-1.16,0-2.06-.58-2.06-1.6v-.04c0-1.1.92-1.76,2.48-1.76a6.709,6.709,0,0,1,2.4.42v.72C-40.26-2.46-41.48-1.54-43.08-1.54ZM-30.7.22a4.227,4.227,0,0,0,3.6-1.98V0h2.42V-14.6H-27.1v5.68a4.32,4.32,0,0,0-3.6-1.86c-2.52,0-4.9,1.98-4.9,5.48v.04C-35.6-1.76-33.18.22-30.7.22Zm.58-2.1a3.142,3.142,0,0,1-3.04-3.38V-5.3a3.107,3.107,0,0,1,3.04-3.38A3.169,3.169,0,0,1-27.06-5.3v.04A3.181,3.181,0,0,1-30.12-1.88ZM-16.62.24a5.521,5.521,0,0,0,5.66-5.5V-5.3a5.47,5.47,0,0,0-5.62-5.48,5.52,5.52,0,0,0-5.64,5.52v.04A5.461,5.461,0,0,0-16.62.24Zm.04-2.12A3.255,3.255,0,0,1-19.8-5.26V-5.3a3.169,3.169,0,0,1,3.18-3.36,3.264,3.264,0,0,1,3.24,3.4v.04A3.168,3.168,0,0,1-16.58-1.88ZM-4.88.2C-2.68.2-.96-.9-.96-3.12v-.04c0-1.9-1.74-2.6-3.28-3.08-1.24-.4-2.38-.72-2.38-1.5v-.04c0-.58.54-1.04,1.48-1.04a6.128,6.128,0,0,1,2.98,1l.96-1.72a7.321,7.321,0,0,0-3.88-1.2c-2.1,0-3.76,1.22-3.76,3.24v.04c0,2,1.74,2.64,3.3,3.08C-4.3-4-3.18-3.72-3.18-2.9v.04c0,.7-.6,1.14-1.64,1.14a5.974,5.974,0,0,1-3.46-1.3L-9.36-1.38A7.293,7.293,0,0,0-4.88.2Z" transform="translate(752.5 3551)" fill="#212b32"/>
    <path id="Path_2438" data-name="Path 2438" d="M-112.62,0h10.12V-2.16h-6.66l2.88-2.4c2.48-2.02,3.64-3.2,3.64-5.42v-.04c0-2.5-1.88-4.18-4.62-4.18-2.5,0-3.82,1.06-5.16,2.92l1.76,1.38c1.06-1.4,1.94-2.1,3.22-2.1a2.11,2.11,0,0,1,2.26,2.18c0,1.26-.72,2.14-2.62,3.78l-4.82,4.1Zm18.4-4.94h5.92V-7.32h-5.92ZM-79.38,0h2.42V-10l4.38,6.56h.08l4.42-6.6V0h2.46V-14h-2.62L-72.5-7.38-76.76-14h-2.62Zm20.12.22a4.292,4.292,0,0,0,3.44-1.54V0h2.36V-6.26A4.382,4.382,0,0,0-54.6-9.52a4.732,4.732,0,0,0-3.5-1.18,9.168,9.168,0,0,0-4,.86l.66,1.9a7.352,7.352,0,0,1,3.02-.66c1.7,0,2.62.8,2.62,2.3v.26a8.822,8.822,0,0,0-2.84-.44c-2.58,0-4.38,1.12-4.38,3.4v.04C-63.02-.92-61.24.22-59.26.22Zm.68-1.76c-1.16,0-2.06-.58-2.06-1.6v-.04c0-1.1.92-1.76,2.48-1.76a6.709,6.709,0,0,1,2.4.42v.72C-55.76-2.46-56.98-1.54-58.58-1.54Zm8,1.54h2.44V-4.02c0-2.8,1.48-4.18,3.6-4.18h.14v-2.56a3.744,3.744,0,0,0-3.74,2.58v-2.38h-2.44Zm11.82.18a4.184,4.184,0,0,0,2.18-.54V-2.34a3.253,3.253,0,0,1-1.5.36,1.152,1.152,0,0,1-1.3-1.32V-8.48h2.84v-2.08h-2.84v-2.9H-41.8v2.9h-1.34v2.08h1.34v5.56C-41.8-.6-40.54.18-38.76.18Zm9.22.06a5.341,5.341,0,0,0,4.32-1.98L-26.64-3A3.835,3.835,0,0,1-29.5-1.74a2.948,2.948,0,0,1-3.04-2.68h7.76c.02-.24.04-.46.04-.68,0-3.04-1.7-5.68-5.06-5.68a5.241,5.241,0,0,0-5.16,5.5v.04A5.269,5.269,0,0,0-29.54.24Zm-3.02-6.26A2.858,2.858,0,0,1-29.82-8.8a2.742,2.742,0,0,1,2.68,2.78ZM-17.42.24A5.343,5.343,0,0,0-13.1-1.74l-1.46-1.44a3.73,3.73,0,0,1-2.74,1.3,3.2,3.2,0,0,1-3.16-3.38V-5.3A3.185,3.185,0,0,1-17.4-8.66a3.609,3.609,0,0,1,2.72,1.32l1.52-1.62a5.334,5.334,0,0,0-4.22-1.82,5.45,5.45,0,0,0-5.5,5.52v.04A5.391,5.391,0,0,0-17.42.24ZM-10.9,0h2.44V-5.96A2.349,2.349,0,0,1-6.08-8.58c1.44,0,2.26.94,2.26,2.58V0H-1.4V-6.74c0-2.44-1.38-4.04-3.76-4.04a3.828,3.828,0,0,0-3.3,1.84V-14.6H-10.9Z" transform="translate(563.263 3834)" fill="#212b32"/>
    <circle id="Ellipse_40" data-name="Ellipse 40" cx="182" cy="182" r="182" transform="translate(596 3615)" fill="#45aea1" opacity="0.1"/>
    <path id="Path_2437" data-name="Path 2437" d="M-136.1.24c2.92,0,4.9-1.86,4.9-4.44v-.04c0-2.58-2-3.66-4.12-3.92l3.9-4V-14h-9.26v2.14h6.06l-3.78,4.02.4,1.54h1.14c1.96,0,3.22.78,3.22,2.16v.04a2.2,2.2,0,0,1-2.42,2.12,4.566,4.566,0,0,1-3.68-1.84l-1.72,1.62A6.683,6.683,0,0,0-136.1.24Zm7.5-.24h2.66V-2.76h-2.66Zm11.82,0h5.22c4.4,0,7.44-3.06,7.44-7v-.04c0-3.94-3.04-6.96-7.44-6.96h-5.22Zm5.22-11.76A4.594,4.594,0,0,1-106.7-7v.04a4.563,4.563,0,0,1-4.86,4.72h-2.76v-9.52ZM-98.38.22a4.292,4.292,0,0,0,3.44-1.54V0h2.36V-6.26a4.382,4.382,0,0,0-1.14-3.26,4.732,4.732,0,0,0-3.5-1.18,9.168,9.168,0,0,0-4,.86l.66,1.9a7.352,7.352,0,0,1,3.02-.66c1.7,0,2.62.8,2.62,2.3v.26a8.822,8.822,0,0,0-2.84-.44c-2.58,0-4.38,1.12-4.38,3.4v.04C-102.14-.92-100.36.22-98.38.22Zm.68-1.76c-1.16,0-2.06-.58-2.06-1.6v-.04c0-1.1.92-1.76,2.48-1.76a6.709,6.709,0,0,1,2.4.42v.72C-94.88-2.46-96.1-1.54-97.7-1.54ZM-86.24.18a4.184,4.184,0,0,0,2.18-.54V-2.34a3.253,3.253,0,0,1-1.5.36,1.152,1.152,0,0,1-1.3-1.32V-8.48h2.84v-2.08h-2.84v-2.9h-2.42v2.9h-1.34v2.08h1.34v5.56C-89.28-.6-88.02.18-86.24.18Zm7.72.04a4.292,4.292,0,0,0,3.44-1.54V0h2.36V-6.26a4.382,4.382,0,0,0-1.14-3.26,4.732,4.732,0,0,0-3.5-1.18,9.168,9.168,0,0,0-4,.86l.66,1.9a7.352,7.352,0,0,1,3.02-.66c1.7,0,2.62.8,2.62,2.3v.26a8.822,8.822,0,0,0-2.84-.44c-2.58,0-4.38,1.12-4.38,3.4v.04C-82.28-.92-80.5.22-78.52.22Zm.68-1.76c-1.16,0-2.06-.58-2.06-1.6v-.04c0-1.1.92-1.76,2.48-1.76a6.709,6.709,0,0,1,2.4.42v.72C-75.02-2.46-76.24-1.54-77.84-1.54Zm7.62-3.4h5.92V-7.32h-5.92ZM-57.3.22a4.227,4.227,0,0,0,3.6-1.98V0h2.42V-14.6H-53.7v5.68a4.32,4.32,0,0,0-3.6-1.86c-2.52,0-4.9,1.98-4.9,5.48v.04C-62.2-1.76-59.78.22-57.3.22Zm.58-2.1a3.142,3.142,0,0,1-3.04-3.38V-5.3a3.107,3.107,0,0,1,3.04-3.38A3.169,3.169,0,0,1-53.66-5.3v.04A3.181,3.181,0,0,1-56.72-1.88ZM-48.26,0h2.44V-4.02c0-2.8,1.48-4.18,3.6-4.18h.14v-2.56a3.744,3.744,0,0,0-3.74,2.58v-2.38h-2.44Zm8.32-12.18h2.6v-2.3h-2.6ZM-39.86,0h2.44V-10.56h-2.44Zm8.94.08h2.18l4.32-10.64h-2.54L-29.82-2.8l-2.84-7.76h-2.6Zm12.8.16A5.341,5.341,0,0,0-13.8-1.74L-15.22-3a3.835,3.835,0,0,1-2.86,1.26,2.948,2.948,0,0,1-3.04-2.68h7.76c.02-.24.04-.46.04-.68,0-3.04-1.7-5.68-5.06-5.68a5.241,5.241,0,0,0-5.16,5.5v.04A5.269,5.269,0,0,0-18.12.24Zm-3.02-6.26A2.858,2.858,0,0,1-18.4-8.8a2.742,2.742,0,0,1,2.68,2.78ZM-10.9,0h2.44V-5.96A2.349,2.349,0,0,1-6.08-8.58c1.44,0,2.26.94,2.26,2.58V0H-1.4V-6.74c0-2.44-1.38-4.04-3.76-4.04a3.828,3.828,0,0,0-3.3,1.84v-1.62H-10.9Z" transform="translate(931.737 3834)" fill="#212b32"/>
  </g>
</svg>
