<svg xmlns="http://www.w3.org/2000/svg" width="68.514" height="67.192" viewBox="0 0 68.514 67.192">
  <g id="Group_1488" data-name="Group 1488" transform="translate(0 0)">
    <g id="Group_1421" data-name="Group 1421" transform="translate(8.434 12.354)">
      <path id="Path_2372" data-name="Path 2372" d="M288.519,93.437h-28.01V63.49h28.01Zm-24.788-3.222H285.3v-23.5H263.731Z" transform="translate(-260.509 -63.49)" fill="#f26729"/>
    </g>
    <g id="Group_1422" data-name="Group 1422" transform="translate(33.223 -0.001)">
      <path id="Path_2373" data-name="Path 2373" d="M299.061,108.558,279.745,95.446V67.015L299.061,53.9ZM282.967,93.74l12.872,8.737V59.984l-12.872,8.737Z" transform="translate(-279.745 -53.903)" fill="#f26729"/>
    </g>
    <g id="Group_1423" data-name="Group 1423" transform="translate(0 17.924)">
      <path id="Path_2374" data-name="Path 2374" d="M265.62,86.618H253.964V67.813H265.62ZM257.186,83.4H262.4V71.035h-5.213Z" transform="translate(-253.964 -67.813)" fill="#f26729"/>
    </g>
    <g id="Group_1424" data-name="Group 1424" transform="translate(8.608 39.961)">
      <path id="Path_2375" data-name="Path 2375" d="M279.369,112.144h-5.647L260.644,86.371l2.873-1.457L275.7,108.923h.447V85.642h3.222Z" transform="translate(-260.644 -84.914)" fill="#f26729"/>
    </g>
    <g id="Group_1425" data-name="Group 1425" transform="translate(55.512 18.007)">
      <path id="Path_2376" data-name="Path 2376" d="M299.32,86.517l-2.278-2.277a9.972,9.972,0,0,0,0-14.085l2.278-2.278A13.2,13.2,0,0,1,299.32,86.517Z" transform="translate(-297.042 -67.877)" fill="#f26729"/>
    </g>
    <g id="Group_1426" data-name="Group 1426" transform="translate(60.372 13.146)">
      <path id="Path_2377" data-name="Path 2377" d="M303.091,92.465l-2.278-2.277a16.852,16.852,0,0,0,0-23.805l2.278-2.278A20.078,20.078,0,0,1,303.091,92.465Z" transform="translate(-300.813 -64.105)" fill="#f26729"/>
    </g>
  </g>
</svg>
