<svg xmlns="http://www.w3.org/2000/svg" width="45.121" height="52.731" viewBox="0 0 45.121 52.731">
  <g id="Group_1473" data-name="Group 1473" transform="translate(-1045 -980)">
    <circle id="Ellipse_34" data-name="Ellipse 34" cx="14.5" cy="14.5" r="14.5" transform="translate(1053 988)" fill="#f26729"/>
    <g id="Group_1472" data-name="Group 1472" transform="translate(0 0.365)">
      <g id="Group_1457" data-name="Group 1457" transform="translate(697.169 830.772)">
        <g id="Group_1437" data-name="Group 1437">
          <g id="Group_1435" data-name="Group 1435">
            <rect id="Rectangle_247" data-name="Rectangle 247" width="2.5" height="12.592" transform="translate(369.142 165.202)" fill="#212b32"/>
          </g>
          <g id="Group_1436" data-name="Group 1436">
            <rect id="Rectangle_248" data-name="Rectangle 248" width="12.593" height="2.5" transform="translate(364.095 170.248)" fill="#212b32"/>
          </g>
        </g>
        <g id="Group_1438" data-name="Group 1438">
          <path id="Path_2381" data-name="Path 2381" d="M370.392,187.558a16.06,16.06,0,1,1,16.059-16.06A16.078,16.078,0,0,1,370.392,187.558Zm0-29.819A13.759,13.759,0,1,0,384.15,171.5,13.774,13.774,0,0,0,370.392,157.739Z" fill="#212b32"/>
        </g>
        <g id="Group_1439" data-name="Group 1439">
          <rect id="Rectangle_249" data-name="Rectangle 249" width="18.017" height="2.3" transform="translate(361.383 189.886)" fill="#212b32"/>
        </g>
        <g id="Group_1440" data-name="Group 1440">
          <rect id="Rectangle_250" data-name="Rectangle 250" width="18.017" height="2.3" transform="translate(361.383 194.23)" fill="#212b32"/>
        </g>
        <g id="Group_1441" data-name="Group 1441">
          <path id="Path_2382" data-name="Path 2382" d="M370.392,201.593a7.039,7.039,0,0,1-5.008-2.074l1.627-1.626a4.781,4.781,0,0,0,6.761,0l1.627,1.626A7.038,7.038,0,0,1,370.392,201.593Z" fill="#212b32"/>
        </g>
        <g id="Group_1442" data-name="Group 1442">
          <path id="Path_2383" data-name="Path 2383" d="M372.262,151.247a20.686,20.686,0,0,0-3.741,0l-.209-2.29a22.926,22.926,0,0,1,4.159,0Z" fill="#212b32"/>
        </g>
        <g id="Group_1443" data-name="Group 1443">
          <path id="Path_2384" data-name="Path 2384" d="M361.708,153.108l-.981-2.081c.622-.293,1.268-.562,1.922-.8s1.322-.447,1.987-.622l.588,2.223c-.6.158-1.2.347-1.789.561S362.266,152.845,361.708,153.108Z" fill="#212b32"/>
        </g>
        <g id="Group_1444" data-name="Group 1444">
          <path id="Path_2385" data-name="Path 2385" d="M355.941,157.187l-1.632-1.62c.484-.488,1-.962,1.532-1.409s1.094-.877,1.655-1.265l1.311,1.89c-.5.349-1,.732-1.489,1.137S356.377,156.748,355.941,157.187Z" fill="#212b32"/>
        </g>
        <g id="Group_1445" data-name="Group 1445">
          <path id="Path_2386" data-name="Path 2386" d="M351.918,162.992l-2.088-.964c.287-.622.609-1.244.958-1.848s.723-1.189,1.12-1.753l1.881,1.325c-.358.508-.7,1.039-1.009,1.578S352.177,162.433,351.918,162.992Z" fill="#212b32"/>
        </g>
        <g id="Group_1446" data-name="Group 1446">
          <path id="Path_2387" data-name="Path 2387" d="M350.122,169.824l-2.291-.193c.057-.683.147-1.377.268-2.063s.276-1.377.455-2.033l2.218.606c-.161.589-.3,1.2-.408,1.827S350.174,169.209,350.122,169.824Z" fill="#212b32"/>
        </g>
        <g id="Group_1447" data-name="Group 1447">
          <path id="Path_2388" data-name="Path 2388" d="M348.554,177.461c-.179-.656-.332-1.339-.455-2.031s-.211-1.382-.268-2.065l2.291-.193c.052.615.134,1.24.242,1.858s.247,1.237.408,1.826Z" fill="#212b32"/>
        </g>
        <g id="Group_1448" data-name="Group 1448">
          <path id="Path_2389" data-name="Path 2389" d="M351.908,184.569c-.395-.562-.772-1.151-1.12-1.752s-.671-1.226-.958-1.849l2.088-.964c.259.56.549,1.119.862,1.663s.653,1.072,1.009,1.578Z" fill="#212b32"/>
        </g>
        <g id="Group_1449" data-name="Group 1449">
          <path id="Path_2390" data-name="Path 2390" d="M357.5,190.1c-.561-.389-1.117-.814-1.654-1.264s-1.049-.922-1.533-1.41l1.632-1.62c.436.438.9.865,1.378,1.268s.985.787,1.488,1.136Z" fill="#212b32"/>
        </g>
        <g id="Group_1450" data-name="Group 1450">
          <path id="Path_2391" data-name="Path 2391" d="M383.287,190.1l-1.31-1.89c.5-.349,1-.732,1.488-1.138s.941-.828,1.377-1.266l1.633,1.62c-.485.488-1,.962-1.533,1.408S383.848,189.715,383.287,190.1Z" fill="#212b32"/>
        </g>
        <g id="Group_1451" data-name="Group 1451">
          <path id="Path_2392" data-name="Path 2392" d="M388.875,184.569l-1.881-1.324c.357-.506.7-1.037,1.009-1.579s.6-1.1.862-1.662l2.088.964c-.287.623-.609,1.245-.958,1.849S389.27,184.007,388.875,184.569Z" fill="#212b32"/>
        </g>
        <g id="Group_1452" data-name="Group 1452">
          <path id="Path_2393" data-name="Path 2393" d="M392.229,177.461l-2.218-.6c.161-.589.3-1.2.408-1.827s.19-1.242.242-1.857l2.291.193c-.057.683-.147,1.378-.267,2.064S392.408,176.8,392.229,177.461Z" fill="#212b32"/>
        </g>
        <g id="Group_1453" data-name="Group 1453">
          <path id="Path_2394" data-name="Path 2394" d="M390.661,169.824c-.052-.615-.134-1.24-.242-1.858s-.247-1.236-.408-1.825l2.218-.606c.179.656.332,1.339.456,2.031s.21,1.382.267,2.065Z" fill="#212b32"/>
        </g>
        <g id="Group_1454" data-name="Group 1454">
          <path id="Path_2395" data-name="Path 2395" d="M388.865,162.992c-.259-.559-.549-1.119-.862-1.662s-.651-1.07-1.009-1.578l1.881-1.325c.4.564.774,1.154,1.12,1.753s.671,1.226.958,1.848Z" fill="#212b32"/>
        </g>
        <g id="Group_1455" data-name="Group 1455">
          <path id="Path_2396" data-name="Path 2396" d="M384.842,157.187c-.436-.439-.9-.866-1.378-1.268s-.985-.787-1.487-1.136l1.31-1.89c.561.388,1.117.814,1.654,1.264s1.049.922,1.534,1.41Z" fill="#212b32"/>
        </g>
        <g id="Group_1456" data-name="Group 1456">
          <path id="Path_2397" data-name="Path 2397" d="M379.075,153.108c-.557-.263-1.14-.506-1.728-.72s-1.189-.4-1.787-.56l.587-2.223c.665.175,1.333.385,1.986.622s1.3.507,1.923.8Z" fill="#212b32"/>
        </g>
      </g>
    </g>
  </g>
</svg>
