<svg xmlns="http://www.w3.org/2000/svg" width="60.337" height="61.145" viewBox="0 0 60.337 61.145">
  <g id="Group_1479" data-name="Group 1479" transform="translate(-424.831 -3279)">
    <circle id="Ellipse_35" data-name="Ellipse 35" cx="4.5" cy="4.5" r="4.5" transform="translate(451 3305)" fill="#f26729"/>
    <circle id="Ellipse_36" data-name="Ellipse 36" cx="4.5" cy="4.5" r="4.5" transform="translate(460 3295)" fill="#45aea1"/>
    <g id="Group_1373" data-name="Group 1373" transform="translate(424.831 3279)">
      <path id="Path_2339" data-name="Path 2339" d="M137.646-45.985a1.236,1.236,0,0,1-.818-.309,1.237,1.237,0,0,1-.417-.957l.307-12.083-.446-.427-1.107,4.251a2.125,2.125,0,0,1-1.525,1.52,3.641,3.641,0,0,1-3.3-.882L117.755-66.935a3.682,3.682,0,0,1-1.012-3.342,2.052,2.052,0,0,1,1.5-1.52l4.052-1.355-.245-.237-12.061.82a1.265,1.265,0,0,1-.974-.376,1.234,1.234,0,0,1-.336-.988c.964-8.98,2.935-18.626,14.166-19.416a22.293,22.293,0,0,1,7.236,1.16c.848.233,1.717.472,2.565.664a89.552,89.552,0,0,1,7.77-9.607c6-6.259,15.643-7.739,25.18-3.877l.055.022a1.305,1.305,0,0,1,.141.067h0l0,0a1.476,1.476,0,0,1,.58.558l.015.034.012.027h0l.005.01,0,.005,0,.007.005.014v0c.063.137.127.276.187.415l0,.005.005.009,0,.007v0a25.654,25.654,0,0,1,1.822,16.012,1.569,1.569,0,0,1-.089.252,19.039,19.039,0,0,1-4.7,8.695,89.124,89.124,0,0,1-9.27,8.17c.23.839.5,1.7.772,2.532a22.151,22.151,0,0,1,1.469,7.185c-.312,11.251-9.867,13.631-18.8,14.977A1.341,1.341,0,0,1,137.646-45.985Zm1.541-13.289-.269,10.6c7.775-1.285,14.995-3.577,15.24-12.376a20.2,20.2,0,0,0-1.352-6.362c-.175-.546-.353-1.1-.522-1.659-2.1,1.6-4.248,3.189-6.375,4.757q-1.513,1.117-2.959,2.189a1.088,1.088,0,0,1-.072.084,1.249,1.249,0,0,1-.441.3Q140.756-60.485,139.187-59.274ZM119.126-69.489a1.434,1.434,0,0,0,.338.772L132.05-56.655a1.357,1.357,0,0,0,.782.3l1.4-5.365L129.447-66.3h0l-5.131-4.919Zm12.03,1.4,6.857,6.573,2.019-1.518-14.488-13.74-1.369,2,6.859,6.574h0Zm-4.2-10.748,15.077,14.3,10.2-7.66a1.352,1.352,0,0,1,.24-.141,89.016,89.016,0,0,0,9.395-8.235,16.488,16.488,0,0,0,3.973-7.146l-16.707-16.01a16.562,16.562,0,0,0-6.936,4.3,89.032,89.032,0,0,0-7.83,9.738,1.282,1.282,0,0,1-.13.244Zm-8.005,9.4-.012,0Zm4.663-21.473q-.3,0-.6.021c-8.782.618-10.764,7.928-11.716,15.751l10.582-.719q1.078-1.521,2.184-3.146a1.247,1.247,0,0,1,.311-.58,1.193,1.193,0,0,1,.2-.172q1.009-1.485,2.055-3.038c1.474-2.189,2.966-4.4,4.478-6.567-.566-.144-1.129-.3-1.683-.449A23.022,23.022,0,0,0,123.618-90.905Zm28.4-13.485,14.375,13.778a23.883,23.883,0,0,0-2.04-12.234A24.188,24.188,0,0,0,152.018-104.39ZM139.458-70.9a5.953,5.953,0,0,1-4.135-1.657,5.931,5.931,0,0,1-1.839-4.188,5.929,5.929,0,0,1,1.661-4.263,5.931,5.931,0,0,1,4.186-1.839,5.932,5.932,0,0,1,4.262,1.661,5.982,5.982,0,0,1,.18,8.449A5.958,5.958,0,0,1,139.458-70.9Zm0-9.477a3.5,3.5,0,0,0-2.532,1.077,3.48,3.48,0,0,0-.974,2.5,3.476,3.476,0,0,0,1.079,2.457,3.512,3.512,0,0,0,4.958-.106,3.508,3.508,0,0,0-.106-4.956h0A3.492,3.492,0,0,0,139.46-80.376Zm8.935.153a5.955,5.955,0,0,1-4.135-1.659,5.984,5.984,0,0,1-.18-8.449,5.983,5.983,0,0,1,8.451-.18h0a5.982,5.982,0,0,1,.178,8.449A5.953,5.953,0,0,1,148.395-80.224Zm0-9.48-.077,0a3.484,3.484,0,0,0-2.457,1.079,3.511,3.511,0,0,0,.1,4.958,3.512,3.512,0,0,0,4.958-.106,3.512,3.512,0,0,0-.1-4.958h0A3.488,3.488,0,0,0,148.4-89.7Z" transform="translate(-108.676 107.13)" fill="#212b32"/>
    </g>
  </g>
</svg>
