<svg xmlns="http://www.w3.org/2000/svg" width="59.739" height="61.145" viewBox="0 0 59.739 61.145">
  <g id="Group_1480" data-name="Group 1480" transform="translate(-717.268 -3272.428)">
    <circle id="Ellipse_37" data-name="Ellipse 37" cx="17" cy="17" r="17" transform="translate(742 3298)" fill="#45aea1"/>
    <g id="Group_1371" data-name="Group 1371" transform="translate(717.268 3272.428)">
      <path id="Path_2340" data-name="Path 2340" d="M23.355-87.664a1.272,1.272,0,0,1-1.271-1.271v-3.686a1.272,1.272,0,0,1,1.271-1.271,1.272,1.272,0,0,1,1.27,1.271v3.686A1.272,1.272,0,0,1,23.355-87.664Z" transform="translate(18.131 123.786)" fill="#212b32"/>
      <path id="Path_2341" data-name="Path 2341" d="M23.355-76.454a1.272,1.272,0,0,1-1.271-1.27v-3.687a1.272,1.272,0,0,1,1.271-1.27,1.271,1.271,0,0,1,1.27,1.27v3.687A1.271,1.271,0,0,1,23.355-76.454Z" transform="translate(18.131 132.346)" fill="#212b32"/>
      <path id="Path_2342" data-name="Path 2342" d="M30.707-60.366A18.273,18.273,0,0,1,12.455-78.618,18.274,18.274,0,0,1,30.707-96.872,18.274,18.274,0,0,1,48.959-78.618,18.273,18.273,0,0,1,30.707-60.366Zm0-33.965A15.728,15.728,0,0,0,15-78.618,15.727,15.727,0,0,0,30.707-62.907,15.729,15.729,0,0,0,46.42-78.618,15.729,15.729,0,0,0,30.707-94.331Z" transform="translate(10.779 121.511)" fill="#212b32"/>
      <path id="Path_2343" data-name="Path 2343" d="M26.735-74.015a12.249,12.249,0,0,1-1.37-.079,23.331,23.331,0,0,1-4.7-1.22l-.314-.1a1.267,1.267,0,0,1-.8-1.6,1.269,1.269,0,0,1,1.6-.8l.316.1a21.291,21.291,0,0,0,4.183,1.106c2.7.305,4.3-.515,4.888-1.386a1.57,1.57,0,0,0,.113-1.688c-.593-1.116-2.3-1.781-4.564-1.781-.026,0-.055,0-.081,0-3.337,0-5.853-1.136-6.908-3.12a4.077,4.077,0,0,1,.266-4.271c1.326-1.95,4.079-2.894,7.354-2.529a23.451,23.451,0,0,1,4.73,1.227l.3.1a1.269,1.269,0,0,1,.8,1.6,1.264,1.264,0,0,1-1.6.8l-.3-.1a21.222,21.222,0,0,0-4.209-1.113c-2.732-.309-4.361.538-4.971,1.432a1.542,1.542,0,0,0-.122,1.652c.593,1.118,2.375,1.7,4.7,1.771,3.37-.014,5.79,1.132,6.849,3.132a4.113,4.113,0,0,1-.256,4.308C31.521-74.932,29.368-74.015,26.735-74.015Z" transform="translate(15.485 125.636)" fill="#212b32"/>
      <path id="Path_2344" data-name="Path 2344" d="M37.091-101.628a1.27,1.27,0,0,1-1.27-1.27V-108.3H3.805v4.135H9.166a1.27,1.27,0,0,1,1.27,1.27,1.269,1.269,0,0,1-1.27,1.27H2.534a1.27,1.27,0,0,1-1.27-1.27v-6.677a1.271,1.271,0,0,1,1.27-1.27H37.091a1.27,1.27,0,0,1,1.27,1.27v6.677A1.269,1.269,0,0,1,37.091-101.628Z" transform="translate(2.235 110.844)" fill="#212b32"/>
      <path id="Path_2345" data-name="Path 2345" d="M40.776-97.842H30.931a1.272,1.272,0,0,1-1.271-1.27,1.27,1.27,0,0,1,1.271-1.27h8.576v-4.137H7.49v5.407a1.272,1.272,0,0,1-1.271,1.27,1.271,1.271,0,0,1-1.27-1.27v-6.677a1.271,1.271,0,0,1,1.27-1.27H40.776a1.27,1.27,0,0,1,1.27,1.27v6.677A1.27,1.27,0,0,1,40.776-97.842Z" transform="translate(5.048 113.735)" fill="#212b32"/>
      <path id="Path_2346" data-name="Path 2346" d="M35.107-94.056a1.272,1.272,0,0,1-1.271-1.271v-5.405H1.819v5.405A1.272,1.272,0,0,1,.55-94.056,1.272,1.272,0,0,1-.72-95.327V-102a1.27,1.27,0,0,1,1.27-1.27H35.107a1.27,1.27,0,0,1,1.27,1.27v6.675A1.272,1.272,0,0,1,35.107-94.056Z" transform="translate(0.72 116.625)" fill="#212b32"/>
      <path id="Path_2347" data-name="Path 2347" d="M.55-90.271a1.271,1.271,0,0,1-1.27-1.27v-6.677a1.271,1.271,0,0,1,1.27-1.27H35.107a1.271,1.271,0,0,1,1.27,1.27v4.873a1.271,1.271,0,0,1-1.27,1.27,1.272,1.272,0,0,1-1.271-1.27v-3.6H1.819v5.405A1.271,1.271,0,0,1,.55-90.271Z" transform="translate(0.72 119.515)" fill="#212b32"/>
      <path id="Path_2348" data-name="Path 2348" d="M.55-86.486a1.27,1.27,0,0,1-1.27-1.27v-6.675A1.272,1.272,0,0,1,.55-95.7h31.8a1.27,1.27,0,0,1,1.27,1.271,1.27,1.27,0,0,1-1.27,1.27H1.819v5.405A1.27,1.27,0,0,1,.55-86.486Z" transform="translate(0.72 122.405)" fill="#212b32"/>
      <path id="Path_2349" data-name="Path 2349" d="M.55-82.7A1.271,1.271,0,0,1-.72-83.97v-6.677a1.271,1.271,0,0,1,1.27-1.27h25.2a1.271,1.271,0,0,1,1.27,1.27,1.27,1.27,0,0,1-1.27,1.27H1.819v5.407A1.271,1.271,0,0,1,.55-82.7Z" transform="translate(0.72 125.296)" fill="#212b32"/>
      <path id="Path_2350" data-name="Path 2350" d="M.55-78.914a1.271,1.271,0,0,1-1.27-1.27V-86.86A1.27,1.27,0,0,1,.55-88.13H23.526a1.27,1.27,0,0,1,1.27,1.27,1.271,1.271,0,0,1-1.27,1.27H1.819v5.407A1.271,1.271,0,0,1,.55-78.914Z" transform="translate(0.72 128.186)" fill="#212b32"/>
      <path id="Path_2351" data-name="Path 2351" d="M28.164-75.129H.55A1.271,1.271,0,0,1-.72-76.4v-6.675A1.272,1.272,0,0,1,.55-84.345H24.383a1.272,1.272,0,0,1,1.27,1.271,1.271,1.271,0,0,1-1.27,1.27H1.819v4.134H28.164a1.272,1.272,0,0,1,1.27,1.271A1.271,1.271,0,0,1,28.164-75.129Z" transform="translate(0.72 131.076)" fill="#212b32"/>
    </g>
  </g>
</svg>
