<svg xmlns="http://www.w3.org/2000/svg" width="171.001" height="57.644" viewBox="0 0 171.001 57.644">
  <path id="Subtraction_1" data-name="Subtraction 1" d="M-3374-10722.355h-170V-10779h170v56.644Zm-121.546-37.7a11.91,11.91,0,0,0-8.4,3.292,11.3,11.3,0,0,0-3.369,8.176,11.765,11.765,0,0,0,.908,4.624,10.577,10.577,0,0,0,2.55,3.637,11.563,11.563,0,0,0,3.933,2.38,14.657,14.657,0,0,0,5.056.854c4.364,0,8.495-2.131,10.32-4.236l-3.868-2.971c-2.427,1.808-3.913,2.359-6.36,2.359a6.8,6.8,0,0,1-4.926-1.8l15.587-6.477a12.1,12.1,0,0,0-2.659-6.187A11.123,11.123,0,0,0-3495.545-10760.054Zm94.208.017c-6.717,0-11.979,5.032-11.979,11.456a11.232,11.232,0,0,0,3.453,8.188,12.1,12.1,0,0,0,8.45,3.3c6.714,0,11.973-5.045,11.973-11.486a11.193,11.193,0,0,0-3.446-8.167A12.112,12.112,0,0,0-3401.338-10760.037Zm-45.707,0c-6.715,0-11.976,5.032-11.976,11.456a11.239,11.239,0,0,0,3.446,8.188,12.093,12.093,0,0,0,8.449,3.3c6.72,0,11.984-5.045,11.984-11.486a11.187,11.187,0,0,0-3.454-8.167A12.121,12.121,0,0,0-3447.044-10760.037Zm-80.885-6.276v28.854h20.048v-5.613h-13.867v-23.24Zm55.927,11.519a4.89,4.89,0,0,1,5.134,4.688v12.636h6.1v-13.77a8.763,8.763,0,0,0-2.492-6.314,9.02,9.02,0,0,0-6.511-2.488,9.229,9.229,0,0,0-7.258,3.555v-3.181h-6.1v22.2h6.1v-12.636A4.757,4.757,0,0,1-3472-10754.795Zm35.278-4.871,9.154,22.2h6.674l9.149-22.2h-6.969l-5.521,15.121-5.5-15.121Zm35.386,17.351a6.053,6.053,0,0,1-5.96-6.266,6.47,6.47,0,0,1,1.662-4.493,5.731,5.731,0,0,1,4.222-1.75,6.041,6.041,0,0,1,5.959,6.243,6.5,6.5,0,0,1-1.666,4.488A5.7,5.7,0,0,1-3401.338-10742.315Zm-45.707,0a6.057,6.057,0,0,1-5.968-6.266,6.465,6.465,0,0,1,1.666-4.493,5.735,5.735,0,0,1,4.22-1.75,6.045,6.045,0,0,1,5.968,6.243C-3441.158-10744.95-3443.634-10742.315-3447.044-10742.315Zm-54.317-5.364h0a7.119,7.119,0,0,1,1.239-5.307,5.686,5.686,0,0,1,4.685-2.216,5.068,5.068,0,0,1,4.723,3.122l-10.646,4.4Z" transform="translate(3544.5 10779.5)" fill="#de241b" stroke="rgba(0,0,0,0)" stroke-miterlimit="10" stroke-width="1"/>
</svg>
