<svg id="Group_1487" data-name="Group 1487" xmlns="http://www.w3.org/2000/svg" width="56.926" height="62.576" viewBox="0 0 56.926 62.576">
  <g id="Group_1419" data-name="Group 1419" transform="translate(0 0)">
    <g id="Group_1417" data-name="Group 1417" transform="translate(0 0)">
      <g id="Group_1413" data-name="Group 1413">
        <g id="Group_1412" data-name="Group 1412">
          <path id="Path_2370" data-name="Path 2370" d="M203.862,214.246H178.224a31.288,31.288,0,1,1,0-62.576h25.638v16.617H178.224a14.671,14.671,0,1,0,0,29.342h25.638Zm-25.638-59.612a28.324,28.324,0,1,0,0,56.649H200.9V200.593H178.224a17.635,17.635,0,1,1,0-35.27H200.9V154.634Z" transform="translate(-146.936 -151.67)" fill="#45aea1"/>
        </g>
      </g>
      <g id="Group_1414" data-name="Group 1414" transform="translate(43.998 1.482)">
        <rect id="Rectangle_237" data-name="Rectangle 237" width="2.964" height="13.652" fill="#45aea1"/>
      </g>
      <g id="Group_1415" data-name="Group 1415" transform="translate(43.998 47.442)">
        <rect id="Rectangle_238" data-name="Rectangle 238" width="2.964" height="13.652" fill="#45aea1"/>
      </g>
      <g id="Group_1416" data-name="Group 1416" transform="translate(1.482 29.807)">
        <rect id="Rectangle_239" data-name="Rectangle 239" width="13.652" height="2.964" fill="#45aea1"/>
      </g>
    </g>
  </g>
</svg>
