<svg id="Componente_1_1" data-name="Componente 1 – 1" xmlns="http://www.w3.org/2000/svg" width="50" height="50" viewBox="0 0 50 50">
  <rect id="color" width="50" height="50" rx="2" fill="#fe0b09"/>
  <g id="paper-plane" transform="translate(15 15.308)">
    <path id="Caminho_510" data-name="Caminho 510" d="M8.75,17.612v3.844a.621.621,0,0,0,1.122.368l2.248-3.06Z" transform="translate(-1.499 -3.017)" fill="#fff"/>
    <path id="Caminho_511" data-name="Caminho 511" d="M19.628.115A.622.622,0,0,0,18.98.07L.334,9.808A.622.622,0,0,0,.42,10.947L5.6,12.719,16.643,3.28,8.1,13.572l8.687,2.969a.636.636,0,0,0,.2.033.621.621,0,0,0,.615-.53L19.882.714a.623.623,0,0,0-.254-.6Z" transform="translate(0 0)" fill="#fff"/>
  </g>
</svg>
