<svg xmlns="http://www.w3.org/2000/svg" width="45.306" height="41.479" viewBox="0 0 45.306 41.479">
  <g id="team-leader" transform="translate(0 -1.027)">
    <path id="Caminho_112" data-name="Caminho 112" d="M21.775,19.551a3.775,3.775,0,1,1,3.775-3.775A3.779,3.779,0,0,1,21.775,19.551Z" transform="translate(15.979 9.741)" fill="#f41f45"/>
    <path id="Caminho_113" data-name="Caminho 113" d="M5.775,19.551a3.775,3.775,0,1,1,3.775-3.775A3.779,3.779,0,0,1,5.775,19.551Z" transform="translate(1.775 9.741)" fill="#f41f45"/>
    <path id="Caminho_114" data-name="Caminho 114" d="M14.663,21.826a5.663,5.663,0,1,1,5.663-5.663A5.67,5.67,0,0,1,14.663,21.826Z" transform="translate(7.99 8.409)" fill="#f41f45"/>
    <path id="Caminho_115" data-name="Caminho 115" d="M25.849,27.439H7.916A1.416,1.416,0,0,1,6.5,26.023V23.191A5.2,5.2,0,0,1,11.691,18H22.074a5.2,5.2,0,0,1,5.191,5.191v2.832A1.416,1.416,0,0,1,25.849,27.439Z" transform="translate(5.77 15.067)" fill="#f41f45"/>
    <path id="Caminho_116" data-name="Caminho 116" d="M24.268,17H19.549a5.014,5.014,0,0,0-1.7.283,9.033,9.033,0,0,1,3.115,7.268h7.079a1.426,1.426,0,0,0,1.416-1.416v-.944A5.188,5.188,0,0,0,24.268,17Z" transform="translate(15.846 14.18)" fill="#f41f45"/>
    <path id="Caminho_117" data-name="Caminho 117" d="M9.911,17H5.191A5.188,5.188,0,0,0,0,22.191v.944a1.426,1.426,0,0,0,1.416,1.416H8.495a9.033,9.033,0,0,1,3.115-7.268A5.014,5.014,0,0,0,9.911,17Z" transform="translate(0 14.18)" fill="#f41f45"/>
    <path id="Caminho_118" data-name="Caminho 118" d="M22.984,16.078H9.894A1.416,1.416,0,0,1,8.5,14.924L7.025,7.058A1.416,1.416,0,0,1,8.99,5.5l3.171,1.408L15.216,1.68a1.473,1.473,0,0,1,2.447,0l3.054,5.231L23.888,5.5a1.419,1.419,0,0,1,1.967,1.555l-1.478,7.866a1.418,1.418,0,0,1-1.393,1.153Z" transform="translate(6.214 0)" fill="#f41f45"/>
  </g>
</svg>
