<svg xmlns="http://www.w3.org/2000/svg" width="41.479" height="41.479" viewBox="0 0 41.479 41.479">
  <g id="leader" transform="translate(0 -0.001)">
    <path id="Caminho_105" data-name="Caminho 105" d="M390.721,10.241a5.12,5.12,0,1,0-5.12-5.12A5.126,5.126,0,0,0,390.721,10.241Z" transform="translate(-354.362)" fill="#fff"/>
    <path id="Caminho_106" data-name="Caminho 106" d="M5.12,138.774A5.12,5.12,0,1,0,0,133.654,5.126,5.126,0,0,0,5.12,138.774Z" transform="translate(0 -118.12)" fill="#fff"/>
    <path id="Caminho_107" data-name="Caminho 107" d="M165.786,74.508a5.12,5.12,0,1,0-5.12-5.12A5.126,5.126,0,0,0,165.786,74.508Z" transform="translate(-147.65 -59.061)" fill="#fff"/>
    <path id="Caminho_108" data-name="Caminho 108" d="M40.264,287.067H27.248a1.215,1.215,0,0,0-1.215,1.215v3.991h-11.8a1.215,1.215,0,0,0-1.215,1.215v3.991H1.215A1.215,1.215,0,0,0,0,298.7v2.125a4.474,4.474,0,0,0,4.469,4.469H37.01a4.474,4.474,0,0,0,4.469-4.469V288.282a1.215,1.215,0,0,0-1.215-1.215Z" transform="translate(0 -263.81)" fill="#fff"/>
    <path id="Caminho_109" data-name="Caminho 109" d="M1.215,271.292H1.3v2.776H8.939v-2.776h.086a1.215,1.215,0,0,0,1.215-1.215v-3.9a5.086,5.086,0,0,0-.382-1.936,7.534,7.534,0,0,1-9.477,0A5.084,5.084,0,0,0,0,266.172v3.9a1.215,1.215,0,0,0,1.215,1.215Z" transform="translate(0 -242.828)" fill="#fff"/>
    <path id="Caminho_110" data-name="Caminho 110" d="M161.881,207.026h.087V209.8H169.6v-2.776h.086a1.215,1.215,0,0,0,1.215-1.215v-3.9a5.085,5.085,0,0,0-.382-1.936,7.534,7.534,0,0,1-9.477,0,5.085,5.085,0,0,0-.382,1.936v3.9A1.215,1.215,0,0,0,161.881,207.026Z" transform="translate(-147.65 -183.769)" fill="#fff"/>
    <path id="Caminho_111" data-name="Caminho 111" d="M390.721,137.381a7.514,7.514,0,0,1-4.739-1.677,5.084,5.084,0,0,0-.382,1.936v3.9a1.215,1.215,0,0,0,1.215,1.215h.086v2.776h7.637V142.76h.086a1.215,1.215,0,0,0,1.215-1.215v-3.9a5.083,5.083,0,0,0-.382-1.936A7.514,7.514,0,0,1,390.721,137.381Z" transform="translate(-354.362 -124.709)" fill="#fff"/>
  </g>
</svg>
