<svg xmlns="http://www.w3.org/2000/svg" width="117.791" height="31.655" viewBox="0 0 117.791 31.655">
  <g id="logo_pagarme" data-name="logo/pagarme" transform="translate(-180.032 -37)">
    <path id="hat" d="M1568.629,21.231h6.732c.011-.275.021-.552.021-.831A20.424,20.424,0,0,0,1555,0V6.724A13.674,13.674,0,0,1,1568.654,20.4c0,.276-.01.555-.026.831Z" transform="translate(-1277.558 37)" fill="#65a300"/>
    <path id="pagarme" d="M-11285.415-6191.185a8.594,8.594,0,0,1-1.6-.521,10.28,10.28,0,0,1-1.14-.608,5.406,5.406,0,0,1-.744-.533l-.221-.222,1.339-1.982.187.188a5.248,5.248,0,0,0,.52.408,6.487,6.487,0,0,0,.868.533,6.3,6.3,0,0,0,2.641.607,4.035,4.035,0,0,0,2.937-.9,3.547,3.547,0,0,0,.906-2.615v-1.064c-.048.067-.1.133-.15.2a4.745,4.745,0,0,1-.471.459,4.6,4.6,0,0,1-.8.584,4.982,4.982,0,0,1-1.189.441,6.129,6.129,0,0,1-1.6.2,6.279,6.279,0,0,1-4.474-1.636,6.114,6.114,0,0,1-1.747-4.686,6.229,6.229,0,0,1,1.784-4.622,5.983,5.983,0,0,1,4.387-1.771,6.011,6.011,0,0,1,2.4.458,4.2,4.2,0,0,1,1.463.905l.4.442v-1.61h2.682v11.253q0,6.319-6.4,6.319h-.026a8.616,8.616,0,0,1-1.943-.216Zm-1.044-14.117a4.2,4.2,0,0,0-1.026,2.939,4.1,4.1,0,0,0,1.052,2.911,3.637,3.637,0,0,0,2.788,1.128,3.9,3.9,0,0,0,2.9-1.1,4,4,0,0,0,1.09-2.937,4.006,4.006,0,0,0-1.114-2.937,3.9,3.9,0,0,0-2.9-1.128,3.594,3.594,0,0,0-2.787,1.13Zm-32.509,14.064v-17.3h2.677v1.661c.034-.051.088-.12.161-.212a4.422,4.422,0,0,1,.5-.46,4.885,4.885,0,0,1,.844-.57,5.944,5.944,0,0,1,1.238-.456,6.134,6.134,0,0,1,1.62-.212,5.79,5.79,0,0,1,4.375,1.775,6.468,6.468,0,0,1,1.7,4.669,6.554,6.554,0,0,1-1.7,4.786,5.975,5.975,0,0,1-4.475,1.735,6.11,6.11,0,0,1-1.585-.2,4.634,4.634,0,0,1-1.216-.482,8.508,8.508,0,0,1-.817-.56,2.725,2.725,0,0,1-.5-.471l-.147-.2v6.494Zm3.694-14.08a4.242,4.242,0,0,0-1.092,3.024,4.163,4.163,0,0,0,1.091,3.048,3.929,3.929,0,0,0,2.946,1.117,3.488,3.488,0,0,0,2.75-1.152,4.353,4.353,0,0,0,1.017-2.987,4.379,4.379,0,0,0-1.054-3.038,3.568,3.568,0,0,0-2.786-1.178,3.755,3.755,0,0,0-2.873,1.171Zm94.323,9.572a7.262,7.262,0,0,1-5.241-1.773,6.424,6.424,0,0,1-1.849-4.869,6.382,6.382,0,0,1,1.886-4.771,6.517,6.517,0,0,1,4.761-1.847,6.316,6.316,0,0,1,4.9,1.933,7.583,7.583,0,0,1,1.773,5.325v.645h-9.372a.953.953,0,0,0,.038.251,2.775,2.775,0,0,0,.236.521,2.647,2.647,0,0,0,.507.67,2.743,2.743,0,0,0,.94.533,4.222,4.222,0,0,0,1.473.234,4.631,4.631,0,0,0,1.812-.359,4.3,4.3,0,0,0,1.263-.73l.369-.372,2.035,2.378c-.05.064-.121.147-.211.249a5.254,5.254,0,0,1-.644.533,7.252,7.252,0,0,1-1.093.682,7.176,7.176,0,0,1-1.547.533,8.655,8.655,0,0,1-2,.236Zm-1.638-9.916a2.094,2.094,0,0,0-.794.546,3.859,3.859,0,0,0-.446.644,1.573,1.573,0,0,0-.2.547l-.05.221h5.38c-.017-.062-.031-.147-.048-.234a2.8,2.8,0,0,0-.213-.521,2.643,2.643,0,0,0-.457-.67,2.554,2.554,0,0,0-.794-.521,2.832,2.832,0,0,0-1.19-.233h-.062a2.97,2.97,0,0,0-1.129.226Zm-30.446,9.26a2.213,2.213,0,0,1-.67-1.585,2.209,2.209,0,0,1,.67-1.587,2.27,2.27,0,0,1,1.636-.645,2.282,2.282,0,0,1,1.637.645,2.211,2.211,0,0,1,.668,1.587,2.215,2.215,0,0,1-.668,1.586,2.393,2.393,0,0,1-1.636.644,2.4,2.4,0,0,1-1.637-.643Zm-16.361.6a6.234,6.234,0,0,1-4.475-1.66,6.243,6.243,0,0,1-1.744-4.759,6.364,6.364,0,0,1,1.784-4.708,5.961,5.961,0,0,1,4.387-1.784,6.03,6.03,0,0,1,2.4.457,4.24,4.24,0,0,1,1.463.9l.4.447v-1.587h2.675v12.494h-2.678v-1.712c-.033.05-.081.119-.147.209a3.5,3.5,0,0,1-.471.461,4.968,4.968,0,0,1-.8.568,5.31,5.31,0,0,1-1.191.458,5.805,5.805,0,0,1-1.554.212Zm-2.515-9.467a4.3,4.3,0,0,0-1.031,3,4.3,4.3,0,0,0,1.055,3,3.574,3.574,0,0,0,2.788,1.165,3.851,3.851,0,0,0,2.911-1.114,4.2,4.2,0,0,0,1.08-3.051,4.1,4.1,0,0,0-1.117-3,3.867,3.867,0,0,0-2.9-1.14,3.57,3.57,0,0,0-2.787,1.143Zm-26.581,9.467a6.218,6.218,0,0,1-4.473-1.66,6.257,6.257,0,0,1-1.747-4.759,6.356,6.356,0,0,1,1.783-4.708,5.963,5.963,0,0,1,4.386-1.784,6.025,6.025,0,0,1,2.405.458,4.248,4.248,0,0,1,1.462.9l.4.447v-1.587h2.678v12.494h-2.678v-1.712c-.048.071-.1.141-.147.209a3.611,3.611,0,0,1-.47.461,4.934,4.934,0,0,1-.806.568,5.35,5.35,0,0,1-1.19.458,5.807,5.807,0,0,1-1.555.212Zm-2.517-9.467a4.294,4.294,0,0,0-1.027,3,4.3,4.3,0,0,0,1.053,3,3.573,3.573,0,0,0,2.787,1.166,3.863,3.863,0,0,0,2.912-1.115,4.188,4.188,0,0,0,1.077-3.051,4.1,4.1,0,0,0-1.115-3,3.867,3.867,0,0,0-2.9-1.14,3.568,3.568,0,0,0-2.789,1.143Zm68.287,9.27v-7.8q0-1.958-1.438-1.958-1.786,0-1.784,2.6v7.163h-3.768v-7.8q0-1.958-1.437-1.958-1.784,0-1.784,2.6v7.163h-3.767v-12.738h3.767v1.66c.034-.05.073-.114.126-.2a3.906,3.906,0,0,1,.359-.442,3.708,3.708,0,0,1,.632-.567,3.565,3.565,0,0,1,.938-.449,3.938,3.938,0,0,1,1.264-.2,4.054,4.054,0,0,1,1.265.187,3.017,3.017,0,0,1,.905.448,4.3,4.3,0,0,1,.559.508,2.226,2.226,0,0,1,.323.445l.073.173c.031-.05.077-.11.136-.187a5.178,5.178,0,0,1,.408-.42,4.361,4.361,0,0,1,.694-.546,3.923,3.923,0,0,1,.991-.421,4.393,4.393,0,0,1,1.288-.187q4.017,0,4.017,4.635v8.3Zm-27.675,0v-12.518h2.677v2.256a1.438,1.438,0,0,1,.111-.272,6.23,6.23,0,0,1,.4-.619,3.915,3.915,0,0,1,.692-.767,3.79,3.79,0,0,1,1.079-.584,3.555,3.555,0,0,1,1.487-.209l-.221,2.9a3.065,3.065,0,0,0-2.6.806,3.539,3.539,0,0,0-.94,2.614V-6196Z" transform="translate(11499 6259.623)" fill="#1b1c29"/>
  </g>
</svg>
