<svg xmlns="http://www.w3.org/2000/svg" width="97.339" height="38.073" viewBox="0 0 97.339 38.073">
  <g id="layer1" transform="translate(-49.603 -128.284)">
    <g id="g22" transform="translate(15.023 41.369)">
      <path id="path12" d="M47.466,105.488H41.751l2.275-7.937a19.6,19.6,0,0,0,.635-2.937h.079a18.949,18.949,0,0,0,.556,2.937Zm2.99,8.519h0a.945.945,0,0,1-.926-.688v-.026l-1.3-4.5H40.9l-1.349,4.5a.993.993,0,0,1-.926.714H35.56a.994.994,0,0,1-.979-.979,1.125,1.125,0,0,1,.053-.291v-.026l7.3-22.383a.969.969,0,0,1,.952-.714h4.18a1,1,0,0,1,.926.661l7.276,22.41a1.328,1.328,0,0,1,.053.317.971.971,0,0,1-.952.979H50.455Zm5.424-24.421a.976.976,0,0,1,.556-.873l3.1-1.614a1.274,1.274,0,0,1,.635-.185.977.977,0,0,1,.979.979v20.4a2.278,2.278,0,0,0,2.3,2.17.977.977,0,0,1,.979.979v1.587a.977.977,0,0,1-.979.979H62.362a6.5,6.5,0,0,1-6.509-6.509V89.587Zm24.13,6.535a.994.994,0,0,1,.582.9h0V113.8c0,5.318-3.307,7.884-8.176,8.07a13.256,13.256,0,0,1-5.98-1.164h0a.985.985,0,0,1-.609-.926,1.34,1.34,0,0,1,.053-.344l.529-1.349a1,1,0,0,1,.952-.688.845.845,0,0,1,.37.079h0a10.736,10.736,0,0,0,3.7.688c2.857,0,3.889-1.349,3.889-3.492v-1.032a7.093,7.093,0,0,1-3.254.582c-4.471,0-7.7-3.44-7.7-9.022,0-6.244,3.2-10.16,9.6-10.16a15.471,15.471,0,0,1,6.032,1.085ZM75.3,110.674a3.654,3.654,0,0,1-1.879.45c-2.7,0-3.81-2.011-3.81-6.244,0-4.471,1.138-6.72,3.916-6.72a4.087,4.087,0,0,1,1.773.317Zm18.1.661v-7.117c-3.069-.238-5.609.9-5.609,3.836a3.209,3.209,0,0,0,3.545,3.466,8.017,8.017,0,0,0,2.064-.185Zm5.292-6.323v7.25a.976.976,0,0,1-.609.9h-.026a20.272,20.272,0,0,1-7.011,1.085c-5.636,0-8.625-2.037-8.625-5.9,0-4.789,3.942-6.985,10.954-6.641-.159-1.852-1.244-2.99-3.863-2.99a10.736,10.736,0,0,0-3.7.688h0a.845.845,0,0,1-.37.079,1,1,0,0,1-.952-.688l-.529-1.349A.726.726,0,0,1,83.9,97.1a1.027,1.027,0,0,1,.609-.926h0a13.108,13.108,0,0,1,5.98-1.164c4.868.185,8.176,2.752,8.176,8.07v1.931Zm2.619-7.593a1.732,1.732,0,0,1,1.217-1.614,21.92,21.92,0,0,1,7.7-.82h.026a.977.977,0,0,1,.979.979h0v1.323a.994.994,0,0,1-.979.979h-.106a8.64,8.64,0,0,0-3.572.476v14.314a.989.989,0,0,1-.979.952h-3.307a.977.977,0,0,1-.979-.979V97.418Z" fill="#0068a6" fill-rule="evenodd"/>
      <path id="path14" d="M115.145,95.99a1,1,0,0,1,.476-.82.978.978,0,0,1,1.005.026l5.662,3.254h0a.967.967,0,0,1,.476.82,1.014,1.014,0,0,1-.529.873s-5.636,3.254-5.662,3.281h0a1.012,1.012,0,0,1-.952,0,.943.943,0,0,1-.476-.873V95.99Z" fill="#00aeef"/>
      <path id="path16" d="M124.22,101.2a1,1,0,0,1,.476-.82.978.978,0,0,1,1.005.026l5.662,3.254h0a.934.934,0,0,1,.476.82,1.014,1.014,0,0,1-.529.873s-5.636,3.254-5.662,3.254h0a.977.977,0,0,1-1.429-.9Z" fill="#ffcb05"/>
      <path id="path18" d="M115.145,106.441a1,1,0,0,1,.476-.82.978.978,0,0,1,1.005.026l5.662,3.254h0a.934.934,0,0,1,.476.82.983.983,0,0,1-.529.873s-5.636,3.254-5.662,3.254h0a.977.977,0,0,1-1.429-.9v-6.509Z" fill="#00a651"/>
      <path id="path20" d="M98.477,118.426v-1.217H93.952v1.217H95.3v6.456h1.826v-6.456Zm3.572,2.884-2.117.317c-.053-1.244.4-1.852,1.111-1.852C101.7,119.775,102.049,120.252,102.049,121.31Zm1.64.635c.079-2.037-.82-3.2-2.566-3.2s-2.725,1.217-2.725,3.1a2.791,2.791,0,0,0,2.937,3.122,5.1,5.1,0,0,0,2.17-.423l-.4-1.085a3.685,3.685,0,0,1-1.587.317,1.3,1.3,0,0,1-1.455-1.323Zm2.593-5.821h-1.773v8.731h1.746v-8.731Zm4.5,5.186-2.117.317c-.053-1.244.4-1.852,1.111-1.852C110.436,119.775,110.78,120.252,110.78,121.31Zm1.64.635c.079-2.037-.82-3.2-2.566-3.2s-2.725,1.217-2.725,3.1a2.791,2.791,0,0,0,2.937,3.122,5.1,5.1,0,0,0,2.17-.423l-.4-1.085a3.685,3.685,0,0,1-1.587.317,1.3,1.3,0,0,1-1.455-1.323ZM117,124.538l-.37-1.058a1.039,1.039,0,0,1-.741.238c-.688,0-1.111-.714-1.111-1.9,0-1.217.37-1.9,1.138-1.9a1.044,1.044,0,0,1,.714.238l.37-.952a2.345,2.345,0,0,0-1.482-.423c-1.349,0-2.487,1.058-2.487,3.1,0,2.011,1.058,3.122,2.487,3.122a2.328,2.328,0,0,0,1.482-.45Zm3.81-2.7c0,1.085-.159,1.958-.926,1.958s-.926-.873-.926-1.958c0-1.058.159-2.011.926-2.011S120.807,120.754,120.807,121.839Zm1.746.026c0-1.8-.926-3.1-2.7-3.1-1.746,0-2.672,1.323-2.672,3.1s.926,3.122,2.672,3.122C121.627,124.988,122.553,123.638,122.553,121.866Zm9.366,2.99v-4.207a1.915,1.915,0,0,0-2.17-1.9,2.924,2.924,0,0,0-2.011.609,2.6,2.6,0,0,0-1.931-.609,5.529,5.529,0,0,0-2.461.45v5.662h1.746v-4.921a1.85,1.85,0,0,1,.714-.106c.609,0,.952.317.952.794v4.233h1.746v-4.736a1,1,0,0,1,.767-.291.767.767,0,0,1,.873.82v4.207Z" fill="#fff"/>
    </g>
  </g>
</svg>
