<svg xmlns="http://www.w3.org/2000/svg" width="444.264" height="510.212" viewBox="0 0 444.264 510.212">
  <g id="Logo_topo_esqueda" data-name="Logo topo esqueda" transform="translate(269.007 0.059)">
    <path id="Caminho_1" data-name="Caminho 1" d="M-46.233,510.124c26.687-.606,48.858-25.571,68.611-41.38,19.551-15.608,41.642-26.779,59.5-44.646,34.83-34.846,49.987-84.695,71.07-128.212,9.352-19.318,23.865-43.719,22.172-66.385-2.137-28.353-31.2-48.921-50.39-66.385C99.5,140.208,82.564,121.414,68.939,90.48A182.418,182.418,0,0,0,30.884,34.944C16.332,20.384-3.3,2.679-24.626.259c-24.953-2.823-48.132,14.075-72.6,14.2-47,.363-94.491,19.682-128.112,53.318A181.655,181.655,0,0,0-265.007,127.3c-12.255,29.886,5.6,48.317,27.089,68.643,19.149,17.464,48.213,38.032,50.391,66.385,1.733,22.666-12.82,47.027-22.171,66.385C-255.654,423.775-129.4,511.979-46.233,510.124Zm-173.261-314.18c-19.874-18.874-38.459-36.9-27.009-65.255,7.539-18.633,20.035-35.774,34.185-49.89,30.394-30.41,72.521-47.429,115.131-47.833,21.648-.2,41.6-12.462,63.371-12.825,21.043-.363,37.652,13.672,51.8,27.828,15.2,15.2,25.6,32.587,34.951,51.825,12.819,26.336,31.806,43.8,53.454,63.4,19.148,17.463,48.213,38.031,50.39,66.384,1.733,22.666-12.819,47.027-22.172,66.385C115.7,334.724,99.9,380.218,68.939,411.152c-15.722,15.729-34.991,27.587-51.8,42.106-17.7,15.285-38.418,38.193-63.371,38.475-75.706.806-187.613-76.589-145.043-162.977,9.352-19.32,23.865-43.719,22.171-66.385C-171.241,233.977-200.306,213.409-219.494,195.945Z" transform="translate(0 0)" fill="rgba(0,0,0,0.05)"/>
    <path id="Caminho_2" data-name="Caminho 2" d="M-56.162,455.987c21.889-.243,40.554-19.36,55.631-33.556C13.5,409.2,27.97,396.215,41.555,382.583c25.921-25.972,42.529-65.094,58.453-97.762,9.352-19.318,23.865-43.719,22.172-66.385-2.137-28.353-31.2-48.921-50.39-66.385-18.342-16.535-38.216-32.506-51.277-53.8C10.918,82.6,4.024,67.437-9.4,54.249c-31.564-30.974-60.79-8.107-97.757-7.784a141.305,141.305,0,0,0-97.756,40.573c-11.571,11.494-25.155,27.949-29.106,44-5.524,22.3,14.794,40.008,29.186,53.761,19.148,17.464,48.213,38.032,50.39,66.385,1.734,22.666-12.818,47.027-22.171,66.385C-213.1,391.739-122.556,456.752-56.162,455.987ZM-186.369,184.84c-12.457-11.977-30.4-27.424-28.9-46.622,1.087-14.358,13.665-28.353,23.422-38.153A120.515,120.515,0,0,1-107.116,64.9c29.186,0,58.774-18.915,84.655,2.944,11.569,9.76,17.7,23.553,26.4,35.572,13.464,18.593,32.492,33.434,49.423,48.639,19.148,17.464,48.213,38.032,50.39,66.385,1.733,22.666-12.819,47.027-22.172,66.385C67.274,314.142,50.021,345.358,28.534,370c-20.4,23.392-50.592,67.151-84.736,67.555-58.372.645-135.207-55.335-101.989-119.945,9.352-19.318,23.865-43.719,22.171-66.385C-138.157,222.872-167.221,202.3-186.369,184.84Z" transform="translate(9.929 11.105)" fill="rgba(0,0,0,0.05)"/>
    <path id="Caminho_3" data-name="Caminho 3" d="M-66.949,402.394c28.017-.04,52.889-34.845,67.321-55.334,16.246-22.989,33.459-47.429,45.835-72.757,9.352-19.318,23.865-43.719,22.172-66.385-2.137-28.353-31.2-48.921-50.39-66.385-15.117-13.47-30.718-26.457-45.311-40.492-7.377-7.1-14.27-16.334-23.26-21.5C-71.1,67.688-96.5,78.94-117.9,78.98a97.7,97.7,0,0,0-67.28,28.03c-25.115,25.126-8.99,46.3,12.617,67.312,19.149,17.464,48.213,38.032,50.391,66.385,1.733,22.666-12.82,47.027-22.173,66.385C-169.3,358.878-116.775,402.475-66.949,402.394Zm-87.195-228.918C-168.9,159.44-188.289,140.122-172.083,120c12.214-15.165,35.635-22.425,54.139-22.546,18.382-.121,36.724-5.606,54.542,1.492,23.179,9.2,44.142,27.99,62.927,43.8,19.39,17.02,48.334,36.862,50.39,65.175,1.653,22.909-12.98,47.874-22.172,67.555C17.142,298.341,1.783,319.6-12.609,340.2c-12.456,17.827-30.637,43.276-54.381,43.759-42.126.807-79.616-34.886-58.976-77.758,9.19-19.721,23.825-44.646,22.171-67.554C-105.81,210.339-134.715,190.5-154.144,173.476Z" transform="translate(20.716 21.623)" fill="rgba(0,0,0,0.05)"/>
  </g>
</svg>
