<svg xmlns="http://www.w3.org/2000/svg" xmlns:xlink="http://www.w3.org/1999/xlink" width="185" height="526" viewBox="0 0 185 526">
  <defs>
    <clipPath id="clip-path">
      <rect id="Ret칙ngulo_19" data-name="Ret칙ngulo 19" width="185" height="526" transform="translate(0 458)" fill="none"/>
    </clipPath>
  </defs>
  <g id="Grupo_de_m치scara_4" data-name="Grupo de m치scara 4" transform="translate(0 -458)" clip-path="url(#clip-path)">
    <g id="Group_2_" data-name="Group (2)" transform="translate(-49.774 438.059)">
      <path id="Caminho_49" data-name="Caminho 49" d="M-16.394,578.459c30.261-.687,55.4-29,77.8-46.923,22.17-17.7,47.22-30.366,67.47-50.626,39.495-39.514,56.682-96.039,80.59-145.385,10.605-21.906,27.061-49.575,25.141-75.277-2.423-32.15-35.381-55.474-57.139-75.277C148.853,159,129.654,137.684,114.2,102.607A206.851,206.851,0,0,0,71.052,39.632C54.55,23.122,32.289,3.046,8.107.3c-28.3-3.2-54.579,15.961-82.327,16.1-53.3.412-107.147,22.318-145.271,60.459a205.987,205.987,0,0,0-44.981,67.5c-13.9,33.889,6.354,54.789,30.718,77.837,21.714,19.8,54.671,43.127,57.14,75.277,1.965,25.7-14.537,53.325-25.141,75.277C-253.865,480.544-110.7,580.562-16.394,578.459ZM-212.862,222.2c-22.536-21.4-43.61-41.845-30.627-74,8.548-21.129,22.719-40.565,38.764-56.572,34.465-34.483,82.234-53.782,130.551-54.239C-49.626,37.162-27,23.26-2.315,22.848c23.862-.412,42.695,15.5,58.739,31.556,17.233,17.241,29.027,36.952,39.632,58.767,14.536,29.864,36.066,49.666,60.614,71.893,21.713,19.8,54.671,43.125,57.14,75.275,1.965,25.7-14.536,53.325-25.141,75.277-21.439,43.95-39.358,95.537-74.464,130.614-17.828,17.836-39.678,31.282-58.739,47.746C35.4,531.308,11.9,557.284-16.394,557.6c-85.846.914-212.741-86.848-164.47-184.807,10.6-21.907,27.061-49.575,25.141-75.277C-158.146,265.324-191.1,242-212.862,222.2Z" transform="translate(0 0)" fill="#f41f45"/>
      <path id="Caminho_50" data-name="Caminho 50" d="M-32.215,511.967c24.821-.275,45.986-21.953,63.082-38.051,15.908-15,32.318-29.726,47.723-45.184,29.393-29.451,48.226-73.812,66.282-110.857,10.605-21.906,27.061-49.575,25.141-75.277-2.423-32.15-35.381-55.474-57.139-75.277-20.8-18.75-43.335-36.86-58.145-61.007-10.879-17.744-18.7-34.94-33.918-49.895C-14.982,21.3-48.122,47.228-90.041,47.594c-41.048.366-81.5,16.83-110.849,46.007-13.12,13.034-28.524,31.693-33,49.9-6.264,25.29,16.776,45.367,33.095,60.961,21.713,19.8,54.671,43.127,57.139,75.277,1.967,25.7-14.535,53.325-25.141,75.277C-210.171,439.114-107.5,512.836-32.215,511.967ZM-179.863,204.5c-14.125-13.582-34.467-31.1-32.775-52.867,1.233-16.281,15.5-32.15,26.559-43.263A136.657,136.657,0,0,1-89.994,68.494C-56.9,68.494-23.347,47.045,6,71.832,19.119,82.9,26.067,98.541,35.941,112.169c15.268,21.083,36.844,37.912,56.042,55.154,21.713,19.8,54.671,43.127,57.139,75.277,1.966,25.7-14.536,53.325-25.141,75.277-16.228,33.249-35.792,68.645-60.156,96.588-23.13,26.525-57.368,76.145-96.086,76.6-66.191.731-153.317-62.746-115.65-136.011,10.6-21.906,27.061-49.575,25.141-75.277C-125.193,247.63-158.15,224.306-179.863,204.5Z" transform="translate(15.821 17.694)" fill="#f41f45"/>
      <path id="Caminho_51" data-name="Caminho 51" d="M-49.4,446.364c31.77-.045,59.974-39.512,76.338-62.745,18.422-26.068,37.941-53.782,51.974-82.5,10.605-21.906,27.061-49.575,25.141-75.277-2.423-32.15-35.381-55.474-57.139-75.277-17.142-15.275-34.832-30-51.38-45.916C-12.835,96.6-20.651,86.126-30.845,80.272c-23.267-13.445-52.066-.686-76.339-.64a110.789,110.789,0,0,0-76.292,31.784c-28.479,28.491-10.194,52.5,14.307,76.328,21.714,19.8,54.671,43.127,57.14,75.277,1.965,25.7-14.537,53.325-25.143,75.277C-165.465,397.019-105.9,446.456-49.4,446.364Zm-98.874-259.579c-16.73-15.916-38.718-37.822-20.342-60.642,13.85-17.2,40.408-25.428,61.39-25.565,20.844-.137,41.643-6.357,61.848,1.692C-19.1,112.7,4.673,134.009,25.975,151.936c21.987,19.3,54.808,41.8,57.139,73.9,1.874,25.977-14.719,54.286-25.141,76.6-12.022,25.93-29.438,50.032-45.757,73.4-14.125,20.214-34.741,49.072-61.665,49.62-47.768.915-90.28-39.559-66.876-88.173,10.421-22.363,27.016-50.626,25.141-76.6C-93.47,228.584-126.246,206.084-148.278,186.785Z" transform="translate(33.009 34.454)" fill="#f41f45"/>
    </g>
  </g>
</svg>
