<svg id="logo" xmlns="http://www.w3.org/2000/svg" width="124.255" height="26.017" viewBox="0 0 124.255 26.017">
  <path id="Caminho_54" data-name="Caminho 54" d="M17.925-208.66a1.248,1.248,0,0,0-.881.843c-.026.128-.051.855-.064,1.634l-.013,1.4-.6.281c-1.762.83-4.571,4.009-4.469,5.082.038.37.5.741,2.222,1.8.2.115.166.217-.358,1.021s-5.222,8.2-7.048,11.083c-.677,1.085-.715,1.2-.715,1.953v.8h4.482l-.038-.345c-.026-.268-.14-.37-.575-.523-.306-.089-.549-.23-.549-.294,0-.115.689-1.149,4.188-6.282a16.272,16.272,0,0,1,1.558-2.107c.051.026,1.928,2.145,4.188,4.711s4.162,4.724,4.239,4.775a20.192,20.192,0,0,0,3.039-2.49c.013-.038-.077-.179-.217-.306-.217-.2-.281-.2-.715-.026a3.184,3.184,0,0,1-.575.2c-.051,0-1.954-2.107-4.2-4.673-4.2-4.775-4.2-4.775-3.792-5.324.166-.217.2-.2.792.166a1.8,1.8,0,0,0,.779.332,58.043,58.043,0,0,1,4.277,4.622c2.273,2.579,4.2,4.788,4.277,4.89.128.153.128.306.026.613a1.594,1.594,0,0,0,1.43,2.056,1.493,1.493,0,0,0,1.647-1.583,1.309,1.309,0,0,0-.319-.945l-.319-.37,1.66-1.456c1.3-1.136,1.622-1.481,1.507-1.609s-.1-.255,0-.46a1.441,1.441,0,0,0,.166-.868,45.125,45.125,0,0,0-3.6-4.239,1.4,1.4,0,0,0-1.545-.2c-.217.115-.332.064-.792-.383l-.536-.523-1.558,1.353-1.545,1.366.5.587c.46.536.485.6.294.8a1.779,1.779,0,0,0-.281.626c-.089.421-.089.421-2.337-2.145-1.749-2-2.234-2.63-2.183-2.834.064-.268-.345-.766-.983-1.175l-.306-.2.6-1.29c1.353-2.86,1.456-4.814.332-5.937a1.861,1.861,0,0,1-.5-.741c0-.2.1-.243.638-.243.728,0,.817-.1.958-1.111L20.2-207l.587-.038c.5-.038.6-.077.6-.294s-.1-.255-.575-.294c-.523-.038-.6-.077-.728-.421C19.84-208.673,18.9-208.941,17.925-208.66Z" transform="translate(-6 208.771)" fill="rgba(34,33,55,0.9)"/>
  <path id="Caminho_55" data-name="Caminho 55" d="M245.019-147.889c-.077.077-.7,1.736-1.392,3.664-1.456,4.073-1.532,4.571-.868,5.5a3.282,3.282,0,0,0,.945.843c.575.294.587.294,4.788.268l4.213-.038,1.136-3.192c1.353-3.8,2.515-7.112,2.515-7.163a29,29,0,0,0-3.779.051,19.715,19.715,0,0,0-1,2.515c-.472,1.328-1.072,3.013-1.328,3.728l-.472,1.315h-3.626l.562-1.57c.306-.855.894-2.528,1.328-3.715s.779-2.209.779-2.273A13.186,13.186,0,0,0,245.019-147.889Z" transform="translate(-212.18 155.814)" fill="rgba(34,33,55,0.9)"/>
  <path id="Caminho_56" data-name="Caminho 56" d="M337.741-147.908c-.064.089-.741,1.915-1.507,4.06s-1.57,4.43-1.8,5.069L334-137.591h8.9l.472-1.315c.255-.715.46-1.341.46-1.4a16.25,16.25,0,0,0-2.426-.089,10.325,10.325,0,0,1-2.426-.128c0-.064.575-1.724,1.277-3.7s1.277-3.639,1.277-3.7A12.206,12.206,0,0,0,337.741-147.908Z" transform="translate(-292.121 155.82)" fill="rgba(34,33,55,0.9)"/>
  <path id="Caminho_57" data-name="Caminho 57" d="M402.932-147.847a17.384,17.384,0,0,0-.932,2.541,6.656,6.656,0,0,0,1.788.115,5.4,5.4,0,0,1,1.788.128c0,.077-.575,1.749-1.277,3.715s-1.277,3.652-1.277,3.7a7.978,7.978,0,0,0,1.9.115h1.9l.192-.549c.23-.638,2.234-6.256,2.413-6.754l.128-.345,1.6-.038,1.609-.038.485-1.379.5-1.366H408.4C404.273-148,403.021-147.962,402.932-147.847Z" transform="translate(-351.439 155.759)" fill="rgba(34,33,55,0.9)"/>
  <path id="Caminho_58" data-name="Caminho 58" d="M474.524-147.766c-.192.485-.447,1.175-2.234,6.205-.715,1.992-1.29,3.677-1.29,3.741a7.889,7.889,0,0,0,1.9.115h1.89l.5-1.379.5-1.366.97-.038.983-.038.689,1.379.7,1.379,1.928.038c1.072.013,1.941,0,1.941-.026s-.409-.741-.894-1.558a16.113,16.113,0,0,1-.868-1.507,5.811,5.811,0,0,1,.626-.243,4.366,4.366,0,0,0,2.873-2.988,3.048,3.048,0,0,0-2-3.83c-.472-.179-1.175-.217-4.3-.268L474.7-148.2Zm6.192,2.63a.93.93,0,0,1-.038,1.379c-.409.421-1.034.549-2.554.562-1.009,0-1.251-.038-1.251-.179a6.741,6.741,0,0,1,.332-1.085l.332-.907h1.443C480.193-145.366,480.461-145.327,480.716-145.136Z" transform="translate(-411.629 155.934)" fill="rgba(34,33,55,0.9)"/>
  <path id="Caminho_59" data-name="Caminho 59" d="M570.364-142.931c-1.992,2.8-3.677,5.158-3.741,5.235-.089.128.332.166,2.03.166h2.158l.613-.958.613-.958h3.92l.089.536c.038.306.115.741.153.958l.064.421h1.966a8.493,8.493,0,0,0,1.966-.115c0-.064-.115-.677-.268-1.366s-.6-2.949-1.021-5.018-.792-3.8-.83-3.869a11.928,11.928,0,0,0-2.081-.1h-2.017Zm5.094.14a6.317,6.317,0,0,1,.115,1.085,9.383,9.383,0,0,1-1.021-.038l-.983-.064.779-1.187c.511-.779.817-1.136.868-1.021A6.924,6.924,0,0,1,575.458-142.791Z" transform="translate(-495.033 155.759)" fill="rgba(34,33,55,0.9)"/>
  <path id="Caminho_60" data-name="Caminho 60" d="M680.7-147.685c-3.435.294-5.975,1.647-7.01,3.741-1.328,2.694-.562,5.248,1.89,6.231.69.281.868.294,4.4.294h3.677l.868-2.426c.472-1.341.907-2.554.958-2.72l.089-.294-1.953.038-1.941.038-.447,1.3-.46,1.315h-2.656l-.421-.421c-1.009-1.009-.562-2.886.881-3.728.919-.523,1.443-.613,4.533-.689l2.975-.077.434-1.2a10.192,10.192,0,0,0,.434-1.353c0-.14-.536-.166-2.515-.166C683.051-147.8,681.365-147.749,680.7-147.685Z" transform="translate(-587.878 155.585)" fill="rgba(34,33,55,0.9)"/>
  <path id="Caminho_61" data-name="Caminho 61" d="M767.579-147.591c-.536.728-6.933,9.729-7.035,9.9-.077.128.37.166,2.03.166h2.119l.6-.958.6-.958h4l.077.728a8.79,8.79,0,0,0,.153.958c.064.217.536.23,7.648.23h7.571l.46-1.251a12.412,12.412,0,0,0,.46-1.4c0-.1-.8-.153-2.835-.179L780.6-140.4l2.285-1.558c1.251-.855,2.822-1.928,3.486-2.388l1.213-.83.472-1.353a4.784,4.784,0,0,0,.383-1.4c-.064-.026-2.426-.051-5.26-.026l-5.158.026-.472,1.277c-.255.7-.472,1.315-.472,1.366a15.645,15.645,0,0,0,2.49.128l2.49.038-1.29.894c-.7.485-2.273,1.583-3.473,2.426l-2.183,1.545-.485,1.328c-.434,1.238-.485,1.315-.575.958-.051-.217-.536-2.541-1.06-5.171l-.97-4.788-2.068-.038L767.886-148Zm1.851,5.375.038.5-1,.013c-1.162.026-1.149.115-.115-1.468l.728-1.111.153.792C769.316-143.059,769.405-142.484,769.431-142.216Z" transform="translate(-664.197 155.759)" fill="rgba(34,33,55,0.9)"/>
</svg>
