<svg id="unilever-logo" xmlns="http://www.w3.org/2000/svg" width="85.166" height="25.94" viewBox="0 0 85.166 25.94">
  <g id="Grupo_38" data-name="Grupo 38" transform="translate(34.864 7.781)">
    <g id="Grupo_37" data-name="Grupo 37">
      <path id="Caminho_76" data-name="Caminho 76" d="M135.639,108.447a2.025,2.025,0,0,0,1.766-1.079,11.032,11.032,0,0,1-.608-2.786c-.177-2.806.9-5.435,2.08-5.494.863-.059,1.55.765,1.628,2.1a10.039,10.039,0,0,1-1.53,6.2,2.055,2.055,0,0,0,1.707,1.315,1.132,1.132,0,0,0,.726-.255,2.774,2.774,0,0,1-.118-.844c0-2.021,1.295-3.728,2.433-3.728.9,0,1.413,1.177,1.413,1.962,0,.922-.785,1.668-1.923,2.394a1.386,1.386,0,0,0,.9.353c1.648,0,2.511-1.982,3.139-3.806.118-.353.314-.844.726-.844.687,0,.981,4.552,2.139,4.552.491,0,.9-1,.9-1.785,0-.569-.2-.628-.2-1.471,0-.922.49-1.707,1.158-1.707.412,0,.549.392.549.883,0,1.844-1.334,5.278-3.3,5.278-1.472,0-1.354-2.531-1.883-2.531-.589,0-1.393,2.57-4.238,2.57a1.829,1.829,0,0,1-1.354-.687,3.273,3.273,0,0,1-1.942.667c-1.059,0-1.53-1.1-1.962-1.1-.51,0-1.1,1.118-2.825,1.118-1.393,0-1.609-1.844-2.1-1.844-.432,0-1.1,1.844-1.825,1.844-1.216,0-1.471-3.2-2.531-3.2-.844,0-3.473,3.257-4.2,3.178a.419.419,0,0,1-.373-.53c.039-.392.392-1.471.53-1.982.235-.883.451-1.844.569-2.139a.76.76,0,0,1,.687-.51c.137.02.177.255.216.451.137.706.353,1.432.569,1.432.412,0,1.746-2.57,2.531-2.57.961,0,1.059,4.042,2.374,4.042.432,0,.746-.51,1.04-1.158.02-1.059.314-2.59,1.177-2.59.608,0,.9,1.354.451,2.531C134.109,108.093,135.031,108.447,135.639,108.447Zm23.073-3.473c-.353,1.491-1.432,3.669-3.061,3.669-.373,0-1.04-.137-1.04-.53,0-.412,2.531-.451,2.531-2.394a1.793,1.793,0,0,0-1.648-1.727c-1.295,0-2.57,1.413-2.57,3.375A2.06,2.06,0,0,0,155.1,109.7c1.9,0,3.061-1.55,3.669-2.864.294.863.451,2.864,1.177,2.864.294,0,.491-.137.844-.922.863-1.942,1.707-4.159,2.865-4.159.432,0,.177.785,1.216.785a.854.854,0,0,0,.844-.863c0-.667-.608-1.177-1.53-1.177-2.708,0-3.3,4.061-3.728,4.061-.726,0-.491-3.257-1-3.257C158.987,104.169,158.771,104.719,158.712,104.974Zm-19.149-3.021c-.059-.8-.235-1.177-.687-1.138-.569.039-.844,1.844-.726,3.747.078,1.236.255,1.432.432,1.413C138.916,105.955,139.681,103.738,139.563,101.952Zm-4.689-1.707a.854.854,0,0,0-.9-.785,1.133,1.133,0,0,0-1,1.295.846.846,0,0,0,.863.863C134.482,101.638,134.933,100.913,134.874,100.245Zm8.986,5.886c0-.49-.255-.9-.569-.9-.255,0-.863.294-.863,1.216a1.82,1.82,0,0,0,.373,1.216A1.488,1.488,0,0,0,143.86,106.131Zm11.262-.981c.608,0,.785.726.628,1.158a1.826,1.826,0,0,1-1.472,1.059C154.121,106.936,154.023,105.15,155.122,105.15Zm-33.216-2.04a10.619,10.619,0,0,1-.392-1.295,1.523,1.523,0,0,1,.824-1.746c.51-.137.726.118.922.726a12.472,12.472,0,0,1,.2,3.865c-.118,2.374-1.295,5.219-4.238,5.16-2.531-.059-3.669-1.707-3.787-4.218a11.411,11.411,0,0,1,.51-4.042c.255-.9.49-1.216,1.295-1.393.628-.118.569.549.432,1.334a15.422,15.422,0,0,0-.353,4.532c.118,2.08,1.059,2.884,2.1,2.884,1.55.039,2.256-1.275,2.531-3.139A4.763,4.763,0,0,0,121.906,103.11Z" transform="translate(-115.414 -99.085)" fill="rgba(34,33,55,0.9)"/>
    </g>
  </g>
  <g id="Grupo_39" data-name="Grupo 39" transform="translate(0 0)">
    <path id="Caminho_77" data-name="Caminho 77" d="M316.378-89.757a3.389,3.389,0,0,0,1.889,2.124c.247-.025.346-1.2.346-2.124,0-.531.025-.938-.247-1.037A2.188,2.188,0,0,1,316.378-89.757Zm.086-.4a1.892,1.892,0,0,0,1.914-1.506.586.586,0,0,0-.556-.642.44.44,0,0,1,.1.309c0,.531-.8,1.124-1.679,1.124a.372.372,0,0,0-.42.333C315.822-90.275,316.082-90.152,316.464-90.152Zm-.21-1.1a.411.411,0,0,1-.432-.21c-.086-.173-.062-.457-.222-.58a1.6,1.6,0,0,0,.469.049c.432,0,.852-.3,1.173-.3a.246.246,0,0,1,.272.272C317.514-91.6,316.649-91.251,316.254-91.251Z" transform="translate(-293.697 96.918)" fill="rgba(34,33,55,0.9)"/>
    <path id="Caminho_78" data-name="Caminho 78" d="M140.7-38.2c.321,0,.259-2,.79-2,.123,0,.161.123.161.284,0,.457-.222,1.124-.222,1.482,0,.185.049.247.136.247.235,0,.63-2.21,1.025-2.21.123,0,.185.123.185.247,0,.457-.593,1.79-.593,2.161,0,.062.025.111.062.111.247,0,.728-1.037.877-1.556.086-.272.2-.42.309-.42s.185.111.185.333a8.341,8.341,0,0,1-.9,2.568,6.262,6.262,0,0,0-.827,2.05,1.017,1.017,0,0,0,.42.852c-.617-.037-.864-.1-1.1-.58-1.025,2.05,1.9,1.852.9,3.667-.185-.321-1.63-.667-1.63-2.568,0-1.642,1.445-2.605,1.445-3.3a.454.454,0,0,0-.173-.358c-.321-.272-.333-.494-.58-.494-.185,0-.407.42-.173.8.074.123.148.2.148.321,0,.272-.42.988-.716.988s-.531-.741-.531-1.938c0-1.062.235-2.124.543-2.124.086,0,.111.062.111.136,0,.123-.037.37-.037.8C140.505-38.239,140.6-38.2,140.7-38.2Z" transform="translate(-139.69 51.426)" fill="rgba(34,33,55,0.9)"/>
    <path id="Caminho_79" data-name="Caminho 79" d="M162.431-33.008c.407,0,.741-.3.741-.963v-.988a1.643,1.643,0,0,1,.284-1.1,2,2,0,0,0-.025.383c0,.827.457,1.4.457,2.2,0,.3-.086.457-.321.457s-.2-.2-.247-.2-.1.123-.1.259a.523.523,0,0,0,.543.519.668.668,0,0,0,.63-.679c0-.864-.679-1.827-.679-2.753a2.153,2.153,0,0,1,.2-.889c0,1.914,1.63,3.309,1.63,4.111a.324.324,0,0,1-.333.333.319.319,0,0,1-.333-.309c0-.062-.012-.086-.037-.086a.493.493,0,0,0-.235.444.719.719,0,0,0,.741.7.857.857,0,0,0,.852-.877c0-1.012-1.975-2.543-1.975-4.186a2.288,2.288,0,0,1,.247-1.074,3.3,3.3,0,0,0-1.667,2.864c0,.827-.025,1.247-.457,1.247-.222,0-.284-.2-.358-.2s-.086.173-.086.222A.548.548,0,0,0,162.431-33.008Z" transform="translate(-158.974 49.059)" fill="rgba(34,33,55,0.9)"/>
    <path id="Caminho_80" data-name="Caminho 80" d="M286.061-88.92c.42,0,.741-.2.741-.309,0-.037-.062-.062-.185-.062a5.855,5.855,0,0,1-.852-.086c-.407-.062-.716-.222-.827-.222a.057.057,0,0,0-.062.049C284.888-89.3,285.357-88.92,286.061-88.92Zm-2.1-1.222a4.486,4.486,0,0,0,1.37-.3.487.487,0,0,1,.247-.062c.333,0,.247.383.556.383.235,0,.543-.2.728-.2.284,0,.7.9.7,1.333,0,.494-.741.79-1.617.79a2.047,2.047,0,0,1-2.05-1.84A.155.155,0,0,1,283.962-90.142Z" transform="translate(-265.911 95.34)" fill="rgba(34,33,55,0.9)"/>
    <path id="Caminho_81" data-name="Caminho 81" d="M162.027,27.246a1.4,1.4,0,0,0-.827,1.37,2.688,2.688,0,0,0,2.679,2.4,1.569,1.569,0,0,0,1.753-1.63,2.227,2.227,0,0,0-2.062-2.482,1.167,1.167,0,0,0-1.21,1.148,1.594,1.594,0,0,0,1.63,1.593.8.8,0,0,0,.852-.827,1.062,1.062,0,0,0-.975-1.025.279.279,0,0,0-.3.3c0,.235.321.457.716.457a.638.638,0,0,0,.21-.037.166.166,0,0,1,.025.111c0,.222-.21.358-.543.358a.945.945,0,0,1-.963-.951c0-.346.3-.593.728-.593a1.44,1.44,0,0,1,1.37,1.519c0,.679-.37,1.074-1.148,1.074A2.072,2.072,0,0,1,162.027,27.246Z" transform="translate(-158.36 -7.565)" fill="rgba(34,33,55,0.9)"/>
    <path id="Caminho_82" data-name="Caminho 82" d="M194.451,47.967a.383.383,0,1,0,.383-.383A.385.385,0,0,0,194.451,47.967Zm.741,1.926a4.832,4.832,0,0,0,.58-.037c.148,0,.148.086.148.148,0,.21-.469.469-1.309.469a.843.843,0,0,1-.877-.556,3.786,3.786,0,0,1-1.938.593,4.708,4.708,0,0,1-3.087-1.136c-.469-.21-1.2.2-2.21-.926a2.85,2.85,0,0,0,.457.037c.889,0,1.358-.432,1.358-1.124a2.019,2.019,0,0,0-.025-.272,1.932,1.932,0,0,1,1.037,1.383c.025.1.42.185.667.185a.78.78,0,0,0,.852-.716,2.158,2.158,0,0,0,2.1-1.642,2.262,2.262,0,0,1,1,.7,1.642,1.642,0,0,1,.58-.086,3.841,3.841,0,0,1,1.074.185c.025-.123.037-.284.235-.284.284,0,.21.321.309.506.049.1.284.148.284.346a.244.244,0,0,1-.247.247.3.3,0,0,1-.111-.025c-.2.062-.2,1.457-1.012,1.457a1.617,1.617,0,0,1-1.383-1.111.4.4,0,0,0-.346-.3c-.148,0-.235.025-.42.235a3.34,3.34,0,0,1-2.457,1.062c-.333,0-.593-.025-.654-.025-.037,0-.037.012-.037.025,0,.062.333.333,1.037.333,1.692,0,2.111-.951,2.383-.951a.231.231,0,0,1,.222.148A1.893,1.893,0,0,0,195.192,49.893Z" transform="translate(-180.537 -24.57)" fill="rgba(34,33,55,0.9)"/>
    <path id="Caminho_83" data-name="Caminho 83" d="M287.458,18.6c-.2,0-1.321,1.494-2.037,1.494-.173,0-.321-.333-.321-.58,0-.136.086-.235.4-.3,1.654-.37,1.284-1.617,2.7-1.617a1.615,1.615,0,0,1,1.642,1.729c0,1.272-1.815,2.852-2.074,2.852-.222,0-.457-.321-.457-.531,0-.062.025-.148.222-.235a2.255,2.255,0,0,0,1.457-1.642.175.175,0,0,0-.173-.2c-.161,0-.864,1.593-1.642,1.593-.543,0-1.087-.494-1.087-.716,0-.383,1.556-1.1,1.556-1.642C287.631,18.612,287.545,18.6,287.458,18.6Zm1.049-.593c-.136,0-.284.111-.284.37a.627.627,0,0,0,.346.531.6.6,0,0,0,.284.074c.284,0,.506-.074.506-.309A.888.888,0,0,0,288.508,18.007Z" transform="translate(-266.963 0.587)" fill="rgba(34,33,55,0.9)"/>
    <path id="Caminho_84" data-name="Caminho 84" d="M141.743-89.4a.385.385,0,0,0,.383.383.385.385,0,0,0,.383-.383.385.385,0,0,0-.383-.383A.393.393,0,0,0,141.743-89.4Zm-.494-.864a.385.385,0,0,0,.383.383.385.385,0,0,0,.383-.383.385.385,0,0,0-.383-.383A.385.385,0,0,0,141.25-90.262Zm-.346,2.642a.924.924,0,0,0-.679.815.568.568,0,0,0,.6.568.578.578,0,0,0,.37-.1,1.111,1.111,0,0,1-.37-.84A1.263,1.263,0,0,1,140.9-87.619Zm-2.358.136a.6.6,0,0,0-.012.148c0,.457.235.7.556.7a1.054,1.054,0,0,0,.766-.457,1.631,1.631,0,0,1-.346.025A1.206,1.206,0,0,1,138.546-87.484Zm-.346.852c0,.728.222,1.074.617,1.074a2.174,2.174,0,0,0,1.21-.642,4.3,4.3,0,0,1-.926.148A1.029,1.029,0,0,1,138.2-86.632Zm2.494-3.852a1.81,1.81,0,0,0,.086-.556c0-.457-.21-1.161-.864-1.161a.64.64,0,0,0-.642.654C139.274-90.792,140.04-90.484,140.694-90.484Zm-.815,2.432a.8.8,0,0,1-.667-.753c0-.2.148-.432.247-.432.037,0,.062.025.062.1a1.12,1.12,0,0,0,.654.877c.025.025.049.025.049.049C140.237-88.15,140.052-88.052,139.879-88.052Zm.889-1.185c.062.086.247.2.247.272,0,.136-.074.309-.235.309-.333,0-.6-.506-.6-.8,0-.185.111-.2.247-.2a.293.293,0,0,1,.148.037C140.657-89.57,140.657-89.373,140.768-89.237Zm-2.259,1.2a.246.246,0,0,0-.025.111.21.21,0,0,0,.185.185,1.517,1.517,0,0,0,.161-.025c.235,0,.494.161.864.161a1.764,1.764,0,0,0,.815-.235,2.028,2.028,0,0,0,.963-1.346c0-.185-.148-.16-.272-.333s-.074-.321-.148-.4c-.049-.049-.185-.049-.358-.062a1.129,1.129,0,0,0-.21-.012,1.907,1.907,0,0,0-1.111.309C138.521-89.138,138.632-88.261,138.509-88.039Zm3.2-.383a1.846,1.846,0,0,0-.432,1.111.866.866,0,0,0,.815.951.729.729,0,0,0,.691-.815A1.444,1.444,0,0,0,141.706-88.422Zm-2.062-1.852a1.186,1.186,0,0,1-.63.21.72.72,0,0,1-.741-.741.819.819,0,0,1,.506-.765.76.76,0,0,0-.012.16A1.122,1.122,0,0,0,139.645-90.274Z" transform="translate(-138.2 96.83)" fill="rgba(34,33,55,0.9)"/>
    <path id="Caminho_85" data-name="Caminho 85" d="M262.156-67.442a.411.411,0,0,0,.407.407.411.411,0,0,0,.407-.407.411.411,0,0,0-.407-.407A.411.411,0,0,0,262.156-67.442Zm.025,1.21a.456.456,0,0,0,.457.457.456.456,0,0,0,.457-.457.456.456,0,0,0-.457-.457A.472.472,0,0,0,262.181-66.232ZM260.8-65.4a.664.664,0,0,0,.667.667.664.664,0,0,0,.667-.667.664.664,0,0,0-.667-.667A.664.664,0,0,0,260.8-65.4Zm.358-1.358a.385.385,0,0,0,.383.383.385.385,0,0,0,.383-.383.385.385,0,0,0-.383-.383A.385.385,0,0,0,261.156-66.763ZM259.9-66a.385.385,0,0,0,.383.383.385.385,0,0,0,.383-.383.385.385,0,0,0-.383-.383A.385.385,0,0,0,259.9-66Zm.988-2.247a.627.627,0,0,0,.617.617.627.627,0,0,0,.617-.617.627.627,0,0,0-.617-.617A.619.619,0,0,0,260.884-68.244Zm.716-1.185a.371.371,0,0,0,.37.37.371.371,0,0,0,.37-.37.371.371,0,0,0-.37-.37A.371.371,0,0,0,261.6-69.43Zm-1.741.926a.369.369,0,0,0,.358.37.371.371,0,0,0,.37-.37.371.371,0,0,0-.37-.37A.369.369,0,0,0,259.859-68.5Zm-.049,1.247a.582.582,0,0,0,.58.593.585.585,0,0,0,.593-.593.585.585,0,0,0-.593-.593A.582.582,0,0,0,259.81-67.257Zm-1.21.617a.548.548,0,0,0,.543.543.548.548,0,0,0,.543-.543.548.548,0,0,0-.543-.543A.54.54,0,0,0,258.6-66.639ZM258.933-68a.385.385,0,0,0,.383.383A.385.385,0,0,0,259.7-68a.385.385,0,0,0-.383-.383A.385.385,0,0,0,258.933-68Zm3.371,2.963a.366.366,0,0,1,.358-.358.361.361,0,0,1,.37.358.357.357,0,0,1-.37.37A.361.361,0,0,1,262.3-65.034Z" transform="translate(-243.735 77.196)" fill="rgba(34,33,55,0.9)"/>
    <path id="Caminho_86" data-name="Caminho 86" d="M270.014,45c.049,0,.111.025.111.2a.857.857,0,0,1-.444.716,1.925,1.925,0,0,1-1.049.309,2.367,2.367,0,0,0,.136-.7,1.525,1.525,0,0,0-.025-.222h.123A2.087,2.087,0,0,0,270.014,45Zm.074-.951a.365.365,0,0,0,.1-.284v-.222c0-.284-.42-.444-1-.444-.7,0-1.074.321-1.074.457V44c0,.185.42.37.951.37A1.613,1.613,0,0,0,270.088,44.051Zm.494.111a2.81,2.81,0,0,1-1.815.63,2.4,2.4,0,0,1-.827-.161c-.1,0-.2.1-.309.222a2.132,2.132,0,0,0-.531,1.321.785.785,0,0,0,.852.765c1.8,0,3.148-1.124,3.148-2.037C271.113,44.372,270.8,44.162,270.582,44.162Z" transform="translate(-251.185 -21.765)" fill="rgba(34,33,55,0.9)"/>
    <path id="Caminho_87" data-name="Caminho 87" d="M260.935-33.973c0,.235.074.519.321.519.2,0,.37-.309.37-.642,0-.383-.062-.679-.062-.84,0-.062.025-.1.062-.1.148.012.284.407.432.407.173,0,.432-.321.543-.321.025,0,.037.037.037.049,0,.148-.222.469-.222.593s.556.123.556.222c0,.148-.58.148-.864.272s-.432.259-.432.457.2.235.469.235a3.719,3.719,0,0,0,1.235-.346.053.053,0,0,1,.049.049c0,.1-.333.42-.333.556,0,.161.593.358.593.457q-.018.037-.111.037c-.111,0-.272-.025-.4-.025-.074,0-.148.012-.173.049-.062.074.025.593-.111.593s-.457-1.136-1.2-1.136c-.111,0-.185.086-.185.235a1.436,1.436,0,0,0,.728,1.037c.161.111.432.21.432.272,0,.111-.617.012-.617.2s.074.432.074.593c0,.049-.012.111-.062.111-.111,0-.4-.531-.531-.531-.111,0-.37.321-.469.321a.056.056,0,0,1-.049-.062c0-.222.358-.728.358-1.21,0-.235-.025-.728-.309-.728-.235,0-.494.37-.605.728-.062.21-.025,1.025-.173,1.025s-.111-.543-.3-.543c-.148,0-.444.259-.556.259-.025,0-.037-.012-.037-.025,0-.111.284-.494.284-.568,0-.148-.642-.161-.642-.284,0-.062.247-.111.482-.148.494-.086,1.21-.444,1.21-.938,0-.556-.543-.8-.889-1.025-.185-.111-.383-.21-.383-.284s.235-.074.333-.074c.148,0,.284-.012.284-.123,0-.086-.025-.259-.025-.4,0-.1.012-.173.049-.173.148,0,.346.469.444.469.148,0,.37-.383.506-.383.049,0,.062.025.062.111C261.12-34.726,260.935-34.331,260.935-33.973ZM256.342-36.8c.111.815,1.21.407,1.21,1.4,0,.148-.037.358-.037.543,0,.21.025.4.185.4s.2-.111.2-.272-.037-.346-.037-.457a.383.383,0,0,1,.383-.42c.37,0,.642.37,1.2.37-.124.617-1.4.457-1.4,1.124,0,.333.333.42.556.42.2,0,.272-.025.272-.2,0-.1-.025-.2-.025-.272a.071.071,0,0,1,.074-.074c.21,0,1.247.79,1.247,1.037,0,.222-1.1.444-1.42.444-.1,0-.111-.062-.111-.111s.161-.272.161-.383c0-.086-.148-.148-.531-.148-.185,0-.321.025-.321.161,0,.259.42.58.42.815,0,.2-.111.309-.42.309-.259,0-.654-.2-.654-.543,0-.272.272-.543.272-.7a.131.131,0,0,0-.148-.123c-.358,0-.457.938-1.716,1.049a.98.98,0,0,0,.37-.8c0-.2-.049-.37-.049-.593,0-.284.136-.432.333-.432.358,0,.531.506.766.506a.275.275,0,0,0,.259-.284c0-.728-1.408-.63-1.408-1.654A2.631,2.631,0,0,1,256.342-36.8Z" transform="translate(-241.193 48.27)" fill="rgba(34,33,55,0.9)"/>
    <path id="Caminho_88" data-name="Caminho 88" d="M243.707,3.382a.227.227,0,0,0,.235.235.265.265,0,0,0,.247-.284c0-.2-.185-.482-.358-.482-.074,0-.049.111-.062.247C243.756,3.184,243.707,3.308,243.707,3.382ZM243.2,2.1a1.776,1.776,0,0,1,1.556,1.667.867.867,0,0,1-.852.938.817.817,0,0,1-.852-.877c0-.407.321-.827.321-1.247A.683.683,0,0,0,243.2,2.1ZM241.929,3.74a.384.384,0,0,1,.123.284c0,.148-.062.3-.062.457a.419.419,0,0,0,.42.432.448.448,0,0,0,.457-.457A.861.861,0,0,0,241.929,3.74Zm3.185-.617a.644.644,0,0,1,.1.309c0,.272-.185.519-.185.8a.578.578,0,0,0,.6.58.669.669,0,0,0,.667-.691C246.3,3.6,245.83,3.172,245.114,3.122Zm-2.963-.506c.444.062.556.21.556.333,0,.21-.2.284-.383.284-.136,0-.284-.025-.457-.025a.734.734,0,0,0-.593.247c.123.025.309.111.309.3,0,.556-1.556.1-1.556,1.531a1.838,1.838,0,0,0,1.988,1.593c.617,0,1.012-.2,1.012-.432,0-.185-.333-.062-.333-.21,0-.062.111-.2.111-.3,0-.049-.037-.136-.111-.136a3.825,3.825,0,0,1-1.161.284c-.519,0-1.025-.3-1.025-.7,0-.086.037-.136.1-.136s.136.037.2.037.062-.037.062-.148,0-.407.185-.407a2.886,2.886,0,0,0,1.864.679,3.07,3.07,0,0,0,1.617-.37,2.5,2.5,0,0,1-2.568,2.457A2.719,2.719,0,0,1,239.2,4.715,2.837,2.837,0,0,1,242.052,1.9c.42,0,.778.148.778.321C242.83,2.468,242.2,2.307,242.151,2.616Z" transform="translate(-226.73 14.348)" fill="rgba(34,33,55,0.9)"/>
    <path id="Caminho_89" data-name="Caminho 89" d="M181.32-87.1c.63,0,.926.543.926,1.161,0,.272-.074.667-.2.667s-.111-.222-.123-.42c-.025-.259-.062-.321-.148-.321-.16,0-.272.383-.272.741,0,.222.037.469.21.469a.355.355,0,0,0,.247-.111.861.861,0,0,1-.827.827c-.852,0-1.161-.988-1.259-1.568a2.332,2.332,0,0,1-1.827.938,1.086,1.086,0,0,1-1.148-1.124c0-.161.062-.593.259-.593.235,0,.025.79.506.79.111,0,.333-.1.444-.42a2.005,2.005,0,0,0,.111-.568c0-.259-.062-.42-.247-.42a.709.709,0,0,0-.432.2A1.457,1.457,0,0,1,178.95-87.9c.765,0,1.161.679,1.161,1.42a3.024,3.024,0,0,1-.025.333A1.546,1.546,0,0,1,181.32-87.1Zm-.741,1.136c0-.16-.037-.2-.074-.2-.1,0-.2.111-.358.37.025.346.074.506.173.506S180.579-85.628,180.579-85.962Zm-1.321.4c.111,0,.247-.111.494-.4a1.932,1.932,0,0,0,.025-.383c0-.2-.074-.407-.2-.407-.284,0-.432.766-.432.975C179.135-85.665,179.2-85.566,179.258-85.566Zm1.568.852c.235,0,.506-.926.506-1.506,0-.123-.025-.259-.074-.259-.2,0-.543.951-.543,1.469C180.715-84.8,180.765-84.715,180.826-84.715Zm-2.358-.531c.333,0,.7-1.778.7-2.074,0-.074-.025-.136-.1-.136-.3,0-.716,1.692-.716,2.062C178.357-85.32,178.382-85.245,178.468-85.245Z" transform="translate(-172.122 93.061)" fill="rgba(34,33,55,0.9)"/>
    <path id="Caminho_90" data-name="Caminho 90" d="M177.151-60.4c-.42,0-.432.506-.432,1.506-.309-.667-.815-1.383-1.42-1.383-.407,0-.556.272-.556.741a2.818,2.818,0,0,0,.025.333.368.368,0,0,1,.4-.235,1.775,1.775,0,0,1,1.247.753,7,7,0,0,0-1.049-.136,1.241,1.241,0,0,0-.506.086,1.272,1.272,0,0,0-.654,1.161c0,.1.012.2.025.321a2.068,2.068,0,0,1,1.815-1.087,1.572,1.572,0,0,1,.272.025,1.547,1.547,0,0,0-.383,1.062c-.012.148-.062.161-.173.161,0,.321.247.79.247,1.025a.214.214,0,0,1-.1.185c0,.42.42.728.42,1a.234.234,0,0,1-.049.148c.025.173.494.469.556.6.074.173.16.21.21.21.161,0,.42-.2.42-.37a.2.2,0,0,0-.086-.148,1.36,1.36,0,0,1-.358-.617.177.177,0,0,1-.185-.136,6.638,6.638,0,0,0-.136-.79c-.123-.025-.185-.074-.185-.333,0-.123.074-.617.074-.79a.133.133,0,0,1-.136-.148c0-.309.309-.543.4-.938A1.425,1.425,0,0,1,177.521-57a2.522,2.522,0,0,1-.062.543c.407-.2,1.012-.506,1.012-1.111,0-.358-.161-.753-1.247-.9a3.455,3.455,0,0,1,1.111-.2c.617,0,.975.2,1.049.63a1.254,1.254,0,0,0,.222-.617.816.816,0,0,0-.9-.778,3.086,3.086,0,0,0-1.667.679c.247-.519.42-.827.728-.827a.62.62,0,0,1,.148.025C177.818-59.993,177.373-60.4,177.151-60.4Z" transform="translate(-169.755 68.956)" fill="rgba(34,33,55,0.9)"/>
    <path id="Caminho_91" data-name="Caminho 91" d="M316.966-4.2c.482,0,.864.63.864,1.358a3.048,3.048,0,0,1-1.025,2.21c-.012-1.3-1.605-.889-1.605-1.827a.64.64,0,0,1,.642-.679,1.011,1.011,0,0,1,.728.259.85.85,0,0,1-.259-.617A.655.655,0,0,1,316.966-4.2Z" transform="translate(-293.346 19.695)" fill="rgba(34,33,55,0.9)"/>
    <path id="Caminho_92" data-name="Caminho 92" d="M259.583-90.4a.734.734,0,0,0-.494-.2.766.766,0,0,0-.765.568.942.942,0,0,1-.062-.333.924.924,0,0,1,.988-.938,1.675,1.675,0,0,1,.938.321c.1,0,.2-.1.272-.1.111,0,.111.16.111.284a1.6,1.6,0,0,1-.605,1.3.968.968,0,0,0-.482-.457.16.16,0,0,1-.1-.148A.364.364,0,0,1,259.583-90.4Zm-1.445.7a.99.99,0,0,0,.741.346c.111,0,.235-.025.3-.025.086,0,.148.037.148.111a.574.574,0,0,1-.21.37.936.936,0,0,0,.37.062,1.133,1.133,0,0,0,1.173-1.21,1.319,1.319,0,0,1,.185.617,1.38,1.38,0,0,1-1.482,1.457,2.137,2.137,0,0,1-.753-.148c-.185,0-.173.37-.3.358-.222-.037-.42-.531-.42-1.049A1.468,1.468,0,0,1,258.139-89.695Z" transform="translate(-243.113 96.041)" fill="rgba(34,33,55,0.9)"/>
    <path id="Caminho_93" data-name="Caminho 93" d="M145.592-129.478c0-.062-.284-.111-.679-.111-.63,0-.543.519-1.025.519-.506,0-.37-.543-1.012-.543-.383,0-.741.062-.741.148,0,.111.457.062.457.383s-.975.432-.975.63c0,.062.074.1.173.1.21,0,.543-.1.79-.1.136,0,.259.025.259.148,0,.247-.519.679-.519.864,0,.062.049.074.1.074.2,0,.519-.494.827-.494.506,0,.173,1.087.457,1.087s.161-1.074.58-1.074c.333,0,.593.741.815.741a.111.111,0,0,0,.111-.111c0-.2-.284-.617-.284-.889a.241.241,0,0,1,.272-.247c.222,0,.519.136.679.136.062,0,.111-.025.111-.086,0-.235-.852-.482-.852-.778C145.123-129.342,145.592-129.342,145.592-129.478Zm2.259.975c0,.173.6.543.889.543.161,0,.21-.222.21-.457,0-.284-.123-.3-.37-.3C148.259-128.7,147.851-128.613,147.851-128.5Zm1,1.914c0-.58-1.568-1.63-1.58-2.074a.2.2,0,0,1,.062-.123c.272-.284,1.383-.494,1.383-.728,0-.123-.235-.123-.346-.123-.9,0-2.21.333-2.21.642,0,.333,1.173,1.124,1.173,1.519,0,.111-.062.148-.173.148-.321,0-1.037-.4-1.383-.4-.148,0-.21.111-.21.259,0,.457.543,1.333.543,1.593,0,.025-.012.062-.049.062-.173,0-.988-.963-1.284-.963-.111,0-.111.148-.111.358v.333c0,.222-.012.358-.111.358-.247,0-.37-.7-.6-.7s-.3,1.247-.543,1.247c-.284,0-.037-1.383-.309-1.383-.3,0-.63.914-.852.914-.074,0-.1-.074-.1-.148,0-.284.161-.728.161-1,0-.136-.037-.21-.148-.21-.3,0-.951.482-1.21.482-.037,0-.086-.025-.086-.062,0-.235,1.049-.963,1.049-1.3s-1.445-.111-1.445-.469c0-.309,1.037-.63,1.037-.938,0-.284-1.222-.407-1.691-.407-.568,0-.877.062-.877.235,0,.247,1.3.333,1.3.543s-1.333.778-1.333,1.111c0,.284,1.889.025,1.889.321,0,.333-1.642,1.741-1.642,2.21,0,.111.074.148.185.148.506,0,1.8-.951,2.161-.951.123,0,.136.148.136.284,0,.247-.086.63-.086.914,0,.222.062.37.247.37.358,0,.679-.6.926-.6.309,0,.123,1.778.593,1.778.4,0,.556-1.926.8-1.926s.457.556.679.556c.284,0,.148-.975.457-.975.333,0,1.3,1.161,1.729,1.161.136,0,.185-.111.185-.247,0-.506-.716-1.667-.716-2.037,0-.1.025-.123.136-.123.37,0,1.469.519,1.988.519C148.753-126.366,148.851-126.465,148.851-126.589Zm-8.791-.556a1.816,1.816,0,0,1-.988.84c-.1,0-.123-.111-.123-.222a.8.8,0,0,1,.2-.543,1.113,1.113,0,0,1,.63-.173C139.912-127.255,140.061-127.231,140.061-127.144Zm7.075.988a5.394,5.394,0,0,0,1.432,1.988c.2,0,.333-.333.333-.63a.416.416,0,0,0-.062-.21,5.529,5.529,0,0,0-1.667-1.21C147.16-126.218,147.135-126.181,147.135-126.156Z" transform="translate(-138.814 129.7)" fill="rgba(34,33,55,0.9)"/>
    <path id="Caminho_94" data-name="Caminho 94" d="M304.341-128.72a.237.237,0,0,0,.247.235.245.245,0,0,0,.247-.235.248.248,0,0,0-.247-.247A.248.248,0,0,0,304.341-128.72Zm-1.568,2.124c0-.679-1.642-.852-1.642-1.012,0-.123.914-.333,1.383-.346-.728-.926-1.753-.827-1.753-.988a2.948,2.948,0,0,1,1.482-.284c.593,0,1.161.136,1.161.593,0,.247-.2.506-.2.9a.359.359,0,0,0,.383.4c.3,0,.37-.321.37-.654,0-.284-.049-.494-.049-.63a.638.638,0,0,1,.667-.679c.333,0,.407.148.889.148a.747.747,0,0,0-.358.568,10.5,10.5,0,0,1,.259,1.506c0,1.519-1.42,2.062-3.173,2.062a10.4,10.4,0,0,1-1.494-.111c-.074-.012-.1-.025-.1-.074,0-.123.679-.2.679-.815a4.719,4.719,0,0,0-.074-.556.071.071,0,0,1,.074-.074c.148,0,.432.556.975.556A.484.484,0,0,0,302.773-126.6Zm1.63-.975c0,.852-.63,1.506-1.753,1.691.123.012.247.012.358.012,1.321,0,1.8-.593,1.8-1.1A.633.633,0,0,0,304.4-127.571Z" transform="translate(-280.549 129.349)" fill="rgba(34,33,55,0.9)"/>
    <path id="Caminho_95" data-name="Caminho 95" d="M296.461-62.383a5.379,5.379,0,0,1,.667-1.333c-.321-.161-1.161-.506-1.161-1.074a1.486,1.486,0,0,1,1-1.185c.074,0,.1.062.1.2,0,.346-.16.9-.16,1.21,0,.272.173.531.333.531a1.385,1.385,0,0,0,.617-1.148,1.3,1.3,0,0,0-1.173-1.333,5.624,5.624,0,0,1-1.84.42c-2.074,0-2.543-2.05-2.543-2.951,0-.037.012-.049.025-.049a1.468,1.468,0,0,0,.9.247c.333,0,.642-.086,1.136-.086,1.148,0,1.667.8,2.383,1.815a2.256,2.256,0,0,1,1.469,1.926c0,1.074-1.148,1.679-1.42,2.827.444-.049.7-.84,1.161-.84.235,0,.333.185.333.469a2.134,2.134,0,0,1-.7,1.457.508.508,0,0,0,.012-.148c0-.272-.111-.654-.42-.654-.482,0-.63.519-.9.951a4.594,4.594,0,0,0-1.333-2.408c-.679-.543-1.864-.247-1.864-1.247,0-.272.173-.654.173-.963a.541.541,0,0,0-.074-.284c.926.346.593.963,1.173,1.593a5.059,5.059,0,0,1,1.9,2.457,1.42,1.42,0,0,0,.025-.259c0-1.42-1.889-2.827-2.05-3.4,1.1.123,1.284.4,1.815,1.84A8.265,8.265,0,0,1,296.461-62.383Zm-.247-4.679c0-.2-.506-.222-.556-.79-.012-.086-.037-.235-.148-.235-.173,0-.037.531-.235.531-.444,0-.593-.864-.753-.864-.037,0-.086.025-.086.148s.025.173.025.3-.025.21-.148.21c-.259,0-.494-.6-.716-.6-.049,0-.1.025-.1.074,0,.111.2.333.2.432,0,.235-.63.111-.63.3,0,.086.086.111.2.111.2,0,.519-.086.679-.086.1,0,.247.025.247.148s-.346.309-.346.432c0,.062.062.086.111.086.259,0,.716-.457,1.049-.457.062,0,.2.025.2.111,0,.123-.321.346-.321.531,0,.049.025.111.086.111.173,0,.407-.457.728-.457.123,0,.309.049.407.049A.086.086,0,0,0,296.214-67.063Z" transform="translate(-273.274 76.582)" fill="rgba(34,33,55,0.9)"/>
    <path id="Caminho_96" data-name="Caminho 96" d="M258.1-125.859c.161,0,.185.37.21.593.025.111.037.123.086.123.111,0,.3-.444.42-.444a3.819,3.819,0,0,0,1.494.506,2.19,2.19,0,0,0,2.259-2.259,2.144,2.144,0,0,0-2.346-2.21,7.04,7.04,0,0,0-1.37.321c-.148.012-.383-.37-.494-.37-.049,0-.1.1-.1.259,0,.111,0,.444-.111.444-.235,0-1.124-.667-1.124-.42,0,.222.593.9.593,1.074s-.593.333-.593.457c0,.21.63.247.63.519s-.654.482-.654.679c0,.161.654.049.654.247s-.482.877-.482,1.074c0,.049.012.049.049.049C257.407-125.229,257.963-125.859,258.1-125.859Zm.272-1.58c0-.111-.37-.309-.37-.42,0-.025.025-.025.049-.025.111,0,.284.037.432.037.123,0,.148-.543.235-.543.062,0,.185.506.284.506.123,0,.358-.148.457-.148.025,0,.037.012.037.025,0,.062-.247.321-.247.407s.543.2.543.272c0,.1-.556.086-.556.173,0,.062.2.333.2.42,0,.025-.012.025-.025.025-.074,0-.37-.136-.457-.136-.111,0-.272.4-.37.4-.025,0-.049-.037-.049-.086l-.025-.383a.069.069,0,0,0-.062-.074c-.111,0-.333-.012-.407-.012-.049,0-.062-.012-.062-.025C257.988-127.094,258.371-127.365,258.371-127.439Zm1.877,1.827c-.679,0-1.124-.333-1.124-.506a.14.14,0,0,1,.136-.148c.21,0,.679.321.827.321.037,0,.062-.025.062-.074,0-.173-.16-.457-.16-.6,0-.037.025-.062.086-.062.259,0,.642.111.852.111.062,0,.086-.037.086-.074,0-.21-.63-.63-.63-.753s.778-.284.778-.469-1.062-.062-1.062-.247c0-.136.2-.37.2-.469,0-.049-.037-.062-.111-.062s-.556.185-.741.185c-.1,0-.21-.025-.21-.148,0-.222.37-.457.963-.457.951,0,1.519.654,1.519,1.753A1.493,1.493,0,0,1,260.247-125.612Z" transform="translate(-242.332 129.612)" fill="rgba(34,33,55,0.9)"/>
    <path id="Caminho_97" data-name="Caminho 97" d="M208.587,32.616a.418.418,0,0,1-.111.284.7.7,0,0,0-.543-.284c-.988,0-.617,1.432-1.679,1.432a4.556,4.556,0,0,1-.642-.062c-.062,0-.111.025-.111.086,0,.247.358.864,1.346.864s1.951-.6,1.951-1.358a.954.954,0,0,0-.086-.4.271.271,0,0,1,.222-.1c.148,0,.235.173.383.173a.266.266,0,0,0,.272-.272.289.289,0,0,0-.185-.272.339.339,0,0,0,.136-.259.308.308,0,0,0-.309-.321.246.246,0,0,0-.21.1c-.025-.173-.111-.333-.3-.333a.247.247,0,0,0-.247.272C208.488,32.332,208.587,32.456,208.587,32.616Z" transform="translate(-197.191 -11.948)" fill="rgba(34,33,55,0.9)"/>
    <path id="Caminho_98" data-name="Caminho 98" d="M185.563,19.05c-.284,0-.728-.309-.728-.482a.231.231,0,0,1,.235-.222c.247,0,.679.3.679.543C185.761,18.963,185.711,19.05,185.563,19.05Zm-2.679-2.161c.766.2,1.161.6,1.235,1.1a2.115,2.115,0,0,0,.358,1.049,1.672,1.672,0,0,0,1.124.506c.346,0,.63-.111.63-.432a1.316,1.316,0,0,0-1.161-1.124c-.062,0-.148.012-.247.012a.48.48,0,0,1-.284-.086c-.148-.136-.2-.852-.494-1.3A1.218,1.218,0,0,0,182.909,16c-.333,0-.716.185-.716.457C182.18,16.617,182.266,16.728,182.884,16.889Z" transform="translate(-176.76 1.989)" fill="rgba(34,33,55,0.9)"/>
    <path id="Caminho_99" data-name="Caminho 99" d="M204.2-31.617c0-.432-.9-.444-.9-1.1a1.537,1.537,0,0,1,.321-.741,1.027,1.027,0,0,0,.728.926,1.244,1.244,0,0,1,.975,1.309,1.972,1.972,0,0,1-2.173,1.951A2.193,2.193,0,0,1,201-31.333c0-.259.062-.543.235-.543.148,0,.2.111.309.235a2,2,0,0,0,1.593.543C203.753-31.111,204.2-31.357,204.2-31.617Zm.037.691c-.333.148-.457.123-.457.457,0,.123-.025.284-.025.37,0,.111.025.185.148.185A1.245,1.245,0,0,0,204.8-31c0-.136-.074-.2-.161-.2S204.469-31.036,204.235-30.925Zm-3.062-4.865c0-.617,1.469-.938,1.469-1.7a1.245,1.245,0,0,0-.136-.506,1.575,1.575,0,0,1,.889,1.136c0,.667-.691.975-.691,1.383,0,.482.741.556.741,1.161,0,.494-.7,1.062-.7,1.691a.955.955,0,0,0,.877.963,2.349,2.349,0,0,1-.494.062,1.965,1.965,0,0,1-1.975-1.753,1.639,1.639,0,0,1,.506-1.185,1.357,1.357,0,0,0,.716.383c.148,0,.222-.074.222-.2C202.58-34.7,201.173-35.024,201.173-35.79Z" transform="translate(-193.246 49.322)" fill="rgba(34,33,55,0.9)"/>
    <path id="Caminho_100" data-name="Caminho 100" d="M157.063,6.94a.625.625,0,0,0,.691.543.758.758,0,0,0,.321-.1.582.582,0,0,0,.679.457.606.606,0,0,0,.556-.679.587.587,0,0,0-.062-.222.326.326,0,0,0,.086-.012.645.645,0,0,0,.556-.679.631.631,0,0,0-.679-.568.545.545,0,0,0-.321.136.654.654,0,0,0-.728-.482.619.619,0,0,0-.519.7.661.661,0,0,0,.049.2.665.665,0,0,1-.1.012A.638.638,0,0,0,157.063,6.94Zm1.8-.37a.367.367,0,1,1-.407-.321A.363.363,0,0,1,158.865,6.569Z" transform="translate(-154.729 11.346)" fill="rgba(34,33,55,0.9)"/>
  </g>
</svg>
