<svg id="layer1" xmlns="http://www.w3.org/2000/svg" width="63.868" height="24.981" viewBox="0 0 63.868 24.981">
  <g id="g22" transform="translate(0 0)">
    <path id="path12" d="M43.035,99.1h-3.75l1.493-5.208a12.86,12.86,0,0,0,.417-1.927h.052a12.434,12.434,0,0,0,.365,1.927ZM45,104.691h0a.62.62,0,0,1-.608-.451v-.017l-.851-2.951H38.73l-.885,2.951a.651.651,0,0,1-.608.469H35.223a.652.652,0,0,1-.642-.642.738.738,0,0,1,.035-.191v-.017l4.791-14.687a.636.636,0,0,1,.625-.469h2.743a.66.66,0,0,1,.608.434l4.774,14.7a.872.872,0,0,1,.035.208.637.637,0,0,1-.625.642H45Zm3.559-16.023a.64.64,0,0,1,.365-.573l2.031-1.059a.836.836,0,0,1,.417-.122.641.641,0,0,1,.642.642v13.385a1.5,1.5,0,0,0,1.51,1.424.641.641,0,0,1,.642.642v1.042a.641.641,0,0,1-.642.642h-.712a4.268,4.268,0,0,1-4.271-4.271V88.668Zm15.833,4.288a.652.652,0,0,1,.382.59h0v11.006c0,3.489-2.17,5.173-5.364,5.295a8.7,8.7,0,0,1-3.923-.764h0a.646.646,0,0,1-.4-.608.88.88,0,0,1,.035-.226l.347-.885a.657.657,0,0,1,.625-.451.555.555,0,0,1,.243.052h0a7.044,7.044,0,0,0,2.43.451c1.875,0,2.552-.885,2.552-2.292v-.677a4.654,4.654,0,0,1-2.135.382c-2.934,0-5.052-2.257-5.052-5.92,0-4.1,2.1-6.666,6.3-6.666a10.151,10.151,0,0,1,3.958.712ZM61.3,102.5a2.4,2.4,0,0,1-1.233.3c-1.771,0-2.5-1.319-2.5-4.1,0-2.934.746-4.409,2.569-4.409A2.682,2.682,0,0,1,61.3,94.5Zm11.874.434v-4.67c-2.014-.156-3.68.59-3.68,2.517a2.105,2.105,0,0,0,2.326,2.274,5.26,5.26,0,0,0,1.354-.122Zm3.472-4.149v4.757a.64.64,0,0,1-.4.59h-.017a13.3,13.3,0,0,1-4.6.712c-3.7,0-5.659-1.337-5.659-3.871,0-3.142,2.587-4.583,7.187-4.357-.1-1.215-.816-1.962-2.535-1.962a7.044,7.044,0,0,0-2.43.451h0a.554.554,0,0,1-.243.052.657.657,0,0,1-.625-.451l-.347-.885a.476.476,0,0,1-.035-.226.674.674,0,0,1,.4-.608h0a8.6,8.6,0,0,1,3.923-.764c3.194.122,5.364,1.805,5.364,5.295v1.267Zm1.719-4.982a1.137,1.137,0,0,1,.8-1.059,14.382,14.382,0,0,1,5.052-.538h.017a.641.641,0,0,1,.642.642h0v.868a.652.652,0,0,1-.642.642h-.069a5.669,5.669,0,0,0-2.344.312v9.392a.649.649,0,0,1-.642.625h-2.17a.641.641,0,0,1-.642-.642V93.807Z" transform="translate(-34.581 -86.915)" fill="rgba(34,33,55,0.9)" fill-rule="evenodd"/>
    <path id="path14" d="M115.144,95.664a.657.657,0,0,1,.312-.538.642.642,0,0,1,.66.017l3.715,2.135h0a.634.634,0,0,1,.312.538.665.665,0,0,1-.347.573s-3.7,2.135-3.715,2.153h0a.664.664,0,0,1-.625,0,.619.619,0,0,1-.312-.573V95.664Z" transform="translate(-62.283 -89.71)" fill="rgba(34,33,55,0.9)"/>
    <path id="path16" d="M124.219,100.876a.657.657,0,0,1,.312-.538.642.642,0,0,1,.66.017l3.715,2.135h0a.613.613,0,0,1,.312.538.665.665,0,0,1-.347.573s-3.7,2.135-3.715,2.135h0a.641.641,0,0,1-.937-.59Z" transform="translate(-65.403 -91.502)" fill="rgba(34,33,55,0.9)"/>
    <path id="path18" d="M115.144,106.115a.657.657,0,0,1,.312-.538.642.642,0,0,1,.66.017l3.715,2.135h0a.613.613,0,0,1,.312.538.645.645,0,0,1-.347.573s-3.7,2.135-3.715,2.135h0a.641.641,0,0,1-.937-.59v-4.271Z" transform="translate(-62.283 -93.303)" fill="rgba(34,33,55,0.9)"/>
    <path id="path20" d="M96.921,117.634v-.8H93.952v.8h.885v4.236h1.2v-4.236Zm2.344,1.892-1.389.208c-.035-.816.26-1.215.729-1.215C99.039,118.52,99.265,118.832,99.265,119.527Zm1.076.417c.052-1.337-.538-2.1-1.684-2.1s-1.788.8-1.788,2.031a1.832,1.832,0,0,0,1.927,2.048,3.343,3.343,0,0,0,1.424-.278l-.26-.712a2.418,2.418,0,0,1-1.042.208.853.853,0,0,1-.955-.868Zm1.7-3.819h-1.163v5.729h1.146v-5.729Zm2.951,3.4-1.389.208c-.035-.816.26-1.215.729-1.215C104.768,118.52,104.993,118.832,104.993,119.527Zm1.076.417c.052-1.337-.538-2.1-1.684-2.1s-1.788.8-1.788,2.031a1.832,1.832,0,0,0,1.927,2.048,3.343,3.343,0,0,0,1.424-.278l-.26-.712a2.418,2.418,0,0,1-1.042.208.853.853,0,0,1-.955-.868Zm3,1.7-.243-.694a.682.682,0,0,1-.486.156c-.451,0-.729-.469-.729-1.25,0-.8.243-1.25.746-1.25a.685.685,0,0,1,.469.156l.243-.625a1.539,1.539,0,0,0-.972-.278c-.885,0-1.632.694-1.632,2.031,0,1.319.694,2.048,1.632,2.048a1.527,1.527,0,0,0,.972-.3Zm2.5-1.771c0,.712-.1,1.285-.608,1.285s-.608-.573-.608-1.285c0-.694.1-1.319.608-1.319S111.573,119.162,111.573,119.874Zm1.146.017c0-1.18-.608-2.031-1.771-2.031-1.146,0-1.753.868-1.753,2.031s.608,2.048,1.753,2.048C112.111,121.94,112.719,121.054,112.719,119.891Zm6.146,1.962v-2.76a1.256,1.256,0,0,0-1.424-1.25,1.919,1.919,0,0,0-1.319.4,1.707,1.707,0,0,0-1.267-.4,3.628,3.628,0,0,0-1.615.3v3.715h1.146v-3.229a1.213,1.213,0,0,1,.469-.069c.4,0,.625.208.625.521v2.778h1.146v-3.107a.654.654,0,0,1,.5-.191.5.5,0,0,1,.573.538v2.76Z" transform="translate(-54.996 -96.959)" fill="rgba(34,33,55,0.9)"/>
  </g>
</svg>
