<svg xmlns="http://www.w3.org/2000/svg" xmlns:xlink="http://www.w3.org/1999/xlink" width="155" height="63" viewBox="0 0 155 63">
  <defs>
    <clipPath id="clip-path">
      <rect id="Rectangle_285" data-name="Rectangle 285" width="155" height="63" transform="translate(3095.766 10478.54)" fill="#f4f4f4"/>
    </clipPath>
  </defs>
  <g id="Mask_Group_5" data-name="Mask Group 5" transform="translate(-3095.766 -10478.54)" clip-path="url(#clip-path)">
    <g id="Camada_2" data-name="Camada 2" transform="translate(3095.936 10480.755)">
      <g id="Camada_1" data-name="Camada 1" transform="translate(0 0)">
        <path id="Caminho_289" data-name="Caminho 289" d="M137.582,26.456,126.094,14.981a2.264,2.264,0,0,1,0-3.2h0L137.582.31a1,1,0,0,1,1.41,0,1.074,1.074,0,0,1,.3.7V25.757a1.009,1.009,0,0,1-1.009,1,.957.957,0,0,1-.7-.3ZM142.756,0a13.4,13.4,0,0,1,0,26.741.983.983,0,0,1-1.061-.906V20.389a.983.983,0,0,1,.828-.983,6.093,6.093,0,0,0,0-12.07.97.97,0,0,1-.828-.983V1a1,1,0,0,1,.97-1ZM-.029,51.968A2.769,2.769,0,0,1,2.7,49.16h0a3.118,3.118,0,0,1,1.488.4,15.822,15.822,0,0,0,8.719,2.911c2.95,0,4.67-1.294,4.67-3.234V49.16c0-2.316-3.182-3.118-6.714-4.192-4.437-1.294-9.379-3.053-9.379-8.784v-.116c0-5.666,4.709-9.056,10.686-9.056A20.531,20.531,0,0,1,21.6,29.444a2.937,2.937,0,0,1,1.656,2.587A2.781,2.781,0,0,1,20.5,34.813h-.09a2.665,2.665,0,0,1-1.371-.336,16.223,16.223,0,0,0-7.076-2.135c-2.665,0-4.23,1.294-4.23,2.963v.116c0,2.212,3.247,3.118,6.766,4.243,4.386,1.371,9.328,3.351,9.328,8.732v.116c0,6.3-4.89,9.405-11.139,9.405A20.609,20.609,0,0,1,1.265,54.335a2.587,2.587,0,0,1-1.294-2.38Zm42.692-9.535A15.68,15.68,0,0,1,58.369,26.779h.336A15.524,15.524,0,0,1,74.669,41.851v.569a15.68,15.68,0,0,1-15.731,15.6h-.349A15.524,15.524,0,0,1,42.663,42.964Zm25.124,0a9.25,9.25,0,0,0-8.875-9.625h-.336c-5.524,0-9.056,4.308-9.056,9.522v.116a9.237,9.237,0,0,0,8.888,9.573h.259c5.589,0,9.056-4.308,9.056-9.47Zm16.482,11.76a3.441,3.441,0,0,1-6.882,0h0V40.286a13.48,13.48,0,0,1,26.948,0v13.92a3.441,3.441,0,0,1-6.87,0V39.6a6.572,6.572,0,0,0-6.585-6.572,7.543,7.543,0,0,0-.763,0,6.7,6.7,0,0,0-5.847,6.7ZM39.662,33.636H34.384V47.31a4.334,4.334,0,0,0,4.3,4.334h.931a3.2,3.2,0,1,1,.116,6.378H38.265a2.873,2.873,0,0,1-.479,0,10.751,10.751,0,0,1-10.259-10.35h0V22.329a3.441,3.441,0,0,1,6.87,0V27.4h5.291a3.131,3.131,0,0,1,0,6.249Zm78.915,8.228a2.95,2.95,0,0,1,2.937-2.95h7.439c-.983-3.571-3.493-6.132-7.076-6.132-5.421,0-8.383,4.308-8.383,9.535v.1c0,5.175,3.739,9.573,9.056,9.573a8.629,8.629,0,0,0,5.86-2.135,3.107,3.107,0,1,1,4.01,4.748h0a15.874,15.874,0,0,1-9.987,3.4,15.369,15.369,0,0,1-15.654-15.084v-.492c0-8.564,6.21-15.654,15.266-15.654,7.969,0,13.7,6.533,13.7,15.1a2.95,2.95,0,0,1-2.95,2.95H121.579a2.95,2.95,0,0,1-2.95-2.95Z" transform="translate(0.032 0)" fill="#0db14b" fill-rule="evenodd"/>
      </g>
    </g>
  </g>
</svg>
