<svg xmlns="http://www.w3.org/2000/svg" width="131.148" height="56.771" viewBox="0 0 131.148 56.771">
  <g id="Group_1082" data-name="Group 1082" transform="translate(-104.308 -351.433)">
    <g id="Group_1081" data-name="Group 1081" transform="translate(104.308 351.433)">
      <path id="Path_113" data-name="Path 113" d="M145.241,385.471a7.472,7.472,0,0,0-3.438-3.365l-.052-.029c-.88-.476-1.88-1.016-1.877-2.258s1-1.763,1.877-2.222l.054-.029a7.268,7.268,0,0,0,3.437-3.345c1.779-5.97-1.471-12.686-5.484-16.7a20.9,20.9,0,0,0-14.68-6.09A20.985,20.985,0,0,0,104.308,372.2v15.233A20.985,20.985,0,0,0,125.076,408.2h0a20.9,20.9,0,0,0,14.68-6.089C143.774,398.1,147.025,391.4,145.241,385.471Zm-6.914,15.212a18.6,18.6,0,0,1-26.523-.118,18.389,18.389,0,0,1-5.471-13.132V372.2a18.39,18.39,0,0,1,5.473-13.131,18.888,18.888,0,0,1,13.272-5.613h0a18.868,18.868,0,0,1,13.249,5.5c3.625,3.625,6.54,9.641,4.882,14.909l-.013.026a10.579,10.579,0,0,1-3.525,3.738c-.83.607-1.515,1.191-1.517,2.191,0,1.147.9,1.787,1.782,2.406l.082.057a9.76,9.76,0,0,1,3.178,3.507l.011.028C144.871,391.05,141.955,397.054,138.326,400.683Z" transform="translate(-104.308 -351.433)" fill="#222137"/>
      <path id="Path_114" data-name="Path 114" d="M138.477,384.5a13.391,13.391,0,0,0-2.735-3.54,4.411,4.411,0,0,1-1.735-3.065,3.917,3.917,0,0,1,1.424-2.738l.121-.123a14.677,14.677,0,0,0,2.924-3.715c1.3-4.289-1.137-9.23-4.134-12.227a15.939,15.939,0,0,0-11.187-4.645h0a15.941,15.941,0,0,0-11.192,4.769,15.5,15.5,0,0,0-4.633,11.061v15.233a15.977,15.977,0,0,0,15.83,15.83h.1a15.811,15.811,0,0,0,11.091-4.643C137.342,393.7,139.782,388.769,138.477,384.5Zm-5.564,10.767a14,14,0,0,1-9.755,4.05l-.082,0a13.52,13.52,0,0,1-9.546-4,14,14,0,0,1-4.18-9.8V370.281a14.017,14.017,0,0,1,4.193-9.827,13.47,13.47,0,0,1,9.5-3.978h.11a13.975,13.975,0,0,1,9.755,4.05c3.787,3.789,4.314,7.988,3.613,10.431l-.008.023a13.921,13.921,0,0,1-1.684,2.5c-1.083,1.388-2.2,2.823-2.2,4.42s1.126,3.047,2.216,4.45a14.109,14.109,0,0,1,1.673,2.484l.008.023C137.227,387.29,136.7,391.479,132.913,395.269Z" transform="translate(-102.387 -349.512)" fill="#222137"/>
      <path id="Path_115" data-name="Path 115" d="M131.745,383.534a19.616,19.616,0,0,0-1.376-2.394c-1.038-1.628-2.109-3.314-2.109-5.163s1.074-3.533,2.111-5.163a19.5,19.5,0,0,0,1.378-2.4c.663-1.708.067-4.869-2.815-7.751a10.968,10.968,0,0,0-7.7-3.195,11.009,11.009,0,0,0-10.891,10.891v15.233a11.009,11.009,0,0,0,10.889,10.891h0a10.957,10.957,0,0,0,7.7-3.194C130.953,389.27,132.7,385.981,131.745,383.534Zm-4.242,6.327a9.021,9.021,0,0,1-6.22,2.6h-.047a9.057,9.057,0,0,1-6.342-2.74,8.572,8.572,0,0,1-2.525-6.129V368.36a8.6,8.6,0,0,1,2.551-6.173,8.957,8.957,0,0,1,6.314-2.694h0a8.827,8.827,0,0,1,6.268,2.6c2.45,2.435,2.708,4.928,2.186,6.32a22.718,22.718,0,0,1-1.245,2.417c-.943,1.668-1.916,3.393-1.916,5.145s.97,3.476,1.91,5.135a22.412,22.412,0,0,1,1.25,2.424C130.211,384.933,129.953,387.424,127.5,389.861Z" transform="translate(-100.466 -347.591)" fill="#222137"/>
      <path id="Path_116" data-name="Path 116" d="M125.007,381.707c-.227-.807-.542-1.641-.846-2.448a11.162,11.162,0,0,1,0-10.41c.3-.807.619-1.641.846-2.45a3.968,3.968,0,0,0-.823-3.458,6.609,6.609,0,0,0-4.87-2.453,6.01,6.01,0,0,0-5.95,5.95v15.233a6.01,6.01,0,0,0,5.949,5.952h0a6.608,6.608,0,0,0,4.867-2.453A3.971,3.971,0,0,0,125.007,381.707Zm-2.592,2.381a4.357,4.357,0,0,1-3.1,1.51h-.085a3.718,3.718,0,0,1-2.579-1.07,4.1,4.1,0,0,1-1.268-2.856V366.438a4.1,4.1,0,0,1,1.275-2.87,3.679,3.679,0,0,1,2.656-1.057,4.274,4.274,0,0,1,3.091,1.5,3.02,3.02,0,0,1,.736,2.453c-.118.856-.278,1.72-.434,2.556a20.771,20.771,0,0,0,0,10.076c.155.836.316,1.7.434,2.556A3.01,3.01,0,0,1,122.415,384.088Z" transform="translate(-98.544 -345.669)" fill="#222137"/>
      <path id="Path_117" data-name="Path 117" d="M118.253,379.752c-.092-5.126-.092-10.11,0-15.236a1.018,1.018,0,0,0-.291-.735.917.917,0,0,0-.651-.275.974.974,0,0,0-.93,1.011V379.75a.974.974,0,0,0,.93,1.011.911.911,0,0,0,.651-.275A1.017,1.017,0,0,0,118.253,379.752Z" transform="translate(-96.623 -343.748)" fill="#222137"/>
    </g>
    <path id="Path_118" data-name="Path 118" d="M142.54,383.789a8.514,8.514,0,0,1-4.163-.995,7,7,0,0,1-2.82-2.851,9.039,9.039,0,0,1-1.011-4.389V362.175h3.469v8.189h.031a4.96,4.96,0,0,1,1.267-1.417,6.077,6.077,0,0,1,1.749-.934,6.273,6.273,0,0,1,2.052-.332,7.516,7.516,0,0,1,3.875.98,6.931,6.931,0,0,1,2.625,2.73,8.468,8.468,0,0,1,.951,4.1,9.719,9.719,0,0,1-.558,3.363,7.708,7.708,0,0,1-1.6,2.64,6.86,6.86,0,0,1-2.52,1.705A8.98,8.98,0,0,1,142.54,383.789Zm0-2.956a4.3,4.3,0,0,0,2.353-.65,4.387,4.387,0,0,0,1.6-1.794,5.854,5.854,0,0,0,.573-2.656,5.781,5.781,0,0,0-.573-2.623,4.537,4.537,0,0,0-1.584-1.81,4.151,4.151,0,0,0-2.337-.664,4.311,4.311,0,0,0-2.353.648,4.4,4.4,0,0,0-1.6,1.8,6.441,6.441,0,0,0,0,5.311,4.388,4.388,0,0,0,1.6,1.794A4.245,4.245,0,0,0,142.54,380.833Z" transform="translate(19.247 6.838)" fill="#222137"/>
    <path id="Path_119" data-name="Path 119" d="M153.985,381.647a8.19,8.19,0,0,1-4.194-1.07,8.076,8.076,0,0,1,0-13.968,8.809,8.809,0,0,1,8.417,0,8.074,8.074,0,0,1,0,13.968A8.242,8.242,0,0,1,153.985,381.647Zm0-2.956a4.406,4.406,0,0,0,4.132-2.519,6.1,6.1,0,0,0,0-5.16,4.406,4.406,0,0,0-4.132-2.519,4.409,4.409,0,0,0-2.46.679A4.675,4.675,0,0,0,149.9,371a5.976,5.976,0,0,0,0,5.175,4.661,4.661,0,0,0,1.628,1.839A4.408,4.408,0,0,0,153.985,378.692Z" transform="translate(26.416 8.979)" fill="#222137"/>
    <path id="Path_120" data-name="Path 120" d="M163.256,381.647a6.3,6.3,0,0,1-2.744-.587,4.478,4.478,0,0,1-1.961-1.81,6.057,6.057,0,0,1-.723-3.122V365.9H161.3v10.77a2.083,2.083,0,0,0,.273,1.07,1.827,1.827,0,0,0,.707.709,2.075,2.075,0,0,0,1.946,0,1.8,1.8,0,0,0,.725-.709,2.1,2.1,0,0,0,.272-1.07V371a6.1,6.1,0,0,1,.679-3,4.394,4.394,0,0,1,1.9-1.84,6.64,6.64,0,0,1,5.6,0,4.521,4.521,0,0,1,1.9,1.84,6.009,6.009,0,0,1,.694,3v5.672a2.082,2.082,0,0,0,.272,1.07,1.793,1.793,0,0,0,.723.709,2.072,2.072,0,0,0,1,.242,1.925,1.925,0,0,0,.951-.242,1.857,1.857,0,0,0,.71-.709,2.1,2.1,0,0,0,.27-1.07V365.9h3.469v10.227a6.056,6.056,0,0,1-.723,3.122,4.486,4.486,0,0,1-1.961,1.81,6.571,6.571,0,0,1-5.432,0,4.669,4.669,0,0,1-1.992-1.81,5.882,5.882,0,0,1-.753-3.122v-5.612a2.147,2.147,0,0,0-.257-1.1,1.792,1.792,0,0,0-.694-.678,1.983,1.983,0,0,0-.98-.242,1.95,1.95,0,0,0-.934.242,1.874,1.874,0,0,0-.725.678,2.069,2.069,0,0,0-.27,1.1v5.612a5.959,5.959,0,0,1-.74,3.122,4.594,4.594,0,0,1-1.961,1.81A6.139,6.139,0,0,1,163.256,381.647Z" transform="translate(34.067 8.979)" fill="#222137"/>
    <path id="Path_121" data-name="Path 121" d="M184.107,381.286a9.952,9.952,0,0,1-4.54-.98,7.241,7.241,0,0,1-4.118-6.713,8.783,8.783,0,0,1,.966-4.193,7.21,7.21,0,0,1,2.654-2.835,7.347,7.347,0,0,1,3.892-1.026,7.246,7.246,0,0,1,4.072,1.056,6.332,6.332,0,0,1,2.37,2.836,9.948,9.948,0,0,1,.769,3.982c0,.2-.01.432-.031.694a3.27,3.27,0,0,1-.09.6H179.131a3.852,3.852,0,0,0,.876,2,4.331,4.331,0,0,0,1.749,1.208,6.483,6.483,0,0,0,2.352.408h4.134v2.956Zm-5.008-8.929h7.6a6.449,6.449,0,0,0-.167-1.147,4.263,4.263,0,0,0-.421-1.087,3.321,3.321,0,0,0-.725-.889,3.4,3.4,0,0,0-1.041-.6,3.943,3.943,0,0,0-1.388-.226,3.515,3.515,0,0,0-1.6.347,3.738,3.738,0,0,0-1.177.9,4.007,4.007,0,0,0-.738,1.267A6.687,6.687,0,0,0,179.1,372.357Z" transform="translate(45.284 8.979)" fill="#222137"/>
  </g>
</svg>
