<svg id="logo_ultragaz" data-name="logo ultragaz" xmlns="http://www.w3.org/2000/svg" width="227.717" height="47.681" viewBox="0 0 227.717 47.681">
  <path id="Path_2406" data-name="Path 2406" d="M27.855-208.567a2.288,2.288,0,0,0-1.615,1.544c-.047.234-.094,1.568-.117,3l-.023,2.574-1.1.515c-3.229,1.521-8.377,7.347-8.19,9.313.07.679.913,1.357,4.072,3.3.374.211.3.4-.655,1.872-.936,1.451-9.57,15.022-12.916,20.311-1.24,1.989-1.31,2.2-1.31,3.58v1.474h8.213l-.07-.632c-.047-.491-.257-.679-1.053-.959-.562-.164-1.006-.421-1.006-.538,0-.211,1.264-2.106,7.675-11.513a29.819,29.819,0,0,1,2.855-3.861c.094.047,3.533,3.931,7.675,8.634,4.118,4.727,7.628,8.658,7.769,8.751a37.008,37.008,0,0,0,5.569-4.563c.023-.07-.14-.328-.4-.562-.4-.374-.515-.374-1.31-.047a5.832,5.832,0,0,1-1.053.374c-.094,0-3.58-3.861-7.7-8.564-7.7-8.751-7.7-8.751-6.95-9.758.3-.4.374-.374,1.451.3a3.305,3.305,0,0,0,1.427.608c.164-.07,3.463,3.487,7.839,8.471,4.165,4.727,7.7,8.775,7.839,8.962.234.281.234.562.047,1.123a2.922,2.922,0,0,0,2.621,3.767,2.737,2.737,0,0,0,3.019-2.9,2.4,2.4,0,0,0-.585-1.732l-.585-.679,3.042-2.668c2.387-2.083,2.972-2.714,2.761-2.948-.187-.234-.187-.468,0-.842a2.641,2.641,0,0,0,.3-1.591,82.7,82.7,0,0,0-6.6-7.769,2.57,2.57,0,0,0-2.831-.374c-.4.211-.608.117-1.451-.7l-.983-.959-2.855,2.48-2.831,2.5.913,1.076c.842.983.889,1.1.538,1.474a3.26,3.26,0,0,0-.515,1.147c-.164.772-.164.772-4.282-3.931-3.206-3.674-4.095-4.82-4-5.195.117-.491-.632-1.4-1.8-2.153l-.562-.374,1.1-2.363c2.48-5.241,2.668-8.822.608-10.881a3.411,3.411,0,0,1-.913-1.357c0-.374.187-.445,1.17-.445,1.334,0,1.5-.187,1.755-2.036l.164-1.217,1.076-.07c.913-.07,1.1-.14,1.1-.538s-.187-.468-1.053-.538c-.959-.07-1.1-.14-1.334-.772C31.365-208.591,29.633-209.082,27.855-208.567Z" transform="translate(-6 208.771)" fill="#005ca5"/>
  <path id="Path_2407" data-name="Path 2407" d="M247.235-147.744c-.14.14-1.287,3.182-2.551,6.716-2.668,7.464-2.808,8.377-1.591,10.085a6.015,6.015,0,0,0,1.732,1.544c1.053.538,1.076.538,8.775.491l7.722-.07,2.083-5.85c2.48-6.973,4.61-13.033,4.61-13.127a53.155,53.155,0,0,0-6.926.094,36.123,36.123,0,0,0-1.825,4.61c-.866,2.434-1.966,5.522-2.434,6.833l-.866,2.41h-6.645l1.03-2.878c.562-1.568,1.638-4.633,2.434-6.809s1.427-4.048,1.427-4.165C254.208-148.189,247.516-148.1,247.235-147.744Z" transform="translate(-187.052 162.269)" fill="#005ca5"/>
  <path id="Path_2408" data-name="Path 2408" d="M340.856-147.773c-.117.164-1.357,3.51-2.761,7.441-1.381,3.931-2.878,8.12-3.3,9.29l-.8,2.176h16.309l.866-2.41c.468-1.31.842-2.457.842-2.574a29.778,29.778,0,0,0-4.446-.164,18.922,18.922,0,0,1-4.446-.234c0-.117,1.053-3.159,2.34-6.786s2.34-6.669,2.34-6.786C347.806-148.194,341.137-148.124,340.856-147.773Z" transform="translate(-257.25 162.274)" fill="#005ca5"/>
  <path id="Path_2409" data-name="Path 2409" d="M403.708-147.719A31.861,31.861,0,0,0,402-143.063a12.2,12.2,0,0,0,3.276.211c2.059,0,3.276.094,3.276.234s-1.053,3.206-2.34,6.809c-1.287,3.627-2.34,6.692-2.34,6.786a14.617,14.617,0,0,0,3.487.211h3.487l.351-1.006c.421-1.17,4.095-11.466,4.422-12.378l.234-.632,2.925-.07,2.948-.07.889-2.527.913-2.5h-9.8C406.165-148,403.872-147.93,403.708-147.719Z" transform="translate(-309.338 162.22)" fill="#005ca5"/>
  <path id="Path_2410" data-name="Path 2410" d="M477.458-147.4c-.351.889-.819,2.153-4.095,11.372-1.31,3.65-2.363,6.739-2.363,6.856a14.458,14.458,0,0,0,3.487.211h3.463l.913-2.527.913-2.5,1.778-.07,1.8-.07,1.264,2.527,1.287,2.527,3.533.07c1.966.023,3.557,0,3.557-.047,0-.07-.749-1.357-1.638-2.855a29.529,29.529,0,0,1-1.591-2.761,10.65,10.65,0,0,1,1.147-.445,8,8,0,0,0,5.265-5.475,5.586,5.586,0,0,0-3.674-7.02c-.866-.328-2.153-.4-7.886-.491l-6.833-.094Zm11.349,4.82a1.7,1.7,0,0,1-.07,2.527c-.749.772-1.9,1.006-4.68,1.03-1.849,0-2.293-.07-2.293-.328a12.364,12.364,0,0,1,.608-1.989l.608-1.661h2.644C487.848-143.005,488.339-142.935,488.807-142.584Z" transform="translate(-362.193 162.373)" fill="#005ca5"/>
  <path id="Path_2411" data-name="Path 2411" d="M573.488-138.71c-3.65,5.124-6.739,9.453-6.856,9.594-.164.234.608.3,3.721.3h3.954l1.123-1.755,1.123-1.755h7.184l.164.983c.07.562.211,1.357.281,1.755l.117.772h3.6a15.56,15.56,0,0,0,3.6-.211c0-.117-.211-1.24-.491-2.5-.257-1.287-1.1-5.405-1.872-9.2s-1.451-6.973-1.521-7.09a21.865,21.865,0,0,0-3.814-.187h-3.7Zm9.336.257a11.56,11.56,0,0,1,.211,1.989,17.2,17.2,0,0,1-1.872-.07l-1.8-.117,1.427-2.176c.936-1.427,1.5-2.083,1.591-1.872A12.673,12.673,0,0,1,582.825-138.453Z" transform="translate(-435.432 162.22)" fill="#005ca5"/>
  <path id="Path_2412" data-name="Path 2412" d="M687.075-147.589c-6.294.538-10.951,3.019-12.846,6.856-2.434,4.937-1.03,9.617,3.463,11.419,1.263.515,1.591.538,8.073.538H692.5l1.591-4.446c.866-2.457,1.661-4.68,1.755-4.984l.164-.538-3.58.07-3.557.07-.819,2.387-.842,2.41h-4.867l-.772-.772c-1.849-1.849-1.03-5.288,1.615-6.833,1.685-.959,2.644-1.123,8.307-1.264l5.452-.14.8-2.2a18.649,18.649,0,0,0,.8-2.48c0-.257-.983-.3-4.61-.3C691.381-147.8,688.292-147.706,687.075-147.589Z" transform="translate(-516.961 162.067)" fill="#005ca5"/>
  <path id="Path_2413" data-name="Path 2413" d="M773.444-147.251c-.983,1.334-12.706,17.83-12.893,18.135-.14.234.679.3,3.72.3h3.884l1.1-1.755,1.1-1.755h7.324l.14,1.334a16.145,16.145,0,0,0,.281,1.755c.117.4.983.421,14.016.421h13.876l.842-2.293a22.751,22.751,0,0,0,.842-2.574c0-.187-1.474-.281-5.195-.328l-5.171-.07,4.189-2.855c2.293-1.568,5.171-3.533,6.388-4.376l2.223-1.521.866-2.48a8.766,8.766,0,0,0,.7-2.574c-.117-.047-4.446-.094-9.641-.047l-9.453.047-.866,2.34c-.468,1.287-.866,2.41-.866,2.5a28.674,28.674,0,0,0,4.563.234l4.563.07-2.363,1.638c-1.287.889-4.165,2.9-6.365,4.446l-4,2.831-.889,2.434c-.8,2.27-.889,2.41-1.053,1.755-.094-.4-.983-4.656-1.942-9.477l-1.778-8.775-3.791-.07L774.006-148Zm3.393,9.851.07.913-1.825.023c-2.129.047-2.106.211-.211-2.691l1.334-2.036.281,1.451C776.627-138.944,776.79-137.891,776.837-137.4Z" transform="translate(-583.979 162.22)" fill="#005ca5"/>
</svg>
