<svg xmlns="http://www.w3.org/2000/svg" width="49.099" height="49.099" viewBox="0 0 49.099 49.099">
  <g id="Group_1470" data-name="Group 1470" transform="translate(-601.451 -981.45)">
    <path id="Path_2404" data-name="Path 2404" d="M-1.218,3.335,5.213-2.71l.773,4.986L.146,7.486Z" transform="translate(636 987)" fill="#f26729"/>
    <path id="Path_2405" data-name="Path 2405" d="M-1.218,1.441,5.213,7.486,5.987,2.5.146-2.71Z" transform="matrix(-0.017, 1, -1, -0.017, 644.416, 991.046)" fill="#45aea1"/>
    <g id="Group_1469" data-name="Group 1469" transform="translate(253.164 924.504)">
      <g id="Group_1462" data-name="Group 1462">
        <g id="Group_1458" data-name="Group 1458">
          <path id="Path_2398" data-name="Path 2398" d="M372.345,106.045a24.057,24.057,0,1,1,9.176-46.295l-.957,2.31a21.365,21.365,0,0,0-8.219-1.629A21.557,21.557,0,1,0,393.9,81.988a21.366,21.366,0,0,0-1.7-8.382l2.3-.974a24.059,24.059,0,0,1-22.163,33.413Z" fill="#212b32"/>
        </g>
        <g id="Group_1459" data-name="Group 1459">
          <path id="Path_2399" data-name="Path 2399" d="M372.345,99.837a17.849,17.849,0,1,1,6.123-34.616l-.86,2.348a15.345,15.345,0,1,0,9.168,9.19l2.35-.854a17.853,17.853,0,0,1-16.781,23.932Z" fill="#212b32"/>
        </g>
        <g id="Group_1460" data-name="Group 1460">
          <path id="Path_2400" data-name="Path 2400" d="M372.345,93.629a11.641,11.641,0,1,1,4.689-22.3l-1.01,2.288a9.041,9.041,0,0,0-3.679-.774,9.141,9.141,0,1,0,9.14,9.141,9.032,9.032,0,0,0-.773-3.678L383,77.3a11.64,11.64,0,0,1-10.654,16.329Z" fill="#212b32"/>
        </g>
        <g id="Group_1461" data-name="Group 1461">
          <path id="Path_2401" data-name="Path 2401" d="M372.345,87.42a5.432,5.432,0,1,1,0-10.865v2.5a2.932,2.932,0,1,0,2.932,2.933h2.5A5.438,5.438,0,0,1,372.345,87.42Z" fill="#212b32"/>
        </g>
      </g>
      <g id="Group_1463" data-name="Group 1463">
        <rect id="Rectangle_251" data-name="Rectangle 251" width="5.411" height="2.5" transform="matrix(0.589, -0.808, 0.808, 0.589, 354.734, 104.059)" fill="#212b32"/>
      </g>
      <g id="Group_1464" data-name="Group 1464">
        <rect id="Rectangle_252" data-name="Rectangle 252" width="2.5" height="5.41" transform="matrix(0.809, -0.588, 0.588, 0.809, 384.75, 101.156)" fill="#212b32"/>
      </g>
      <g id="Group_1468" data-name="Group 1468">
        <g id="Group_1465" data-name="Group 1465">
          <rect id="Rectangle_253" data-name="Rectangle 253" width="23.379" height="2.5" transform="translate(371.461 81.104) rotate(-45)" fill="#212b32"/>
        </g>
        <g id="Group_1466" data-name="Group 1466">
          <path id="Path_2402" data-name="Path 2402" d="M381.612,74.488l-1.161-8.96,8.582-8.582,1.161,8.96Zm1.476-8.061.35,2.7,4.12-4.12-.351-2.7Z" fill="#212b32"/>
        </g>
        <g id="Group_1467" data-name="Group 1467">
          <path id="Path_2403" data-name="Path 2403" d="M388.8,73.881l-8.959-1.161,8.582-8.582,8.959,1.161Zm-3.6-2.987,2.7.35,4.119-4.119-2.7-.35Z" fill="#212b32"/>
        </g>
      </g>
    </g>
  </g>
</svg>
