<svg xmlns="http://www.w3.org/2000/svg" width="53.167" height="52.142" viewBox="0 0 53.167 52.142">
  <g id="Group_1427" data-name="Group 1427" transform="translate(-253.964 -53.903)">
    <g id="Group_1421" data-name="Group 1421">
      <path id="Path_2372" data-name="Path 2372" d="M282.245,86.729H260.509V63.49h21.736Zm-19.236-2.5h16.736V65.99H263.009Z" fill="#212b32"/>
    </g>
    <g id="Group_1422" data-name="Group 1422">
      <path id="Path_2373" data-name="Path 2373" d="M294.734,96.316,279.745,86.141V64.078L294.734,53.9Zm-12.489-11.5,9.989,6.78V58.622l-9.989,6.78Z" fill="#212b32"/>
    </g>
    <g id="Group_1423" data-name="Group 1423">
      <path id="Path_2374" data-name="Path 2374" d="M263.009,82.406h-9.045V67.813h9.045Zm-6.545-2.5h4.045V70.313h-4.045Z" fill="#212b32"/>
    </g>
    <g id="Group_1424" data-name="Group 1424">
      <path id="Path_2378" data-name="Path 2378" d="M-.011-1.991,10.141,16.288H-.071Z" transform="translate(272.964 102.975) rotate(180)" fill="#f26729"/>
      <path id="Path_2375" data-name="Path 2375" d="M275.175,106.045h-4.382l-10.149-20,2.229-1.131,9.455,18.631h.347V85.479h2.5Z" fill="#212b32"/>
    </g>
    <g id="Group_1425" data-name="Group 1425">
      <path id="Path_2376" data-name="Path 2376" d="M298.81,82.342l-1.768-1.767a7.738,7.738,0,0,0,0-10.93l1.768-1.768A10.242,10.242,0,0,1,298.81,82.342Z" fill="#212b32"/>
    </g>
    <g id="Group_1426" data-name="Group 1426">
      <path id="Path_2377" data-name="Path 2377" d="M302.581,86.113l-1.768-1.767a13.077,13.077,0,0,0,0-18.473l1.768-1.768A15.581,15.581,0,0,1,302.581,86.113Z" fill="#212b32"/>
    </g>
  </g>
</svg>
