<svg xmlns="http://www.w3.org/2000/svg" width="44.175" height="48.56" viewBox="0 0 44.175 48.56">
  <g id="Group_1420" data-name="Group 1420" transform="translate(-145 -981.72)">
    <rect id="Rectangle_240" data-name="Rectangle 240" width="8" height="10" transform="translate(180 983)" fill="#f26729"/>
    <rect id="Rectangle_241" data-name="Rectangle 241" width="8" height="10" transform="translate(180 1019)" fill="#45aea1"/>
    <g id="Group_1419" data-name="Group 1419" transform="translate(-1.936 830.05)">
      <g id="Group_1417" data-name="Group 1417">
        <g id="Group_1413" data-name="Group 1413">
          <g id="Group_1412" data-name="Group 1412">
            <path id="Path_2370" data-name="Path 2370" d="M191.111,200.23H171.216a24.28,24.28,0,0,1,0-48.56h19.895v12.9H171.216a11.385,11.385,0,1,0,0,22.77h19.895Zm-19.895-46.26a21.98,21.98,0,1,0,0,43.96h17.6v-8.295h-17.6a13.685,13.685,0,0,1,0-27.37h17.6V153.97Z" fill="#212b32"/>
          </g>
        </g>
        <g id="Group_1414" data-name="Group 1414">
          <rect id="Rectangle_237" data-name="Rectangle 237" width="2.3" height="10.594" transform="translate(181.079 152.82)" fill="#212b32"/>
        </g>
        <g id="Group_1415" data-name="Group 1415">
          <rect id="Rectangle_238" data-name="Rectangle 238" width="2.3" height="10.594" transform="translate(181.079 188.486)" fill="#212b32"/>
        </g>
        <g id="Group_1416" data-name="Group 1416">
          <rect id="Rectangle_239" data-name="Rectangle 239" width="10.594" height="2.3" transform="translate(148.086 174.8)" fill="#212b32"/>
        </g>
      </g>
    </g>
  </g>
</svg>
