<svg xmlns="http://www.w3.org/2000/svg" width="61.359" height="61.145" viewBox="0 0 61.359 61.145">
  <g id="Group_1478" data-name="Group 1478" transform="translate(-149.097 -3267)">
    <path id="Path_2434" data-name="Path 2434" d="M6.438-1.213,8.705,4.774,1.614,11.343l-1.86-6.1Z" transform="translate(193 3270)" fill="#f26729"/>
    <path id="Path_2435" data-name="Path 2435" d="M5.751-.224l6.1,1.453L4.415,8.321-.817,6.286Z" transform="translate(197 3276.277)" fill="#45aea1"/>
    <g id="Group_1372" data-name="Group 1372" transform="translate(149.097 3267)">
      <g id="Group_1369" data-name="Group 1369" transform="translate(0 0)">
        <path id="Path_2352" data-name="Path 2352" d="M77.932-52.8A25.84,25.84,0,0,1,59.6-60.382a25.953,25.953,0,0,1,0-36.657,25.775,25.775,0,0,1,33.588-2.628,1.222,1.222,0,0,1,.268,1.708,1.224,1.224,0,0,1-1.708.268,23.343,23.343,0,0,0-30.42,2.38,23.5,23.5,0,0,0,0,33.2,23.5,23.5,0,0,0,33.2,0,23.343,23.343,0,0,0,2.382-30.42,1.222,1.222,0,0,1,.267-1.708,1.224,1.224,0,0,1,1.708.267,25.777,25.777,0,0,1-2.626,33.589A25.846,25.846,0,0,1,77.932-52.8Z" transform="translate(-52.025 113.948)" fill="#212b32"/>
        <path id="Path_2353" data-name="Path 2353" d="M75.145-62.394A19.01,19.01,0,0,1,61.614-68a19.157,19.157,0,0,1,0-27.06,19.238,19.238,0,0,1,23.851-2.586,1.22,1.22,0,0,1,.368,1.688,1.222,1.222,0,0,1-1.689.368,16.779,16.779,0,0,0-20.8,2.258,16.709,16.709,0,0,0,0,23.6,16.583,16.583,0,0,0,11.8,4.889,16.576,16.576,0,0,0,11.8-4.889A16.779,16.779,0,0,0,89.2-90.53a1.222,1.222,0,0,1,.37-1.688,1.222,1.222,0,0,1,1.688.368A19.236,19.236,0,0,1,88.676-68,19.01,19.01,0,0,1,75.145-62.394Z" transform="translate(-49.238 116.767)" fill="#212b32"/>
        <path id="Path_2354" data-name="Path 2354" d="M72.358-71.967a12.315,12.315,0,0,1-8.733-3.611,12.364,12.364,0,0,1,0-17.464,12.394,12.394,0,0,1,13.92-2.477,1.221,1.221,0,0,1,.6,1.621,1.223,1.223,0,0,1-1.623.6,9.941,9.941,0,0,0-11.163,1.988,9.916,9.916,0,0,0,0,14.008,9.914,9.914,0,0,0,14.006,0,9.944,9.944,0,0,0,1.99-11.164,1.222,1.222,0,0,1,.6-1.623,1.221,1.221,0,0,1,1.621.6,12.393,12.393,0,0,1-2.477,13.918A12.318,12.318,0,0,1,72.358-71.967Z" transform="translate(-46.451 119.548)" fill="#212b32"/>
        <path id="Path_2355" data-name="Path 2355" d="M69.571-81.613a5.549,5.549,0,0,1-3.934-1.626,5.571,5.571,0,0,1,0-7.871,5.616,5.616,0,0,1,2.3-1.385,1.226,1.226,0,0,1,1.528.81,1.225,1.225,0,0,1-.81,1.528,3.109,3.109,0,0,0-1.287.776,3.122,3.122,0,0,0,0,4.412,3.119,3.119,0,0,0,4.411,0,3.074,3.074,0,0,0,.776-1.287,1.221,1.221,0,0,1,1.528-.81,1.222,1.222,0,0,1,.81,1.528,5.6,5.6,0,0,1-1.384,2.3A5.55,5.55,0,0,1,69.571-81.613Z" transform="translate(-43.664 122.413)" fill="#212b32"/>
        <path id="Path_2356" data-name="Path 2356" d="M67.978-75.109a1.222,1.222,0,0,1-.864-.358,1.224,1.224,0,0,1,0-1.73L97.967-108.05a1.225,1.225,0,0,1,1.73,0,1.224,1.224,0,0,1,0,1.73L68.842-75.467A1.222,1.222,0,0,1,67.978-75.109Z" transform="translate(-41.747 111.347)" fill="#212b32"/>
        <path id="Path_2357" data-name="Path 2357" d="M86.228-94.113a1.241,1.241,0,0,1-.367-.056l-6.241-1.963a1.223,1.223,0,0,1-.8-1.533,1.226,1.226,0,0,1,1.533-.8l5.535,1.74,5.329-5.327L86.9-103.41a1.222,1.222,0,0,1-.8-1.531,1.223,1.223,0,0,1,1.533-.8l6.243,1.963a1.224,1.224,0,0,1,.82.876,1.221,1.221,0,0,1-.323,1.154l-7.278,7.278A1.223,1.223,0,0,1,86.228-94.113Z" transform="translate(-33.369 113.167)" fill="#212b32"/>
        <path id="Path_2358" data-name="Path 2358" d="M80.129-94.174a1.225,1.225,0,0,1-1.166-.856L77-101.272a1.223,1.223,0,0,1,.3-1.231l7.278-7.278a1.224,1.224,0,0,1,1.156-.323,1.223,1.223,0,0,1,.874.822l1.963,6.243a1.222,1.222,0,0,1-.8,1.531,1.225,1.225,0,0,1-1.533-.8l-1.356-4.317L79.555-101.3l1.74,5.535a1.222,1.222,0,0,1-.8,1.533A1.249,1.249,0,0,1,80.129-94.174Z" transform="translate(-34.638 110.139)" fill="#212b32"/>
      </g>
    </g>
  </g>
</svg>
