<svg xmlns="http://www.w3.org/2000/svg" width="46.847" height="52.394" viewBox="0 0 46.847 52.394">
  <g id="Group_1471" data-name="Group 1471" transform="translate(-822 -979.803)">
    <rect id="Rectangle_246" data-name="Rectangle 246" width="12" height="31" transform="translate(823 1000)" fill="#45aea1"/>
    <g id="Group_1434" data-name="Group 1434" transform="translate(667.768 635.707)">
      <g id="Group_1428" data-name="Group 1428">
        <path id="Path_2379" data-name="Path 2379" d="M168.575,396.49H154.232V363.16h14.343Zm-12.043-2.3h9.743V365.461h-9.743Z" fill="#212b32"/>
      </g>
      <g id="Group_1429" data-name="Group 1429">
        <path id="Path_2380" data-name="Path 2380" d="M194.366,396.49H173.924l-6.9-2.545.8-2.158,6.512,2.4h20.031a3.288,3.288,0,0,0,3.286-3.124l1.123-22.149a3.289,3.289,0,0,0-3.286-3.456H178.613l.816-1.658c2.943-5.974,3.615-7.976,3.464-13.933a3.6,3.6,0,0,0-3.579-3.473.219.219,0,0,0-.227.183,21.8,21.8,0,0,1-6.443,14.191l-4.411,4.358-1.616-1.637,4.41-4.358a19.5,19.5,0,0,0,5.764-12.694,2.517,2.517,0,0,1,2.523-2.344,5.909,5.909,0,0,1,5.877,5.715c.156,6.106-.63,8.636-2.89,13.349h13.188a5.592,5.592,0,0,1,5.583,5.874l-1.123,22.15A5.587,5.587,0,0,1,194.366,396.49Z" fill="#212b32"/>
      </g>
      <g id="Group_1430" data-name="Group 1430">
        <rect id="Rectangle_242" data-name="Rectangle 242" width="9.27" height="2.301" transform="translate(190.497 370.918)" fill="#212b32"/>
      </g>
      <g id="Group_1431" data-name="Group 1431">
        <rect id="Rectangle_243" data-name="Rectangle 243" width="9.27" height="2.301" transform="translate(190.104 378.675)" fill="#212b32"/>
      </g>
      <g id="Group_1432" data-name="Group 1432">
        <rect id="Rectangle_244" data-name="Rectangle 244" width="9.27" height="2.301" transform="translate(189.71 386.433)" fill="#212b32"/>
      </g>
      <g id="Group_1433" data-name="Group 1433">
        <rect id="Rectangle_245" data-name="Rectangle 245" width="2.3" height="3.643" transform="translate(160.254 386.699)" fill="#212b32"/>
      </g>
    </g>
  </g>
</svg>
