<svg id="Group_1474" data-name="Group 1474" xmlns="http://www.w3.org/2000/svg" width="169.373" height="55.224" viewBox="0 0 169.373 55.224">
  <path id="Path_2429" data-name="Path 2429" d="M400.587,283.337a24.229,24.229,0,0,0-12.3,2.808,16.23,16.23,0,0,0-8.216,11.067l-.442,1.991c-1.022,4.24-.584,7.629,1.3,10.075,2.515,3.259,6.466,4.65,13.21,4.65,11.921,0,18.514-4.409,20.746-13.876l.44-1.983c1-4.136.543-7.48-1.355-9.939C411.416,284.815,407.287,283.337,400.587,283.337Zm5.539,14.311-.336,1.366c-1.168,4.536-4.629,6.741-10.586,6.741-3.563,0-4.883-.773-5.857-2.019-.759-.97-.927-2.319-.514-4.125l.338-1.411c1.2-4.688,4.352-6.688,10.525-6.688,3.675,0,4.966.738,5.955,2.013C406.4,294.488,406.555,295.838,406.127,297.648Z" transform="translate(-332.411 -268.711)" fill="#ff7300"/>
  <path id="Path_2430" data-name="Path 2430" d="M447.026,283.337a24.231,24.231,0,0,0-12.3,2.808,16.233,16.233,0,0,0-8.216,11.067l-.442,1.991c-1.023,4.24-.584,7.629,1.3,10.075,2.515,3.259,6.467,4.65,13.211,4.65,11.921,0,18.513-4.409,20.745-13.876l.441-1.983c1-4.136.542-7.48-1.356-9.939C457.854,284.815,453.726,283.337,447.026,283.337Zm5.538,14.311-.336,1.366c-1.167,4.536-4.629,6.741-10.585,6.741-3.563,0-4.884-.773-5.858-2.019-.758-.97-.926-2.319-.514-4.125l.339-1.411c1.2-4.688,4.352-6.688,10.524-6.688,3.675,0,4.966.738,5.955,2.013C452.838,294.488,452.993,295.838,452.565,297.648Z" transform="translate(-336.68 -268.711)" fill="#ff7300"/>
  <path id="Path_2431" data-name="Path 2431" d="M367.95,306.084H330.624a1.463,1.463,0,0,0-1.426,1.12l-1.469,6.159a1.466,1.466,0,0,0,1.425,1.813h37.326a1.462,1.462,0,0,0,1.425-1.12l1.47-6.159a1.467,1.467,0,0,0-1.425-1.813Z" transform="translate(-327.686 -270.802)" fill="#ff7300"/>
  <path id="Path_2432" data-name="Path 2432" d="M339.521,276.26h24.784L347.6,290.154a1.466,1.466,0,0,0-.1,2.2l4.536,4.374a1.469,1.469,0,0,0,1.939.086l34.6-29.44.169-.143H340.951a1.462,1.462,0,0,0-1.428,1.132l-1.429,6.1a1.467,1.467,0,0,0,1.428,1.8Z" transform="translate(-328.639 -267.231)" fill="#ff9b00"/>
  <path id="Path_2433" data-name="Path 2433" d="M507.9,287.751c-2.256-2.888-5.733-4.414-11.478-4.414s-9.116,1.058-12.68,3.637l-.023-1.5a1.167,1.167,0,0,0-1.158-1.223h-5.548a1.4,1.4,0,0,0-1.364,1.079l-8.738,36.838a1.452,1.452,0,0,0,.147,1.078,1.4,1.4,0,0,0,1.208.688h6.468a1.4,1.4,0,0,0,1.364-1.079l2.889-12.272c2.633,2.285,5.5,3.344,10.589,3.344,11.247,0,17.279-4.767,19.412-14.171l.363-1.705C510.346,293.725,509.858,290.259,507.9,287.751Zm-7.741,9.729-.342,1.427c-1.447,5.956-7.452,6.846-11.351,6.846-6.611,0-7-2.37-7.307-4.283l.986-4.423c1.892-3.726,5.616-5.538,11.385-5.538,3.584,0,5.176.688,6.213,2.045C500.451,294.486,500.587,295.769,500.158,297.48Z" transform="translate(-340.479 -268.711)" fill="#ff7300"/>
</svg>
