<svg xmlns="http://www.w3.org/2000/svg" width="29.09" height="29.084" viewBox="0 0 29.09 29.084">
  <path id="União_1" data-name="União 1" d="M-2691.209-849.946l-15.756,0q-.309,0-.613-.024h-1.577c-.194,0-.393.005-.586.011h-.063l-.068,0c-.192.005-.389.01-.582.01a3.941,3.941,0,0,1-3.1-1.106,4.274,4.274,0,0,1-1.058-3.635v-.022c.008-.21.015-.458.015-.7V-856.9q-.032-.349-.032-.707v-13.73q0-.358.032-.707v-1.489c0-.21-.005-.424-.012-.63v-.034a4.456,4.456,0,0,1,1.086-3.706A3.906,3.906,0,0,1-2710.5-879c.205,0,.412.006.612.012l.059,0,.058,0c.192.005.408.012.617.012h1.554q.315-.026.635-.026l16.733.01c.165,0,.344-.009.517-.009a5.087,5.087,0,0,1,1.735.245,3.226,3.226,0,0,1,2.056,1.892,3.866,3.866,0,0,1,.326,1.253,8.752,8.752,0,0,1,.063,1.129l-.007,20.427c0,2.538-1.219,3.549-2.689,3.927a4.251,4.251,0,0,1-.54.111,9.117,9.117,0,0,1-1.409.1C-2690.536-849.916-2690.883-849.929-2691.209-849.946Zm-18.309-18.841v8.624a5.112,5.112,0,0,0,5.106,5.107h8.624a5.112,5.112,0,0,0,5.107-5.107v-8.624a5.112,5.112,0,0,0-5.107-5.106h-8.624A5.112,5.112,0,0,0-2709.518-868.787Zm5.106,12.029a3.408,3.408,0,0,1-3.4-3.4v-8.624a3.407,3.407,0,0,1,3.4-3.4h8.624a3.408,3.408,0,0,1,3.4,3.4v8.624a3.409,3.409,0,0,1-3.4,3.4Zm.057-7.717a4.26,4.26,0,0,0,4.255,4.255,4.26,4.26,0,0,0,4.255-4.255,4.26,4.26,0,0,0-4.255-4.255A4.26,4.26,0,0,0-2704.355-864.475Zm8.284-4.879a.851.851,0,0,0,.851.851.85.85,0,0,0,.851-.851.851.851,0,0,0-.851-.851A.851.851,0,0,0-2696.072-869.354Zm-6.582,4.879a2.554,2.554,0,0,1,2.553-2.553,2.554,2.554,0,0,1,2.553,2.553,2.553,2.553,0,0,1-2.553,2.553A2.554,2.554,0,0,1-2702.653-864.475Z" transform="translate(2714.624 879)" fill="#fff"/>
</svg>
