<svg xmlns="http://www.w3.org/2000/svg" width="29.062" height="29.05" viewBox="0 0 29.062 29.05">
  <g id="linkedin-sign" transform="translate(0.029 0.026)">
    <path id="Caminho_53" data-name="Caminho 53" d="M27.938,1.079C26.578-.281,25.064,0,23.566,0H5.441c-1.5,0-3-.292-4.364,1.068S0,3.94,0,5.438V23.563c0,1.5-.317,2.994,1.042,4.353S3.943,29,5.441,29H23.566c1.5,0,3.028.266,4.387-1.094S29,25.06,29,23.563V5.438C29,3.94,29.3,2.438,27.938,1.079Zm-19.1,23.2H4.478v-13.1H8.839v13.1Zm-.4-15.529A2.484,2.484,0,0,1,6.649,9.4H6.63a2.4,2.4,0,0,1-1.746-.651,2.16,2.16,0,0,1-.67-1.614A2.125,2.125,0,0,1,4.9,5.513a2.514,2.514,0,0,1,1.784-.642,2.413,2.413,0,0,1,1.756.642,2.232,2.232,0,0,1,.68,1.624A2.147,2.147,0,0,1,8.443,8.751ZM24.529,24.28H20.167v-7q0-2.964-2.19-2.964a2.136,2.136,0,0,0-1.4.463,2.906,2.906,0,0,0-.85,1.124,3.115,3.115,0,0,0-.132,1.057V24.28H11.237q.057-11.857,0-13.1H15.6v1.85a4.38,4.38,0,0,1,3.908-2.152,4.727,4.727,0,0,1,3.644,1.491,6.27,6.27,0,0,1,1.378,4.4V24.28h0Z" fill="#fff"/>
  </g>
</svg>
