<svg xmlns="http://www.w3.org/2000/svg" xmlns:xlink="http://www.w3.org/1999/xlink" width="85" height="393" viewBox="0 0 85 393">
  <defs>
    <clipPath id="clip-path">
      <rect id="Ret칙ngulo_21" data-name="Ret칙ngulo 21" width="85" height="393" transform="translate(0 139)" fill="none"/>
    </clipPath>
  </defs>
  <g id="Grupo_de_m치scara_6" data-name="Grupo de m치scara 6" transform="translate(0 -139)" clip-path="url(#clip-path)">
    <g id="Group_1_" data-name="Group (1)" transform="translate(344.775 745.824) rotate(155)">
      <path id="Caminho_44" data-name="Caminho 44" d="M309.79-27.057c71.994-39.33,158.249-42.515,238.62-38.707,44.581,2.077,97.331,4.57,137.2,27,63.2,35.59-45,130.8-71.025,160.019C577.9,161.974,538.58,202.2,507.5,247.558c-11.007,16.132-27.966,39.052-20.421,59.687,11.837,32.266,60.78,52.416,88.123,67.165,34.2,18,64.241,44.177,62.51,85.792-1.938,45.907-28.382,92.162-50.465,131.075-39.667,69.936-88.125,141.393-160.187,181.069-52.4,28.874-131.6,51.309-182.686,7.963-22.983-19.457-34.752-48.122-53.858-70.9C163.932,677.692,125.72,660.866,90,641.823c-27.344-14.748-76.285-34.9-88.124-67.165-7.546-20.635,9.345-43.553,20.422-59.687,31.082-45.354,70.4-85.583,107.091-126.3,34.544-38.567,76.356-79.074,101-125.467,11.769-22.226,12.944-37.805,4.5-61.348-9.415-26.313-25.405-50.686-29.421-78.729C196.054,57.211,257.733,1.4,309.79-27.057ZM114.712,628.252c33.575,17.8,69.779,33.306,97.123,60.448,18.484,18.281,31.776,41.408,51.574,58.44,44.65,38.429,107.16,24.166,154.372-1.662,66.665-36.491,116.577-103.031,153.612-168.05,19.037-33.445,42.158-75.127,39.8-115.012-2.077-36.075-31.29-58.3-60.642-74.3-27.344-14.75-76.285-34.9-88.124-67.166-7.546-20.633,9.345-43.553,20.422-59.687,31.082-45.353,70.4-85.583,107.091-126.3C612.1,110.043,718.151,14.142,666.093-19.648c-32.051-20.773-77.463-23.473-114.36-25.135C476.623-48.176,394.522-41.6,327.651-4.623,280.716,21.343,234.958,66.766,243.681,125c3.806,25.135,15.784,48.193,21.528,72.843,5.538,23.749-2.076,40.853-14.883,61-26.859,42.169-63,79.282-96.224,116.328-36.689,40.714-76.009,80.944-107.091,126.3C36,517.6,19.044,540.522,26.589,561.157,38.427,593.354,87.369,613.5,114.712,628.252Z" transform="translate(0.003 66.978)" fill="#f41f45"/>
      <path id="Caminho_45" data-name="Caminho 45" d="M343.729,4.4C401.463-27.108,472.9-36.179,537.906-31.817c23.4,1.593,72.341,4.155,87.64,26.1,11.422,16.41-4.084,39.537-12.876,53.386-20.7,32.544-47.627,61.349-73.171,90.084-36.689,40.715-76.009,80.944-107.091,126.3-11.007,16.134-27.968,39.053-20.422,59.687,11.837,32.268,60.78,52.416,88.124,67.165,67.425,36.214,65.349,90.847,31.774,152.958-30.943,57.194-76.84,113-134.3,144.854-41.465,22.989-87.639,28.735-127.1-.762-18.345-13.71-33.5-31.091-52.127-44.523-27.2-19.6-58.7-33.029-88.261-48.609-27.345-14.748-76.287-34.9-88.124-67.165-7.546-20.633,9.345-43.553,20.421-59.687,31.082-45.354,70.4-85.583,107.092-126.3,27.066-30.189,54.757-60.1,79.471-92.369,13.982-18.21,33.989-41.684,36.9-65.572,2.839-23.474-7.546-48.193-9.483-71.458C272.358,63.184,302.4,26.97,343.729,4.4ZM154.744,581.255c45.549,23.82,88.4,48.47,132.359,74.851,36.343,21.881,75.456,20.15,112.215-.553,48.25-27.212,89.993-74.644,114.5-124.429,26.652-54.146,15.783-97.7-38.28-126.713-27.345-14.748-76.287-34.9-88.125-67.165-7.544-20.635,9.347-43.554,20.422-59.687,31.082-45.354,70.4-85.585,107.091-126.3,21.669-24.442,43.82-48.816,62.857-75.474,9.553-13.364,26.375-34.483,25.475-52.209-1.315-26.589-44.3-31.159-64.379-33.236C483.425-15.545,421.746-6.128,372.6,20.6c-37.381,20.427-59.672,51.724-60.364,94.585-.346,20.98,4.291,42.1-1.8,62.526-6.993,23.542-26.582,45.631-41.467,64.326-23.675,29.705-49.427,57.748-74.762,86-36.691,40.715-76.01,80.944-107.092,126.3C76.1,470.467,59.144,493.387,66.69,514.021,78.457,546.356,127.4,566.506,154.744,581.255Z" transform="translate(17.499 82.262)" fill="#f41f45"/>
      <path id="Caminho_46" data-name="Caminho 46" d="M397.148,26.431C433.491,6.49,481.4-2.3,522.239,6.282c25.128,5.262,36.343,14.541,26.582,40.507-14.883,39.676-53.165,75.751-80.509,106.633-36.691,40.715-76.01,80.944-107.092,126.3-11.007,16.134-27.966,39.053-20.421,59.687,11.837,32.266,60.78,52.416,88.124,67.165,93.453,48.124,26.1,151.988-41.328,188.963-31.637,17.309-63,17.309-96.224,4.223-39.6-15.649-79.54-33.167-117.337-52.693-27.344-14.75-76.286-34.9-88.124-67.166-7.546-20.633,9.345-43.553,20.422-59.687,31.082-45.354,70.4-85.583,107.091-126.3,50.12-55.81,114.014-112.242,128.76-188.409C348.968,70.539,365.3,43.88,397.148,26.431ZM198.68,533.492c51.433,27.7,129.866,62.734,186.423,31.3,58.427-32.475,90.271-107.048,19.176-144.647-27.344-14.748-76.286-34.9-88.124-67.165-7.546-20.634,9.345-43.553,20.422-59.687,31.082-45.422,70.4-85.583,107.091-126.3C459.8,148.783,553.874,59.46,515.178,32.871c-22.983-15.787-72.133.485-93.317,12.117-28.8,15.787-39.32,39.607-52.127,68.065-28.521,63.633-85.839,116.327-131.667,167.289-36.689,40.715-76.009,80.944-107.091,126.3-11.007,16.134-27.966,39.053-20.421,59.687C122.393,498.6,171.334,518.674,198.68,533.492Z" transform="translate(31.16 98.311)" fill="#f41f45"/>
      <path id="Caminho_47" data-name="Caminho 47" d="M433.95,55.893c13.292-7.478,35.166-14.264,38.9,5.262,1.869,9.763-8.445,23.819-13.429,31.782-16.269,26.035-37.52,48.886-57.734,71.873C365,205.526,325.682,245.755,294.6,291.109c-11.007,16.134-27.968,39.052-20.422,59.687,11.837,32.266,60.78,52.416,88.124,67.165,40.5,22.228,41.6,68.55-.139,91.192-40.565,22.089-101.068,6.579-139.627-14.194-27.344-14.748-76.287-34.9-88.124-67.165-7.546-20.635,9.345-43.554,20.421-59.687,31.082-45.354,70.4-85.585,107.092-126.3,37.658-41.754,75.732-83.091,112.006-126.09C391.861,94.461,409.306,69.811,433.95,55.893ZM247.18,481.387c27.344,14.609,66.526,21.534,95.047,6.647,30.6-15.995,16.406-41.822-4.569-56.5-27.344-14.748-76.287-34.9-88.124-67.165-7.546-20.635,9.345-43.553,20.421-59.687,31.082-45.354,70.4-85.583,107.092-126.3,16.06-18.279,48.18-45.768,53.787-71.319,2.008-9.209.554-19.18-12.183-10.594-45.828,30.952-92.9,88.561-132.082,131.768-36.689,40.714-76.009,80.944-107.091,126.3-11.007,16.134-27.968,39.053-20.422,59.687C170.893,446.489,219.836,466.639,247.18,481.387Z" transform="translate(40.185 118.635)" fill="#f41f45"/>
      <path id="Caminho_48" data-name="Caminho 48" d="M378.748,133.875c6.369-3.879.138,7.132-15.646,24.65-36.689,40.715-76.009,80.944-107.091,126.3C245,300.957,228.045,323.875,235.589,344.51c11.838,32.266,60.78,52.416,88.124,67.165,8.1,4.432,9,11.148,2.217,14.887s-18.76,3.116-26.86-1.247c-27.344-14.748-76.286-34.9-88.124-67.165-7.546-20.635,9.345-43.553,20.422-59.687,31.082-45.354,70.4-85.585,107.091-126.3C350.434,158.734,363.864,142.876,378.748,133.875Z" transform="translate(21.246 156.564)" fill="#f41f45"/>
    </g>
  </g>
</svg>
