<svg xmlns="http://www.w3.org/2000/svg" width="639.952" height="790.949" viewBox="0 0 639.952 790.949">
  <g id="Logo_topo_direita" data-name="Logo topo direita" transform="translate(0.003 66.978)">
    <path id="Caminho_4" data-name="Caminho 4" d="M358.8-30.748C293.458-66.441,215.178-69.332,142.237-65.876c-40.46,1.885-88.332,4.147-124.52,24.508C-39.642-9.068,58.554,77.338,82.176,103.857c33.3,36.95,68.982,73.461,97.191,114.622,9.99,14.641,25.381,35.441,18.533,54.169-10.743,29.283-55.161,47.57-79.976,60.955-31.036,16.339-58.3,40.093-56.731,77.86,1.759,41.663,25.758,83.641,45.8,118.956,36,63.47,79.977,128.321,145.377,164.328,47.56,26.2,119.431,46.565,165.8,7.226,20.858-17.658,31.539-43.673,48.879-64.349,24.125-28.78,58.8-44.05,91.222-61.332,24.816-13.385,69.233-31.672,79.976-60.955,6.848-18.727-8.481-39.526-18.534-54.169-28.208-41.161-63.893-77.671-97.19-114.622-31.35-35-69.3-71.763-91.662-113.868-10.681-20.171-11.748-34.31-4.084-55.676,8.544-23.88,23.056-46,26.7-71.45C462.017,45.729,406.041-4.921,358.8-30.748ZM535.838,563.976c-30.471,16.151-63.328,30.227-88.144,54.86-16.775,16.591-28.838,37.579-46.806,53.037-40.522,34.876-97.253,21.932-140.1-1.508-60.5-33.117-105.8-93.506-139.41-152.514C104.1,487.5,83.119,449.669,85.255,413.472c1.885-32.74,28.4-52.911,55.035-67.427,24.816-13.386,69.233-31.672,79.977-60.956,6.848-18.726-8.481-39.526-18.534-54.169-28.208-41.16-63.893-77.671-97.19-114.621C84.438,93.676-11.81,6.642,35.434-24.024c29.088-18.852,70.3-21.3,103.787-22.811,68.166-3.079,142.676,2.891,203.365,36.448,42.6,23.565,84.123,64.789,76.207,117.638-3.454,22.811-14.324,43.737-19.538,66.109-5.026,21.553,1.884,37.076,13.507,55.362,24.376,38.27,57.171,71.952,87.328,105.573,33.3,36.95,68.982,73.461,97.19,114.622,9.99,14.641,25.381,35.441,18.534,54.169C605.071,532.3,560.654,550.591,535.838,563.976Z" transform="translate(0)" fill="#db1c3e"/>
    <path id="Caminho_5" data-name="Caminho 5" d="M299.529.954C247.133-27.638,182.3-35.87,123.3-31.911,102.069-30.466,57.652-28.141,43.767-8.22,33.4,6.673,47.474,27.662,55.453,40.23c18.785,29.535,43.224,55.677,66.406,81.756,33.3,36.95,68.982,73.46,97.19,114.621,9.99,14.642,25.382,35.443,18.534,54.169-10.743,29.284-55.161,47.57-79.977,60.955C96.415,384.6,98.3,434.178,128.77,490.546c28.082,51.906,69.736,102.555,121.881,131.462,37.632,20.864,79.536,26.079,115.347-.691,16.649-12.443,30.407-28.216,47.307-40.407,24.69-17.784,53.275-29.976,80.1-44.115,24.817-13.385,69.234-31.672,79.977-60.955,6.848-18.726-8.481-39.526-18.533-54.169C526.642,380.511,490.958,344,457.659,307.05c-24.564-27.4-49.695-54.546-72.123-83.829-12.69-16.526-30.847-37.83-33.485-59.51-2.577-21.3,6.848-43.737,8.606-64.852C364.3,54.306,337.036,21.44,299.529.954ZM471.042,524.479C429.7,546.1,390.814,568.468,350.92,592.41c-32.983,19.858-68.48,18.287-101.84-.5-43.789-24.7-81.673-67.743-103.912-112.925-24.188-49.14-14.324-88.668,34.741-115,24.817-13.385,69.234-31.672,79.978-60.955,6.847-18.727-8.483-39.528-18.534-54.169-28.208-41.161-63.893-77.672-97.19-114.622-19.665-22.183-39.769-44.3-57.046-68.5C78.447,53.615,63.18,34.448,64,18.361,65.191-5.77,104.205-9.917,122.424-11.8c50.324-5.341,106.3,3.2,150.907,27.461C307.256,34.2,327.486,62.6,328.114,101.5c.314,19.041-3.894,38.207,1.633,56.745,6.346,21.366,24.125,41.412,37.633,58.378,21.486,26.959,44.857,52.409,67.85,78.048,33.3,36.951,68.983,73.461,97.191,114.622,9.988,14.642,25.381,35.443,18.533,54.169C540.275,492.807,495.857,511.094,471.042,524.479Z" transform="translate(12.588 10.715)" fill="#db1c3e"/>
    <path id="Caminho_6" data-name="Caminho 6" d="M224.86,24.265C191.877,6.167,148.4-1.814,111.334,5.978c-22.805,4.776-32.983,13.2-24.125,36.762,13.507,36.008,48.249,68.748,73.065,96.774,33.3,36.951,68.983,73.461,97.191,114.622,9.99,14.642,25.381,35.443,18.533,54.169-10.743,29.283-55.161,47.57-79.977,60.955-84.813,43.674-23.685,137.936,37.507,171.493,28.712,15.709,57.171,15.709,87.328,3.833,35.936-14.2,72.186-30.1,106.489-47.821,24.816-13.386,69.233-31.672,79.976-60.956,6.848-18.726-8.481-39.526-18.534-54.169-28.208-41.161-63.893-77.671-97.19-114.62-45.486-50.65-103.473-101.865-116.855-170.99C268.585,64.294,253.759,40.1,224.86,24.265ZM404.979,484.446c-46.678,25.137-117.859,56.934-169.187,28.4-53.026-29.472-81.925-97.151-17.4-131.274,24.816-13.385,69.233-31.671,79.977-60.955,6.848-18.726-8.481-39.526-18.534-54.169-28.208-41.223-63.893-77.671-97.19-114.622C168,135.3,82.623,54.24,117.742,30.109c20.858-14.328,65.464.44,84.689,11,26.135,14.328,35.685,35.945,47.307,61.772,25.884,57.75,77.9,105.573,119.494,151.822,33.3,36.951,68.982,73.461,97.19,114.622,9.99,14.642,25.381,35.443,18.533,54.169C474.213,452.776,429.8,471,404.979,484.446Z" transform="translate(26.38 21.967)" fill="#db1c3e"/>
    <path id="Caminho_7" data-name="Caminho 7" d="M168.044,55.2c-12.063-6.787-31.915-12.945-35.307,4.776-1.7,8.861,7.664,21.617,12.188,28.844,14.764,23.628,34.051,44.366,52.4,65.228,33.3,36.951,68.982,73.461,97.19,114.622,9.99,14.642,25.382,35.441,18.534,54.169-10.743,29.283-55.161,47.57-79.977,60.955-36.753,20.172-37.758,62.212.126,82.761,36.814,20.046,91.724,5.97,126.718-12.882,24.816-13.385,69.234-31.672,79.976-60.955,6.848-18.727-8.481-39.528-18.533-54.169-28.208-41.161-63.894-77.672-97.191-114.622-34.176-37.893-68.731-75.409-101.651-114.433C206.242,90.2,190.409,67.83,168.044,55.2Zm169.5,386.156c-24.816,13.259-60.376,19.543-86.26,6.032-27.768-14.516-14.889-37.955,4.147-51.278,24.816-13.385,69.234-31.672,79.977-60.955,6.848-18.727-8.481-39.526-18.533-54.169-28.208-41.161-63.894-77.671-97.191-114.622-14.575-16.589-43.726-41.537-48.814-64.725-1.822-8.358-.5-17.407,11.057-9.615C223.519,120.114,266.239,172.4,301.8,211.61c33.3,36.95,68.982,73.461,97.19,114.62,9.99,14.642,25.382,35.443,18.534,54.169C406.78,409.683,362.362,427.97,337.546,441.355Z" transform="translate(41.605 36.215)" fill="#db1c3e"/>
    <path id="Caminho_8" data-name="Caminho 8" d="M211.3,133.8c-5.78-3.52-.125,6.472,14.2,22.371,33.3,36.951,68.982,73.461,97.19,114.622,9.99,14.642,25.381,35.441,18.534,54.169-10.744,29.283-55.161,47.57-79.977,60.955-7.351,4.022-8.167,10.117-2.012,13.511s17.026,2.828,24.377-1.131c24.816-13.385,69.233-31.672,79.977-60.955,6.848-18.727-8.481-39.526-18.534-54.169-28.208-41.161-63.893-77.672-97.19-114.622C237,156.363,224.813,141.972,211.3,133.8Z" transform="translate(65.63 62.806)" fill="#db1c3e"/>
  </g>
</svg>
