<svg xmlns="http://www.w3.org/2000/svg" xmlns:xlink="http://www.w3.org/1999/xlink" width="277" height="699" viewBox="0 0 277 699">
  <defs>
    <clipPath id="clip-path">
      <rect id="Ret칙ngulo_22" data-name="Ret칙ngulo 22" width="277" height="699" transform="translate(1643)" fill="none"/>
    </clipPath>
  </defs>
  <g id="Grupo_de_m치scara_7" data-name="Grupo de m치scara 7" transform="translate(-1643)" clip-path="url(#clip-path)">
    <g id="Group_1_" data-name="Group (1)" transform="translate(2070.593 681.67) rotate(-161)">
      <path id="Caminho_44" data-name="Caminho 44" d="M339.36-32.711c-61.8-33.76-135.839-36.494-204.828-33.225-38.268,1.783-83.547,3.923-117.775,23.18C-37.495-12.2,55.382,69.52,77.725,94.6c31.494,34.949,65.246,69.482,91.926,108.413,9.449,13.848,24.006,33.522,17.529,51.234-10.161,27.7-52.173,44.993-75.644,57.653-29.354,15.453-55.144,37.921-53.658,73.642,1.664,39.406,24.363,79.11,43.319,112.513,34.049,60.032,75.645,121.37,137.5,155.427,44.983,24.785,112.961,44.043,156.815,6.835,19.728-16.7,29.831-41.307,46.231-60.863,22.818-27.221,55.619-41.664,86.281-58.01,23.472-12.66,65.482-29.956,75.644-57.653,6.477-17.713-8.022-37.385-17.53-51.234-26.68-38.931-60.432-73.463-91.925-108.413-29.652-33.105-65.543-67.876-86.7-107.7-10.1-19.079-11.111-32.452-3.862-52.66,8.082-22.587,21.808-43.508,25.255-67.58C436.99,39.624,384.046-8.282,339.36-32.711ZM506.812,529.8c-28.82,15.276-59.9,28.589-83.369,51.888-15.866,15.692-27.276,35.544-44.27,50.164-38.327,32.987-91.985,20.744-132.511-1.427C189.438,599.1,146.594,541.982,114.8,486.171c-16.341-28.708-36.188-64.488-34.168-98.724,1.783-30.967,26.859-50.045,52.054-63.775,23.472-12.661,65.482-29.956,75.644-57.654,6.477-17.712-8.022-37.385-17.53-51.234-26.68-38.93-60.432-73.463-91.926-108.412C79.864,84.974-11.171,2.654,33.515-26.351,61.027-44.182,100.008-46.5,131.68-47.926c64.473-2.912,134.948,2.734,192.349,34.473C364.317,8.836,403.6,47.826,396.108,97.812c-3.267,21.576-13.548,41.368-18.479,62.528-4.754,20.386,1.782,35.068,12.775,52.363,23.055,36.2,54.074,68.055,82.6,99.854,31.493,34.948,65.245,69.482,91.925,108.413,9.449,13.848,24.006,33.522,17.53,51.234C572.294,499.841,530.284,517.138,506.812,529.8Z" transform="translate(0)" fill="#4a45d8"/>
      <path id="Caminho_45" data-name="Caminho 45" d="M285.476-.877C235.918-27.92,174.593-35.706,118.8-31.962,98.712-30.595,56.7-28.4,43.568-9.554c-9.8,14.086,3.506,33.938,11.052,45.826C72.388,64.206,95.5,88.932,117.43,113.6c31.493,34.949,65.245,69.481,91.925,108.412,9.449,13.849,24.007,33.523,17.53,51.234-10.161,27.7-52.173,44.993-75.644,57.653-57.877,31.086-56.094,77.982-27.274,131.3,26.561,49.094,65.958,97,115.279,124.341,35.593,19.733,75.228,24.666,109.1-.654,15.747-11.769,28.759-26.688,44.745-38.218,23.352-16.82,50.389-28.352,75.762-41.725,23.473-12.66,65.484-29.956,75.644-57.653,6.477-17.711-8.022-37.385-17.529-51.234-26.68-38.931-60.432-73.463-91.927-108.413-23.233-25.914-47-51.591-68.216-79.288-12-15.631-29.176-35.781-31.671-56.286-2.437-20.15,6.477-41.368,8.14-61.339C346.74,49.585,320.951,18.5,285.476-.877ZM447.7,494.289c-39.1,20.447-75.882,41.606-113.615,64.251-31.2,18.783-64.77,17.3-96.323-.475-41.417-23.358-77.249-64.073-98.283-106.808-22.878-46.478-13.548-83.865,32.859-108.768,23.473-12.66,65.484-29.956,75.645-57.653,6.476-17.713-8.023-37.387-17.53-51.234-26.68-38.931-60.432-73.464-91.925-108.413-18.6-20.981-37.615-41.9-53.956-64.786C76.369,48.931,61.93,30.8,62.7,15.587c1.129-22.824,38.03-26.747,55.262-28.53,47.6-5.052,100.542,3.031,142.732,25.974,32.087,17.534,51.222,44.4,51.816,81.19.3,18.009-3.684,36.137,1.545,53.672,6,20.208,22.818,39.169,35.595,55.216,20.323,25.5,42.427,49.57,64.175,73.82,31.495,34.95,65.246,69.482,91.927,108.413,9.447,13.849,24.006,33.523,17.529,51.234C513.181,464.333,471.169,481.63,447.7,494.289Z" transform="translate(9.734 8.286)" fill="#4a45d8"/>
      <path id="Caminho_46" data-name="Caminho 46" d="M217.231,23.113C186.035,6,144.914-1.553,109.855,5.817c-21.57,4.517-31.2,12.482-22.818,34.77,12.776,34.057,45.636,65.024,69.107,91.532,31.495,34.95,65.246,69.482,91.927,108.413,9.449,13.849,24.006,33.523,17.529,51.234-10.161,27.7-52.173,44.993-75.644,57.653-80.219,41.309-22.4,130.464,35.475,162.2,27.156,14.858,54.074,14.858,82.6,3.625,33.989-13.433,68.276-28.47,100.72-45.231,23.472-12.661,65.482-29.956,75.644-57.654,6.477-17.711-8.022-37.385-17.53-51.234-26.68-38.931-60.432-73.463-91.925-108.412C331.915,204.811,277.069,156.37,264.412,90.99,258.588,60.974,244.565,38.091,217.231,23.113ZM387.593,458.367c-44.15,23.775-111.475,53.85-160.022,26.866-50.153-27.876-77.487-91.888-16.46-124.163,23.472-12.66,65.482-29.955,75.644-57.653,6.477-17.712-8.022-37.385-17.53-51.234-26.68-38.99-60.432-73.463-91.925-108.413-13.845-15.631-94.6-92.3-61.384-115.128,19.728-13.552,61.918.416,80.1,10.4,24.719,13.552,33.752,34,44.745,58.426,24.482,54.622,73.683,99.854,113.021,143.6,31.493,34.95,65.245,69.481,91.925,108.413,9.449,13.849,24.006,33.523,17.529,51.234C453.077,428.412,411.066,445.647,387.593,458.367Z" transform="translate(20.399 16.986)" fill="#4a45d8"/>
      <path id="Caminho_47" data-name="Caminho 47" d="M166.12,54.83c-11.41-6.419-30.186-12.244-33.395,4.517-1.6,8.381,7.249,20.446,11.528,27.281,13.965,22.348,32.207,41.963,49.558,61.695,31.493,34.95,65.245,69.482,91.925,108.413,9.449,13.849,24.007,33.522,17.53,51.234-10.161,27.7-52.173,44.993-75.644,57.653-34.762,19.08-35.713,58.842.119,78.278,34.82,18.96,86.756,5.647,119.853-12.184,23.472-12.66,65.484-29.956,75.644-57.653,6.477-17.713-8.022-37.387-17.529-51.234-26.68-38.931-60.433-73.464-91.927-108.413-32.325-35.841-65.008-71.324-96.144-108.234C202.249,87.936,187.274,66.777,166.12,54.83ZM326.441,420.068c-23.472,12.54-57.105,18.484-81.587,5.705-26.264-13.73-14.083-35.9,3.922-48.5,23.472-12.66,65.484-29.956,75.644-57.653,6.477-17.713-8.022-37.385-17.529-51.234-26.68-38.931-60.433-73.463-91.927-108.413-13.786-15.691-41.357-39.287-46.17-61.219-1.724-7.905-.476-16.464,10.458-9.094C218.59,116.229,259,165.68,292.63,202.768c31.493,34.948,65.245,69.482,91.925,108.412,9.449,13.849,24.007,33.523,17.53,51.234C391.925,390.112,349.913,407.409,326.441,420.068Z" transform="translate(32.172 28.004)" fill="#4a45d8"/>
      <path id="Caminho_48" data-name="Caminho 48" d="M211.183,133.765c-5.467-3.329-.118,6.122,13.43,21.159,31.493,34.95,65.245,69.482,91.925,108.413,9.449,13.849,24.006,33.522,17.53,51.234-10.162,27.7-52.173,44.993-75.644,57.653-6.953,3.8-7.725,9.569-1.9,12.779s16.1,2.674,23.057-1.07c23.472-12.66,65.482-29.956,75.644-57.653,6.477-17.713-8.022-37.385-17.53-51.234-26.68-38.931-60.432-73.464-91.925-108.413C235.488,155.1,223.96,141.491,211.183,133.765Z" transform="translate(50.749 48.566)" fill="#4a45d8"/>
    </g>
  </g>
</svg>
