<svg xmlns="http://www.w3.org/2000/svg" width="32.433" height="41.479" viewBox="0 0 32.433 41.479">
  <g id="flame" transform="translate(-55.838 -0.001)">
    <g id="Flame-2" data-name="Flame" transform="translate(55.838 0.001)">
      <path id="Caminho_122" data-name="Caminho 122" d="M77.836,39.716c1.5-3.005,3.293-8.123.792-10.33a15.685,15.685,0,0,1-5.688.008c-3.82-.858-5.03-3.885-3.978-7.761-5.14,4.7-5.357,11.623-3.452,18.292a1.216,1.216,0,0,1-1.842,1.345c-.32-.213-7.831-5.311-7.831-13.161,0-12.86,14.58-13.414,14.58-26.892a1.216,1.216,0,0,1,2-.931C78.24,5.174,88.842,16.922,88.247,27.728c-.295,5.357-3.205,9.913-8.65,13.543A1.217,1.217,0,0,1,77.836,39.716Z" transform="translate(-55.838 -0.001)" fill="#fff"/>
    </g>
  </g>
</svg>
