<svg width="1920" height="1026" viewBox="0 0 1920 1026" fill="none" xmlns="http://www.w3.org/2000/svg">
<rect width="1920" height="1025.33" fill="#222137"/>
<mask id="mask0_14_42" style="mask-type:alpha" maskUnits="userSpaceOnUse" x="0" y="1" width="1920" height="1024">
<rect y="1" width="1920" height="1024" fill="#222137"/>
</mask>
<g mask="url(#mask0_14_42)">
<mask id="mask1_14_42" style="mask-type:alpha" maskUnits="userSpaceOnUse" x="1305" y="277" width="782" height="998">
<path d="M2083.95 618.823C2072.56 530.616 2020.37 452.944 1965.8 384.889C1935.56 347.117 1899.76 302.444 1854.67 281.777C1783.17 249.036 1768.64 404.609 1759.6 446.062C1747.28 504.188 1737.07 564.318 1717.1 620.481C1709.97 640.418 1700.68 669.9 1677.77 676.431C1641.93 686.617 1593.07 656.539 1562.7 641.96C1525.12 623.446 1483.02 613.783 1447.63 641.824C1408.61 672.79 1384.9 725.463 1364.84 769.629C1328.8 848.992 1297.02 937.039 1308.16 1025.52C1316.23 1089.88 1347.04 1173.63 1417.62 1190.81C1449.33 1198.56 1481.97 1190.61 1514.13 1192.85C1558.88 1195.94 1598 1218.73 1637.46 1237.92C1667.83 1252.5 1716.69 1282.57 1752.54 1272.39C1775.44 1265.85 1784.77 1236.43 1791.86 1216.44C1811.83 1160.27 1822.04 1100.15 1834.36 1042.02C1846.17 987.143 1855.04 924.655 1880.02 873.473C1892.01 848.985 1904.92 838.022 1930.95 830.424C1960.02 821.909 1991.59 820.397 2018.74 806.043C2082.55 772.279 2092.18 682.615 2083.95 618.823ZM1633.61 1207.59C1596.6 1189.49 1559.93 1167.63 1518.69 1160.95C1490.88 1156.39 1462.13 1159.48 1434.57 1152.97C1372.41 1138.31 1345.07 1074.4 1337.63 1016.53C1327.14 934.811 1353.68 848.627 1387.09 774.705C1404.29 736.694 1426.11 689.847 1462.58 666.489C1495.54 645.315 1533.66 656.768 1566.39 672.314C1596.75 686.892 1645.62 716.97 1681.46 706.785C1704.36 700.25 1713.69 670.826 1720.79 650.834C1740.75 594.668 1750.97 534.543 1763.29 476.415C1771.03 441.096 1787.53 286.963 1850.35 311.078C1888.99 325.941 1920.3 364.053 1945.29 395.348C1996.13 459.053 2042.7 535.247 2052.89 617.458C2060.03 675.17 2049.36 744.25 1992.74 773.719C1968.26 786.396 1940.41 790.595 1915.14 801.272C1890.78 811.557 1880.63 829.133 1871.12 853.211C1851.26 903.644 1841.74 958.991 1830.44 1011.74C1818.12 1069.87 1807.9 1130 1787.94 1186.16C1780.81 1206.1 1771.52 1235.58 1748.61 1242.11C1712.84 1252.25 1663.97 1222.17 1633.61 1207.59Z" fill="#4A45D8"/>
<path d="M2010.18 603.507C2001.01 532.796 1963.43 464.362 1918.17 410.138C1901.86 390.634 1868.42 349.345 1839.42 349.92C1817.74 350.362 1807.35 378.701 1800.81 395.24C1785.46 434.136 1777.36 476.111 1768.45 516.828C1756.13 574.954 1745.91 635.084 1725.95 691.247C1718.81 711.184 1709.53 740.666 1686.62 747.197C1650.78 757.383 1601.91 727.305 1571.55 712.726C1496.81 676.683 1450.23 713.326 1417.16 782.358C1386.72 845.952 1367.03 921.773 1375.72 992.464C1381.99 1043.48 1406.39 1087.64 1457.4 1103.44C1481.12 1110.79 1506.02 1113.01 1529.68 1120.77C1564.2 1132.14 1596.06 1151.2 1628.56 1167.19C1658.93 1181.77 1707.79 1211.85 1743.64 1201.66C1766.54 1195.13 1775.87 1165.7 1782.96 1145.71C1802.93 1089.55 1813.14 1029.42 1825.46 971.294C1834.69 928.314 1843.27 884.965 1855.82 842.722C1862.87 818.851 1870.71 786.345 1889.8 768.566C1908.58 751.115 1936.87 744.466 1958.52 731.332C2004.12 703.569 2016.73 654.139 2010.18 603.507ZM1624.75 1136.93C1574.83 1112.17 1525.9 1090.3 1474.75 1068.57C1432.39 1050.64 1408.98 1015.24 1403.71 969.805C1396.82 910.146 1411.81 843.307 1439.84 790.082C1470.34 732.196 1515.47 713.966 1575.37 742.887C1605.73 757.466 1654.6 787.543 1690.44 777.358C1713.35 770.823 1722.68 741.399 1729.77 721.408C1749.73 665.241 1759.95 605.116 1772.27 546.989C1779.89 512.404 1787.15 477.444 1798.39 443.756C1804.02 426.859 1811.82 398.646 1827.94 388.138C1852.09 372.343 1883.5 407.13 1898.12 423.412C1938.63 468.288 1969.68 528.381 1977.57 588.52C1983.49 634.323 1970.25 673.819 1933.1 701.747C1914.92 715.423 1893.44 724.818 1879.41 743.179C1863.22 764.316 1856.34 795.578 1849.43 820.546C1838.47 860.242 1830.29 900.701 1821.67 940.928C1809.35 999.054 1799.13 1059.18 1779.17 1115.35C1772.03 1135.28 1762.75 1164.77 1739.84 1171.3C1703.98 1181.59 1655.12 1151.51 1624.75 1136.93Z" fill="#4A45D8"/>
<path d="M1934.03 568.954C1928.35 524.372 1905.53 476.756 1871.96 446.411C1851.33 427.728 1836.05 423.808 1819.5 448.918C1794.19 487.26 1786.95 543.826 1777.3 587.489C1764.98 645.615 1754.76 705.745 1734.8 761.908C1727.67 781.845 1718.38 811.327 1695.47 817.858C1659.63 828.044 1610.76 797.966 1580.4 783.387C1478.63 732.105 1430.48 857.377 1441.03 940.075C1446.01 978.852 1466 1006.35 1498.66 1027.15C1537.62 1051.9 1578.44 1075.77 1619.66 1096.47C1650.02 1111.05 1698.89 1141.13 1734.73 1130.94C1757.64 1124.41 1766.97 1094.98 1774.06 1074.99C1794.02 1018.82 1804.24 958.7 1816.56 900.572C1833.56 821.047 1842.32 729.042 1899.72 667.563C1926.06 639.322 1939.02 608.002 1934.03 568.954ZM1615.85 1066.21C1558.78 1038.76 1478.06 992.305 1469.58 922.671C1460.81 850.736 1505.92 775.274 1584.21 813.656C1614.57 828.235 1663.44 858.313 1699.28 848.127C1722.18 841.592 1731.51 812.168 1738.61 792.177C1758.63 735.966 1768.79 675.885 1781.11 617.758C1786.8 592 1805.17 452.561 1853.15 469.553C1881.64 479.645 1898.7 533.12 1902 559.112C1906.51 594.429 1892.33 618.84 1875.54 648.211C1837.91 713.783 1828.23 797.636 1812.75 870.308C1800.43 928.434 1790.22 988.564 1770.25 1044.73C1763.12 1064.66 1753.83 1094.15 1730.92 1100.68C1695.08 1110.86 1646.28 1080.74 1615.85 1066.21Z" fill="#4A45D8"/>
<path d="M1861.16 560.499C1859.24 544.077 1851.26 520.564 1831.74 529.735C1821.99 534.318 1816.24 552.324 1812.43 561.77C1799.97 592.631 1793.47 625.829 1786.2 658.214C1773.88 716.34 1763.67 776.47 1743.7 832.633C1736.57 852.57 1727.28 882.052 1704.37 888.583C1668.53 898.769 1619.67 868.691 1589.3 854.112C1544 832.766 1502.67 861.32 1509.42 912.36C1515.9 962.014 1568.07 1005.19 1610.86 1025.76C1641.23 1040.34 1690.1 1070.42 1725.94 1060.23C1748.84 1053.7 1758.17 1024.27 1765.27 1004.28C1785.23 948.116 1795.44 887.991 1807.76 829.863C1820.38 770.223 1832.36 710.488 1846.95 651.265C1854.16 621.994 1864.66 590.983 1861.16 560.499ZM1607.06 995.501C1576.82 980.833 1545.77 950.886 1540.65 916.382C1535.17 879.357 1566.87 875.337 1593.12 884.374C1623.48 898.953 1672.35 929.031 1708.19 918.845C1731.09 912.31 1740.42 882.887 1747.52 862.895C1767.48 806.729 1777.7 746.604 1790.02 688.476C1795.8 662.741 1799.43 617.046 1818.27 595.844C1825.07 588.214 1834.74 583.133 1835.33 599.776C1837.39 659.694 1816.88 737.695 1803.96 799.597C1791.64 857.723 1781.42 917.853 1761.46 974.016C1754.33 993.952 1745.04 1023.43 1722.13 1029.97C1686.29 1040.16 1637.42 1010.08 1607.06 995.501Z" fill="#4A45D8"/>
<path d="M1806.76 699.395C1806.1 691.337 1800.41 703.82 1795.11 728.826C1782.79 786.952 1772.58 847.082 1752.61 903.245C1745.48 923.182 1736.19 952.664 1713.28 959.195C1677.44 969.381 1628.58 939.303 1598.21 924.724C1589.17 920.444 1582.7 923.937 1583.75 932.269C1584.8 940.601 1592.97 950.707 1601.96 955.03C1632.33 969.609 1681.19 999.686 1717.03 989.501C1739.94 982.966 1749.27 953.542 1756.36 933.551C1776.33 877.39 1786.54 817.265 1798.86 759.139C1803.01 740.074 1808.35 718.189 1806.76 699.395Z" fill="#4A45D8"/>
</mask>
<g mask="url(#mask1_14_42)">
<rect x="1216" y="241.333" width="704" height="784" fill="#4A45D8"/>
</g>
<path d="M1030.7 -42.512C1024.67 -63.1227 1000.64 -75.1589 984.24 -87.2118C968.033 -99.1576 954.746 -113.998 937.139 -124.155C902.797 -143.964 860.892 -145.357 822.674 -152.676C805.71 -155.919 783.72 -162.112 766.455 -156.075C744.863 -148.506 734.933 -121.628 725.358 -103.074C712.81 -78.6912 701.724 -61.6136 680.526 -44.5787C666.329 -33.1661 654.381 -19.211 645.29 -3.42625C637.007 10.9191 627.336 29.8679 629.9 46.9499C632.91 66.9317 650.871 81.4279 656.064 100.423C666.14 136.875 691.053 169.763 724.203 188.884C740.98 198.58 759.518 204.844 778.738 207.311C804.523 210.614 815.125 192.887 826.447 171.95C836.029 153.428 845.96 126.55 867.544 118.948C884.8 112.878 906.766 119.113 923.763 122.347C1007.23 138.258 1049.48 21.7394 1030.7 -42.512ZM822.608 157.631C812.079 177.011 801.94 195.213 777.514 192.224C761.463 190.247 745.535 184.105 731.621 176.048C701.671 158.498 679.729 129.978 670.443 96.5301C665.775 79.7458 652.087 66.7921 647.268 49.9473C642.6 33.6653 650.049 17.8333 658.102 3.88523C666.754 -11.0958 678.096 -22.8028 691.101 -34.0803C708.9 -49.5326 718.516 -67.9297 729.24 -88.8398C738.823 -107.362 748.754 -134.24 770.338 -141.841C787.594 -147.912 809.56 -141.677 826.557 -138.442C860.622 -131.824 899.276 -129.023 929.771 -111.405C945.272 -102.464 958.504 -89.9565 973.293 -79.9168C988.861 -69.3477 1010.98 -58.0151 1016.4 -38.6795C1032.81 19.9959 995.974 123.105 919.955 108.02C902.991 104.777 881.001 98.5842 863.736 104.621C842.112 112.197 832.183 139.076 822.608 157.631Z" fill="#F41F45"/>
<path d="M997.251 -33.544C992.501 -50.5068 973.753 -61.0311 959.577 -69.7908C946.371 -77.9382 933.261 -86.4812 919.834 -94.2021C894.245 -108.936 860.376 -113.693 831.661 -119.26C814.697 -122.504 792.707 -128.697 775.442 -122.659C753.856 -115.088 743.925 -88.2099 734.345 -69.6502C725.315 -51.9472 717.043 -33.1719 703.214 -18.5823C693.051 -7.86383 682.701 0.654405 675.247 13.837C657.75 44.8258 681.615 62.7766 689.566 91.4431C697.471 119.825 716.083 144.031 741.482 158.962C752.827 165.559 768.448 172.689 781.748 172.414C800.234 172.058 809.761 152.578 817.452 138.525C827.035 120.003 836.965 93.1252 858.549 85.5241C875.805 79.4534 897.772 85.6882 914.769 88.9231C980.018 101.824 1011.68 17.9015 997.251 -33.544ZM813.635 124.166C806.919 136.342 798.653 153.507 783.421 156.349C772.035 158.494 758.535 151.635 748.885 146.095C726.757 133.279 710.586 112.242 703.891 87.5621C697.809 64.8766 676.94 45.82 688.538 21.1497C693.714 10.1229 703.158 2.48659 710.684 -6.7862C722.33 -21.1258 729.9 -39.0075 738.19 -55.337C747.772 -73.859 757.703 -100.737 779.287 -108.338C796.543 -114.409 818.51 -108.174 835.506 -104.939C861.279 -99.9264 889.137 -93.0211 912.765 -81.4553C935.197 -70.476 975.502 -56.1266 982.932 -29.6716C995.597 15.5639 968.099 86.9503 910.958 74.5968C893.993 71.3533 872.004 65.1606 854.739 71.1978C833.149 78.766 823.218 105.644 813.635 124.166Z" fill="#F41F45"/>
<path d="M963.767 -24.5664C957.897 -46.3343 925.661 -58.4138 906.728 -65.3613C885.476 -73.1929 862.891 -81.4832 840.626 -85.8252C823.661 -89.0688 801.671 -95.2615 784.406 -89.2242C762.814 -81.6554 752.884 -54.7776 743.309 -36.2231C735.989 -21.6654 729.146 -6.8338 721.278 7.43331C717.298 14.6469 711.556 21.9295 709.417 29.9926C704.483 48.4114 718.523 65.8061 723.015 82.4362C728.512 101.959 741.341 118.602 758.822 128.888C783.585 143.172 796.682 126.227 808.512 105.053C818.095 86.5311 828.026 59.6543 849.608 52.0535C866.865 45.9828 888.831 52.2176 905.828 55.4526C951.278 64.0556 974.219 14.1429 963.767 -24.5664ZM804.014 90.9112C796.178 105.299 785.203 124.395 766.184 115.999C751.852 109.665 741.33 92.9798 737.379 78.6168C733.454 64.3542 725.368 51.2404 727.171 35.9127C729.488 15.9799 739.728 -4.23003 748.101 -22.1253C757.29 -40.7418 766.68 -67.3756 788.258 -74.8744C805.718 -80.9363 828.173 -74.7622 845.386 -71.7191C865.371 -68.2415 885.091 -60.7349 904.109 -53.8448C920.561 -47.878 944.129 -39.0506 949.454 -20.6957C958.86 11.8796 938.929 48.4578 901.306 41.3486C884.063 38.3135 861.64 32.135 844.178 38.1934C822.593 45.6593 813.194 72.2625 804.014 90.9112Z" fill="#F41F45"/>
<path d="M930.156 -15.7247C922.906 -40.0119 876.836 -50.7985 855.088 -53.835C836.649 -56.3132 811.858 -62.4285 793.409 -55.7702C772.666 -48.2937 765.4 -22.6353 757.8 -4.24049C747.428 23.732 749.369 45.8823 756.304 73.1408C758.255 80.7799 764.306 92.8266 773.479 93.8256C785.175 95.0898 790.973 81.3721 795.214 72.7509C802.815 54.357 810.09 28.7253 830.823 21.2212C849.266 14.5629 874.087 20.6662 892.502 23.1564C916.215 26.2695 937.701 9.66124 930.156 -15.7247ZM787.894 59.364C785.303 64.862 783.165 73.0574 776.125 73.8707C771.01 74.469 767.417 67.7081 766.59 63.4967C763.417 47.1521 759.738 26.9119 765.803 8.93005C771.955 -9.10702 777.322 -33.9552 797.246 -41.4812C816.599 -48.752 843.625 -42.6989 863.12 -40.6708C879.78 -39.063 907.577 -30.3631 912.786 -14.088C917.912 1.9012 900.072 11.6861 885.21 9.76221C865.714 7.73416 838.689 1.68099 819.336 8.95179C799.376 16.4875 794.014 41.3343 787.894 59.364Z" fill="#F41F45"/>
<path d="M885.441 -14.8163C884.399 -18.7022 878.17 -22.1361 872.233 -22.5959C851.685 -24.1691 822.629 -30.1499 802.348 -22.328C782.982 -14.8523 779.553 9.2071 774.919 27.0085C773.748 32.2595 773.762 37.7054 774.959 42.9505C776 46.8351 778.165 46.154 779.478 41.1341C784.122 23.3646 787.547 -0.72671 806.908 -8.20273C827.158 -16.0163 856.245 -10.0451 876.794 -8.46802C882.761 -8.01912 886.474 -10.9626 885.441 -14.8163Z" fill="#F41F45"/>
</g>
</svg>
