<svg id="instagram-line_1_" data-name="instagram-line (1)" xmlns="http://www.w3.org/2000/svg" width="45.148" height="45.149" viewBox="0 0 45.148 45.149">
  <path id="Path_2366" data-name="Path 2366" d="M0,0H45.148V45.149H0Z" fill="none"/>
  <path id="Path_2367" data-name="Path 2367" d="M20.812,15.168a5.644,5.644,0,1,0,5.643,5.644A5.644,5.644,0,0,0,20.812,15.168Zm0-3.762a9.406,9.406,0,1,1-9.406,9.406A9.406,9.406,0,0,1,20.812,11.406Zm12.228-.47a2.351,2.351,0,1,1-2.351-2.352A2.351,2.351,0,0,1,33.039,10.936ZM20.812,5.762c-4.654,0-5.414.013-7.579.109A10.219,10.219,0,0,0,9.85,6.5,5.43,5.43,0,0,0,7.818,7.819,5.437,5.437,0,0,0,6.494,9.85a10.206,10.206,0,0,0-.623,3.382c-.1,2.077-.109,2.8-.109,7.579,0,4.654.013,5.414.109,7.579a10.261,10.261,0,0,0,.623,3.381,5.849,5.849,0,0,0,3.352,3.354,10.241,10.241,0,0,0,3.386.626c2.077.1,2.8.109,7.579.109,4.654,0,5.414-.013,7.579-.109a10.28,10.28,0,0,0,3.38-.623A5.5,5.5,0,0,0,33.8,33.809a5.439,5.439,0,0,0,1.324-2.032,10.285,10.285,0,0,0,.625-3.386c.1-2.077.109-2.8.109-7.579,0-4.654-.013-5.414-.109-7.579a10.24,10.24,0,0,0-.625-3.382A5.476,5.476,0,0,0,33.8,7.819a5.425,5.425,0,0,0-2.032-1.324,10.215,10.215,0,0,0-3.382-.623C26.314,5.774,25.588,5.762,20.812,5.762Zm0-3.762c5.111,0,5.749.019,7.754.113a13.858,13.858,0,0,1,4.567.875,9.172,9.172,0,0,1,3.333,2.169A9.233,9.233,0,0,1,38.636,8.49a13.9,13.9,0,0,1,.875,4.568c.088,2.005.113,2.643.113,7.754s-.019,5.749-.113,7.754a13.908,13.908,0,0,1-.875,4.568,9.6,9.6,0,0,1-5.5,5.5,13.9,13.9,0,0,1-4.567.875c-2.005.088-2.643.113-7.754.113s-5.749-.019-7.754-.113a13.907,13.907,0,0,1-4.567-.875,9.6,9.6,0,0,1-5.5-5.5,13.849,13.849,0,0,1-.875-4.568C2.024,26.561,2,25.923,2,20.812s.019-5.749.113-7.754A13.849,13.849,0,0,1,2.988,8.49,9.18,9.18,0,0,1,5.157,5.157,9.212,9.212,0,0,1,8.49,2.988a13.848,13.848,0,0,1,4.567-.875C15.063,2.024,15.7,2,20.812,2Z" transform="translate(1.762 1.762)" fill="#858585"/>
</svg>
