<svg xmlns="http://www.w3.org/2000/svg" width="169.841" height="66.419" viewBox="0 0 169.841 66.419">
  <g id="Group_1495" data-name="Group 1495" transform="translate(-216 -361.838)">
    <path id="Path_2436" data-name="Path 2436" d="M238.488,394.269H228.53l3.958-13.854a35.9,35.9,0,0,0,1.112-5.132h.125a32.426,32.426,0,0,0,.989,5.132l3.774,13.854Zm5.242,14.842h-.012A1.7,1.7,0,0,1,242.1,407.9c0-.013-.008-.026-.011-.043l-2.24-7.834h-12.8l-2.351,7.857a1.7,1.7,0,0,1-1.636,1.234.278.278,0,0,1-.04,0H217.7a1.7,1.7,0,0,1-1.7-1.7,1.663,1.663,0,0,1,.076-.5c0-.014.011-.031.016-.048L228.809,367.8a1.7,1.7,0,0,1,1.64-1.235h7.3a1.7,1.7,0,0,1,1.621,1.176l12.675,39.113a1.661,1.661,0,0,1,.092.555,1.7,1.7,0,0,1-1.68,1.7H243.73Zm9.448-42.587a1.7,1.7,0,0,1,.974-1.54l5.408-2.822a2.3,2.3,0,0,1,1.111-.324,1.7,1.7,0,0,1,1.7,1.7c0,.036,0,35.564,0,35.564a3.981,3.981,0,0,0,4.017,3.8,1.7,1.7,0,0,1,1.695,1.7v2.763a1.7,1.7,0,0,1-1.695,1.7h-1.866a11.342,11.342,0,0,1-11.341-11.345V366.524Zm42.1,11.4a1.726,1.726,0,0,1,1,1.561v29.289c0,9.258-5.77,13.743-14.263,14.075A22.922,22.922,0,0,1,271.6,420.8a.121.121,0,0,1-.02-.007,1.724,1.724,0,0,1-.964-2.2l.915-2.347a1.726,1.726,0,0,1,1.642-1.2,1.778,1.778,0,0,1,.662.133s.01,0,.016.009a18.209,18.209,0,0,0,6.442,1.2c4.964,0,6.777-2.359,6.777-6.112v-1.814a12.284,12.284,0,0,1-5.688,1.024c-7.807,0-13.435-5.987-13.435-15.731,0-10.895,5.569-17.731,16.766-17.731A26.615,26.615,0,0,1,295.23,377.9a.168.168,0,0,1,.045.028Zm-8.206,25.39a6.557,6.557,0,0,1-3.281.785c-4.72,0-6.657-3.509-6.657-10.892,0-7.807,2-11.739,6.839-11.739a7.3,7.3,0,0,1,3.1.544v21.3Zm31.566,1.141,0-12.423c-5.362-.419-9.788,1.552-9.788,6.711,0,3.783,2.274,6.025,6.188,6.025a14.36,14.36,0,0,0,3.6-.313Zm9.223-11.012v12.638a1.731,1.731,0,0,1-1.045,1.554.231.231,0,0,1-.044.02,34.914,34.914,0,0,1-12.237,1.907c-9.85,0-15.039-3.559-15.039-10.277,0-8.333,6.876-12.193,19.125-11.575-.284-3.222-2.187-5.208-6.738-5.208a18.146,18.146,0,0,0-6.443,1.2c-.007,0-.012,0-.016.006a1.747,1.747,0,0,1-.663.132,1.724,1.724,0,0,1-1.641-1.2l-.915-2.341a1.65,1.65,0,0,1-.111-.6,1.731,1.731,0,0,1,1.074-1.6.038.038,0,0,0,.019-.007,22.951,22.951,0,0,1,10.409-2.047c8.492.332,14.264,4.816,14.264,14.074v3.33Zm4.6-13.247a3.021,3.021,0,0,1,2.145-2.8c3.145-1.08,7.264-1.619,13.421-1.444h.052a1.7,1.7,0,0,1,1.7,1.69v2.3a1.708,1.708,0,0,1-1.7,1.71,1.378,1.378,0,0,1-.2-.014,14.836,14.836,0,0,0-6.235.833v24.982a1.7,1.7,0,0,1-1.7,1.654h-5.779a1.7,1.7,0,0,1-1.7-1.7V380.2Z" fill="#005393" fill-rule="evenodd"/>
    <path id="Path_2437" data-name="Path 2437" d="M363.482,378.373a1.7,1.7,0,0,1,2.612-1.395s9.855,5.686,9.874,5.7l.013.007a1.707,1.707,0,0,1-.1,2.962l-9.872,5.7-.012,0a1.7,1.7,0,0,1-2.515-1.563V378.373Z" transform="translate(-6.895 -0.696)" fill="#0090df"/>
    <path id="Path_2438" data-name="Path 2438" d="M380.063,387.94a1.7,1.7,0,0,1,2.614-1.395l9.873,5.7.014.008a1.706,1.706,0,0,1-.1,2.962s-9.854,5.69-9.87,5.7l-.012.009a1.709,1.709,0,0,1-2.517-1.569V387.94Z" transform="translate(-7.67 -1.143)" fill="#ffbf00"/>
    <path id="Path_2439" data-name="Path 2439" d="M363.482,397.515a1.7,1.7,0,0,1,2.612-1.392l9.874,5.7.013.009a1.706,1.706,0,0,1-.1,2.961l-9.872,5.7-.012.007a1.706,1.706,0,0,1-2.515-1.567V397.515Z" transform="translate(-6.895 -1.59)" fill="#00862f"/>
    <path id="Path_2440" data-name="Path 2440" d="M332.568,419.32V417.2H324.68v2.118h2.354v11.243h3.2V419.32Zm6.252,5.048-3.689.541c-.1-2.155.687-3.223,1.944-3.223,1.118,0,1.745.817,1.745,2.682Zm2.846,1.123c.137-3.532-1.415-5.59-4.475-5.59-3.044,0-4.771,2.116-4.771,5.4,0,3.343,1.866,5.46,5.106,5.46a8.294,8.294,0,0,0,3.786-.76l-.687-1.883a6.175,6.175,0,0,1-2.747.562,2.31,2.31,0,0,1-2.552-2.29l6.34-.9Zm4.522-10.175h-3.062V430.56h3.062V415.316Zm7.862,9.052-3.691.541c-.1-2.155.689-3.223,1.943-3.223,1.121,0,1.748.817,1.748,2.682Zm2.844,1.123c.138-3.532-1.414-5.59-4.473-5.59-3.044,0-4.769,2.116-4.769,5.4,0,3.343,1.864,5.46,5.1,5.46a8.277,8.277,0,0,0,3.785-.76l-.685-1.883a6.177,6.177,0,0,1-2.748.562,2.31,2.31,0,0,1-2.551-2.29l6.339-.9Zm7.98,4.506-.65-1.825a1.821,1.821,0,0,1-1.275.428c-1.215,0-1.943-1.225-1.943-3.339,0-2.137.629-3.343,1.964-3.343a1.9,1.9,0,0,1,1.254.41l.629-1.67a3.979,3.979,0,0,0-2.591-.757c-2.354,0-4.335,1.862-4.335,5.4,0,3.516,1.845,5.458,4.354,5.458a3.671,3.671,0,0,0,2.593-.758Zm6.666-4.717c0,1.885-.275,3.417-1.628,3.417-1.337,0-1.631-1.533-1.631-3.417,0-1.864.275-3.494,1.631-3.494s1.628,1.63,1.628,3.494Zm3.043.039c0-3.127-1.611-5.418-4.693-5.418-3.041,0-4.651,2.292-4.651,5.418s1.61,5.437,4.673,5.437,4.671-2.312,4.671-5.437Zm16.338,5.243v-7.341c0-1.845-1.3-3.32-3.806-3.32a5.2,5.2,0,0,0-3.495,1.049,4.6,4.6,0,0,0-3.356-1.049,9.944,9.944,0,0,0-4.275.776v9.885h3.06V422a3.242,3.242,0,0,1,1.234-.194c1.059,0,1.649.543,1.649,1.377v7.38H385v-8.255a1.811,1.811,0,0,1,1.335-.5,1.35,1.35,0,0,1,1.529,1.417v7.341Z" transform="translate(-5.081 -2.5)" fill="#757474"/>
  </g>
</svg>
