<svg xmlns="http://www.w3.org/2000/svg" width="170" height="58.286" viewBox="0 0 170 58.286">
  <path id="path2" d="M557.649,1493.03a11.206,11.206,0,0,1-3,7.613,11.738,11.738,0,0,1-2.05,1.655c-1.069.7-1.846,1.184-1.409,2.346.427,1.138,1.749.782,3,.5.4-.1,8.267-2,8.367-2.009a4.019,4.019,0,0,1,4.66,3l.643,2.663a4.031,4.031,0,0,1-2.764,4.813c-.089.039-8.683,2.134-8.7,2.137-1.632.421-2.587,1.237-2.581,2.817a3.669,3.669,0,0,0,.913,2.1s9.371,11.588,9.418,11.678a4.033,4.033,0,0,1-.688,5.508l-2.121,1.732a4.009,4.009,0,0,1-5.521-.423c-.076-.065-5.9-7.2-6.513-7.959s-1.392-1.907-2.471-1.9-1.842,1.159-2.458,1.917-6.4,7.925-6.473,7.988a4.012,4.012,0,0,1-5.521.453c-.018-.016-2.121-1.721-2.127-1.723a4.039,4.039,0,0,1-.719-5.5c.045-.091,9.363-11.725,9.363-11.725a3.692,3.692,0,0,0,.9-2.11c-.006-1.58-.96-2.391-2.6-2.8-.015,0-8.618-2.056-8.706-2.093a4.035,4.035,0,0,1-2.79-4.8c0-.024.627-2.66.63-2.668a4.022,4.022,0,0,1,4.643-3.028c.1,0,7.972,1.875,8.377,1.971,1.255.278,2.582.631,3-.51.429-1.166-.348-1.648-1.42-2.339a11.679,11.679,0,0,1-2.059-1.645,11.2,11.2,0,0,1-3.037-7.6,10.9,10.9,0,0,1,21.8-.053Zm-144.4,36.029a3.927,3.927,0,0,1-3.261-2.058l-11.558-20.538a3.1,3.1,0,0,1,1.447-4.48l3.075-1.381a3.328,3.328,0,0,1,4.388,1.776l7.25,14.618h.108l7.26-14.618a3.328,3.328,0,0,1,4.388-1.776l3.075,1.381a3.106,3.106,0,0,1,1.446,4.48L419.305,1527a3.931,3.931,0,0,1-3.264,2.056h-2.793Zm50.787,0a3.929,3.929,0,0,1-3.262-2.058l-11.56-20.538a3.1,3.1,0,0,1,1.449-4.48l3.073-1.381a3.328,3.328,0,0,1,4.388,1.776L465.374,1517h.107l7.258-14.618a3.329,3.329,0,0,1,4.388-1.776l3.075,1.381a3.107,3.107,0,0,1,1.449,4.48L470.09,1527a3.926,3.926,0,0,1-3.264,2.056h-2.791Zm33.921-28.638a14.465,14.465,0,1,1-14.424,14.461,14.443,14.443,0,0,1,14.424-14.461Zm-52.27-8.233a5.655,5.655,0,1,1-5.654-5.667A5.66,5.66,0,0,1,445.684,1492.189Zm52.271,28.406a5.71,5.71,0,1,0-5.694-5.712A5.7,5.7,0,0,0,497.956,1520.595Zm-62.845-16.378a3.49,3.49,0,0,1,3.486-3.5h2.918a3.492,3.492,0,0,1,3.487,3.5v21.347a3.49,3.49,0,0,1-3.487,3.5H438.6a3.489,3.489,0,0,1-3.486-3.5v-21.344Z" transform="translate(-397.978 -1482.268)" fill="#609" fill-rule="evenodd"/>
</svg>
