<svg xmlns="http://www.w3.org/2000/svg" width="150.564" height="65.176" viewBox="0 0 150.564 65.176">
  <g id="Group_1387" data-name="Group 1387" transform="translate(-104.308 -351.433)">
    <g id="Group_1081" data-name="Group 1081" transform="translate(104.308 351.433)">
      <path id="Path_113" data-name="Path 113" d="M151.3,390.51a8.578,8.578,0,0,0-3.947-3.863l-.06-.034c-1.011-.547-2.159-1.167-2.155-2.593s1.146-2.024,2.155-2.551l.062-.034a8.344,8.344,0,0,0,3.946-3.84c2.042-6.854-1.689-14.565-6.3-19.171a24,24,0,0,0-16.853-6.991,24.091,24.091,0,0,0-23.844,23.844v17.488a24.091,24.091,0,0,0,23.842,23.844h0A23.994,23.994,0,0,0,145,409.618C149.617,405.007,153.349,397.312,151.3,390.51Zm-7.938,17.464a21.356,21.356,0,0,1-30.45-.135,21.112,21.112,0,0,1-6.281-15.076V375.277a21.112,21.112,0,0,1,6.283-15.076,21.684,21.684,0,0,1,15.237-6.444h0a21.661,21.661,0,0,1,15.211,6.311c4.162,4.162,7.508,11.068,5.6,17.116l-.015.03a12.145,12.145,0,0,1-4.047,4.291c-.953.7-1.74,1.368-1.742,2.516,0,1.317,1.039,2.052,2.046,2.762l.094.066a11.2,11.2,0,0,1,3.649,4.026l.013.032C150.876,396.915,147.528,403.808,143.363,407.974Z" transform="translate(-104.308 -351.433)" fill="#858585"/>
      <path id="Path_114" data-name="Path 114" d="M143.089,388.952a15.372,15.372,0,0,0-3.139-4.064c-.887-.866-1.992-1.943-1.992-3.519a4.5,4.5,0,0,1,1.635-3.143l.139-.141a16.85,16.85,0,0,0,3.357-4.265c1.494-4.924-1.306-10.6-4.746-14.037a18.3,18.3,0,0,0-12.844-5.332h-.006a18.3,18.3,0,0,0-12.849,5.475,17.792,17.792,0,0,0-5.319,12.7v17.488A18.342,18.342,0,0,0,125.5,408.286h.111a18.152,18.152,0,0,0,12.733-5.33C141.785,399.512,144.587,393.85,143.089,388.952ZM136.7,401.312a16.075,16.075,0,0,1-11.2,4.65l-.094,0a15.522,15.522,0,0,1-10.959-4.6,16.075,16.075,0,0,1-4.8-11.254V372.625a16.092,16.092,0,0,1,4.814-11.282,15.464,15.464,0,0,1,10.912-4.567h.126a16.044,16.044,0,0,1,11.2,4.65c4.348,4.349,4.953,9.171,4.148,11.976l-.009.026a15.982,15.982,0,0,1-1.933,2.867c-1.244,1.593-2.531,3.241-2.531,5.075s1.293,3.5,2.544,5.108a16.2,16.2,0,0,1,1.92,2.852l.009.026C141.654,392.151,141.051,396.961,136.7,401.312Z" transform="translate(-101.656 -348.781)" fill="#858585"/>
      <path id="Path_115" data-name="Path 115" d="M134.913,387.393a22.525,22.525,0,0,0-1.58-2.749c-1.191-1.869-2.422-3.8-2.422-5.928s1.232-4.056,2.424-5.928a22.384,22.384,0,0,0,1.582-2.754c.761-1.961.077-5.589-3.232-8.9a12.592,12.592,0,0,0-8.838-3.667,12.639,12.639,0,0,0-12.5,12.5V387.46a12.639,12.639,0,0,0,12.5,12.5h0a12.579,12.579,0,0,0,8.836-3.667C134,393.978,136,390.2,134.913,387.393Zm-4.87,7.263a10.356,10.356,0,0,1-7.141,2.984h-.054a10.4,10.4,0,0,1-7.28-3.145,9.84,9.84,0,0,1-2.9-7.036V369.972a9.874,9.874,0,0,1,2.929-7.087,10.283,10.283,0,0,1,7.248-3.093h0a10.134,10.134,0,0,1,7.2,2.985c2.813,2.8,3.109,5.657,2.51,7.256a26.078,26.078,0,0,1-1.43,2.775c-1.082,1.914-2.2,3.895-2.2,5.907s1.114,3.991,2.193,5.9a25.726,25.726,0,0,1,1.435,2.783C133.153,389,132.856,391.859,130.043,394.656Z" transform="translate(-99.004 -346.129)" fill="#858585"/>
      <path id="Path_116" data-name="Path 116" d="M126.731,384.849c-.261-.926-.622-1.884-.971-2.811a12.814,12.814,0,0,1,0-11.951c.349-.926.71-1.884.971-2.813a4.556,4.556,0,0,0-.945-3.97,7.587,7.587,0,0,0-5.591-2.816,6.9,6.9,0,0,0-6.831,6.831v17.488a6.9,6.9,0,0,0,6.829,6.833h0a7.586,7.586,0,0,0,5.588-2.816A4.559,4.559,0,0,0,126.731,384.849Zm-2.976,2.734a5,5,0,0,1-3.555,1.734h-.1a4.269,4.269,0,0,1-2.961-1.229,4.7,4.7,0,0,1-1.456-3.278v-17.49a4.711,4.711,0,0,1,1.464-3.3,4.224,4.224,0,0,1,3.049-1.214,4.906,4.906,0,0,1,3.549,1.719,3.468,3.468,0,0,1,.845,2.816c-.135.983-.319,1.975-.5,2.935a23.846,23.846,0,0,0,0,11.568c.178.96.363,1.952.5,2.935A3.456,3.456,0,0,1,123.755,387.582Z" transform="translate(-96.35 -343.475)" fill="#858585"/>
      <path id="Path_117" data-name="Path 117" d="M118.53,382.157c-.105-5.884-.105-11.607,0-17.492a1.168,1.168,0,0,0-.334-.844,1.053,1.053,0,0,0-.748-.316,1.118,1.118,0,0,0-1.067,1.161v17.488a1.118,1.118,0,0,0,1.067,1.161A1.045,1.045,0,0,0,118.2,383,1.168,1.168,0,0,0,118.53,382.157Z" transform="translate(-93.698 -340.823)" fill="#858585"/>
    </g>
    <path id="Path_118" data-name="Path 118" d="M143.724,386.988a9.774,9.774,0,0,1-4.78-1.142,8.035,8.035,0,0,1-3.237-3.273,10.377,10.377,0,0,1-1.161-5.039V362.175h3.983v9.4h.036a5.694,5.694,0,0,1,1.454-1.627,6.976,6.976,0,0,1,2.008-1.073,7.2,7.2,0,0,1,2.356-.381,8.628,8.628,0,0,1,4.449,1.125,7.957,7.957,0,0,1,3.014,3.134,9.722,9.722,0,0,1,1.092,4.71,11.158,11.158,0,0,1-.641,3.861,8.849,8.849,0,0,1-1.836,3.03,7.875,7.875,0,0,1-2.893,1.958A10.31,10.31,0,0,1,143.724,386.988Zm0-3.393a4.936,4.936,0,0,0,2.7-.746,5.037,5.037,0,0,0,1.836-2.059,6.721,6.721,0,0,0,.658-3.049,6.637,6.637,0,0,0-.658-3.012,5.208,5.208,0,0,0-1.819-2.078,4.766,4.766,0,0,0-2.683-.763,4.949,4.949,0,0,0-2.7.744,5.054,5.054,0,0,0-1.836,2.061,7.395,7.395,0,0,0,0,6.1,5.037,5.037,0,0,0,1.836,2.059A4.873,4.873,0,0,0,143.724,383.6Z" transform="translate(26.573 9.44)" fill="#858585"/>
    <path id="Path_119" data-name="Path 119" d="M155.2,384.032a9.4,9.4,0,0,1-4.815-1.229,9.272,9.272,0,0,1,0-16.036,10.113,10.113,0,0,1,9.663,0,9.27,9.27,0,0,1,0,16.036A9.463,9.463,0,0,1,155.2,384.032Zm0-3.393a5.059,5.059,0,0,0,4.744-2.892,7,7,0,0,0,0-5.924,5.059,5.059,0,0,0-4.744-2.891,5.062,5.062,0,0,0-2.824.78,5.367,5.367,0,0,0-1.869,2.095,6.861,6.861,0,0,0,0,5.941,5.351,5.351,0,0,0,1.869,2.112A5.061,5.061,0,0,0,155.2,380.639Z" transform="translate(36.471 12.396)" fill="#858585"/>
    <path id="Path_120" data-name="Path 120" d="M164.06,384.032a7.234,7.234,0,0,1-3.151-.674,5.141,5.141,0,0,1-2.251-2.078,6.954,6.954,0,0,1-.83-3.585V365.954h3.981v12.364a2.391,2.391,0,0,0,.314,1.229,2.1,2.1,0,0,0,.812.814,2.383,2.383,0,0,0,2.234,0,2.063,2.063,0,0,0,.832-.814,2.409,2.409,0,0,0,.312-1.229v-6.512a7,7,0,0,1,.78-3.446,5.045,5.045,0,0,1,2.181-2.112,7.623,7.623,0,0,1,6.426,0,5.19,5.19,0,0,1,2.181,2.112,6.9,6.9,0,0,1,.8,3.446v6.512a2.39,2.39,0,0,0,.312,1.229,2.058,2.058,0,0,0,.83.814,2.379,2.379,0,0,0,1.142.278,2.21,2.21,0,0,0,1.092-.278,2.132,2.132,0,0,0,.815-.814,2.407,2.407,0,0,0,.31-1.229V365.954h3.983v11.741a6.953,6.953,0,0,1-.83,3.585,5.151,5.151,0,0,1-2.251,2.078,7.544,7.544,0,0,1-6.236,0,5.36,5.36,0,0,1-2.287-2.078,6.753,6.753,0,0,1-.864-3.585v-6.442a2.464,2.464,0,0,0-.295-1.264,2.058,2.058,0,0,0-.8-.778,2.277,2.277,0,0,0-1.125-.278,2.239,2.239,0,0,0-1.073.278,2.152,2.152,0,0,0-.832.778,2.375,2.375,0,0,0-.31,1.264v6.442a6.842,6.842,0,0,1-.849,3.585,5.275,5.275,0,0,1-2.251,2.078A7.048,7.048,0,0,1,164.06,384.032Z" transform="translate(47.034 12.396)" fill="#858585"/>
    <path id="Path_121" data-name="Path 121" d="M185.389,383.617a11.425,11.425,0,0,1-5.212-1.125,8.313,8.313,0,0,1-4.727-7.707,10.084,10.084,0,0,1,1.108-4.813,8.277,8.277,0,0,1,3.047-3.254,8.435,8.435,0,0,1,4.468-1.178,8.319,8.319,0,0,1,4.674,1.212,7.269,7.269,0,0,1,2.721,3.256,11.42,11.42,0,0,1,.883,4.571c0,.231-.011.5-.036.8a3.755,3.755,0,0,1-.1.693H179.675a4.423,4.423,0,0,0,1.005,2.3,4.972,4.972,0,0,0,2.008,1.387,7.443,7.443,0,0,0,2.7.468h4.746v3.393Zm-5.749-10.251h8.729a7.4,7.4,0,0,0-.192-1.317,4.893,4.893,0,0,0-.483-1.248,3.814,3.814,0,0,0-.832-1.02,3.909,3.909,0,0,0-1.195-.693,4.527,4.527,0,0,0-1.593-.259,4.035,4.035,0,0,0-1.836.4,4.292,4.292,0,0,0-1.351,1.039,4.6,4.6,0,0,0-.847,1.454A7.675,7.675,0,0,0,179.64,373.366Z" transform="translate(62.52 12.396)" fill="#858585"/>
  </g>
</svg>
