<svg id="logo_pagarme" data-name="logo/pagarme" xmlns="http://www.w3.org/2000/svg" width="96.527" height="25.941" viewBox="0 0 96.527 25.941">
  <path id="hat" d="M1566.169,17.4h5.516c.009-.226.017-.453.017-.681A16.737,16.737,0,0,0,1555,0V5.51a11.206,11.206,0,0,1,11.189,11.208c0,.226-.008.455-.022.681Z" transform="translate(-1475.175 0)" fill="rgba(34,33,55,0.9)"/>
  <path id="pagarme" d="M-11291.473-6194.4a7.1,7.1,0,0,1-1.311-.427,8.475,8.475,0,0,1-.934-.5,4.313,4.313,0,0,1-.609-.437l-.181-.182,1.1-1.625.153.155a4.26,4.26,0,0,0,.425.334,5.331,5.331,0,0,0,.712.437,5.166,5.166,0,0,0,2.164.5,3.306,3.306,0,0,0,2.406-.74,2.9,2.9,0,0,0,.742-2.143v-.872c-.039.055-.08.108-.123.161a3.948,3.948,0,0,1-.386.376,3.768,3.768,0,0,1-.66.479,4.078,4.078,0,0,1-.975.362,5.034,5.034,0,0,1-1.314.161,5.151,5.151,0,0,1-3.666-1.34,5.011,5.011,0,0,1-1.431-3.84,5.1,5.1,0,0,1,1.462-3.788,4.9,4.9,0,0,1,3.595-1.451,4.93,4.93,0,0,1,1.969.375,3.449,3.449,0,0,1,1.2.742l.325.363v-1.32h2.2v9.222q0,5.179-5.242,5.179h-.021a7.046,7.046,0,0,1-1.592-.177Zm-.855-11.568a3.443,3.443,0,0,0-.841,2.409,3.355,3.355,0,0,0,.861,2.385,2.98,2.98,0,0,0,2.285.924,3.2,3.2,0,0,0,2.377-.9,3.276,3.276,0,0,0,.893-2.406,3.283,3.283,0,0,0-.912-2.407,3.2,3.2,0,0,0-2.378-.924,2.95,2.95,0,0,0-2.285.926Zm-26.641,11.525v-14.18h2.193v1.361c.028-.041.072-.1.132-.173a3.758,3.758,0,0,1,.407-.377,4.007,4.007,0,0,1,.691-.467,4.837,4.837,0,0,1,1.015-.374,5,5,0,0,1,1.328-.174,4.745,4.745,0,0,1,3.585,1.455,5.3,5.3,0,0,1,1.394,3.826,5.377,5.377,0,0,1-1.393,3.922,4.9,4.9,0,0,1-3.667,1.422,5.042,5.042,0,0,1-1.3-.162,3.8,3.8,0,0,1-1-.4,6.906,6.906,0,0,1-.67-.458,2.25,2.25,0,0,1-.406-.385l-.121-.163v5.322Zm3.028-11.538a3.473,3.473,0,0,0-.9,2.479,3.41,3.41,0,0,0,.895,2.5,3.216,3.216,0,0,0,2.414.916,2.86,2.86,0,0,0,2.254-.944,3.572,3.572,0,0,0,.833-2.448,3.592,3.592,0,0,0-.864-2.49,2.92,2.92,0,0,0-2.282-.965,3.076,3.076,0,0,0-2.354.959Zm77.3,7.844a5.955,5.955,0,0,1-4.3-1.453,5.265,5.265,0,0,1-1.515-3.991,5.23,5.23,0,0,1,1.546-3.91,5.339,5.339,0,0,1,3.9-1.514,5.175,5.175,0,0,1,4.011,1.584,6.211,6.211,0,0,1,1.454,4.364v.528h-7.681a.819.819,0,0,0,.031.206,2.265,2.265,0,0,0,.193.426,2.192,2.192,0,0,0,.416.549,2.254,2.254,0,0,0,.771.437,3.469,3.469,0,0,0,1.207.192,3.8,3.8,0,0,0,1.484-.294,3.528,3.528,0,0,0,1.035-.6l.3-.3,1.667,1.949c-.04.052-.1.121-.173.2a4.308,4.308,0,0,1-.527.438,5.958,5.958,0,0,1-.9.558,5.873,5.873,0,0,1-1.268.437,7.071,7.071,0,0,1-1.642.194Zm-1.343-8.126a1.714,1.714,0,0,0-.65.447,3.152,3.152,0,0,0-.365.527,1.3,1.3,0,0,0-.162.448l-.041.182h4.409c-.014-.051-.026-.121-.039-.193a2.324,2.324,0,0,0-.175-.426,2.186,2.186,0,0,0-.374-.549,2.09,2.09,0,0,0-.651-.426,2.319,2.319,0,0,0-.976-.191h-.05a2.432,2.432,0,0,0-.926.185Zm-24.95,7.588a1.813,1.813,0,0,1-.549-1.3,1.808,1.808,0,0,1,.549-1.3,1.858,1.858,0,0,1,1.34-.528,1.872,1.872,0,0,1,1.343.528,1.81,1.81,0,0,1,.547,1.3,1.813,1.813,0,0,1-.547,1.3,1.961,1.961,0,0,1-1.342.527,1.964,1.964,0,0,1-1.341-.526Zm-13.407.494a5.111,5.111,0,0,1-3.667-1.36,5.119,5.119,0,0,1-1.43-3.9,5.223,5.223,0,0,1,1.462-3.858,4.886,4.886,0,0,1,3.595-1.462,4.931,4.931,0,0,1,1.969.375,3.47,3.47,0,0,1,1.2.741l.326.367v-1.3h2.191v10.239h-2.194v-1.4c-.027.042-.066.1-.121.171a2.851,2.851,0,0,1-.386.378,4,4,0,0,1-.659.466,4.353,4.353,0,0,1-.977.375,4.755,4.755,0,0,1-1.272.174Zm-2.061-7.758a3.518,3.518,0,0,0-.845,2.457,3.52,3.52,0,0,0,.863,2.458,2.931,2.931,0,0,0,2.285.955,3.157,3.157,0,0,0,2.386-.914,3.436,3.436,0,0,0,.885-2.5,3.359,3.359,0,0,0-.916-2.457,3.169,3.169,0,0,0-2.374-.934,2.926,2.926,0,0,0-2.284.937Zm-21.783,7.758a5.1,5.1,0,0,1-3.665-1.36,5.128,5.128,0,0,1-1.432-3.9,5.21,5.21,0,0,1,1.461-3.858,4.891,4.891,0,0,1,3.595-1.462,4.939,4.939,0,0,1,1.971.375,3.475,3.475,0,0,1,1.2.741l.324.367v-1.3h2.194v10.239h-2.194v-1.4c-.039.059-.078.116-.12.171a2.909,2.909,0,0,1-.386.378,4,4,0,0,1-.66.466,4.385,4.385,0,0,1-.975.375,4.764,4.764,0,0,1-1.274.174Zm-2.062-7.758a3.522,3.522,0,0,0-.842,2.457,3.53,3.53,0,0,0,.863,2.458,2.928,2.928,0,0,0,2.283.956,3.165,3.165,0,0,0,2.387-.915,3.43,3.43,0,0,0,.883-2.5,3.358,3.358,0,0,0-.913-2.457,3.174,3.174,0,0,0-2.375-.934,2.925,2.925,0,0,0-2.286.937Zm55.96,7.6v-6.4q0-1.6-1.179-1.6-1.463,0-1.462,2.132v5.871h-3.088v-6.4q0-1.6-1.177-1.6-1.463,0-1.463,2.132v5.87h-3.087v-10.438h3.087v1.36c.027-.041.061-.093.1-.162a3.245,3.245,0,0,1,.294-.363,3.075,3.075,0,0,1,.518-.465,2.938,2.938,0,0,1,.77-.368,3.228,3.228,0,0,1,1.036-.161,3.325,3.325,0,0,1,1.035.153,2.441,2.441,0,0,1,.742.367,3.523,3.523,0,0,1,.458.416,1.831,1.831,0,0,1,.265.365l.061.142c.025-.041.063-.09.111-.153a4.041,4.041,0,0,1,.334-.344,3.5,3.5,0,0,1,.569-.447,3.172,3.172,0,0,1,.813-.345,3.6,3.6,0,0,1,1.056-.154q3.29,0,3.291,3.8v6.8Zm-22.679,0V-6208.6h2.194v1.849a1.092,1.092,0,0,1,.091-.223,5.024,5.024,0,0,1,.325-.507,3.187,3.187,0,0,1,.568-.628,3.09,3.09,0,0,1,.884-.479,2.917,2.917,0,0,1,1.219-.171l-.181,2.375a2.512,2.512,0,0,0-2.132.661,2.9,2.9,0,0,0-.771,2.143v5.24Z" transform="translate(11318.969 6220.167)" fill="rgba(34,33,55,0.9)"/>
</svg>
